<?xml version="1.0" encoding="UTF-8" standalone="no"?>
<!-- Created with Inkscape (http://www.inkscape.org/) -->

<svg
   xmlns:dc="http://purl.org/dc/elements/1.1/"
   xmlns:cc="http://creativecommons.org/ns#"
   xmlns:rdf="http://www.w3.org/1999/02/22-rdf-syntax-ns#"
   xmlns:svg="http://www.w3.org/2000/svg"
   xmlns="http://www.w3.org/2000/svg"
   xmlns:sodipodi="http://sodipodi.sourceforge.net/DTD/sodipodi-0.dtd"
   xmlns:inkscape="http://www.inkscape.org/namespaces/inkscape"
   width="210mm"
   height="148mm"
   viewBox="0 0 210 148"
   version="1.1"
   id="SVGRoot"
   inkscape:version="0.92.1 r"
   sodipodi:docname="gauss-cutoff.svg">
  <sodipodi:namedview
     id="base"
     pagecolor="#ffffff"
     bordercolor="#666666"
     borderopacity="1.0"
     inkscape:pageopacity="0.0"
     inkscape:pageshadow="2"
     inkscape:zoom="0.9899495"
     inkscape:cx="158.13891"
     inkscape:cy="160.55607"
     inkscape:document-units="mm"
     inkscape:current-layer="g224"
     showgrid="false"
     inkscape:window-width="1916"
     inkscape:window-height="1037"
     inkscape:window-x="2560"
     inkscape:window-y="41"
     inkscape:window-maximized="0" />
  <defs
     id="defs26" />
  <metadata
     id="metadata29">
    <rdf:RDF>
      <cc:Work
         rdf:about="">
        <dc:format>image/svg+xml</dc:format>
        <dc:type
           rdf:resource="http://purl.org/dc/dcmitype/StillImage" />
        <dc:title />
      </cc:Work>
    </rdf:RDF>
  </metadata>
  <g
     id="layer1"
     inkscape:groupmode="layer"
     inkscape:label="Layer 1">
    <g
       style="overflow:visible"
       id="g224"
       transform="matrix(0.26458333,0,0,0.26458333,65.212939,40.70936)">
      <g
         id="Layer_2"
         transform="translate(-21.28125,-15.84375)" />
      <path
         style="fill:none;fill-rule:evenodd;stroke:#000000;stroke-width:1px;stroke-linecap:butt;stroke-linejoin:miter;stroke-opacity:1"
         d="M 147.09733,-146.63495 V 392.65076"
         id="path370"
         inkscape:connector-curvature="0" />
      <line
         stroke-miterlimit="10"
         x1="13.4783"
         y1="369.91507"
         x2="280.42798"
         y2="369.91507"
         id="line2443-9-5"
         style="overflow:visible;fill:none;stroke:#000000;stroke-width:0.63888776;stroke-linecap:round;stroke-linejoin:round;stroke-miterlimit:10" />
      <path
         style="overflow:visible;fill:#b3b3b3;stroke:#000000;stroke-width:0.63888776;stroke-linecap:round;stroke-linejoin:round;stroke-miterlimit:10"
         id="path2445-1-5"
         d="m 13.582066,369.86507 c 6.02216,-0.035 12.04432,-0.102 18.06358,-0.319 5.75585,-0.209 11.53347,-0.546 17.25303,-1.54 6.05554,-1.053 12.00296,-2.8 17.70294,-5.979 5.67965,-3.169 10.70114,-7.974 15.34022,-13.591 4.50992,-5.46 8.455987,-12.17 11.927497,-18.996 3.57164,-7.024 6.883507,-14.309 9.955897,-21.806 3.16747,-7.728 6.19923,-15.562 9.20632,-23.42 2.94687,-7.70199 5.89881,-15.39499 8.96395,-23.00099 2.99548,-7.436 6.23332,-14.82 10.02339,-21.477 1.9636,-3.449 4.12676,-6.525 6.54898,-9.298 2.35618,-2.698 5.20145,-4.219 8.17879,-4.541 0,0 0.2859,144.02196 0.2859,143.91796"
         inkscape:connector-curvature="0"
         sodipodi:nodetypes="ccccccccccccc" />
      <line
         stroke-miterlimit="10"
         x1="46.944515"
         y1="375.62506"
         x2="46.944515"
         y2="369.81503"
         id="line2447-2-47"
         style="overflow:visible;fill:none;stroke:#000000;stroke-width:0.63888776;stroke-linejoin:round;stroke-miterlimit:10" />
      <line
         stroke-miterlimit="10"
         x1="80.307678"
         y1="375.62506"
         x2="80.307678"
         y2="369.81503"
         id="line2449-7-6"
         style="overflow:visible;fill:none;stroke:#000000;stroke-width:0.63888776;stroke-linejoin:round;stroke-miterlimit:10" />
      <line
         stroke-miterlimit="10"
         x1="113.67012"
         y1="375.62506"
         x2="113.67012"
         y2="369.81503"
         id="line2451-0-5"
         style="overflow:visible;fill:none;stroke:#000000;stroke-width:0.63888776;stroke-linejoin:round;stroke-miterlimit:10" />
      <line
         stroke-miterlimit="10"
         x1="147.03256"
         y1="375.62506"
         x2="147.03256"
         y2="369.81503"
         id="line2453-9-6"
         style="overflow:visible;fill:none;stroke:#000000;stroke-width:0.63888776;stroke-linejoin:round;stroke-miterlimit:10" />
      <line
         stroke-miterlimit="10"
         x1="180.395"
         y1="375.62506"
         x2="180.395"
         y2="369.81503"
         id="line2455-3-9"
         style="overflow:visible;fill:none;stroke:#000000;stroke-width:0.63888776;stroke-linejoin:round;stroke-miterlimit:10" />
      <line
         stroke-miterlimit="10"
         x1="213.75745"
         y1="375.62506"
         x2="213.75745"
         y2="369.81503"
         id="line2457-6-3"
         style="overflow:visible;fill:none;stroke:#000000;stroke-width:0.63888776;stroke-linejoin:round;stroke-miterlimit:10" />
      <line
         stroke-miterlimit="10"
         x1="247.11992"
         y1="375.62506"
         x2="247.11992"
         y2="369.81503"
         id="line2459-0-7"
         style="overflow:visible;fill:none;stroke:#000000;stroke-width:0.63888776;stroke-linejoin:round;stroke-miterlimit:10" />
      <line
         stroke-miterlimit="10"
         x1="-86.834801"
         y1="24.649998"
         x2="180.11494"
         y2="24.649998"
         id="line2443-9-5-6"
         style="overflow:visible;fill:none;stroke:#000000;stroke-width:0.63888776;stroke-linecap:round;stroke-linejoin:round;stroke-miterlimit:10" />
      <path
         style="overflow:visible;fill:#b3b3b3;stroke:#000000;stroke-width:0.63888776;stroke-linecap:round;stroke-linejoin:round;stroke-miterlimit:10"
         id="path2445-1-5-8"
         d="m -86.731028,24.599997 c 6.02216,-0.035 12.04432,-0.102 18.06358,-0.319 5.75585,-0.209 11.53347,-0.546 17.25303,-1.54 6.05554,-1.053 12.00296,-2.8 17.70294,-5.979 5.67965,-3.169 10.70114,-7.9739998 15.34022,-13.5909998 4.50992,-5.46 8.4559802,-12.17 11.9274902,-18.9960032 3.57164,-7.024 6.88350996,-14.309 9.9559,-21.806 3.16747,-7.728 6.19923,-15.562 9.2063198,-23.42 2.94687,-7.70199 5.89881,-15.39499 8.96395,-23.00099 2.99548,-7.436 6.23332,-14.82 10.02339,-21.477004 1.9636,-3.449 4.12676,-6.52499 6.54898,-9.29799 2.35618,-2.698 5.20145,-4.219 8.17879,-4.541 3.01943,-0.326 5.88574,1.804 8.32174,4.111 2.49188,2.36 4.56361,5.67799 6.48948,8.91199 3.96785,6.658004 7.16361,14.247004 10.28608,21.750004 3.02595,7.272 5.82261,14.744 8.6628,22.16799 2.99112,7.82 5.9808,15.642 9.13229,23.333 3.05789,7.463 6.26163,14.823 9.81876,21.817 3.647828,7.173003 7.640358,13.9170032 12.228628,19.8840032 4.50774,5.863 9.65985,10.4359998 15.24226,13.8479998 5.37271,3.285 14.42461,6.085153 20.20223,7.090153 l -0.011,1.004811 c 0,0 33.062,0.05004 33.36242,0.05204"
         inkscape:connector-curvature="0"
         sodipodi:nodetypes="ccccccccccccccccccccccc" />
      <line
         stroke-miterlimit="10"
         x1="-53.36858"
         y1="30.359989"
         x2="-53.36858"
         y2="24.549961"
         id="line2447-2-47-9"
         style="overflow:visible;fill:none;stroke:#000000;stroke-width:0.63888776;stroke-linejoin:round;stroke-miterlimit:10" />
      <line
         stroke-miterlimit="10"
         x1="-20.005421"
         y1="30.359989"
         x2="-20.005421"
         y2="24.549961"
         id="line2449-7-6-2"
         style="overflow:visible;fill:none;stroke:#000000;stroke-width:0.63888776;stroke-linejoin:round;stroke-miterlimit:10" />
      <line
         stroke-miterlimit="10"
         x1="13.357037"
         y1="30.359989"
         x2="13.357037"
         y2="24.549961"
         id="line2451-0-5-6"
         style="overflow:visible;fill:none;stroke:#000000;stroke-width:0.63888776;stroke-linejoin:round;stroke-miterlimit:10" />
      <line
         stroke-miterlimit="10"
         x1="46.719463"
         y1="30.359989"
         x2="46.719463"
         y2="24.549961"
         id="line2453-9-6-6"
         style="overflow:visible;fill:none;stroke:#000000;stroke-width:0.63888776;stroke-linejoin:round;stroke-miterlimit:10" />
      <line
         stroke-miterlimit="10"
         x1="80.081917"
         y1="30.359989"
         x2="80.081917"
         y2="24.549961"
         id="line2455-3-9-4"
         style="overflow:visible;fill:none;stroke:#000000;stroke-width:0.63888776;stroke-linejoin:round;stroke-miterlimit:10" />
      <line
         stroke-miterlimit="10"
         x1="113.44434"
         y1="30.359989"
         x2="113.44434"
         y2="24.549961"
         id="line2457-6-3-9"
         style="overflow:visible;fill:none;stroke:#000000;stroke-width:0.63888776;stroke-linejoin:round;stroke-miterlimit:10" />
      <line
         stroke-miterlimit="10"
         x1="146.80681"
         y1="30.359989"
         x2="146.80681"
         y2="24.549961"
         id="line2459-0-7-5"
         style="overflow:visible;fill:none;stroke:#000000;stroke-width:0.63888776;stroke-linejoin:round;stroke-miterlimit:10" />
      <line
         stroke-miterlimit="10"
         x1="-20.361801"
         y1="196.03639"
         x2="246.58797"
         y2="196.03639"
         id="line2443-9-5-6-0"
         style="overflow:visible;fill:none;stroke:#000000;stroke-width:0.63888776;stroke-linecap:round;stroke-linejoin:round;stroke-miterlimit:10" />
      <path
         style="overflow:visible;fill:#b3b3b3;stroke:#000000;stroke-width:0.63888776;stroke-linecap:round;stroke-linejoin:round;stroke-miterlimit:10"
         id="path2445-1-5-8-4"
         d="m -20.258032,195.98639 c 6.02216,-0.035 12.0443205,-0.102 18.0635805,-0.319 5.7558502,-0.209 11.5334702,-0.546 17.2530305,-1.54 6.055539,-1.053 12.002959,-2.8 17.702939,-5.979 5.67965,-3.169 10.70114,-7.974 15.34022,-13.591 4.50992,-5.46 8.45598,-12.17 11.92749,-18.996 3.57164,-7.02401 6.88351,-14.30901 9.9559,-21.80601 3.16747,-7.728 6.19923,-15.562 9.20632,-23.42 2.94687,-7.70198 5.89881,-15.394985 8.96395,-23.000985 2.99548,-7.436 6.23332,-14.82 10.02339,-21.477 1.963602,-3.449 4.126762,-6.525 6.548982,-9.298 2.35618,-2.698 5.20145,-4.219001 8.17879,-4.541001 3.01943,-0.326 5.88574,1.804001 8.32174,4.111001 2.49188,2.36 4.56361,5.678 6.48948,8.912 3.96785,6.658 7.16361,14.247 10.28608,21.75 3.02595,7.272 5.82261,14.744005 8.6628,22.167985 l -0.11174,86.97698 c 0.30042,0.001 99.78689,0.05 100.08731,0.052"
         inkscape:connector-curvature="0"
         sodipodi:nodetypes="cccccccccccccccccc" />
      <line
         stroke-miterlimit="10"
         x1="13.104416"
         y1="201.74638"
         x2="13.104416"
         y2="195.93636"
         id="line2447-2-47-9-8"
         style="overflow:visible;fill:none;stroke:#000000;stroke-width:0.63888776;stroke-linejoin:round;stroke-miterlimit:10" />
      <line
         stroke-miterlimit="10"
         x1="46.467575"
         y1="201.74638"
         x2="46.467575"
         y2="195.93636"
         id="line2449-7-6-2-7"
         style="overflow:visible;fill:none;stroke:#000000;stroke-width:0.63888776;stroke-linejoin:round;stroke-miterlimit:10" />
      <line
         stroke-miterlimit="10"
         x1="79.830032"
         y1="201.74638"
         x2="79.830032"
         y2="195.93636"
         id="line2451-0-5-6-1"
         style="overflow:visible;fill:none;stroke:#000000;stroke-width:0.63888776;stroke-linejoin:round;stroke-miterlimit:10" />
      <line
         stroke-miterlimit="10"
         x1="113.19246"
         y1="201.74638"
         x2="113.19246"
         y2="195.93636"
         id="line2453-9-6-6-7"
         style="overflow:visible;fill:none;stroke:#000000;stroke-width:0.63888776;stroke-linejoin:round;stroke-miterlimit:10" />
      <line
         stroke-miterlimit="10"
         x1="146.55492"
         y1="201.74638"
         x2="146.55492"
         y2="195.93636"
         id="line2455-3-9-4-2"
         style="overflow:visible;fill:none;stroke:#000000;stroke-width:0.63888776;stroke-linejoin:round;stroke-miterlimit:10" />
      <line
         stroke-miterlimit="10"
         x1="179.91734"
         y1="201.74638"
         x2="179.91734"
         y2="195.93636"
         id="line2457-6-3-9-7"
         style="overflow:visible;fill:none;stroke:#000000;stroke-width:0.63888776;stroke-linejoin:round;stroke-miterlimit:10" />
      <line
         stroke-miterlimit="10"
         x1="213.2798"
         y1="201.74638"
         x2="213.2798"
         y2="195.93636"
         id="line2459-0-7-5-2"
         style="overflow:visible;fill:none;stroke:#000000;stroke-width:0.63888776;stroke-linejoin:round;stroke-miterlimit:10" />
      <path
         style="opacity:1;fill:#000000;fill-opacity:1;stroke:none;stroke-width:0.01086326"
         id="path65"
         d="m 157.65378,-147.38591 c -0.0872,3.28175 -0.32167,6.55543 -0.36984,9.83895 0.0884,1.51933 -0.0405,3.17541 0.56621,4.62014 0.12811,0.30507 0.34035,0.7231 0.75319,0.61585 0.14777,-0.0384 0.25617,-0.16616 0.38426,-0.24925 1.08566,-0.95514 1.81758,-2.22604 2.59427,-3.42816 3.7e-4,-0.009 0.13216,-0.004 0.13179,0.005 v 0 c 0.035,0.20389 0.11193,0.40492 0.10501,0.61168 -0.0403,1.20412 -1.0262,2.55624 -1.88786,3.30488 -0.24245,0.21064 -0.5368,0.35277 -0.80519,0.52916 -0.30406,0.055 -0.6047,0.19552 -0.91217,0.16499 -0.68054,-0.0676 -1.13039,-0.54895 -1.4289,-1.11671 -0.78422,-1.49155 -0.73831,-3.28173 -0.83984,-4.90514 0.0102,-0.71889 0.003,-1.43823 0.0306,-2.15667 0.0998,-2.60537 0.41554,-5.20137 0.81113,-7.77644 -0.004,-0.0613 0.86321,-0.1199 0.86735,-0.0586 z"
         inkscape:connector-curvature="0" />
      <path
         style="opacity:1;fill:#000000;fill-opacity:1;stroke:none;stroke-width:0.01086326"
         id="path67"
         d="m 154.72306,-139.82598 c 1.62656,-0.81285 3.45303,-1.34252 5.2843,-1.33717 0.35621,0.001 0.71014,0.057 1.06521,0.0855 0.0174,2.1e-4 0.0144,0.2458 -0.003,0.24559 v 0 c -2.00299,0.71512 -4.07966,1.18751 -6.07185,1.93326 -0.0656,0.0194 -0.34029,-0.90776 -0.27473,-0.92719 z"
         inkscape:connector-curvature="0" />
      <path
         style="opacity:1;fill:#000000;fill-opacity:1;stroke:none;stroke-width:0.01086326"
         id="path69"
         d="m 164.93534,-140.3096 c 1.70211,-0.27302 3.39839,-0.65141 5.12914,-0.63992 0.44393,0.20722 0.28546,0.0874 0.51806,0.29455 0.002,6.3e-4 -0.007,0.0277 -0.009,0.0271 v 0 c -0.2617,0.12023 -0.0826,0.027 -0.49428,0.35019 -1.6664,0.60298 -3.43869,0.8625 -5.20452,0.94861 -0.0693,-0.004 -0.009,-0.98478 0.0607,-0.98049 z"
         inkscape:connector-curvature="0" />
      <path
         style="opacity:1;fill:#000000;fill-opacity:1;stroke:none;stroke-width:0.01086326"
         id="path71"
         d="m 165.14394,-137.24584 c 1.08799,-0.17886 2.16186,-0.47363 3.2597,-0.5927 0.47573,-0.0516 0.95567,-0.0515 1.43321,-0.0822 0.0106,-0.002 0.0351,0.14852 0.0245,0.15025 v 0 c -0.45931,0.30559 -0.87455,0.6076 -1.38821,0.82854 -1.0592,0.45559 -2.2342,0.61093 -3.37236,0.70177 -0.0711,-0.003 -0.028,-1.00873 0.0431,-1.00568 z"
         inkscape:connector-curvature="0" />
      <path
         style="opacity:1;fill:#000000;fill-opacity:1;stroke:none;stroke-width:0.01086326"
         id="path73"
         d="m 177.96209,-144.45148 c -0.9408,0.0499 -1.79096,0.47559 -2.33146,1.26978 -0.27481,0.40381 -0.44516,1.24903 -0.55252,1.64833 -0.006,0.3983 -0.0584,0.79858 -0.0182,1.19491 0.18679,1.84533 1.22455,3.64166 2.66906,4.79333 0.34928,0.27847 0.7584,0.47224 1.1376,0.70836 0.39979,0.11565 0.78645,0.29491 1.19936,0.34693 1.31854,0.16613 2.5229,-0.4014 3.46252,-1.28999 0.67017,-0.63377 1.04999,-1.46763 1.4975,-2.25295 0.16455,-0.49741 0.3817,-0.98041 0.49366,-1.49223 0.2893,-1.32254 0.23973,-2.84556 -0.55208,-4.00191 -0.6089,-0.88923 -1.02462,-0.94967 -1.95091,-1.41691 -1.36455,-0.36138 -2.80704,-0.35594 -4.18452,-0.0395 -0.44658,0.10258 -0.86965,0.28902 -1.30447,0.43354 -0.0229,0.005 -0.0974,-0.31928 -0.0745,-0.32455 v 0 c 0.44447,-0.2461 0.86766,-0.53533 1.33341,-0.73831 1.65353,-0.72061 3.06284,-0.79298 4.79465,-0.31012 1.18893,0.61597 1.65897,0.67645 2.45636,1.81474 0.96413,1.37635 1.11665,3.15777 0.79493,4.7634 -0.11758,0.58684 -0.36022,1.14152 -0.54033,1.71229 -0.29262,0.52196 -0.51808,1.08774 -0.87787,1.56588 -1.36817,1.8182 -3.46003,3.13526 -5.80818,2.74541 -0.50273,-0.0835 -0.971,-0.30979 -1.4565,-0.46468 -0.44343,-0.28313 -0.92121,-0.51855 -1.33028,-0.84938 -1.66414,-1.34585 -2.82,-3.4364 -2.98598,-5.57882 -0.0372,-0.48051 0.0392,-0.9631 0.0588,-1.44466 0.12405,-0.42403 0.18054,-0.87401 0.37215,-1.27211 0.74124,-1.54 2.19888,-2.60081 3.93148,-2.35094 0.0587,0.0165 -0.17495,0.8467 -0.23365,0.83018 z"
         inkscape:connector-curvature="0" />
      <path
         style="opacity:1;fill:#000000;fill-opacity:1;stroke:none;stroke-width:0.01086326"
         id="path231"
         d="m -180.17785,-60.829927 c -3.65288,-0.356598 -7.49855,-0.251255 -10.9929,1.000858 -0.81421,0.291751 -1.56721,0.732179 -2.35082,1.098268 -0.58506,0.503095 -1.26282,0.915171 -1.7552,1.509283 -0.35118,0.423748 -0.57645,0.953447 -0.72501,1.483377 -0.72816,2.597531 0.1202,4.979281 1.62055,7.129911 0.6007,0.86105 1.37865,1.58376 2.06797,2.37565 0.84704,0.64539 1.63269,1.38051 2.54112,1.93618 2.43393,1.48878 5.31134,2.29149 8.16808,1.9154 1.97846,-0.26047 2.31199,-0.65565 3.9371,-1.6006 0.40928,-0.41649 0.86813,-0.78948 1.22784,-1.24947 0.21874,-0.2797 0.3516,-0.61892 0.48924,-0.94624 0.62523,-1.48682 0.54711,-2.43918 0.52,-3.97408 -0.12656,-0.16891 -0.25313,-0.33783 -0.37969,-0.50674 -0.007,-0.008 0.10175,-0.11438 0.10929,-0.10666 v 0 c 0.18088,0.14762 0.36176,0.29523 0.54264,0.44285 0.26203,0.20302 0.5887,0.34277 0.78609,0.60907 0.81295,1.09675 0.6891,2.94719 0.16257,4.11715 -0.32765,0.72801 -0.76628,1.41102 -1.26903,2.03117 -0.45867,0.56578 -1.06095,0.99815 -1.59143,1.49723 -1.99392,1.07881 -2.41981,1.54079 -4.78967,1.8184 -3.28021,0.38426 -6.57397,-0.5246 -9.34591,-2.27795 -1.01159,-0.63986 -1.87754,-1.48519 -2.81631,-2.22779 -1.8528,-2.26887 -2.79565,-2.98903 -3.73244,-5.80412 -0.58208,-1.74918 -0.82258,-4.030945 -0.10886,-5.810228 0.966,-2.408239 2.00099,-2.836661 3.89114,-4.298706 0.88342,-0.380997 1.73527,-0.84574 2.65028,-1.142992 3.67387,-1.193501 7.86815,-1.213412 11.57197,-0.174011 0.0817,0.03031 -0.34696,1.185097 -0.42861,1.15479 z"
         inkscape:connector-curvature="0" />
      <path
         style="opacity:1;fill:#000000;fill-opacity:1;stroke:none;stroke-width:0.01086326"
         id="path233"
         d="m -169.58538,-58.431181 c -0.78631,2.411175 -1.04312,5.025151 -0.62693,7.537521 0.10375,0.62633 0.30258,1.23315 0.45387,1.84972 0.47215,1.07523 1.01347,2.74827 2.40063,3.01454 1.08778,0.20879 1.78957,-0.864 2.31369,-1.58599 0.30438,-0.52378 0.64969,-1.02583 0.91314,-1.57135 1.22353,-2.53355 1.8592,-5.559192 1.93298,-8.365053 -0.0582,-0.515929 -0.19251,-1.004511 1.21647,-0.03902 0.17957,0.123051 -0.002,0.435541 0.008,0.653013 0.0754,1.696913 0.38961,3.2723 0.77247,4.92489 0.45955,1.74098 1.13403,3.41164 1.77404,5.09083 0.0168,0.0212 -0.28344,0.25925 -0.30027,0.23802 v 0 c -0.47444,-0.3731 -1.02153,-0.66889 -1.42332,-1.11929 -1.01373,-1.13638 -1.28591,-2.24618 -1.81542,-3.63387 -0.41306,-1.81318 -0.8057,-3.572946 -0.64306,-5.448399 0.0343,-0.39604 -0.0904,-0.91611 0.21256,-1.173483 0.40444,-0.343578 1.03188,-0.403788 1.55742,-0.330152 0.21095,0.02956 0.17212,0.389695 0.25818,0.584543 0.0335,0.381817 0.1,0.762169 0.10046,1.145451 0.003,2.6812 -0.71295,5.66478 -1.90756,8.05781 -0.32016,0.64132 -0.74054,1.2275 -1.11081,1.84125 -1.10472,1.0597 -1.65929,1.97359 -3.20963,2.25514 -1.70504,0.30964 -3.10661,-0.82297 -3.94914,-2.17649 -0.34469,-0.55376 -0.55102,-1.18246 -0.82653,-1.77368 -0.17192,-0.69429 -0.40219,-1.37668 -0.51576,-2.08286 -0.44719,-2.7805 -0.10993,-5.744155 1.17638,-8.258319 0.0258,-0.08756 1.26414,0.277666 1.23832,0.365228 z"
         inkscape:connector-curvature="0" />
      <path
         style="opacity:1;fill:#000000;fill-opacity:1;stroke:none;stroke-width:0.01086326"
         id="path235"
         d="m -154.18302,-73.544116 c 0.25767,4.595236 1.16644,9.128956 1.94138,13.65779 0.34081,2.763711 1.09591,5.497779 1.26218,8.285586 0.0381,0.6384 -0.0294,1.27873 -0.0442,1.91809 0.01,0.0281 -0.38772,0.16654 -0.39751,0.13844 v 0 c -0.31488,-0.53932 -0.69968,-1.04349 -0.94463,-1.61795 -0.31429,-0.73709 -0.5119,-1.5196 -0.72284,-2.29263 -0.57328,-2.100871 -0.84148,-3.706096 -1.26014,-5.858116 -0.77067,-4.657739 -1.70102,-9.401591 -1.32351,-14.141059 -0.006,-0.105304 1.48285,-0.195455 1.48922,-0.09015 z"
         inkscape:connector-curvature="0" />
      <path
         style="opacity:1;fill:#000000;fill-opacity:1;stroke:none;stroke-width:0.01086326"
         id="path237"
         d="m -155.90015,-57.32018 c 2.44891,0.369199 4.88323,0.755124 7.2891,1.34776 0.0296,0.0036 -0.021,0.421687 -0.0506,0.41811 v 0 c -0.64064,0.149577 -1.26975,0.3623 -1.92191,0.448732 -1.99133,0.263914 -4.02304,-0.119449 -5.91531,-0.717811 -0.10584,-0.04233 0.49287,-1.539127 0.59871,-1.496791 z"
         inkscape:connector-curvature="0" />
      <path
         style="opacity:1;fill:#000000;fill-opacity:1;stroke:none;stroke-width:0.01086326"
         id="path239"
         d="m -140.23962,-57.171238 c -1.34905,1.986741 -2.92996,3.888088 -3.68617,6.208348 -0.15227,0.46721 -0.21571,0.95882 -0.32357,1.43823 0.0222,0.40086 -0.0356,0.8143 0.0665,1.20256 0.47032,1.78846 2.84826,1.66606 4.22486,1.37876 0.62497,-0.13044 1.22172,-0.37125 1.83258,-0.55688 0.60256,-0.30584 1.23546,-0.55809 1.80768,-0.91752 1.68587,-1.05893 3.39627,-2.83315 3.24907,-4.99831 -0.032,-0.470368 -0.23018,-0.914384 -0.34527,-1.371578 -1.31901,-2.572705 -3.82398,-3.903969 -6.34835,-5.047077 -0.14478,-0.0077 -0.28956,-0.01547 -0.43434,-0.0232 -0.009,0.0026 -0.0464,-0.125858 -0.0373,-0.128498 v 0 c 0.19706,-0.188427 0.39413,-0.376854 0.5912,-0.565282 0.36625,-0.07828 0.72429,-0.24092 1.09876,-0.234839 2.19013,0.03557 4.76179,1.933797 6.01323,3.604046 0.4056,0.541337 0.67598,1.171866 1.01397,1.757798 0.38941,1.673992 0.72165,2.168862 0.25753,3.897682 -0.61408,2.28742 -2.54952,4.03998 -4.54153,5.16658 -0.67775,0.38331 -1.42243,0.63388 -2.13365,0.95082 -1.70609,0.39354 -2.52982,0.75475 -4.28583,0.51446 -1.79365,-0.24544 -3.36665,-1.25494 -3.87256,-3.0693 -0.14855,-0.53273 -0.0907,-1.10239 -0.13597,-1.65358 0.11391,-0.58339 0.17055,-1.18096 0.34174,-1.75018 0.75166,-2.499299 2.42583,-4.657665 4.22635,-6.490577 0.0486,-0.100485 1.46969,0.587054 1.42108,0.687539 z"
         inkscape:connector-curvature="0" />
      <path
         style="opacity:1;fill:#000000;fill-opacity:1;stroke:none;stroke-width:0.01086326"
         id="path241"
         d="m -128.47705,-55.315101 c 2.53901,-1.329183 4.55035,-3.43347 6.07591,-5.839825 0.43659,-0.68867 0.78907,-1.427196 1.18361,-2.140795 0.2962,-0.747533 0.64528,-1.476218 0.88859,-2.242599 0.68407,-2.1547 1.1961,-5.123274 -0.32962,-7.078953 -0.23287,-0.298499 -0.5793,-0.487586 -0.86895,-0.731379 -0.31646,-0.07914 -0.62317,-0.237487 -0.94938,-0.237437 -1.10255,1.69e-4 -1.72225,0.884061 -2.09687,1.782049 -0.8603,2.062212 -0.62949,1.573618 -1.10962,3.980677 -0.70084,6.562362 0.0282,13.172447 0.52913,19.724333 0.17495,3.76469 0.12568,1.96769 0.16581,5.39047 0.0106,0.0374 -0.51871,0.18662 -0.52926,0.14919 v 0 c -1.14496,-3.17444 -0.61957,-1.47939 -1.52403,-5.10103 -0.18581,-1.09641 -0.40246,-2.18803 -0.55743,-3.28922 -0.79035,-5.616227 -1.05286,-11.364835 -0.27416,-16.994198 0.37295,-1.586045 0.60301,-3.232261 1.49701,-4.647256 1.0017,-1.585468 2.58657,-2.981102 4.59994,-2.629999 0.51048,0.08902 0.95966,0.3913 1.43949,0.586949 0.395,0.381125 0.86352,0.698477 1.18499,1.143374 1.70085,2.353873 1.29437,5.676787 0.50225,8.270542 -0.25302,0.828497 -0.62333,1.616526 -0.935,2.424789 -0.42172,0.768068 -0.7945,1.565111 -1.26516,2.304204 -1.77978,2.794866 -4.30661,5.254213 -7.45048,6.407821 -0.0871,0.0125 -0.26387,-1.219207 -0.17677,-1.231707 z"
         inkscape:connector-curvature="0" />
      <path
         style="opacity:1;fill:#000000;fill-opacity:1;stroke:none;stroke-width:0.01086326"
         id="path243"
         d="m -127.08383,-49.26004 c 3.23078,-1.53554 6.41581,-3.21485 9.30956,-5.33293 0.75986,-0.556184 1.47491,-1.171139 2.21237,-1.756708 0.6355,-0.633157 1.31509,-1.224942 1.9065,-1.89947 1.64495,-1.876154 3.01935,-4.517716 2.51101,-7.086832 -0.0974,-0.492187 -0.35205,-0.939676 -0.52807,-1.409514 -0.3004,-0.374399 -0.55667,-0.788966 -0.90121,-1.123198 -0.81555,-0.79116 -3.01807,-2.127098 -4.16369,-1.201958 -0.21171,0.17097 -0.2897,0.460754 -0.43455,0.69113 -0.0183,0.853147 -0.19709,1.694946 -0.22536,2.546691 -0.056,1.686982 0.11078,3.732167 0.22151,5.386889 0.40851,6.104866 0.0832,0.665662 0.44739,7.07725 0.2397,3.60547 0.0403,7.20139 -0.23547,10.79504 0.008,0.0528 -0.73906,0.16943 -0.7473,0.11658 v 0 c -0.52555,-3.48999 -1.00699,-6.98635 -1.21475,-10.51324 -0.24114,-3.38709 -0.54593,-6.790974 -0.55712,-10.189619 -0.004,-1.083446 0.0365,-3.645195 0.39993,-4.786352 0.22571,-0.708652 0.66712,-1.329464 1.00068,-1.994197 0.39847,-0.305198 0.7392,-0.706305 1.1954,-0.915594 1.95661,-0.897617 4.43286,0.451072 5.74234,1.860168 0.42784,0.460389 0.73246,1.02153 1.0987,1.532296 0.58366,1.675547 0.90173,2.04517 0.75116,3.895256 -0.30187,3.709471 -2.84942,6.558571 -5.47065,8.944428 -0.779,0.601938 -1.53206,1.239034 -2.337,1.805814 -2.97203,2.0927 -6.27745,3.76416 -9.72758,4.90089 -0.0949,0.0179 -0.34875,-1.32487 -0.2538,-1.34282 z"
         inkscape:connector-curvature="0" />
      <path
         style="opacity:1;fill:#000000;fill-opacity:1;stroke:none;stroke-width:0.01086326"
         id="path245"
         d="m -117.83939,-47.32 c 1.2213,-0.56334 2.56302,-0.77338 3.86797,-1.04925 0.0262,-0.006 0.10806,0.36412 0.0819,0.36991 v 0 c -1.15607,0.78169 -2.29416,1.62877 -3.60144,2.1477 -0.10383,0.0246 -0.45226,-1.44372 -0.34843,-1.46836 z"
         inkscape:connector-curvature="0" />
      <path
         style="opacity:1;fill:#000000;fill-opacity:1;stroke:none;stroke-width:0.01086326"
         id="path247"
         d="m -105.41952,-56.953479 c 4.66346,-0.233454 9.27801,-0.966466 13.87507,-1.747701 2.92898,-0.413158 1.59761,-0.09795 4.0164,-0.846027 0.0288,-0.0063 0.11857,0.400495 0.0898,0.406845 v 0 c -2.40886,1.340165 -1.08052,0.656333 -4.00929,2.003668 -0.94123,0.266096 -1.87087,0.577246 -2.82369,0.798287 -3.71073,0.860843 -7.6038,1.172237 -11.39702,0.83126 -0.10228,-0.01759 0.14646,-1.46392 0.24873,-1.446332 z"
         inkscape:connector-curvature="0" />
      <path
         style="opacity:1;fill:#000000;fill-opacity:1;stroke:none;stroke-width:0.01086326"
         id="path251"
         d="m -103.15704,-51.51627 c 3.97352,-0.60776 8.0043,-0.7992 12.02016,-0.79555 0.57218,0.0119 1.14437,0.0238 1.71655,0.0357 0.0289,-10e-4 0.0472,0.40804 0.0182,0.40933 v 0 c -0.58757,0.25014 -1.17513,0.50028 -1.76269,0.75042 -0.73562,0.17781 -1.46205,0.39919 -2.20685,0.53344 -3.23266,0.58268 -6.54704,0.47293 -9.81388,0.62645 -0.11029,-0.002 -0.0818,-1.56182 0.0285,-1.5598 z"
         inkscape:connector-curvature="0" />
      <path
         style="opacity:1;fill:#000000;fill-opacity:1;stroke:none;stroke-width:0.01086326"
         id="path253"
         d="m -83.71266,-62.031403 c -0.38259,-2.890486 1.33161,-5.38175 3.69322,-6.928771 0.66146,-0.433306 1.43001,-0.675437 2.14502,-1.013155 0.81212,-0.193359 1.60905,-0.468377 2.43636,-0.580077 2.59531,-0.350405 6.41343,-0.0093 7.73172,2.720598 0.27291,0.565139 0.26581,1.226702 0.39872,1.840053 -0.1534,0.673356 -0.20327,1.379032 -0.4602,2.020069 -1.14401,2.854303 -4.24913,5.493859 -6.82572,7.016206 -0.51888,0.306575 -1.07401,0.547197 -1.61101,0.820795 0.84721,-1.159531 -1.89938,1.185922 -1.81206,0.559796 0.0768,-0.550911 0.32351,-1.188206 0.80915,-1.459425 0.41347,-0.230911 0.9408,0.120643 1.40296,0.224011 1.8559,0.415097 2.25746,0.650252 4.11494,1.355193 2.92803,1.419307 7.64834,3.99551 7.40689,7.90244 -0.0412,0.6671 -0.36688,1.28542 -0.55032,1.92813 -0.44595,0.56851 -0.80258,1.22017 -1.33783,1.70553 -2.6666,2.41802 -6.36266,3.23396 -9.87443,3.06705 -0.80242,-0.0381 -1.59405,-0.20079 -2.39108,-0.30119 -1.49853,-0.39815 -5.11931,-1.35855 -4.51509,-3.69256 0.0937,-0.362 0.41173,-0.62431 0.6176,-0.93647 0.005,-0.0146 0.2109,0.0495 0.20636,0.0641 v 0 c -0.0979,0.23336 -0.29644,0.44701 -0.29385,0.70008 0.0117,1.13706 3.73438,1.81168 4.40365,1.91394 0.7238,0.0554 1.44555,0.15731 2.17141,0.16608 2.37336,0.0287 4.42766,-0.37582 6.61185,-1.28912 0.44285,-0.18517 0.89493,-0.36824 1.28841,-0.64316 0.43975,-0.30725 0.79148,-0.72435 1.18722,-1.08653 0.19589,-0.38693 0.499,-0.73626 0.58768,-1.16079 0.21788,-1.04302 -0.26924,-1.91562 -0.90452,-2.69518 -1.43178,-1.75698 -3.51795,-2.81728 -5.47996,-3.84228 -1.77171,-0.763989 -2.02257,-0.93182 -3.76793,-1.477802 -0.41538,-0.129939 -0.95935,-0.02386 -1.26139,-0.337223 -0.41199,-0.427419 -0.60515,-1.063458 -0.65862,-1.654696 -0.0505,-0.558712 2.15639,0.138988 1.50321,-0.756828 2.68681,-1.607625 5.547,-3.528974 7.154,-6.310073 0.24537,-0.424641 0.37294,-0.907203 0.55942,-1.360804 -0.0157,-0.382263 0.085,-0.787774 -0.0472,-1.146788 -0.33643,-0.913507 -1.29762,-1.396286 -2.14769,-1.654485 -2.04795,-0.62204 -4.17985,-0.314934 -6.18801,0.263201 -0.83076,0.384656 -2.18619,0.90523 -2.93601,1.572449 -1.20014,1.067936 -1.86707,2.512551 -1.9585,4.098783 0.0275,0.09958 -1.38084,0.488487 -1.40834,0.388903 z"
         inkscape:connector-curvature="0" />
      <path
         style="opacity:1;fill:#000000;fill-opacity:1;stroke:none;stroke-width:0.01086326"
         id="path255"
         d="m -40.84724,-64.239449 c 1.45082,0.900495 2.9705,1.737034 4.25663,2.870424 1.18954,1.411821 -0.57114,1.982409 -1.66795,2.332485 -2.33695,0.668738 -4.49313,0.104054 -6.70757,-0.698583 -1.93802,-0.691048 -3.61356,-2.111087 -5.64308,-2.565276 -0.25247,-0.0565 -0.51424,-0.05732 -0.77136,-0.08598 -0.22228,0.03772 -0.45337,0.04066 -0.66685,0.113176 -1.14729,0.389716 -1.95575,1.922067 -2.52398,2.880501 -0.75594,1.46243 -1.39952,3.082023 -1.27536,4.764443 0.0216,0.293232 0.0978,0.579864 0.14675,0.869793 0.10991,0.26929 0.18831,0.5537 0.32972,0.80786 1.01769,1.82921 3.01857,2.46811 4.90066,2.97124 1.70542,0.27064 5.00312,0.57361 6.17723,-1.05959 0.10292,-0.19527 0.24154,-0.37557 0.30875,-0.58582 0.45607,-1.42675 -0.50145,-3.001721 -1.24388,-4.125986 -1.37181,-1.746999 -2.87528,-2.223791 -4.9365,-2.707189 -0.2953,0.05823 -0.5906,0.11647 -0.8859,0.174705 -0.0155,0.0021 -0.0456,-0.216725 -0.0301,-0.218857 v 0 c 0.31215,-0.138056 0.6243,-0.276112 0.93644,-0.414169 0.36818,-0.133043 0.71879,-0.332324 1.10452,-0.399128 2.10162,-0.363977 3.94757,1.106814 5.18686,2.606237 0.22445,0.351893 0.47556,0.688138 0.67335,1.055678 0.69559,1.2926 1.18282,2.976989 0.75605,4.438049 -0.10277,0.35181 -0.31011,0.66419 -0.46517,0.99629 -0.37446,0.35298 -0.70927,0.75345 -1.12338,1.05893 -1.96734,1.45126 -4.82899,1.2254 -7.07497,0.8225 -0.51486,-0.15537 -1.04219,-0.27419 -1.54457,-0.4661 -2.14724,-0.82023 -3.92673,-2.2927 -4.64823,-4.51894 -0.0647,-0.36859 -0.16039,-0.733075 -0.19418,-1.105778 -0.17431,-1.922822 0.47073,-3.79696 1.32736,-5.484242 0.95091,-1.644541 2.13987,-3.506344 4.1404,-3.946903 0.32307,-0.07115 0.65927,-0.05566 0.98891,-0.08349 0.33805,0.04537 0.68141,0.06118 1.01416,0.136115 2.05657,0.463108 3.78556,1.801435 5.71257,2.586466 1.89508,0.737755 3.8494,1.302891 5.89561,0.878529 0.18578,-0.04369 0.37336,-0.08033 0.55734,-0.131073 0.13677,-0.03772 0.26223,-0.127703 0.40397,-0.13403 0.0387,-0.0017 -0.017,0.08003 -0.003,0.116133 0.0272,0.07031 0.0709,0.135003 0.12191,0.190545 0.0238,0.02595 0.1098,0.07795 0.0952,0.0459 -0.0354,-0.07763 -0.10927,-0.131075 -0.16391,-0.196613 -1.322,-1.047181 -2.82678,-1.848574 -4.10099,-2.960771 -0.0585,-0.04502 0.57815,-0.872499 0.63666,-0.82748 z"
         inkscape:connector-curvature="0" />
      <path
         style="opacity:1;fill:#000000;fill-opacity:1;stroke:none;stroke-width:0.01086326"
         id="path259"
         d="m -160.05552,120.12004 c -2.97562,-0.8449 -6.23955,-0.72916 -9.1582,0.32598 -0.74741,0.2702 -1.43824,0.67677 -2.15736,1.01515 -0.57868,0.47434 -1.23056,0.87132 -1.73603,1.42301 -0.37035,0.40421 -0.64112,0.90016 -0.85501,1.40493 -0.94865,2.23871 -0.86135,4.59292 0.0436,6.8395 0.31405,0.77967 0.80879,1.47374 1.21318,2.21061 1.66951,1.95693 3.1043,3.17112 5.77979,3.36929 2.30295,0.17058 4.42154,-0.76442 6.50542,-1.57726 0.574,-0.43968 1.14801,-0.87937 1.72202,-1.31905 0.0329,-0.0167 0.2689,0.44801 0.23604,0.46471 v 0 c -0.56905,0.54101 -1.1381,1.08203 -1.70715,1.62304 -0.70583,0.54089 -1.33773,1.1952 -2.11748,1.62267 -2.40359,1.31769 -5.38647,1.52452 -7.9275,0.4749 -2.28154,-0.94244 -2.69859,-1.78385 -4.33162,-3.54887 -0.46519,-0.86939 -1.04063,-1.68824 -1.39557,-2.60816 -0.98409,-2.55052 -1.22201,-5.82978 0.0961,-8.33051 1.19747,-2.27179 2.09825,-2.625 4.02159,-4.03309 0.82594,-0.34524 1.62249,-0.77161 2.47784,-1.03572 3.23377,-0.99848 6.87678,-0.902 9.94698,0.54429 0.0802,0.0464 -0.57645,1.18102 -0.65668,1.13458 z"
         inkscape:connector-curvature="0" />
      <path
         style="opacity:1;fill:#000000;fill-opacity:1;stroke:none;stroke-width:0.01086326"
         id="path267"
         d="m -152.1654,123.10515 c -0.95195,3.21321 -0.83728,6.76433 0.30836,9.92346 0.27082,0.74681 0.67626,1.43771 1.01439,2.15656 1.00389,1.40729 2.2888,2.97117 4.26316,2.60901 1.17044,-0.21469 2.14517,-1.10135 2.86112,-1.97415 0.37522,-0.45742 0.62361,-1.00558 0.93541,-1.50838 0.3417,-0.74045 0.73843,-1.45791 1.02508,-2.22136 0.86317,-2.29898 1.441,-5.28899 0.88108,-7.73666 -0.0553,-0.24189 -0.18773,-0.45941 -0.2816,-0.68911 -0.4464,0.0221 0.38105,0.41871 0.39412,0.61083 0.0242,0.35509 -0.0908,0.70743 -0.0975,1.06327 -0.0253,1.33541 0.0979,1.86116 0.27316,3.22688 0.26666,1.88026 0.86783,3.68012 1.37904,5.49991 0.14971,0.53293 0.19687,1.09991 0.41892,1.60698 0.17531,0.40035 0.50292,0.71493 0.75438,1.07239 0.0139,0.0169 -0.22493,0.2131 -0.2388,0.19621 v 0 c -0.30257,-0.343 -0.60189,-0.6889 -0.90772,-1.029 -0.3882,-0.43169 -0.84351,-0.80916 -1.17429,-1.28628 -1.15258,-1.66245 -1.63268,-3.70159 -2.05917,-5.63826 -0.16874,-1.47352 -0.96821,-7.06813 1.97873,-6.65956 0.3046,0.0422 0.50708,0.34806 0.76062,0.52209 0.17875,0.33631 0.4121,0.64887 0.53623,1.00893 0.92262,2.67613 0.3437,6.14367 -0.60599,8.71759 -0.32075,0.86932 -0.77535,1.68322 -1.16302,2.52483 -1.32937,1.70047 -1.96156,2.97303 -3.91726,3.9339 -2.15169,1.05716 -4.47117,0.61887 -6.23,-0.95477 -0.61765,-0.55261 -1.05341,-1.27977 -1.58012,-1.91965 -0.38897,-0.81264 -0.85871,-1.59135 -1.16692,-2.43793 -1.11869,-3.07277 -1.30653,-6.62088 -0.34886,-9.75849 0.135,-0.44232 0.35729,-0.85313 0.53594,-1.2797 0.0297,-0.10263 1.48124,0.31782 1.45151,0.42046 z"
         inkscape:connector-curvature="0" />
      <path
         style="opacity:1;fill:#000000;fill-opacity:1;stroke:none;stroke-width:0.01086326"
         id="path269"
         d="m -131.57523,113.60455 c 1.0761,4.60212 1.67733,9.30096 2.02496,14.00946 0.19126,1.67519 -0.0816,3.32682 -0.11591,4.99716 0.004,0.0167 -0.23285,0.0704 -0.23665,0.0537 v 0 c -0.40968,-1.56289 -1.03746,-3.05382 -1.25619,-4.6681 -0.8598,-4.61896 -1.50597,-9.27551 -1.97093,-13.95108 -0.0312,-0.10993 1.52353,-0.55106 1.55472,-0.44112 z"
         inkscape:connector-curvature="0" />
      <path
         style="opacity:1;fill:#000000;fill-opacity:1;stroke:none;stroke-width:0.01086326"
         id="path271"
         d="m -133.55571,126.31785 c 2.68216,-0.81533 5.46991,-1.18521 8.19581,-1.82345 0.0309,-0.004 0.094,0.43224 0.0631,0.4367 v 0 c -2.62943,1.13347 -5.26921,2.28328 -8.07376,2.91836 -0.1083,0.0131 -0.29344,-1.51852 -0.18514,-1.53161 z"
         inkscape:connector-curvature="0" />
      <path
         style="opacity:1;fill:#000000;fill-opacity:1;stroke:none;stroke-width:0.01086326"
         id="path273"
         d="m -122.44262,123.35358 c -0.5296,2.08288 -1.16991,4.24421 -0.89482,6.42012 0.0542,0.42853 0.19758,0.84098 0.29637,1.26147 0.18075,0.32733 0.3064,0.69182 0.54224,0.98198 1.03527,1.27375 2.92196,1.10948 4.27535,0.53022 0.43355,-0.18556 0.8187,-0.46833 1.22805,-0.7025 0.33742,-0.32393 0.71658,-0.60935 1.01225,-0.97179 0.60838,-0.7458 0.93114,-2.14123 0.7361,-3.07341 -0.2098,-1.00277 -0.56637,-1.22616 -1.20768,-1.98312 -0.96653,-0.85229 -2.12884,-1.36936 -3.32339,-1.81161 -0.59077,-0.21871 -1.26833,-0.31023 -1.74424,-0.74239 0.0145,-0.012 0.0291,-0.024 0.0436,-0.036 9e-4,0.003 -0.0362,0.0153 -0.037,0.0127 v 0 c -0.0126,-0.12185 -0.0253,-0.24369 -0.0379,-0.36554 0.14879,-0.12838 0.26423,-0.31137 0.44637,-0.38515 1.3545,-0.5487 3.64741,0.42481 4.7516,1.13826 0.46419,0.29992 0.86777,0.6846 1.30165,1.0269 0.86681,1.12773 1.3069,1.42789 1.59133,2.86936 0.38106,1.93126 -0.38072,3.58076 -1.66982,4.98527 -0.39704,0.43259 -0.90925,0.74321 -1.36388,1.11482 -1.34768,0.63407 -1.77619,0.99382 -3.29435,1.08589 -1.62277,0.0984 -3.20303,-0.46069 -4.22471,-1.76371 -0.31294,-0.39911 -0.48981,-0.88824 -0.73471,-1.33236 -0.1295,-0.5185 -0.31357,-1.02635 -0.38849,-1.55549 -0.33862,-2.39139 0.32229,-4.86551 1.37112,-6.99595 0.0207,-0.0937 1.34562,0.19836 1.32497,0.29205 z"
         inkscape:connector-curvature="0" />
      <path
         style="opacity:1;fill:#000000;fill-opacity:1;stroke:none;stroke-width:0.01086326"
         id="path275"
         d="m -108.38209,123.8521 c 2.1751,-1.24294 4.18599,-2.81721 5.73128,-4.80448 0.42031,-0.54053 0.79543,-1.11473 1.19315,-1.6721 1.02007,-1.83138 2.08688,-4.07028 1.19893,-6.18739 -0.39466,-0.94096 -0.82937,-1.17025 -1.56711,-1.81067 -1.0186,-0.59254 -2.6674,-1.19672 -3.34636,0.22347 -0.0985,0.20594 -0.0673,0.45165 -0.1085,0.67616 -0.0968,0.5269 -0.2038,1.05189 -0.3057,1.57784 -0.0375,0.71485 -0.10222,1.4288 -0.11247,2.14456 -0.0436,3.0437 0.20789,6.09418 0.32337,9.13337 0.12564,3.30696 0.11828,4.0549 0.16952,7.37807 0.0614,3.10117 -0.0933,6.19954 -0.21014,9.29718 0.009,0.0404 -0.56247,0.16708 -0.57142,0.12667 v 0 c -0.21826,-0.82158 -0.48086,-1.63264 -0.65476,-2.46473 -0.55922,-2.6759 -0.57134,-3.83261 -0.81414,-6.61278 -0.1764,-3.5945 -0.34853,-7.18989 -0.43402,-10.78804 -0.0372,-1.56385 -0.0857,-4.32898 0.006,-5.93848 0.0457,-0.80378 0.16256,-1.60194 0.24384,-2.40291 0.44179,-1.74372 0.37871,-2.40095 1.68786,-3.78751 1.04752,-1.10946 2.68785,-1.11366 3.99832,-0.57878 0.4695,0.19163 0.87959,0.5049 1.31938,0.75735 0.99393,0.98402 1.44166,1.20991 1.93189,2.58322 0.89408,2.50464 -0.14416,5.07099 -1.33656,7.25795 -0.4218,0.6024 -0.80011,1.23772 -1.26541,1.8072 -1.82142,2.22921 -4.13982,4.13815 -6.84837,5.16225 -0.0762,0.0161 -0.30459,-1.06127 -0.22841,-1.07742 z"
         inkscape:connector-curvature="0" />
      <path
         style="opacity:1;fill:#000000;fill-opacity:1;stroke:none;stroke-width:0.01086326"
         id="path277"
         d="m -107.73916,132.46574 c 3.49858,-3.02324 7.15469,-5.86572 10.50356,-9.06071 0.70423,-0.67187 1.36897,-1.38394 2.05346,-2.07592 1.59734,-1.8356 3.44081,-3.72444 4.14541,-6.13752 0.19942,-0.68294 0.26559,-1.4721 -0.17888,-2.08325 -0.13148,-0.18079 -0.36529,-0.25779 -0.54794,-0.38668 -0.91098,-0.22609 -2.06677,-0.1472 -2.57562,0.78958 -0.0648,0.11925 -0.0168,0.27152 -0.0409,0.40507 -0.0671,0.37169 -0.1549,0.73934 -0.23235,1.10901 -0.0248,0.53297 -0.0705,1.06537 -0.0743,1.5989 -0.0184,2.54555 0.20243,5.08676 0.1793,7.63383 -0.0281,3.09494 -0.11679,3.49063 -0.36814,6.59512 -0.14399,1.0505 -0.28798,2.10101 -0.43197,3.15152 0.005,0.0505 -0.70872,0.12372 -0.7139,0.0732 v 0 c -0.0862,-1.02241 -0.17235,-2.04483 -0.25852,-3.06725 -0.15462,-3.14348 -0.27222,-6.28416 -0.3345,-9.43097 -0.0243,-1.22777 -0.0737,-3.54117 -0.0114,-4.82631 0.03,-0.61773 0.11248,-1.23178 0.16873,-1.84767 0.12319,-0.50031 0.15738,-1.0314 0.36959,-1.50093 0.76444,-1.69145 2.38452,-2.82868 4.28447,-2.41877 0.42059,0.0907 0.80016,0.31662 1.20023,0.47493 0.31348,0.32076 0.70901,0.5781 0.94044,0.96229 1.92572,3.19675 -1.90207,7.71853 -3.74298,9.94625 -0.9497,0.95927 -1.87077,1.94776 -2.84911,2.8778 -3.35041,3.18504 -7.07864,5.96351 -10.90142,8.54953 -0.0941,0.0412 -0.67744,-1.28984 -0.58332,-1.33109 z"
         inkscape:connector-curvature="0" />
      <path
         style="opacity:1;fill:#000000;fill-opacity:1;stroke:none;stroke-width:0.01086326"
         id="path279"
         d="m -98.05713,132.47506 c 1.35945,-0.73957 2.7515,-1.47913 4.23013,-1.95731 0.61066,-0.19748 1.24527,-0.31128 1.86791,-0.46692 0.031,-0.009 0.15705,0.42931 0.12606,0.43822 v 0 c -0.54424,0.45639 -1.0557,0.955 -1.63273,1.36917 -1.27851,0.91767 -2.74193,1.5533 -4.17381,2.18275 -0.11072,0.0295 -0.52828,-1.53638 -0.41756,-1.56591 z"
         inkscape:connector-curvature="0" />
      <path
         style="opacity:1;fill:#000000;fill-opacity:1;stroke:none;stroke-width:0.01086326"
         id="path281"
         d="m -82.87636,123.75609 c 1.46325,-0.1333 2.93276,-0.38255 4.40681,-0.36051 2.3843,0.19421 1.22239,0.15551 3.48509,0.13373 0.0273,2.5e-4 0.0237,0.38664 -0.004,0.38639 v 0 c -0.55636,0.14881 -1.11569,0.28693 -1.66907,0.44644 -0.62987,0.18155 -1.24064,0.4325 -1.88012,0.57658 -1.45625,0.32809 -2.9783,0.36152 -4.46309,0.37518 -0.11015,-0.009 0.0138,-1.56658 0.12399,-1.55781 z"
         inkscape:connector-curvature="0" />
      <path
         style="opacity:1;fill:#000000;fill-opacity:1;stroke:none;stroke-width:0.01086326"
         id="path283"
         d="m -80.81486,126.93337 c 1.00458,0.58649 2.14298,0.8816 3.19689,1.35542 0.49901,0.22435 0.946,0.56644 1.46441,0.74134 0.50392,0.17001 1.04684,0.18833 1.57027,0.28249 0.0262,0.005 -0.0479,0.37603 -0.0741,0.37079 v 0 c -0.56522,0.001 -1.13056,-0.007 -1.69568,0.004 -0.61621,0.012 -1.23423,0.12342 -1.84782,0.0654 -1.34907,-0.12754 -2.62953,-0.73513 -3.71914,-1.50335 -0.0931,-0.0781 1.01211,-1.39404 1.10515,-1.3159 z"
         inkscape:connector-curvature="0" />
      <path
         style="opacity:1;fill:#000000;fill-opacity:1;stroke:none;stroke-width:0.01086326"
         id="path285"
         d="m -64.46221,121.75979 c 3.22118,-2.62896 6.16743,-5.57445 9.06161,-8.55332 1.64372,-1.70401 3.27062,-3.4265 4.82628,-5.21191 0.245,-0.28118 0.47831,-0.57236 0.71985,-0.85654 0.075,-0.0882 0.12118,-0.30106 0.22962,-0.26053 0.48071,0.17969 0.86411,0.55391 1.29617,0.83087 -1.8015,4.07654 -2.6636,8.47173 -3.41846,12.83822 -0.82024,4.84304 -0.78845,9.76559 -1.26511,14.64039 -0.10399,0.38034 -0.20798,0.76069 -0.31197,1.14103 0.004,0.0172 -0.23955,0.0704 -0.24331,0.0532 v 0 c -0.18051,-0.33524 -0.36102,-0.67048 -0.54153,-1.00572 -0.1083,-0.52073 -0.2456,-1.03627 -0.3249,-1.5622 -0.66496,-4.4103 -0.20476,-8.92101 0.34163,-13.31284 0.81409,-4.60936 1.73625,-9.38902 4.28235,-13.40216 0.5594,0.0966 1.16622,0.0445 1.67819,0.28973 0.13951,0.0668 -0.10457,0.29324 -0.18369,0.42616 -0.19942,0.33502 -0.41842,0.65868 -0.64912,0.97297 -1.41888,1.93297 -3.04166,3.70854 -4.69841,5.43716 -3.20448,3.19392 -6.44607,6.52442 -10.40445,8.78839 -0.0886,0.0279 -0.48335,-1.22497 -0.39475,-1.25288 z"
         inkscape:connector-curvature="0" />
      <path
         style="opacity:1;fill:#000000;fill-opacity:1;stroke:none;stroke-width:0.01086326"
         id="path293"
         d="m -26.43039,119.25986 c -1.17913,2.0444 -3.41273,2.6543 -5.64427,2.42245 -0.46099,-0.0479 -0.91168,-0.16758 -1.36751,-0.25138 -0.97328,-0.0455 -2.56036,-1.17259 -3.50436,-1.12952 -0.26904,0.0123 -0.29209,0.2292 -0.372,0.41586 0.0281,0.0418 0.0936,0.0759 0.0842,0.12542 -0.0441,0.23218 -0.15678,0.44592 -0.23517,0.66888 -0.069,0.28969 -0.15232,0.57632 -0.20685,0.86906 -0.18876,1.01339 -0.20588,1.99084 -0.15569,3.01534 0.23887,1.88595 1.16603,3.57557 2.49342,4.92561 0.30326,0.30842 0.64529,0.57616 0.96793,0.86424 1.22172,0.87368 2.69284,1.64286 4.24029,1.19135 0.8164,-0.23821 1.00928,-0.52652 1.63297,-1.06904 0.79812,-1.21062 1.25502,-2.62806 0.77433,-4.05796 -0.0814,-0.24206 -0.22203,-0.45995 -0.33304,-0.68993 -0.16016,-0.16659 -0.29729,-0.35891 -0.48049,-0.49976 -1.23384,-0.94863 -3.12677,-0.8039 -4.58096,-0.80916 -0.86768,0.0392 -1.71727,-0.0439 -2.58255,0.0171 -0.0114,0.002 -0.0368,-0.16014 -0.0254,-0.16193 v 0 c 0.85135,-0.53935 1.66715,-1.1008 2.69406,-1.25477 0.41374,-0.0607 0.82402,-0.15372 1.24122,-0.18225 1.54982,-0.10599 3.30218,0.17522 4.51546,1.22346 0.27897,0.24103 0.48763,0.55307 0.73145,0.82961 0.16171,0.33108 0.36301,0.6456 0.48513,0.99324 0.53849,1.53297 0.38573,3.49038 -0.53381,4.8588 -0.33605,0.50011 -0.789,0.91084 -1.18351,1.36626 -0.99212,0.66992 -1.2359,0.97858 -2.44332,1.21712 -1.99334,0.39381 -3.83611,-0.46273 -5.39567,-1.62183 -0.36755,-0.33779 -0.75739,-0.65285 -1.10265,-1.01339 -1.53821,-1.60628 -2.56976,-3.61779 -2.87241,-5.823 -0.0895,-1.52835 -0.0292,-3.00268 0.43336,-4.47721 0.0974,-0.31052 0.18288,-0.63121 0.34532,-0.91321 0.21826,-0.37887 0.52386,-0.70021 0.78579,-1.05032 0.24578,-0.14041 0.46931,-0.33023 0.73734,-0.42124 1.35684,-0.4607 3.01277,0.7025 4.32876,0.90998 1.8304,0.34226 3.66864,0.51126 5.13569,-0.85006 0.0256,-0.0985 1.41851,0.26373 1.3929,0.36222 z"
         inkscape:connector-curvature="0" />
      <path
         style="opacity:1;fill:#000000;fill-opacity:1;stroke:none;stroke-width:0.01086326"
         id="path297"
         d="m -142.03626,299.26442 c -2.6604,-0.3897 -5.49694,-0.4132 -8.04334,0.57891 -0.58386,0.22747 -1.11474,0.57262 -1.67211,0.85894 -0.40379,0.38376 -0.87897,0.70426 -1.21136,1.15128 -0.20134,0.27078 -0.28557,0.6185 -0.35077,0.94957 -0.22411,1.13791 -0.19355,1.87658 0.37221,2.9356 0.78108,1.46206 1.49797,1.79751 2.78787,2.81995 0.6959,0.34936 1.36264,0.76416 2.0877,1.04808 2.63957,1.03361 5.98326,1.3074 8.74346,0.58554 0.52552,-0.13743 1.01273,-0.3932 1.5191,-0.5898 0.0274,-0.009 0.15864,0.37834 0.13123,0.38762 v 0 c -1.44115,1.15973 -1.7217,1.61213 -3.63332,2.12911 -2.56529,0.69377 -5.41394,0.34036 -7.84466,-0.66201 -0.83618,-0.34483 -1.5917,-0.85961 -2.38755,-1.28942 -1.55944,-1.36038 -2.40008,-1.79309 -3.28687,-3.7081 -1.09993,-2.37529 -0.7253,-4.39247 0.9525,-6.36592 0.45239,-0.53211 1.08334,-0.88179 1.62501,-1.32268 0.66599,-0.30249 1.30534,-0.67228 1.99797,-0.90746 2.81527,-0.95589 5.97483,-0.87028 8.76908,0.0786 0.0935,0.0393 -0.46265,1.36156 -0.55615,1.32224 z"
         inkscape:connector-curvature="0" />
      <path
         style="opacity:1;fill:#000000;fill-opacity:1;stroke:none;stroke-width:0.01086326"
         id="path299"
         d="m -132.16712,300.38049 c 0.0195,1.63271 0.0338,3.27328 0.2579,4.89437 0.11729,0.84839 0.34239,2.1864 0.79433,2.98446 0.13451,0.23753 0.38354,0.38853 0.57532,0.5828 0.88475,-0.12293 1.22004,-0.88021 1.62364,-1.58831 0.30077,-0.52768 0.6167,-1.04848 0.87615,-1.59765 0.6917,-1.46411 0.82473,-2.09229 1.2883,-3.61407 0.10016,-0.48484 0.21145,-0.96752 0.30049,-1.45453 0.11565,-0.6325 0.0718,-2.11236 1.63111,-0.59013 0.27772,0.27112 0.0156,0.77642 0.0433,1.16355 0.0412,0.57513 0.10885,1.14806 0.16327,1.72209 0.27496,1.89744 0.62141,3.81887 1.44519,5.56886 0.25911,0.55045 0.80943,1.52854 1.42023,1.87044 0.23138,0.12952 0.51967,0.10586 0.77951,0.15878 0.0169,6.1e-4 0.008,0.23961 -0.009,0.239 v 0 c -0.42725,0.12671 -0.83715,0.41056 -1.28176,0.38014 -1.07897,-0.0738 -1.95761,-1.0378 -2.48567,-1.84788 -1.16534,-1.78773 -1.51237,-3.95656 -1.76938,-6.02376 -7.7e-4,-0.0207 -0.18392,-2.9951 0.0425,-3.28237 0.65516,-0.83141 1.71473,-1.42268 1.86771,-0.37018 0.11703,0.80517 -0.12137,1.9456 -0.2235,2.67753 -0.54782,2.0148 -1.12075,4.1445 -2.4127,5.84324 -0.74188,0.97548 -1.79729,2.16615 -3.15661,2.2993 -0.47575,0.0466 -0.93078,-0.21843 -1.39616,-0.32764 -0.32737,-0.33832 -0.72752,-0.61895 -0.98211,-1.01494 -1.41329,-2.19834 -1.26161,-6.10026 -1.01304,-8.61591 -0.004,-0.1146 1.61657,-0.17178 1.62062,-0.0572 z"
         inkscape:connector-curvature="0" />
      <path
         style="opacity:1;fill:#000000;fill-opacity:1;stroke:none;stroke-width:0.01086326"
         id="path301"
         d="m -117.60682,289.82881 c 1.55405,2.55488 2.6961,5.35324 3.52596,8.22249 0.23426,0.80994 0.41823,1.63358 0.62735,2.45037 0.43135,2.15025 0.78777,4.34639 0.75508,6.54851 -0.0125,0.84325 -0.13777,1.56361 -0.25773,2.37875 0.003,0.0137 -0.19123,0.0582 -0.19437,0.0444 v 0 c -1.11534,-2.66077 -1.52497,-5.51778 -2.18341,-8.31257 -0.93277,-3.60886 -2.05271,-7.15228 -3.54035,-10.57545 -0.0535,-0.0896 1.21397,-0.84617 1.26747,-0.75655 z"
         inkscape:connector-curvature="0" />
      <path
         style="opacity:1;fill:#000000;fill-opacity:1;stroke:none;stroke-width:0.01086326"
         id="path303"
         d="m -117.94311,301.37033 c 1.26563,0.0304 2.53363,0.12413 3.79249,0.25801 0.55328,0.0588 1.09991,0.20356 1.65629,0.20711 0.55244,0.004 1.09792,-0.12403 1.64688,-0.18604 0.0274,2.6e-4 0.0237,0.38755 -0.004,0.38729 v 0 c -2.27126,0.37487 -1.12694,0.14528 -3.43154,0.6958 -1.29902,0.22189 -2.64135,0.22248 -3.94943,0.10375 -0.10366,-0.0204 0.18531,-1.48635 0.28896,-1.46592 z"
         inkscape:connector-curvature="0" />
      <path
         style="opacity:1;fill:#000000;fill-opacity:1;stroke:none;stroke-width:0.01086326"
         id="path305"
         d="m -106.9754,299.47308 c -0.15393,3.03201 -0.6134,6.03544 -0.61881,9.07418 0.0719,0.43969 0.0449,1.27785 0.55106,1.59383 0.3187,0.19896 1.20437,-0.16957 1.36357,-0.23868 1.31064,-0.56899 1.48311,-0.8064 2.70727,-1.6927 0.4906,-0.45702 1.00862,-0.88627 1.47182,-1.37104 1.2487,-1.30687 2.8706,-3.54238 2.81936,-5.44618 -0.008,-0.30676 -0.15925,-0.59271 -0.23888,-0.88907 -0.19868,-0.19303 -0.36289,-0.42952 -0.59606,-0.5791 -1.48632,-0.95351 -4.11062,-0.77429 -5.81449,-0.70304 -0.84028,-0.0199 -0.4871,0.0808 -1.08457,-0.19424 -0.006,0.003 -0.0436,-0.0882 -0.0372,-0.0908 v 0 c 0.44132,-0.94843 0.0985,-0.54343 1.11503,-1.13606 0.39551,-0.10122 0.78318,-0.24062 1.18654,-0.30366 1.93836,-0.30298 4.40683,-0.10747 5.97662,1.20985 0.38829,0.32585 0.64413,0.78287 0.96619,1.1743 0.13322,0.48564 0.35923,0.95496 0.39965,1.45691 0.22748,2.82525 -1.89079,5.46183 -3.75738,7.29433 -0.52797,0.51833 -1.13555,0.94879 -1.70333,1.42319 -1.24395,0.75426 -1.993,1.36905 -3.43091,1.66158 -1.4754,0.30016 -2.83951,-0.1157 -3.46053,-1.57206 -0.17849,-0.41857 -0.20465,-0.88678 -0.30697,-1.33016 -0.0205,-0.53625 -0.0694,-1.07217 -0.0614,-1.60875 0.0383,-2.59046 0.5069,-5.17705 0.98419,-7.71417 -0.001,-0.11096 1.56799,-0.1294 1.56929,-0.0184 z"
         inkscape:connector-curvature="0" />
      <path
         style="opacity:1;fill:#000000;fill-opacity:1;stroke:none;stroke-width:0.01086326"
         id="path307"
         d="m -94.65174,300.09932 c 1.63658,-1.9684 3.05018,-4.13366 3.99212,-6.52437 0.22831,-0.57948 0.39381,-1.1818 0.59071,-1.77269 0.22365,-0.93608 0.94449,-4.61692 -0.94144,-4.63038 -0.19343,-10e-4 -0.375,0.0951 -0.5625,0.14272 -0.58315,0.39969 -0.77576,0.44768 -1.16757,1.10831 -0.11058,0.18645 -0.14608,0.40828 -0.2126,0.6146 -0.13803,0.4281 -0.30937,0.84807 -0.40098,1.28844 -0.28569,1.37324 -0.22351,2.30193 -0.24584,3.72722 0.2926,5.75408 0.77863,11.50031 1.34406,17.23394 0.21526,1.56215 0.39107,3.12823 0.66841,4.68072 0.007,0.0128 -0.17416,0.11788 -0.18158,0.10504 v 0 c -0.22373,-0.24042 -0.49186,-0.44613 -0.6712,-0.72126 -0.81901,-1.25651 -0.97801,-2.15968 -1.44937,-3.62959 -0.2023,-0.90003 -0.43879,-1.79304 -0.60689,-2.70008 -0.90029,-4.85795 -1.1041,-9.83311 -1.23563,-14.75936 0.13864,-2.8367 0.25718,-6.66565 3.15678,-8.23883 0.36252,-0.19668 0.78346,-0.25811 1.17519,-0.38717 0.39431,0.0316 0.80552,-0.0237 1.18295,0.0948 2.63603,0.8273 2.13509,4.28869 1.6579,6.29096 -0.21168,0.63413 -0.38885,1.28084 -0.63504,1.90239 -1.07736,2.72 -2.71965,5.22818 -4.90738,7.17754 -0.0709,0.0389 -0.62102,-0.96404 -0.5501,-1.00294 z"
         inkscape:connector-curvature="0" />
      <path
         style="opacity:1;fill:#000000;fill-opacity:1;stroke:none;stroke-width:0.01086326"
         id="path309"
         d="m -94.75451,308.56693 c 3.17782,-3.5413 6.93821,-6.48955 10.44707,-9.68749 1.327,-1.43898 4.20815,-3.97469 3.13266,-6.25211 -0.11679,-0.24731 -0.32896,-0.43705 -0.49344,-0.65558 -0.45815,-0.41161 -1.76853,-1.22045 -2.21233,-0.29137 -0.0403,0.0844 0.0721,0.18168 0.0589,0.27424 -0.0501,0.35034 -0.16379,0.68858 -0.24569,1.03287 -0.0305,0.55068 -0.0875,1.10054 -0.0915,1.65205 -0.0194,2.7063 0.28198,5.42115 0.45614,8.11815 0.24023,3.71993 0.1825,2.84582 0.30455,6.53739 0.002,3.69749 0.0392,1.93692 -0.0895,5.2821 0.008,0.037 -0.51514,0.15277 -0.52332,0.11577 v 0 c -0.84652,-3.1634 -0.45324,-1.48142 -1.14203,-5.05463 -0.41335,-3.20955 -0.7696,-6.41039 -0.93644,-9.64414 -0.0741,-1.43653 -0.14876,-3.75843 -0.0666,-5.24439 0.0361,-0.65268 0.14105,-1.29972 0.21157,-1.94958 0.42156,-1.40702 0.32152,-1.84204 1.59756,-2.81221 0.91989,-0.69939 2.29854,-0.39682 3.17753,0.16911 0.34278,0.22069 0.61575,0.53446 0.92362,0.8017 0.61745,1.00495 0.94064,1.25775 1.00195,2.50874 0.14449,2.94844 -2.27271,5.22946 -4.11483,7.16162 -3.26497,3.00063 -6.70601,5.797 -10.09342,8.65678 -0.0508,0.0921 -1.35339,-0.62692 -1.30255,-0.71902 z"
         inkscape:connector-curvature="0" />
      <path
         style="opacity:1;fill:#000000;fill-opacity:1;stroke:none;stroke-width:0.01086326"
         id="path311"
         d="m -85.76535,308.78299 c 0.93428,-0.81557 1.9699,-1.63498 3.16032,-2.04744 0.52668,-0.18248 1.09066,-0.23074 1.63599,-0.34611 0.0261,-0.008 0.14199,0.36082 0.1159,0.36902 v 0 c -0.42906,0.43207 -0.82959,0.89449 -1.28717,1.29622 -0.89264,0.78369 -1.96062,1.3538 -2.87901,2.10541 -0.0974,0.0528 -0.84341,-1.32435 -0.74603,-1.3771 z"
         inkscape:connector-curvature="0" />
      <path
         style="opacity:1;fill:#000000;fill-opacity:1;stroke:none;stroke-width:0.01086326"
         id="path323"
         d="m -69.36382,300.07519 c 2.72399,-0.0513 5.51935,-0.22348 8.21227,0.31257 0.40947,0.0815 0.80295,0.22918 1.20442,0.34377 0.2384,0.0942 0.4768,0.1885 0.7152,0.28276 0.0122,0.002 -0.015,0.17398 -0.0272,0.17205 v 0 c -0.2646,0.0757 -0.5292,0.15138 -0.7938,0.22707 -0.43191,0.0866 -0.85872,0.20443 -1.29574,0.25966 -2.71756,0.3435 -5.48733,0.0554 -8.20715,-0.0782 -0.10746,-0.0136 0.0845,-1.53324 0.19198,-1.51967 z"
         inkscape:connector-curvature="0" />
      <path
         style="opacity:1;fill:#000000;fill-opacity:1;stroke:none;stroke-width:0.01086326"
         id="path325"
         d="m -67.74495,302.95526 c 2.39018,0.23444 4.77525,0.48434 7.13248,0.94996 0.0224,0.002 7.8e-4,0.31892 -0.0217,0.31739 v 0 c -0.4785,0.14953 -0.94403,0.34962 -1.43548,0.44857 -2.02234,0.40721 -4.11591,0.11708 -6.09896,-0.34001 -0.0973,-0.03 0.32633,-1.40587 0.42362,-1.37591 z"
         inkscape:connector-curvature="0" />
      <path
         style="opacity:1;fill:#000000;fill-opacity:1;stroke:none;stroke-width:0.01086326"
         id="path337"
         d="m -39.79011,296.01328 c -2.64531,2.05299 -5.1197,4.65347 -6.05236,7.97051 -0.19474,0.6926 -0.21016,1.42347 -0.31524,2.13521 0.097,0.63867 0.0865,1.30323 0.29094,1.916 0.61549,1.8446 2.26141,2.94997 4.12141,3.27099 1.95843,0.338 2.78263,-0.0244 4.7265,-0.41091 0.8397,-0.36988 1.72166,-0.65577 2.51911,-1.10963 3.2413,-1.84474 5.78623,-4.89442 6.84916,-8.4916 0.23237,-0.78638 0.262,-1.61892 0.393,-2.42839 -0.10101,-0.6859 -0.0714,-1.40425 -0.30302,-2.05771 -0.71716,-2.02312 -2.682,-2.7994 -4.6788,-2.81395 -2.14399,-0.0156 -3.27676,0.51403 -5.32342,1.13988 -0.92622,0.37846 -1.85245,0.75692 -2.77867,1.13538 -0.0494,0.0155 -0.26837,-0.68347 -0.21895,-0.69895 v 0 c 0.91988,-0.65658 1.83975,-1.31315 2.75963,-1.96973 2.44312,-0.93308 3.4439,-1.61061 6.10235,-1.50626 2.73658,0.10741 5.21569,1.50419 6.2596,4.12054 0.33129,0.83034 0.35019,1.75336 0.52529,2.63003 -0.11872,0.97483 -0.11161,1.97339 -0.35615,2.92448 -1.14537,4.45462 -4.68843,8.34553 -8.77821,10.3362 -0.9426,0.45881 -1.97185,0.71261 -2.95777,1.06892 -2.36795,0.29075 -3.28699,0.63875 -5.62058,0.036 -2.41979,-0.62508 -4.43134,-2.24657 -5.21396,-4.66904 -0.24948,-0.7722 -0.23968,-1.60521 -0.35952,-2.40782 0.11705,-0.85077 0.12923,-1.7227 0.35116,-2.55231 1.05797,-3.95497 4.13317,-7.12979 7.64533,-9.0415 0.10421,-0.0292 0.51738,1.4445 0.41317,1.47371 z"
         inkscape:connector-curvature="0" />
    </g>
  </g>
</svg>
