<?xml version="1.0" encoding="UTF-8" standalone="no"?>
<!-- Created with Inkscape (http://www.inkscape.org/) -->

<svg
   xmlns:dc="http://purl.org/dc/elements/1.1/"
   xmlns:cc="http://creativecommons.org/ns#"
   xmlns:rdf="http://www.w3.org/1999/02/22-rdf-syntax-ns#"
   xmlns:svg="http://www.w3.org/2000/svg"
   xmlns="http://www.w3.org/2000/svg"
   xmlns:sodipodi="http://sodipodi.sourceforge.net/DTD/sodipodi-0.dtd"
   xmlns:inkscape="http://www.inkscape.org/namespaces/inkscape"
   width="108.4304mm"
   height="68.890053mm"
   viewBox="0 0 108.4304 68.890052"
   version="1.1"
   id="SVGRoot"
   inkscape:version="0.92.1 r"
   sodipodi:docname="nn-a.svg">
  <sodipodi:namedview
     id="base"
     pagecolor="#ffffff"
     bordercolor="#666666"
     borderopacity="1.0"
     inkscape:pageopacity="0.0"
     inkscape:pageshadow="2"
     inkscape:zoom="1.979899"
     inkscape:cx="186.26003"
     inkscape:cy="183.99344"
     inkscape:document-units="mm"
     inkscape:current-layer="layer1"
     showgrid="false"
     inkscape:window-width="1916"
     inkscape:window-height="1037"
     inkscape:window-x="2560"
     inkscape:window-y="41"
     inkscape:window-maximized="0"
     fit-margin-top="0"
     fit-margin-left="0"
     fit-margin-right="0"
     fit-margin-bottom="0" />
  <defs
     id="defs72" />
  <metadata
     id="metadata75">
    <rdf:RDF>
      <cc:Work
         rdf:about="">
        <dc:format>image/svg+xml</dc:format>
        <dc:type
           rdf:resource="http://purl.org/dc/dcmitype/StillImage" />
        <dc:title></dc:title>
      </cc:Work>
    </rdf:RDF>
  </metadata>
  <g
     inkscape:groupmode="layer"
     id="layer2"
     inkscape:label="Layer 2"
     transform="translate(-72.652905,-17.610112)" />
  <g
     id="layer1"
     inkscape:groupmode="layer"
     inkscape:label="Layer 1"
     style="display:inline"
     transform="translate(-72.652905,-17.610112)">
    <path
       style="opacity:1;fill:#000000;fill-opacity:1;stroke:none;stroke-width:0.00161027"
       id="path5120"
       d="m 141.27383,60.815694 c -0.37989,0.204816 -0.78547,0.443651 -0.9712,0.855664 -0.0355,0.07898 -0.0476,0.166592 -0.0715,0.249889 0.003,0.08946 -0.005,0.180263 0.0107,0.268383 0.0812,0.451779 0.40535,0.868971 0.75769,1.146947 0.0884,0.06973 0.18889,0.122548 0.28334,0.183824 0.22727,0.09743 0.46609,0.166842 0.67542,-0.01297 0.0313,-0.02685 0.0424,-0.07073 0.0612,-0.107429 0.15631,-0.306224 0.10531,-0.191697 0.18861,-0.556007 0.0436,-0.557595 -0.0281,-1.165899 -0.41087,-1.604287 -0.0614,-0.07029 -0.13671,-0.127013 -0.20508,-0.19052 -0.30464,-0.196972 -0.14593,-0.112722 -0.4756,-0.253697 -0.006,-0.0017 0.0174,-0.08296 0.0231,-0.08132 v 0 c 0.43132,-0.003 0.21532,-0.03029 0.64711,0.08847 0.101,0.06418 0.21217,0.114643 0.30301,0.192555 0.41607,0.356875 0.57594,0.926698 0.58854,1.455921 0.003,0.141864 -0.0163,0.283336 -0.0245,0.425004 -0.0626,0.2518 -0.0996,0.523596 -0.26878,0.736297 -0.25318,0.318411 -0.60353,0.478172 -1.00604,0.398605 -0.12168,-0.02405 -0.23382,-0.08287 -0.35073,-0.124306 -0.11418,-0.07351 -0.23599,-0.136351 -0.34255,-0.220532 -0.43148,-0.340866 -0.79235,-0.857886 -0.87675,-1.409912 -0.0191,-0.124594 -0.007,-0.251993 -0.0102,-0.37799 0.0308,-0.115849 0.0464,-0.236823 0.0923,-0.347545 0.22779,-0.549394 0.78494,-0.886684 1.32604,-1.059501 0.0244,-0.0041 0.0812,0.340446 0.0568,0.344464 z"
       inkscape:connector-curvature="0" />
    <path
       style="opacity:1;fill:#000000;fill-opacity:1;stroke:none;stroke-width:0.00161027"
       id="path5124"
       d="m 143.47658,63.457019 c 0.10877,0.242624 0.0678,0.110306 0.11237,0.400055 0.003,0.0032 -0.0439,0.03881 -0.0464,0.03553 v 0 c -0.25445,-0.119301 -0.14022,-0.0479 -0.34618,-0.208561 -0.016,-0.01982 0.26415,-0.246836 0.2802,-0.227023 z"
       inkscape:connector-curvature="0" />
    <path
       style="opacity:1;fill:#000000;fill-opacity:1;stroke:none;stroke-width:0.00161027"
       id="path5126"
       d="m 146.25953,61.037858 c -0.42237,-0.178693 -0.86835,-0.355417 -1.33598,-0.338158 -0.0825,0.0031 -0.16369,0.02226 -0.24554,0.0334 -0.0841,0.0361 -0.22727,0.06789 -0.26479,0.176637 -0.006,0.01772 0.0426,-0.0179 0.0561,-0.0048 0.0209,0.02038 0.0112,0.05835 0.0254,0.08396 0.0732,0.132827 0.16283,0.197199 0.27524,0.305205 0.61944,0.479319 1.33772,0.808279 2.04437,1.136613 0.14647,0.08313 0.6285,0.218536 0.55003,0.498126 -0.0524,0.186732 -0.21971,0.262203 -0.36277,0.348822 -0.42529,0.240139 -0.85847,0.477637 -1.3295,0.616274 -0.0892,0.02625 -0.18067,0.04388 -0.27101,0.06582 -0.29922,0.044 -0.62869,0.05136 -0.66464,-0.3458 -0.0136,-0.150328 0.0938,-0.362965 0.14581,-0.490174 0.31121,-0.615723 0.69559,-1.190122 1.02814,-1.794054 0.0524,-0.128929 0.16004,-0.287892 0.14816,-0.438522 -0.003,-0.03911 -0.024,-0.07469 -0.0361,-0.112035 -0.001,-0.0019 0.0257,-0.0285 0.0276,-0.02655 v 0 c 0.0477,0.02501 0.10152,0.04072 0.14299,0.07504 0.18983,0.157087 0.17575,0.372465 0.13911,0.594148 -0.031,0.09513 -0.0558,0.192495 -0.093,0.285391 -0.22091,0.552349 -0.59378,1.027239 -0.89351,1.536269 -0.0378,0.06499 -0.0742,0.130758 -0.11328,0.19499 -0.0208,0.03423 -0.0318,0.07981 -0.0662,0.100299 -0.0215,0.01283 -0.0482,-0.01442 -0.0732,-0.01735 -0.007,-8.95e-4 -0.0286,0.0059 -0.0213,0.0063 0.11754,0.0063 0.15305,-0.01283 0.28443,-0.04008 0.52633,-0.15687 1.02115,-0.390034 1.51357,-0.631295 0.0424,-0.02127 0.0893,-0.09236 0.12719,-0.06381 0.0362,0.02731 -0.0468,0.08584 -0.0387,0.130486 0.009,0.04826 0.0672,0.07467 0.0841,0.120716 0.006,0.01648 -0.0314,-0.01576 -0.0479,-0.0219 -0.1344,-0.05019 -0.27299,-0.08881 -0.40534,-0.144757 -0.77983,-0.31101 -1.55818,-0.665781 -2.18324,-1.239965 -0.15549,-0.181217 -0.29609,-0.302437 -0.36463,-0.538963 -0.0969,-0.334425 0.0815,-0.610984 0.37559,-0.762257 0.0861,-0.0443 0.18291,-0.06383 0.27435,-0.09575 0.10765,-0.01132 0.2147,-0.03316 0.32293,-0.03395 0.53143,-0.0039 1.04914,0.197984 1.4802,0.496953 0.0237,0.0166 -0.21104,0.351398 -0.23472,0.334801 z"
       inkscape:connector-curvature="0" />
    <path
       style="opacity:1;fill:#000000;fill-opacity:1;stroke:none;stroke-width:0.00161027"
       id="path5128"
       d="m 148.09159,61.285851 c 0.21128,-0.398001 0.67511,-0.818267 1.1605,-0.584932 0.0922,0.04432 0.16125,0.125903 0.24187,0.188854 0.0519,0.09706 0.12117,0.186699 0.15582,0.291186 0.16704,0.503504 -0.0112,1.096622 -0.22294,1.556341 -0.0588,0.12761 -0.13313,0.247447 -0.1997,0.371171 -0.19559,0.308735 -0.41911,0.602118 -0.70604,0.83287 -0.0388,0.03123 -0.22685,0.140573 -0.29772,0.100039 -0.0937,-0.05361 -0.15169,-0.153703 -0.22754,-0.230556 0.0219,-0.0691 0.0223,-0.149221 0.0657,-0.207304 0.2213,-0.296328 0.65509,-0.375157 0.99935,-0.343368 0.088,0.0081 0.17368,0.03318 0.26052,0.04976 0.26687,0.157576 0.14077,0.08429 0.37797,0.220442 0.003,0.0014 -0.0143,0.05166 -0.0178,0.0504 v 0 c -0.26207,0.0056 -0.1254,-0.01386 -0.40791,0.07164 -0.1484,0.0268 -0.31271,0.05465 -0.45991,0.08843 -0.0658,0.01511 -0.13173,0.03073 -0.19627,0.05076 -0.047,0.01457 -0.0885,0.05129 -0.13769,0.05291 -0.0393,0.0014 0.0915,-0.155262 -0.0403,-0.111028 -0.0743,-0.04883 -0.14689,-0.100304 -0.22284,-0.146485 -0.007,-0.0042 -0.0288,0.003 -0.0241,-0.0037 0.0373,-0.05243 0.0966,-0.0856 0.13865,-0.134371 0.2069,-0.24026 0.18501,-0.224888 0.37888,-0.502256 0.2613,-0.446182 0.5741,-1.004649 0.51115,-1.544869 -0.007,-0.05616 -0.0304,-0.108936 -0.0455,-0.163404 -0.0249,-0.03172 -0.0417,-0.07199 -0.0748,-0.09515 -0.14052,-0.09861 -0.29846,0.02734 -0.41098,0.09728 -0.0247,0.01534 -0.0528,0.02596 -0.0744,0.04537 -0.0448,0.04015 -0.082,0.0879 -0.12305,0.131842 -0.009,0.02835 -0.41022,-0.103579 -0.40088,-0.131927 z"
       inkscape:connector-curvature="0" />
    <path
       style="opacity:1;fill:#000000;fill-opacity:1;stroke:none;stroke-width:0.00161027"
       id="path5134"
       d="m 141.56449,68.349707 c -0.28908,0.259353 -0.58752,0.54069 -0.74637,0.904013 -0.0325,0.07432 -0.0495,0.154478 -0.0743,0.231717 -0.007,0.0778 -0.023,0.155334 -0.0208,0.233411 0.0134,0.454544 0.31726,0.757556 0.64029,1.032207 0.1929,0.126227 0.6269,0.41184 0.87517,0.296906 0.0272,-0.01262 0.0448,-0.04001 0.0672,-0.06001 -0.009,-0.0048 -0.0297,-0.0037 -0.0282,-0.01423 0.006,-0.04237 0.0311,-0.07969 0.0466,-0.11953 0.0112,-0.06178 0.0267,-0.122952 0.0338,-0.185351 0.0316,-0.276801 -1.4e-4,-0.543018 -0.0355,-0.817417 -0.079,-0.556205 -0.38484,-1.029687 -0.59564,-1.538058 -0.003,-0.0028 0.0373,-0.04818 0.0406,-0.04531 v 0 c 0.0764,0.02585 0.15899,0.03776 0.22914,0.07753 0.46102,0.261369 0.66261,0.924472 0.76397,1.404276 0.0459,0.395148 0.083,0.798185 -0.0399,1.185274 -0.0231,0.07283 -0.0445,0.149158 -0.0891,0.211202 -0.0593,0.08251 -0.1445,0.142889 -0.21674,0.214333 -0.0608,0.02421 -0.11876,0.05747 -0.18243,0.07264 -0.40995,0.0977 -0.82215,-0.153366 -1.14582,-0.367253 -0.0792,-0.06839 -0.16348,-0.131341 -0.23765,-0.205178 -0.30151,-0.300152 -0.52182,-0.683789 -0.53883,-1.11717 -0.004,-0.10248 0.0143,-0.204618 0.0214,-0.306926 0.0281,-0.100202 0.0462,-0.203717 0.0842,-0.300603 0.18777,-0.479276 0.5862,-0.85038 1.01011,-1.122627 0.0238,-0.0098 0.16248,0.326344 0.13871,0.336152 z"
       inkscape:connector-curvature="0" />
    <path
       style="opacity:1;fill:#000000;fill-opacity:1;stroke:none;stroke-width:0.00161027"
       id="path5136"
       d="m 143.6821,70.886913 c 0.11054,0.272033 0.0554,0.128879 0.16388,0.430032 0.003,0.0039 -0.052,0.04675 -0.055,0.04286 v 0 c -0.25257,-0.184924 -0.13151,-0.09535 -0.36339,-0.268461 -0.0145,-0.01799 0.24007,-0.222426 0.25453,-0.20443 z"
       inkscape:connector-curvature="0" />
    <path
       style="opacity:1;fill:#000000;fill-opacity:1;stroke:none;stroke-width:0.00161027"
       id="path5138"
       d="m 145.34574,68.5487 c -0.0481,0.306948 -0.0854,0.681813 0.16136,0.920249 0.044,0.04244 0.099,0.07161 0.14844,0.107421 0.27569,0.184027 0.65563,0.158371 0.92001,0.361851 0.0452,0.03476 0.0787,0.0824 0.1181,0.123597 0.0201,0.0607 0.054,0.118459 0.0603,0.182082 0.0284,0.282926 -0.2353,0.530314 -0.43916,0.675421 -0.0518,0.0369 -0.11303,0.05842 -0.16955,0.08763 -0.44079,0.149368 -0.74282,0.09096 -1.12285,-0.16379 -0.18052,-0.182874 -0.19312,-0.165819 -0.14972,-0.413702 -0.001,-0.0017 0.0233,-0.01739 0.0243,-0.01567 v 0 c 0.13621,0.0076 0.21424,0.02804 0.33277,0.09972 0.25276,0.112465 0.51872,0.170097 0.78356,0.05679 0.0364,-0.02142 0.0714,-0.04542 0.10927,-0.06426 0.006,-0.0031 0.015,0.0034 0.0207,-4.44e-4 0.0733,-0.04923 0.13313,-0.159969 0.22807,-0.157644 -0.0389,-0.07897 -0.22508,-0.107931 -0.2898,-0.127106 -0.24836,-0.07357 -0.49915,-0.14066 -0.71823,-0.285998 -0.19218,-0.158138 -0.27032,-0.190427 -0.38968,-0.41665 -0.16829,-0.318951 -0.15337,-0.688889 -0.0569,-1.024993 0.004,-0.03032 0.4328,0.0252 0.42887,0.05553 z"
       inkscape:connector-curvature="0" />
    <path
       style="opacity:1;fill:#000000;fill-opacity:1;stroke:none;stroke-width:0.00161027"
       id="path5140"
       d="m 145.20785,68.150559 c 0.38184,-0.116422 0.7828,-0.225709 1.18651,-0.207377 0.0978,0.0044 0.19963,0.0063 0.29045,0.04285 0.0779,0.0313 0.13284,0.102622 0.19926,0.153931 0.004,7.58e-4 -0.007,0.06104 -0.0109,0.06027 v 0 c -0.0715,0.04261 -0.13768,0.09581 -0.21451,0.127829 -0.0878,0.03659 -0.18246,0.05407 -0.27497,0.07619 -0.37241,0.08908 -0.75389,0.132385 -1.13018,0.200928 -0.0322,0.0032 -0.0778,-0.451395 -0.0457,-0.454626 z"
       inkscape:connector-curvature="0" />
    <path
       style="opacity:1;fill:#000000;fill-opacity:1;stroke:none;stroke-width:0.00161027"
       id="path5142"
       d="m 148.24006,68.438956 c -0.0579,0.234693 -0.12458,0.467069 -0.1842,0.701292 -0.0416,0.163478 -0.0887,0.323199 -0.0845,0.492563 0.2829,-0.03885 0.5847,-0.0048 0.86907,0.04018 0.26244,0.06505 0.55528,0.178981 0.63564,0.469914 0.0447,0.161866 0.008,0.234871 -0.0279,0.389408 -0.13476,0.302648 -0.36733,0.607816 -0.70855,0.684027 -0.0555,0.01238 -0.11305,0.01141 -0.16958,0.01712 -0.30756,-0.03296 -0.55017,-0.155839 -0.68042,-0.444617 4.5e-4,-0.04299 0.001,-0.08597 0.001,-0.128959 -0.001,-0.0012 0.0165,-0.01843 0.0176,-0.01717 v 0 c 0.0391,-0.003 0.0783,-0.0061 0.11748,-0.009 0.19091,0.04458 0.35704,0.164009 0.55459,0.179933 0.20258,-0.03212 0.33798,-0.173136 0.44539,-0.339901 0.0242,-0.04661 0.0988,-0.145643 0.0659,-0.207393 -0.0656,-0.123222 -0.24527,-0.141184 -0.35947,-0.174942 -0.25732,-0.03702 -0.16634,-0.02819 -0.43322,-0.04868 -0.20484,-0.01572 -0.45018,-0.0021 -0.62104,-0.14236 -0.0523,-0.04291 -0.0799,-0.109119 -0.11981,-0.16368 -0.0123,-0.05973 -0.0328,-0.118345 -0.0368,-0.179188 -0.0252,-0.378137 0.15935,-0.83219 0.28047,-1.184871 0.005,-0.03095 0.44244,0.03542 0.43775,0.06638 z"
       inkscape:connector-curvature="0" />
    <path
       style="opacity:1;fill:#000000;fill-opacity:1;stroke:none;stroke-width:0.00161027"
       id="path5146"
       d="m 148.3857,68.105507 c 0.37098,0.0222 0.75094,0.06803 1.10125,0.20004 0.0752,0.02831 0.15425,0.05401 0.21761,0.103345 0.0526,0.04091 0.0801,0.106415 0.12016,0.159621 0.003,0.0012 -0.0136,0.04625 -0.0167,0.04507 v 0 c -0.0644,0.02383 -0.12537,0.06061 -0.19315,0.07148 -0.0797,0.01279 -0.16159,0.0032 -0.24218,-0.0017 -0.36194,-0.02206 -0.71908,-0.09899 -1.07568,-0.159496 -0.0296,-0.0063 0.0592,-0.424706 0.0887,-0.418429 z"
       inkscape:connector-curvature="0" />
    <path
       style="opacity:1;fill:#000000;fill-opacity:1;stroke:none;stroke-width:0.00197994"
       id="path5290"
       d="m 99.770126,65.036086 c 0.420024,-0.729262 0.770734,-1.493062 1.052764,-2.285345 0.0558,-0.201389 0.1335,-0.406913 0.11176,-0.619595 -0.001,-0.01001 -0.004,0.02071 -7.6e-4,0.03015 0.0366,0.100027 0.0613,0.02901 -0.0128,0.124908 -0.22765,0.231478 -0.40293,0.51457 -0.51395,0.820113 -0.0367,0.101006 -0.0627,0.205586 -0.0941,0.308379 -0.1915,0.826003 -0.18558,1.680632 -0.17022,2.523517 0.0137,0.635369 0.0889,1.271498 0.0397,1.906719 -0.0213,0.09253 -0.0322,0.207049 -0.10347,0.281524 -0.0312,0.03261 -0.0774,0.04646 -0.116085,0.0697 -5.47e-4,0.0017 -0.02386,-0.0052 -0.02338,-0.0068 v 0 c -0.05111,-0.09453 -0.06957,-0.186496 -0.07902,-0.295003 -0.09419,-0.625181 -0.173661,-1.25305 -0.203377,-1.885083 -0.02521,-0.88783 -0.02237,-1.788622 0.201088,-2.654447 0.03758,-0.115892 0.06924,-0.233878 0.112758,-0.347674 0.166736,-0.436001 0.435266,-0.832167 0.825466,-1.095995 0.0588,-0.02333 0.11328,-0.06488 0.1763,-0.06999 0.53721,-0.04359 0.38537,0.680559 0.31773,0.97525 -0.0417,0.139307 -0.0776,0.280478 -0.1251,0.417921 -0.24099,0.697525 -0.58891,1.36245 -1.03474,1.9505 -0.0105,0.02549 -0.371076,-0.12327 -0.360558,-0.148764 z"
       inkscape:connector-curvature="0" />
    <path
       style="opacity:1;fill:#000000;fill-opacity:1;stroke:none;stroke-width:0.00197994"
       id="path5292"
       d="m 99.226895,66.150638 c 0.533912,-0.198408 1.101085,-0.250365 1.666015,-0.253856 0.0637,0.0065 0.12737,0.0131 0.19106,0.01965 0.004,-5.46e-4 0.012,0.05789 0.008,0.05845 v 0 c -0.0615,0.04652 -0.12297,0.09304 -0.18445,0.139566 -0.0801,0.03643 -0.15823,0.07772 -0.2404,0.109285 -0.44615,0.171372 -0.9268,0.229019 -1.390962,0.330711 -0.02855,0.0035 -0.07769,-0.400327 -0.04914,-0.403803 z"
       inkscape:connector-curvature="0" />
    <path
       style="opacity:1;fill:#000000;fill-opacity:1;stroke:none;stroke-width:0.00197994"
       id="path5294"
       d="m 101.80792,65.740892 c -0.14418,0.332865 -0.30587,0.686543 -0.31231,1.056742 -7.5e-4,0.046 0.0105,0.09142 0.0157,0.137135 0.0132,0.01606 0.0196,0.04205 0.0395,0.04818 0.006,0.0019 0.0656,-0.05811 0.0856,-0.07878 0.12567,-0.130079 0.13651,-0.186455 0.23178,-0.353468 0.11065,-0.279352 0.1873,-0.622583 -0.007,-0.885938 -0.0248,-0.03368 -0.0573,-0.061 -0.0859,-0.0915 -0.1115,-0.07508 -0.20425,-0.178812 -0.32265,-0.241832 -0.002,-2.5e-5 -0.001,-0.02197 3.6e-4,-0.02195 v 0 c 0.20833,-0.12598 0.35122,-0.117518 0.5702,-0.0036 0.14841,0.123895 0.20525,0.145034 0.29185,0.329709 0.158,0.336906 0.0851,0.713653 -0.0454,1.043682 -0.0461,0.08084 -0.081,0.169264 -0.13841,0.242526 -0.19529,0.2492 -0.57474,0.562472 -0.8886,0.285444 -0.0504,-0.04451 -0.0729,-0.113029 -0.10941,-0.169544 -0.0144,-0.07112 -0.0383,-0.140964 -0.0434,-0.213365 -0.0298,-0.42797 0.15957,-0.855098 0.37551,-1.211321 0.009,-0.02421 0.35139,0.103636 0.34235,0.127844 z"
       inkscape:connector-curvature="0" />
    <path
       style="opacity:1;fill:#000000;fill-opacity:1;stroke:none;stroke-width:0.00197994"
       id="path5296"
       d="m 102.9944,65.597287 c 0.0929,0.421672 0.14606,0.850632 0.21693,1.276304 0.004,0.02638 0.0376,0.07408 0.0114,0.07912 -0.11856,0.02282 -0.24852,0.02956 -0.36201,-0.01163 -0.039,-0.01414 -0.009,-0.0825 -0.0114,-0.123886 -0.0153,-0.238433 -0.0145,-0.476051 -0.0107,-0.71479 0.0212,-0.235513 0.0222,-0.522704 0.19369,-0.712206 0.13502,-0.149202 0.22207,-0.134665 0.40459,-0.168716 0.003,-7.58e-4 0.0124,0.04571 0.009,0.04635 v 0 c -0.0247,0.0254 -0.0573,0.04495 -0.074,0.07619 -0.017,0.03173 -0.0165,0.07005 -0.023,0.105434 -0.0365,0.199868 -0.0461,0.402875 -0.0529,0.605579 -0.009,0.238132 -0.0115,0.477038 -0.03,0.714707 -0.004,0.05193 0.0268,0.125109 -0.0155,0.155506 -0.10732,0.07711 -0.24458,0.111693 -0.37598,0.125789 -0.0283,0.003 -0.0119,-0.05569 -0.0179,-0.08353 -0.0663,-0.43141 -0.12125,-0.865465 -0.14334,-1.301583 -0.005,-0.01987 0.27613,-0.0885 0.28099,-0.06864 z"
       inkscape:connector-curvature="0" />
    <path
       style="opacity:1;fill:#000000;fill-opacity:1;stroke:none;stroke-width:0.00197994"
       id="path5298"
       d="m 107.82088,63.45755 c -0.19485,0.605031 -0.34479,1.227477 -0.36911,1.865264 -0.006,0.156955 0.002,0.314129 0.004,0.471193 0.0477,0.446184 0.0793,0.942789 0.33343,1.331581 0.0657,0.100409 0.0491,0.09519 0.11188,0.08033 0.007,-0.01473 0.0102,-0.03156 0.0204,-0.04418 0.16195,-0.200598 -0.0485,0.177105 0.1648,-0.269593 3.6e-4,-0.0049 0.0696,3.66e-4 0.0692,0.0052 v 0 c -0.009,0.187076 0.009,0.351768 -0.11533,0.516456 -0.0484,0.06424 -0.13431,0.08857 -0.20147,0.13285 -0.0767,-0.0081 -0.15824,0.0037 -0.23011,-0.02423 -0.16479,-0.06415 -0.29308,-0.245826 -0.37013,-0.390236 -0.20766,-0.389248 -0.27412,-0.833175 -0.31487,-1.265748 -0.002,-0.171883 -0.0142,-0.343867 -0.008,-0.515647 0.026,-0.687349 0.18757,-1.377286 0.50283,-1.989555 0.007,-0.02846 0.40931,0.06781 0.4025,0.09627 z"
       inkscape:connector-curvature="0" />
    <path
       style="opacity:1;fill:#000000;fill-opacity:1;stroke:none;stroke-width:0.00197994"
       id="path5300"
       d="m 106.78285,64.943268 c 0.34982,5.46e-4 0.71784,-0.02352 1.06103,0.0629 0.082,0.02065 0.15838,0.05933 0.23757,0.08899 0.005,3.64e-4 -3.7e-4,0.07465 -0.006,0.07425 v 0 c -0.0864,0.03936 -0.16888,0.08901 -0.25929,0.118089 -0.34896,0.112244 -0.73286,0.09769 -1.09336,0.08229 -0.0302,-0.0042 0.0296,-0.430743 0.0597,-0.426518 z"
       inkscape:connector-curvature="0" />
    <path
       style="opacity:1;fill:#000000;fill-opacity:1;stroke:none;stroke-width:0.00197994"
       id="path5302"
       d="m 109.21333,65.22434 c 0.2437,0.0019 0.49266,8.96e-4 0.7325,0.05184 0.11578,0.02463 0.29769,0.09353 0.41394,0.135304 0.004,3.64e-4 -0.002,0.0567 -0.006,0.05629 v 0 c -0.14114,0.05368 -0.30443,0.120882 -0.45105,0.152365 -0.24721,0.05308 -0.50493,0.0519 -0.75597,0.04263 -0.031,-0.0047 0.0354,-0.443123 0.0664,-0.438429 z"
       inkscape:connector-curvature="0" />
    <path
       style="opacity:1;fill:#000000;fill-opacity:1;stroke:none;stroke-width:0.00197994"
       id="path5304"
       d="m 112.39704,64.188184 c -0.26036,0.324441 -0.45304,0.732569 -0.42434,1.159244 0.007,0.111292 0.0412,0.219259 0.0617,0.328889 0.0461,0.107621 0.0815,0.220478 0.13831,0.322865 0.19828,0.357512 0.56146,0.738314 0.99248,0.783875 0.0808,0.0085 0.16187,-0.01458 0.2428,-0.02188 0.0701,-0.03754 0.14829,-0.06293 0.2104,-0.112638 0.0691,-0.05527 0.12802,-0.124046 0.17726,-0.19755 0.0351,-0.05234 0.0506,-0.115506 0.0721,-0.1747 0.1028,-0.28225 0.14304,-0.384004 0.16314,-0.692423 0.008,-0.129188 -0.003,-0.258904 -0.005,-0.388357 -0.0557,-0.420389 -0.14227,-0.899102 -0.48953,-1.187533 -0.14836,-0.123224 -0.22369,-0.122584 -0.40153,-0.168798 -0.30063,-0.03137 -0.14613,-0.02482 -0.46362,-0.01668 -0.006,8.96e-4 -0.0192,-0.07932 -0.0135,-0.08027 v 0 c 0.35688,-0.239518 0.16327,-0.153742 0.58091,-0.257121 0.1081,0.01609 0.22067,0.0136 0.3243,0.04829 0.49699,0.166391 0.76835,0.68019 0.88771,1.155392 0.0361,0.143644 0.0491,0.292108 0.0737,0.438164 0.005,0.392061 0.0321,0.516748 -0.0614,0.90055 -0.10535,0.432633 -0.34583,0.857691 -0.74991,1.077406 -0.10869,0.0591 -0.23405,0.0803 -0.35107,0.120448 -0.12345,-7.57e-4 -0.24851,0.01786 -0.37035,-0.002 -0.54971,-0.08964 -1.00696,-0.532624 -1.25967,-1.006997 -0.0692,-0.129862 -0.11143,-0.27237 -0.16714,-0.408555 -0.0239,-0.141249 -0.0637,-0.280715 -0.0717,-0.423747 -0.0345,-0.612989 0.25576,-1.182913 0.74363,-1.543883 0.0246,-0.01132 0.18475,0.336693 0.16014,0.348016 z"
       inkscape:connector-curvature="0" />
    <path
       style="opacity:1;fill:#000000;fill-opacity:1;stroke:none;stroke-width:0.00197994"
       id="path5306"
       d="m 115.93743,64.89376 c 0.0474,0.446261 0.046,0.895844 0.0771,1.343053 -0.10281,-0.16509 0.0915,0.113386 -0.28595,-0.04789 -0.0319,-0.01361 0.0251,-0.06466 0.0359,-0.09758 0.0722,-0.218814 0.13609,-0.4406 0.20619,-0.660108 0.0752,-0.191594 0.23933,-0.846969 0.56699,-0.781949 0.0801,0.01589 0.10976,0.120942 0.16464,0.181413 0.08,0.372841 0.0682,0.757546 0.10736,1.135906 0.004,0.0205 0.033,0.06271 0.0121,0.0615 -0.0254,-0.0014 -0.0216,-0.04927 -0.0429,-0.06329 -0.0394,-0.02596 -0.0858,-0.04091 -0.13171,-0.05178 -0.0142,-0.0034 -0.0448,0.02495 -0.0425,0.01053 0.002,-0.01024 0.13594,-0.265607 0.13621,-0.266109 0.10842,-0.171775 0.25629,-0.49392 0.51302,-0.442443 0.16359,0.0328 0.19313,0.110333 0.28387,0.226408 0.1038,0.209193 0.23156,0.505902 0.085,0.727543 -0.0151,0.02277 -0.0388,0.03842 -0.0582,0.05764 1.1e-4,8.95e-4 -0.0131,0.0025 -0.0132,0.0017 v 0 c -0.21383,-0.115958 -0.24528,-0.350979 -0.34113,-0.558123 -0.007,-0.01982 -0.0271,-0.03953 -0.0206,-0.05946 2e-5,-6.8e-5 0.061,-0.01336 0.0688,-0.02038 0.0104,-0.0093 0.0326,-0.04505 0.0236,-0.03437 -0.0245,0.02924 -0.0489,0.05867 -0.0703,0.0902 -0.0282,0.04148 -0.0523,0.08565 -0.0784,0.12848 -0.0692,0.124168 -0.20124,0.41207 -0.3181,0.480006 -0.20745,0.120596 -0.33636,-0.0131 -0.39754,-0.185524 -0.0724,-0.357589 -0.0787,-0.723925 -0.0665,-1.087777 0.19698,0.05193 0.0452,0.04082 0.28503,-0.07652 0.0145,-0.0071 -0.0242,0.02244 -0.0315,0.03691 -0.021,0.04222 -0.0356,0.08737 -0.0524,0.131443 -0.0644,0.16888 -0.088,0.24152 -0.14947,0.418519 -0.0764,0.230373 -0.14898,0.46442 -0.24436,0.687962 -0.0245,0.05742 -0.029,0.133847 -0.0805,0.169093 -0.10005,0.06843 -0.22186,0.118004 -0.34304,0.120636 -0.0503,0.0011 -0.0681,-0.07398 -0.10213,-0.110972 -0.0705,-0.212475 -0.0813,-0.384574 -0.0945,-0.609744 -0.0157,-0.267671 -0.0216,-0.536607 -0.002,-0.804238 -0.004,-0.02832 0.39693,-0.07892 0.40051,-0.0506 z"
       inkscape:connector-curvature="0" />
    <path
       style="opacity:1;fill:#000000;fill-opacity:1;stroke:none;stroke-width:0.00197994"
       id="path5308"
       d="m 118.73032,65.124835 c -0.16716,-0.04462 -0.43485,-0.156434 -0.60526,-0.0701 -0.017,0.0086 -0.0496,0.05118 -0.0308,0.0481 0.035,-0.0057 0.0596,-0.03846 0.0894,-0.05768 0.23429,0.212189 0.53056,0.328143 0.81886,0.449588 0.20828,0.09274 0.4891,0.211224 0.48964,0.486752 1.3e-4,0.06687 -0.0161,0.136702 -0.0501,0.194258 -0.05,0.08452 -0.1302,0.147046 -0.1953,0.220568 -0.17626,0.102808 -0.37625,0.19165 -0.58728,0.152689 -0.0258,-0.0048 -0.31634,-0.126708 -0.3536,-0.142178 -0.003,-8.95e-4 0.009,-0.04874 0.0127,-0.04784 v 0 c 0.0548,-0.0051 0.11148,3.5e-5 0.16429,-0.01533 0.0592,-0.01721 0.11049,-0.05459 0.16624,-0.08081 0.13678,-0.0643 0.28122,-0.117166 0.39734,-0.217513 0.0129,0.04059 -5.5e-4,0.02596 0.0581,0.01949 0.0106,-0.0011 0.0319,0.0068 0.0317,-0.0038 -0.001,-0.07215 -0.29045,-0.166297 -0.32203,-0.183725 -0.32284,-0.133251 -0.81406,-0.319103 -0.9679,-0.663834 -0.0309,-0.06912 -0.0327,-0.147802 -0.0491,-0.221703 0.0512,-0.08545 0.0854,-0.183821 0.15373,-0.25636 0.0434,-0.04604 0.10853,-0.0677 0.16897,-0.08631 0.27453,-0.08454 0.57129,0.01837 0.81243,0.145239 0.0234,0.01429 -0.17868,0.3448 -0.20205,0.330513 z"
       inkscape:connector-curvature="0" />
    <path
       style="opacity:1;fill:#000000;fill-opacity:1;stroke:none;stroke-width:0.00197994"
       id="path5314"
       d="m 122.40864,59.790442 c -0.41738,0.05809 -0.87939,0.120697 -1.21963,0.395272 -0.0613,0.04945 -0.10778,0.114822 -0.16167,0.172234 -0.0312,0.101051 -0.0751,0.231622 -0.0826,0.331408 -0.031,0.411139 0.17364,0.854498 0.31737,1.227947 0.18629,0.473917 0.36549,0.959715 0.38399,1.474733 0.0119,0.332186 -0.0219,0.431511 -0.0766,0.758629 -0.21489,0.819688 -0.56556,1.595372 -0.86148,2.387827 -0.0381,0.106062 -0.0767,0.211982 -0.11444,0.318189 -0.0493,0.13872 -0.0949,0.278756 -0.14487,0.417223 -0.009,0.02408 -0.003,0.07465 -0.0288,0.07124 -0.44685,-0.05999 -0.45221,-0.01028 -0.37791,-0.172096 0.0237,-0.0589 0.0414,-0.120301 0.0654,-0.179096 0.002,-0.0053 0.005,-0.01996 0.008,-0.01502 0.009,0.01586 -0.004,0.05692 0.0139,0.05319 0.13753,-0.02857 0.26527,-0.09248 0.39791,-0.138722 0.002,-0.0085 -0.003,-0.02542 0.006,-0.02551 0.0284,-3.65e-4 0.0545,0.01633 0.0816,0.02463 0.0483,0.01476 0.0968,0.02928 0.14493,0.04453 0.24569,0.0778 0.4271,0.155528 0.65704,0.274105 0.40833,0.255507 0.67166,0.602616 0.74098,1.087085 0.0132,0.09204 0.0115,0.185587 0.0173,0.278382 -0.0169,0.644356 -0.25077,1.252339 -0.46596,1.851574 -0.17837,0.520639 -0.38902,1.053841 -0.40002,1.612321 -0.002,0.08047 0.009,0.160696 0.0142,0.241043 0.0166,0.06037 0.0248,0.123755 0.0499,0.181108 0.1128,0.257409 0.44821,0.190652 0.66856,0.175714 0.19487,-0.01934 0.38847,-0.04631 0.58332,-0.06567 0.0537,-0.0053 0.10878,-0.0027 0.16096,-0.01633 0.0493,-0.01287 0.0932,-0.04143 0.13977,-0.06215 0.003,-0.0014 0.025,0.04398 0.0218,0.04552 v 0 c -0.0863,0.105879 -0.16775,0.216899 -0.27684,0.302023 -0.18947,0.147841 -0.42196,0.211555 -0.65148,0.264509 -0.19973,0.02237 -0.3104,0.04995 -0.51235,0.01044 -0.27502,-0.0538 -0.49501,-0.206415 -0.61997,-0.460544 -0.0415,-0.08444 -0.0597,-0.178471 -0.0896,-0.267708 -0.0117,-0.103007 -0.032,-0.2054 -0.035,-0.309023 -0.0176,-0.605212 0.20018,-1.189156 0.40307,-1.748144 0.21396,-0.544524 0.46373,-1.090485 0.52085,-1.679003 3.6e-4,-0.0713 0.006,-0.142796 9e-4,-0.213913 -0.0258,-0.35551 -0.22018,-0.62038 -0.51949,-0.803176 -0.22412,-0.11961 -0.17474,-0.09996 -0.40739,-0.19769 -0.15818,-0.06645 -0.34717,-0.117101 -0.4865,-0.222282 -0.0417,-0.03147 -0.075,-0.07275 -0.11248,-0.109128 0.12007,-0.07054 0.22905,-0.164781 0.36019,-0.211607 0.0246,-0.0088 0.0158,0.05009 0.0197,0.07595 0.0155,0.102704 -0.0377,0.210534 -0.0672,0.304628 -0.0988,0.219263 -0.0545,0.208783 -0.5054,0.06333 -0.0337,-0.01086 -0.003,-0.07105 0.001,-0.106198 0.0159,-0.132119 0.0682,-0.332951 0.10184,-0.451327 0.0316,-0.111093 0.0678,-0.220812 0.10178,-0.331218 0.11478,-0.330511 0.15318,-0.450551 0.2824,-0.782309 0.199,-0.510889 0.43522,-1.008259 0.59339,-1.534337 0.0571,-0.257746 0.0978,-0.373792 0.0984,-0.637858 0.001,-0.47914 -0.17842,-0.934479 -0.3329,-1.379506 -0.16811,-0.492347 -0.45437,-1.261589 -0.2227,-1.772816 0.0573,-0.126496 0.15223,-0.232322 0.22835,-0.348483 0.0783,-0.06942 0.14959,-0.147592 0.23482,-0.208275 0.4046,-0.288082 0.92248,-0.378303 1.40842,-0.359053 0.0257,0.0039 -0.0296,0.367302 -0.0553,0.363391 z"
       inkscape:connector-curvature="0" />
    <path
       style="opacity:1;fill:#000000;fill-opacity:1;stroke:none;stroke-width:0.00197994"
       id="path5316"
       d="m 124.48444,63.46905 c -0.291,-0.519217 -0.40443,-1.137065 -0.27755,-1.723901 0.0318,-0.146754 0.0909,-0.286187 0.13642,-0.429281 0.0728,-0.129423 0.13186,-0.267565 0.21833,-0.388269 0.25852,-0.360852 0.65027,-0.663551 1.10301,-0.71031 0.33312,-0.03441 0.39732,0.02998 0.69469,0.145325 0.0875,0.07196 0.18722,0.131216 0.26252,0.215871 0.3001,0.337431 0.33831,0.817774 0.22403,1.236922 -0.0272,0.09988 -0.0727,0.193875 -0.10903,0.290812 -0.18793,0.349575 -0.45509,0.705814 -0.85498,0.824316 -0.20877,0.06187 -0.26967,0.03577 -0.48046,0.01564 -0.22453,-0.04949 -0.4198,-0.138856 -0.57798,-0.308658 -0.0372,-0.03997 -0.0739,-0.08241 -0.0977,-0.131568 -0.018,-0.0371 -0.0166,-0.08078 -0.0249,-0.121176 -0.001,-0.0014 0.0197,-0.02038 0.021,-0.0189 v 0 c 0.24775,0.05135 0.48198,0.167136 0.73832,0.180042 0.0524,-0.0045 0.10563,-0.0033 0.15727,-0.01334 0.29461,-0.05726 0.49081,-0.278133 0.63815,-0.52383 0.0329,-0.07267 0.0721,-0.142803 0.0986,-0.218004 0.0941,-0.266236 0.12775,-0.604779 -0.0562,-0.843812 -0.0413,-0.05368 -0.0998,-0.09163 -0.14968,-0.137447 -0.0658,-0.02661 -0.12786,-0.0657 -0.19742,-0.07983 -0.19853,-0.04033 -0.30076,0.0014 -0.48832,0.06911 -0.28262,0.102017 -0.44628,0.349543 -0.59035,0.599458 -0.0439,0.114933 -0.0987,0.226287 -0.13173,0.344798 -0.14187,0.508621 -0.0589,1.034775 0.0958,1.528548 0.014,0.02489 -0.33798,0.222355 -0.35194,0.197469 z"
       inkscape:connector-curvature="0" />
    <path
       style="opacity:1;fill:#000000;fill-opacity:1;stroke:none;stroke-width:0.00197994"
       id="path5318"
       d="m 127.18087,62.975712 c -0.0216,0.238803 -0.0559,0.609702 0.18614,0.761719 0.0287,0.01804 0.0656,0.01739 0.0984,0.02607 0.0679,-0.02262 0.11862,-0.0247 0.15477,-0.09899 0.005,-0.01033 -0.022,-0.01637 -0.0204,-0.02775 0.005,-0.03999 0.033,-0.07458 0.0396,-0.114381 0.0216,-0.12873 -0.004,-0.155847 -0.0431,-0.278517 -0.21406,-0.345959 -0.62115,-0.459045 -0.96374,-0.636089 -0.0998,-0.06914 -0.0708,-0.02922 -0.10861,-0.100569 -6.8e-4,3.65e-4 -0.005,-0.01084 -0.004,-0.01112 v 0 c 0.0701,-0.124048 0.0168,-0.07018 0.18376,-0.133671 0.0668,-0.003 0.13381,-0.01476 0.20047,-0.0092 0.35597,0.02993 0.72725,0.224517 0.95335,0.501419 0.0585,0.07171 0.0976,0.15738 0.14633,0.236071 0.0564,0.211841 0.10109,0.280869 0.0579,0.501862 -0.0528,0.269854 -0.26854,0.511884 -0.55026,0.549348 -0.0774,0.0103 -0.15573,-0.01259 -0.23359,-0.01888 -0.0692,-0.0372 -0.14644,-0.06236 -0.20772,-0.111585 -0.31947,-0.256622 -0.34312,-0.712873 -0.24679,-1.076755 0.003,-0.02528 0.36039,0.01571 0.35749,0.04098 z"
       inkscape:connector-curvature="0" />
    <path
       style="opacity:1;fill:#000000;fill-opacity:1;stroke:none;stroke-width:0.00197994"
       id="path5320"
       d="m 128.77978,62.713111 c 0.11143,0.22172 0.20657,0.451014 0.3168,0.673323 0.0696,0.140396 0.13532,0.299477 0.25937,0.400556 0.009,-0.102935 -0.11423,0.0021 -0.13184,-0.04028 -0.0172,-0.0413 0.0399,-0.08018 0.056,-0.121901 0.079,-0.204935 0.12821,-0.419428 0.17993,-0.632301 0.0712,-0.296698 -0.001,-0.531153 0.48416,-0.270651 0.0472,0.02533 0.0164,0.105871 0.026,0.158565 0.0114,0.06269 0.0247,0.125018 0.037,0.187528 0.0331,0.100901 0.0941,0.447776 0.22493,0.484873 0.022,0.0062 0.0112,-0.02775 0.003,-0.06692 -0.0137,8.95e-4 -0.0446,0.01633 -0.0413,0.003 0.01,-0.03943 0.0463,-0.06697 0.0661,-0.102436 0.0251,-0.04486 0.0468,-0.0916 0.0685,-0.138151 0.0646,-0.13786 0.12132,-0.274402 0.19644,-0.407055 0.0942,-0.115292 0.11568,-0.16533 0.2861,-0.223071 0.137,-0.04642 0.48374,0.07105 0.62737,0.105832 0.0916,0.0167 0.16449,0.03765 0.25717,0.02917 0.0254,-0.0023 0.0518,-0.0072 0.0739,-0.02 0.011,-0.0064 0.0303,-0.03839 0.0185,-0.03355 -0.0861,0.0353 -0.0807,0.03985 -0.10223,0.09607 -0.03,0.01719 -0.007,0.0094 -0.0608,-0.01165 -0.14582,-0.05745 -0.2769,-0.06399 -0.43046,-0.03792 -0.0448,0.02472 -0.12968,0.05155 -0.13046,0.123082 -1.6e-4,0.01387 0.038,-0.0096 0.0414,0.0038 0.01,0.03698 -0.0125,0.07594 -0.0108,0.114106 0.006,0.131499 0.0358,0.186441 0.0792,0.312292 0.0835,0.153356 0.21846,0.387441 0.43258,0.350522 0.0984,-0.01697 0.16622,-0.09195 0.23858,-0.151109 0.2434,-0.273168 0.39993,-0.612705 0.53609,-0.949748 0.10219,0.109601 -0.15954,-0.166027 0.36738,0.08046 0.0281,0.01314 -0.01,0.06125 -0.0142,0.09197 -0.027,0.193686 -0.0391,0.384398 -0.0446,0.57981 -0.007,0.144755 0.0131,0.285176 0.0444,0.425297 0.001,0.0069 -6.9e-4,-0.01608 -0.007,-0.02007 -0.0429,-0.02948 -0.0847,-0.06587 -0.13543,-0.07757 -0.0287,-0.0066 -0.056,0.01795 -0.084,0.02693 0.13695,-0.266501 0.18147,-0.602977 0.39814,-0.824815 0.0601,-0.06158 0.13299,-0.109314 0.19948,-0.163972 0.2221,-0.04837 0.2722,0.0253 0.3794,0.199398 0.002,0.0014 -0.0194,0.02862 -0.0213,0.02711 v 0 c -0.11733,-0.01174 -0.12754,-0.02206 -0.19673,0.07349 0.0594,0.01278 0.0108,-0.0028 -0.049,0.120017 -0.0867,0.178315 -0.14989,0.367126 -0.23248,0.547225 -0.0269,0.05853 -0.0576,0.115194 -0.0864,0.17279 -0.0694,0.07101 -0.11655,0.17505 -0.20832,0.21302 -0.0758,0.03137 -0.16842,0.0043 -0.24482,-0.02554 -0.1834,-0.07182 -0.18024,-0.502224 -0.19272,-0.648176 0.005,-0.223914 0.0191,-0.438414 0.0737,-0.656723 0.0125,-0.05024 -0.003,-0.129524 0.0453,-0.148608 0.12371,-0.04905 0.26613,-0.04263 0.39831,-0.02724 0.0251,0.003 0.008,0.05002 0.012,0.07503 -0.0745,0.4227 -0.28675,0.817747 -0.57918,1.13075 -0.0659,0.07053 -0.14707,0.125059 -0.2206,0.18759 -0.20179,0.09674 -0.26654,0.161003 -0.49759,0.144833 -0.34384,-0.02406 -0.56847,-0.302859 -0.71026,-0.585925 -0.062,-0.190743 -0.10306,-0.264369 -0.10194,-0.467647 0.002,-0.338152 0.2142,-0.591194 0.5394,-0.657936 0.0612,-0.0032 0.12233,-0.01228 0.18352,-0.0096 0.20167,0.0088 0.44974,0.08541 0.57941,0.252126 0.0309,0.03979 0.0472,0.08913 0.0707,0.133689 1.4e-4,0.05204 0.0222,0.10885 3.6e-4,0.156121 -0.13521,0.293663 -0.47337,0.241201 -0.72452,0.185659 -0.0466,-0.01248 -0.24386,-0.06566 -0.2974,-0.07886 -0.032,-0.0079 -0.0639,-0.01646 -0.0964,-0.0216 -0.0154,-0.0024 -0.0456,0.01453 -0.0468,-0.0011 -0.002,-0.0229 0.0395,-0.03156 0.0424,-0.05436 0.002,-0.01851 -0.0269,0.0258 -0.0404,0.03871 -0.0941,0.210062 -0.1902,0.585584 -0.33356,0.747188 -0.0645,0.07281 -0.14678,0.127827 -0.22018,0.191741 -0.0645,0.01349 -0.1276,0.04306 -0.19341,0.04044 -0.35711,-0.01423 -0.47976,-0.465084 -0.54937,-0.736501 -0.0107,-0.06999 -0.0238,-0.139644 -0.032,-0.209974 -0.007,-0.05875 -0.0574,-0.13809 -0.0128,-0.176958 0.52876,-0.461093 0.38393,-0.02458 0.35587,0.220917 -0.0502,0.244894 -0.10313,0.4895 -0.20556,0.719316 -0.0321,0.07194 -0.0559,0.152193 -0.11084,0.208675 -0.0782,0.08043 -0.17061,0.155853 -0.27723,0.190633 -0.0664,0.02166 -0.13801,-0.02178 -0.20701,-0.03267 -0.0475,-0.03657 -0.10069,-0.06665 -0.14235,-0.109689 -0.099,-0.102238 -0.19229,-0.272668 -0.25439,-0.394922 -0.11604,-0.228484 -0.20926,-0.468129 -0.28221,-0.713639 -0.0123,-0.02555 0.34912,-0.198401 0.36134,-0.17285 z"
       inkscape:connector-curvature="0" />
    <path
       style="opacity:1;fill:#000000;fill-opacity:1;stroke:none;stroke-width:0.00197994"
       id="path5322"
       d="m 125.09354,70.567244 c -0.29797,-0.573266 -0.44753,-1.232609 -0.40688,-1.880005 0.0104,-0.165804 0.0459,-0.329082 0.0688,-0.493622 0.0506,-0.15436 0.0856,-0.314669 0.15158,-0.463077 0.19618,-0.44122 0.5357,-0.848866 1.00218,-1.013373 0.34035,-0.120026 0.43648,-0.07204 0.7802,-0.03575 0.11696,0.04901 0.24133,0.08314 0.35087,0.147028 0.31203,0.181994 0.54678,0.486558 0.64697,0.832818 0.0833,0.287859 0.048,0.365298 0.0189,0.654348 -0.0367,0.09977 -0.0619,0.204633 -0.11021,0.299306 -0.15669,0.306624 -0.43352,0.554932 -0.7575,0.670791 -0.24056,0.08603 -0.31046,0.06847 -0.55936,0.075 -0.24089,-0.03324 -0.51635,-0.0649 -0.70594,-0.238835 -0.0507,-0.04651 -0.0792,-0.112502 -0.11884,-0.168751 -0.003,-0.0018 0.0216,-0.04695 0.0248,-0.0452 v 0 c 0.0639,-0.0065 0.1275,-0.01853 0.19174,-0.01953 0.21109,-0.0033 0.41975,0.05759 0.63149,0.02983 0.16295,-0.02757 0.25173,-0.032 0.40434,-0.09969 0.0633,-0.02807 0.12019,-0.06874 0.18048,-0.102774 0.11963,-0.06752 0.11719,-0.04993 0.22335,-0.205322 0.0403,-0.05901 0.0654,-0.127095 0.0981,-0.19064 0.0143,-0.07119 0.039,-0.141067 0.0429,-0.213576 0.0179,-0.328114 -0.16292,-0.649327 -0.4403,-0.820703 -0.071,-0.04387 -0.15285,-0.06708 -0.22928,-0.100624 -0.0843,-0.0079 -0.16845,-0.02994 -0.25291,-0.02386 -0.39263,0.02827 -0.70665,0.316598 -0.8735,0.654315 -0.0599,0.121135 -0.093,0.253715 -0.13952,0.380572 -0.0247,0.141605 -0.0597,0.281811 -0.0743,0.424817 -0.0602,0.588316 0.0411,1.182024 0.20703,1.744842 0.0143,0.02511 -0.34096,0.226773 -0.35521,0.201654 z"
       inkscape:connector-curvature="0" />
    <path
       style="opacity:1;fill:#000000;fill-opacity:1;stroke:none;stroke-width:0.00197994"
       id="path5324"
       d="m 128.52642,69.323368 c 0.13978,0.402585 0.27485,0.842155 0.21091,1.273753 -0.01,0.06663 -0.0345,0.130219 -0.0517,0.195329 -0.022,0.03747 -0.0441,0.07493 -0.0661,0.112403 3.7e-4,0.0021 -0.0285,0.0073 -0.0289,0.0052 v 0 c -0.0262,-0.02782 -0.0523,-0.05564 -0.0785,-0.08346 -0.0268,-0.05175 -0.0576,-0.10164 -0.0805,-0.155246 -0.16233,-0.380158 -0.20611,-0.799654 -0.30216,-1.198421 -0.0105,-0.02807 0.38639,-0.177644 0.39697,-0.149575 z"
       inkscape:connector-curvature="0" />
    <path
       style="opacity:1;fill:#000000;fill-opacity:1;stroke:none;stroke-width:0.00197994"
       id="path5326"
       d="m 130.46097,67.971793 c 0.13719,0.580118 0.1636,1.189913 0.073,1.779964 -0.018,0.117336 -0.0493,0.232249 -0.0739,0.348373 -0.14519,0.339727 -0.0598,0.192474 -0.24119,0.450073 -1.8e-4,0.0038 -0.0537,1.82e-4 -0.0535,-0.0035 v 0 c -0.0647,-0.256125 -0.0345,-0.113657 -0.0829,-0.428951 -0.0208,-0.67196 -0.004,-1.345224 -0.0579,-2.016075 -0.009,-0.03085 0.4272,-0.160728 0.43638,-0.129871 z"
       inkscape:connector-curvature="0" />
    <path
       style="opacity:1;fill:#000000;fill-opacity:1;stroke:none;stroke-width:0.00197994"
       id="path5328"
       d="m 129.77576,69.376755 c 0.38407,-0.138376 0.78231,-0.303833 1.19614,-0.306717 0.11196,0.06087 0.0616,0.05525 0.14269,0.05244 6.8e-4,-3.64e-4 0.007,0.01232 0.006,0.01278 v 0 c -0.0522,0.105526 -0.0203,0.03962 -0.0939,0.198718 -0.0431,0.03707 -0.0825,0.0791 -0.12941,0.111223 -0.31394,0.214797 -0.70158,0.307722 -1.06133,0.410752 -0.0339,0.0043 -0.0945,-0.474908 -0.0605,-0.479191 z"
       inkscape:connector-curvature="0" />
    <path
       style="opacity:1;fill:#000000;fill-opacity:1;stroke:none;stroke-width:0.00197994"
       id="path5330"
       d="m 132.58536,69.273324 c -0.2554,0.0825 -0.52976,0.179266 -0.69984,0.401334 -0.0143,0.01861 -0.0104,0.04571 -0.0168,0.06827 -0.0139,0.04922 -0.0293,0.09799 -0.0439,0.146987 0.005,0.380481 0.24109,0.415727 0.56061,0.440729 0.005,-8.95e-4 0.0163,0.06344 0.0117,0.06427 v 0 c -0.0749,0.05653 -0.13835,0.133048 -0.22482,0.169591 -0.33439,0.141328 -0.69157,-0.13576 -0.77974,-0.450336 -0.0241,-0.08595 -0.0157,-0.17784 -0.0236,-0.266759 0.0222,-0.08942 0.0243,-0.186429 0.0666,-0.268264 0.22901,-0.44269 0.68329,-0.676663 1.16525,-0.697154 0.0277,0.0011 0.0122,0.392435 -0.0155,0.39134 z"
       inkscape:connector-curvature="0" />
    <path
       style="opacity:1;fill:#000000;fill-opacity:1;stroke:none;stroke-width:0.00197994"
       id="path5332"
       d="m 133.63684,67.786586 c 0.10136,0.703489 0.13714,1.414733 0.15912,2.124531 0.001,0.09074 0.003,0.181475 0.004,0.27222 3.7e-4,0.05452 0.005,0.109303 -3.6e-4,0.163551 -5.5e-4,0.0053 -0.0107,7.58e-4 -0.016,3.65e-4 -0.11163,-0.01 -0.23602,0.02145 -0.33473,-0.03163 -0.0392,-0.02109 0.0246,-0.0856 0.0375,-0.128223 0.0238,-0.07871 0.0484,-0.157188 0.0725,-0.235783 0.14848,-0.411757 0.37443,-1.053295 0.79039,-1.272756 0.0638,-0.03366 0.14262,-0.02166 0.21393,-0.03249 0.0746,0.0351 0.16062,0.05237 0.22383,0.105319 0.22645,0.189661 0.25496,0.623527 0.20317,0.889754 -0.0138,0.0713 -0.0427,0.138853 -0.0641,0.20828 -0.0353,0.05591 -0.0706,0.111823 -0.10584,0.167736 1.8e-4,0.0034 -0.0477,0.0061 -0.0479,0.0027 v 0 c -0.0264,-0.05054 -0.0528,-0.101079 -0.0793,-0.151619 -0.0447,-0.181815 -0.0732,-0.364358 -0.10992,-0.547795 -0.0147,-0.07329 -0.0521,-0.146153 -0.0422,-0.220245 0.001,-0.01168 0.0158,-0.01753 0.0236,-0.02629 -0.10945,0.01951 -0.06,-0.01174 -0.17903,0.171048 -0.15785,0.242407 -0.25895,0.516702 -0.3721,0.780961 -0.032,0.07865 -0.0636,0.157465 -0.096,0.235941 -0.0267,0.0647 -0.0208,0.158551 -0.0814,0.193608 -0.55447,0.320753 -0.49931,-0.09561 -0.55243,-0.454269 -0.0606,-0.709911 -0.0982,-1.423474 -0.0898,-2.136077 -0.005,-0.03133 0.43751,-0.110063 0.44307,-0.07873 z"
       inkscape:connector-curvature="0" />
    <path
       style="opacity:1;fill:#000000;fill-opacity:1;stroke:none;stroke-width:0.00197994"
       id="path5334"
       d="m 136.06782,62.251876 c 0.5167,-0.08489 1.04674,-0.152364 1.57041,-0.09304 0.0877,0.0099 0.17391,0.03013 0.26085,0.0452 0.006,1.46e-4 0.003,0.07967 -0.002,0.07953 v 0 c -0.0891,0.03601 -0.17603,0.07761 -0.26713,0.108037 -0.50811,0.169689 -1.05223,0.215147 -1.58429,0.22829 -0.026,-0.0017 -0.004,-0.369585 0.0222,-0.368015 z"
       inkscape:connector-curvature="0" />
    <path
       style="opacity:1;fill:#000000;fill-opacity:1;stroke:none;stroke-width:0.00197994"
       id="path5336"
       d="m 136.81392,62.621374 c 0.0737,0.01912 0.1475,0.03824 0.22125,0.05736 0.0987,0.03173 0.19574,0.06895 0.29601,0.09518 0.11233,0.02939 0.22729,0.04762 0.34093,0.07143 0.007,0.0014 -0.0138,0.105295 -0.0212,0.103797 v 0 c -0.31421,0.0065 -0.63224,0.03922 -0.94423,-0.01035 -0.0225,-0.0076 0.0848,-0.324995 0.10724,-0.317411 z"
       inkscape:connector-curvature="0" />
    <path
       style="opacity:1;fill:#000000;fill-opacity:1;stroke:none;stroke-width:0.00197994"
       id="path5344"
       d="m 137.05733,69.181079 c 0.45514,0.01361 0.92477,-0.01562 1.37381,0.07824 0.0756,0.0158 0.14773,0.04506 0.2216,0.06758 0.0526,0.01041 0.10525,0.02082 0.15787,0.03123 0.003,3.5e-5 0.003,0.04945 -5.5e-4,0.04942 v 0 c -0.0564,0.02556 -0.11285,0.05112 -0.16928,0.07668 -0.0823,0.03187 -0.16145,0.07374 -0.24697,0.09563 -0.43075,0.110277 -0.97795,0.05527 -1.41678,0.0021 -0.0284,-0.0056 0.0519,-0.406627 0.0802,-0.400954 z"
       inkscape:connector-curvature="0" />
    <path
       style="opacity:1;fill:#000000;fill-opacity:1;stroke:none;stroke-width:0.00197994"
       id="path5346"
       d="m 137.16557,69.80684 c 0.30941,8.95e-4 0.62025,0.01059 0.92845,0.03966 0.12033,0.01135 0.24216,0.01691 0.35985,0.04441 0.10797,0.02522 0.20863,0.07517 0.31295,0.112748 0.007,7.58e-4 -0.003,0.09841 -0.0103,0.09769 v 0 c -0.11444,0.04312 -0.22464,0.09984 -0.34332,0.129348 -0.12378,0.03077 -0.25223,0.03957 -0.37932,0.05031 -0.3183,0.02687 -0.64187,0.01952 -0.9589,-0.0171 -0.0323,-0.0064 0.0582,-0.463462 0.0905,-0.45706 z"
       inkscape:connector-curvature="0" />
  </g>
</svg>
