<?xml version="1.0" encoding="UTF-8" standalone="no"?>
<!-- Created with Inkscape (http://www.inkscape.org/) -->

<svg
   xmlns:dc="http://purl.org/dc/elements/1.1/"
   xmlns:cc="http://creativecommons.org/ns#"
   xmlns:rdf="http://www.w3.org/1999/02/22-rdf-syntax-ns#"
   xmlns:svg="http://www.w3.org/2000/svg"
   xmlns="http://www.w3.org/2000/svg"
   xmlns:sodipodi="http://sodipodi.sourceforge.net/DTD/sodipodi-0.dtd"
   xmlns:inkscape="http://www.inkscape.org/namespaces/inkscape"
   width="108.4304mm"
   height="68.890053mm"
   viewBox="0 0 108.4304 68.890052"
   version="1.1"
   id="SVGRoot"
   inkscape:version="0.92.1 r"
   sodipodi:docname="nn-hidden-4.svg">
  <sodipodi:namedview
     id="base"
     pagecolor="#ffffff"
     bordercolor="#666666"
     borderopacity="1.0"
     inkscape:pageopacity="0.0"
     inkscape:pageshadow="2"
     inkscape:zoom="3.959798"
     inkscape:cx="142.80287"
     inkscape:cy="151.12011"
     inkscape:document-units="mm"
     inkscape:current-layer="layer1"
     showgrid="false"
     inkscape:window-width="1916"
     inkscape:window-height="1037"
     inkscape:window-x="2560"
     inkscape:window-y="41"
     inkscape:window-maximized="0"
     fit-margin-top="0"
     fit-margin-left="0"
     fit-margin-right="0"
     fit-margin-bottom="0" />
  <defs
     id="defs72" />
  <metadata
     id="metadata75">
    <rdf:RDF>
      <cc:Work
         rdf:about="">
        <dc:format>image/svg+xml</dc:format>
        <dc:type
           rdf:resource="http://purl.org/dc/dcmitype/StillImage" />
        <dc:title></dc:title>
      </cc:Work>
    </rdf:RDF>
  </metadata>
  <g
     inkscape:groupmode="layer"
     id="layer2"
     inkscape:label="Layer 2"
     transform="translate(-72.652905,-17.610112)" />
  <g
     id="layer1"
     inkscape:groupmode="layer"
     inkscape:label="Layer 1"
     style="display:inline"
     transform="translate(-72.652905,-17.610112)">
    <path
       style="opacity:1;fill:#000000;fill-opacity:1;stroke:none;stroke-width:0.00287424"
       id="path6276"
       d="m 91.455635,40.724764 c -0.206201,0.08003 -0.446595,0.110286 -0.626987,0.248152 -0.09943,0.07599 -0.10221,0.06192 -0.0588,0.101704 -0.037,0.350861 0.240734,0.648113 0.470665,0.876923 0.294983,0.244628 0.686275,0.388998 1.067178,0.263696 0.06641,-0.02185 0.125755,-0.06113 0.188633,-0.09169 0.04914,-0.04481 0.104693,-0.08346 0.14742,-0.134424 0.02001,-0.02386 0.02546,-0.05686 0.03715,-0.08572 0.07248,-0.178837 0.120684,-0.330033 0.0518,-0.522818 -0.01863,-0.05214 -0.05439,-0.09645 -0.08159,-0.144679 -0.150861,-0.165344 -0.351208,-0.228789 -0.561951,-0.284383 -0.09148,-0.02413 -0.182937,-0.0511 -0.276847,-0.06262 -0.09605,-0.01178 -0.193479,-0.0046 -0.290218,-0.0069 -0.008,-2.65e-4 -0.0041,-0.113261 0.0039,-0.112988 v 0 c 0.434599,-0.100165 0.845859,-0.194244 1.249643,0.07153 0.07838,0.05159 0.138477,0.126666 0.207715,0.189999 0.0439,0.07902 0.100316,0.152282 0.131708,0.23705 0.08948,0.241638 0.07494,0.572442 -0.05922,0.796972 -0.06535,0.109375 -0.150544,0.207268 -0.242484,0.295477 -0.0684,0.06562 -0.15597,0.107752 -0.233955,0.161628 -0.09075,0.03338 -0.178171,0.07778 -0.272241,0.100138 -0.497241,0.11821 -0.974251,-0.07898 -1.348528,-0.398558 -0.263212,-0.286649 -0.54654,-0.629717 -0.55212,-1.042972 -8.99e-4,-0.06731 0.0165,-0.13362 0.02475,-0.20043 0.04936,-0.07817 0.08944,-0.163036 0.14809,-0.234503 0.196219,-0.239115 0.579024,-0.304954 0.865807,-0.344314 0.02289,-7.41e-4 0.0334,0.322992 0.01051,0.323735 z"
       inkscape:connector-curvature="0" />
    <path
       style="opacity:1;fill:#000000;fill-opacity:1;stroke:none;stroke-width:0.00287424"
       id="path6278"
       d="m 91.645018,45.072883 c -0.189607,0.05599 -0.386016,0.08536 -0.574768,0.144605 -0.05679,0.01783 -0.113531,0.03686 -0.16732,0.06234 -0.127605,0.06044 -0.141418,0.04407 -0.09646,0.07777 -0.0016,0.01704 -0.0087,0.03441 -0.0049,0.05109 0.03247,0.142258 0.189932,0.291931 0.281781,0.388435 0.185631,0.19504 0.236154,0.229348 0.444581,0.409294 0.215825,0.163608 0.742491,0.593828 1.031058,0.340895 0.03599,-0.03155 0.05389,-0.07911 0.08084,-0.118669 3.7e-4,-0.02633 -0.0028,-0.05295 0.0011,-0.079 0.0099,-0.06638 0.03306,-0.130562 0.04026,-0.197292 0.03178,-0.294857 -0.03326,-0.583393 -0.126297,-0.860343 -0.09389,-0.197964 -0.123605,-0.212482 -0.3203,-0.290195 -0.0048,-0.0011 0.0096,-0.06821 0.01432,-0.0672 v 0 c 0.31675,-0.03057 0.363931,-0.03784 0.60062,0.200104 0.04076,0.07114 0.08992,0.138089 0.122278,0.213429 0.128574,0.299392 0.179528,0.794261 0.04929,1.100413 -0.04805,0.112945 -0.127035,0.210055 -0.190553,0.315084 -0.07016,0.0538 -0.131437,0.121803 -0.210492,0.161398 -0.486316,0.243578 -1.008182,-0.126738 -1.371293,-0.415414 -0.268683,-0.254706 -0.769738,-0.700524 -0.778856,-1.106601 -0.0014,-0.06396 0.02413,-0.125653 0.0362,-0.188479 0.05787,-0.06353 0.108531,-0.134466 0.173601,-0.1906 0.240693,-0.207637 0.672301,-0.246259 0.975766,-0.263144 0.02207,7.93e-4 0.01162,0.312814 -0.01045,0.312076 z"
       inkscape:connector-curvature="0" />
    <path
       style="opacity:1;fill:#000000;fill-opacity:1;stroke:none;stroke-width:0.00287424"
       id="path6280"
       d="m 92.015161,52.260913 c -0.309599,0.0296 -0.648165,0.03366 -0.929053,0.186383 -0.04051,0.02201 -0.0738,0.05532 -0.110693,0.08298 0.0077,0.0024 0.02121,-5.29e-4 0.02305,0.0074 0.03604,0.154361 -0.08336,-0.03471 0.03169,0.166957 0.105907,0.185651 0.27327,0.302472 0.442472,0.424138 0.29606,0.161555 0.72714,0.323427 1.027552,0.07207 0.04138,-0.03462 0.06827,-0.08354 0.102412,-0.125314 -0.0096,-0.184994 0.0026,0.144833 0.0277,-0.223714 0.01198,-0.176334 -0.03267,-0.36477 -0.12014,-0.518077 -0.02658,-0.04659 -0.06322,-0.08667 -0.09483,-0.130014 -0.04492,-0.04012 -0.190828,-0.17853 -0.249666,-0.197265 -0.0563,-0.01791 -0.118127,-0.0035 -0.17719,-0.0052 -0.0051,-2.64e-4 -6.62e-4,-0.07176 0.0044,-0.07145 v 0 c 0.26172,-0.04348 0.415024,-0.0952 0.660869,0.05003 0.05886,0.05416 0.126016,0.100497 0.176576,0.162473 0.197059,0.241548 0.302993,0.690099 0.180103,0.986427 -0.04777,0.115178 -0.131327,0.212 -0.19699,0.318 -0.06938,0.05751 -0.130861,0.126161 -0.208133,0.172524 -0.346297,0.20778 -0.783391,0.161777 -1.138446,0.0051 -0.09443,-0.04166 -0.18042,-0.100311 -0.27063,-0.150468 -0.07822,-0.06312 -0.162209,-0.1197 -0.234676,-0.189352 -0.20014,-0.192368 -0.475959,-0.600504 -0.328971,-0.895898 0.04538,-0.09119 0.129021,-0.157649 0.193532,-0.236474 0.06056,-0.03864 0.117306,-0.08404 0.181675,-0.115932 0.329956,-0.163494 0.720583,-0.183039 1.078287,-0.129686 0.02505,0.005 -0.04584,0.35931 -0.07089,0.354299 z"
       inkscape:connector-curvature="0" />
    <path
       style="opacity:1;fill:#000000;fill-opacity:1;stroke:none;stroke-width:0.00287424"
       id="path6282"
       d="m 92.001367,56.689453 c -0.287561,0.01974 -0.631253,-0.03779 -0.887979,0.129408 -0.03206,0.02088 -0.05374,0.05448 -0.08061,0.08172 0.01224,0.0011 0.0312,-0.0074 0.03671,0.0035 0.01175,0.02344 0.0029,0.05234 0.0044,0.07851 0.0161,0.03566 0.02698,0.07417 0.04829,0.106984 0.116092,0.178826 0.287228,0.275447 0.467087,0.378166 0.269045,0.111427 0.595292,0.2066 0.877052,0.07123 0.138252,-0.06642 0.128707,-0.05191 0.118624,-0.133104 0.01294,-0.04069 0.03339,-0.07973 0.03882,-0.122082 0.04196,-0.327562 -0.268591,-0.572534 -0.469111,-0.777721 -0.09941,-0.02735 -0.198813,-0.05469 -0.298219,-0.08204 -0.0077,-0.0029 0.0338,-0.112213 0.04153,-0.109276 v 0 c 0.103335,0.03155 0.206668,0.06311 0.310002,0.09466 0.106597,0.01863 0.218515,0.01778 0.319789,0.05592 0.337874,0.127206 0.554194,0.514411 0.517587,0.867008 -0.0089,0.08533 -0.04663,0.165121 -0.06995,0.247681 -0.08043,0.09094 -0.148374,0.194684 -0.241285,0.272834 -0.297183,0.249967 -0.767823,0.222964 -1.111249,0.110582 -0.09827,-0.03216 -0.189633,-0.0825 -0.28445,-0.123745 -0.08404,-0.05581 -0.173583,-0.10409 -0.252105,-0.167418 -0.219715,-0.1772 -0.519768,-0.572818 -0.400354,-0.88056 0.03739,-0.09636 0.11655,-0.170722 0.174826,-0.256082 0.05796,-0.04052 0.111006,-0.0892 0.17389,-0.121563 0.324146,-0.166804 0.718875,-0.13434 1.058187,-0.04348 0.02255,0.0065 -0.06894,0.325298 -0.09149,0.318828 z"
       inkscape:connector-curvature="0" />
    <path
       style="opacity:1;fill:#000000;fill-opacity:1;stroke:none;stroke-width:0.00287424"
       id="path6294"
       d="m 82.05089,40.542609 c -0.138552,0.513388 -0.209465,1.040085 -0.268349,1.567429 -0.0078,0.07259 -0.01664,0.14507 -0.02341,0.217761 -0.0044,0.04771 -0.0068,0.09558 -0.01021,0.143373 -0.0014,0.0196 0.0155,0.05798 -0.0041,0.05882 -0.382285,0.01637 -0.310124,-1.43e-4 -0.306334,-0.225264 -0.02689,-0.517364 -0.06811,-1.031663 -0.05981,-1.550247 0.04062,-0.4811 0.110791,-1.068459 0.566651,-1.351221 0.06276,-0.03893 0.142088,-0.04037 0.213132,-0.06055 0.07402,0.0088 0.150642,0.005 0.222062,0.02635 0.279049,0.08337 0.479988,0.354145 0.557,0.623596 0.01857,0.06499 0.02336,0.133142 0.03504,0.199713 -0.0026,0.06587 0.0026,0.132501 -0.0077,0.197604 -0.04542,0.285929 -0.24811,0.54392 -0.513785,0.658159 -0.05584,0.02401 -0.116294,0.03544 -0.174442,0.05316 -0.153015,0.01946 -0.326629,0.03527 -0.468024,-0.04552 -0.03737,-0.02135 -0.06434,-0.05717 -0.09651,-0.08575 -0.0027,-8.2e-4 0.0088,-0.03936 0.01153,-0.03854 v 0 c 0.162374,-0.05986 0.333185,-0.08262 0.493996,-0.147775 0.238591,-0.121021 0.376132,-0.20914 0.398431,-0.499233 -0.0055,-0.04608 -0.0061,-0.09301 -0.0165,-0.138246 -0.03703,-0.161683 -0.143223,-0.357626 -0.305327,-0.424369 -0.02806,-0.01156 -0.05971,-0.01088 -0.08956,-0.01632 -0.0299,0.01107 -0.05999,0.02166 -0.08971,0.03322 -0.01277,0.005 -0.0292,0.0056 -0.03772,0.01637 -0.210675,0.265522 -0.223082,0.632502 -0.257217,0.953367 -0.01912,0.524218 0.0088,1.047637 -0.0095,1.571566 -0.03023,0.268093 0.0061,0.346756 -0.391811,0.312173 -0.02827,-0.0025 -0.01263,-0.05553 -0.01483,-0.08383 -0.0085,-0.108794 -7.67e-4,-0.280374 0.0016,-0.380865 0.04425,-0.564725 0.124032,-1.140887 0.400117,-1.644967 0.0042,-0.01735 0.249619,0.04268 0.245374,0.06003 z"
       inkscape:connector-curvature="0" />
    <path
       style="opacity:1;fill:#000000;fill-opacity:1;stroke:none;stroke-width:0.00287424"
       id="path6296"
       d="m 83.295883,41.526337 c -0.08637,0.123354 -0.319271,0.433421 -0.266344,0.592176 0.0035,0.0106 0.01812,0.01308 0.02718,0.01962 0.08792,-0.07491 0.184147,-0.133187 0.249438,-0.232923 0.0082,-0.01255 0.0052,-0.0298 0.01101,-0.04362 0.01611,-0.03822 0.03635,-0.07456 0.05453,-0.111845 0.07066,-0.259613 -0.02357,-0.273988 -0.220797,-0.399354 -0.03804,-0.0174 -0.07608,-0.03481 -0.114115,-0.05221 -0.0034,-5.03e-4 0.0039,-0.04852 0.0073,-0.04801 v 0 c 0.04962,-0.01487 0.09923,-0.02974 0.148848,-0.04462 0.05538,-0.0044 0.110911,-0.01935 0.166143,-0.01333 0.23728,0.02586 0.394301,0.230463 0.395142,0.462007 2.15e-4,0.05911 -0.01711,0.116969 -0.02566,0.175454 -0.0237,0.05854 -0.03729,0.122264 -0.07109,0.175611 -0.135933,0.214569 -0.406072,0.475193 -0.69267,0.400694 -0.05806,-0.0151 -0.104994,-0.05807 -0.157491,-0.08711 -0.02679,-0.04621 -0.06391,-0.08781 -0.08036,-0.138621 -0.0946,-0.292215 0.140001,-0.587515 0.313298,-0.793045 0.0098,-0.01808 0.265527,0.121032 0.25569,0.139112 z"
       inkscape:connector-curvature="0" />
    <path
       style="opacity:1;fill:#000000;fill-opacity:1;stroke:none;stroke-width:0.00287424"
       id="path6326"
       d="m 81.440765,47.306752 c -0.124164,-0.476179 -0.114027,-0.983832 -0.01011,-1.463456 0.02337,-0.107881 0.05829,-0.212936 0.08743,-0.319405 0.105064,-0.260982 0.258867,-0.649157 0.569213,-0.735195 0.132824,-0.03682 0.208126,0.0498 0.301477,0.116115 0.215872,0.27622 0.274535,0.62578 0.277261,0.967711 -0.02636,0.277776 -0.16463,0.542782 -0.452415,0.623697 -0.04546,0.01278 -0.09311,0.01585 -0.139663,0.02376 -0.236167,0.0031 -0.389319,-0.04585 -0.544113,-0.224438 -0.0019,-7.94e-4 0.01093,-0.02831 0.01287,-0.0274 v 0 c 0.172711,-0.02241 0.345004,-0.03322 0.518202,-0.05071 0.02886,-0.0074 0.05771,-0.01487 0.08657,-0.0223 0.02297,-0.01143 0.04428,-0.02705 0.0689,-0.03425 0.0044,-0.0013 0.0025,0.01516 0.0061,0.01233 0.08062,-0.06284 0.09767,-0.164016 0.109327,-0.258713 0.0032,-0.26475 -0.0474,-0.531394 -0.155929,-0.77393 -0.0024,-0.01011 -0.0061,-0.01998 -0.0071,-0.03029 -8.21e-4,-0.0083 0.03147,-0.04637 0.02245,-0.03695 -0.131211,0.13694 -0.189195,0.313864 -0.248372,0.490873 -0.02505,0.09543 -0.05411,0.189889 -0.07515,0.286282 -0.09769,0.447595 -0.114676,0.90592 -0.101486,1.362371 0.0066,0.02302 -0.318783,0.116912 -0.325423,0.0939 z"
       inkscape:connector-curvature="0" />
    <path
       style="opacity:1;fill:#000000;fill-opacity:1;stroke:none;stroke-width:0.00287424"
       id="path6328"
       d="m 83.213642,46.4477 c 0.02933,0.246555 0.06582,0.530767 -0.0072,0.773652 -0.116354,0.386959 -0.06031,0.0013 -0.09126,0.265819 3.44e-4,0.0026 -0.03532,0.0074 -0.03566,0.0049 v 0 c -0.03395,-0.230799 0.0236,0.07044 -0.102178,-0.23403 -0.08763,-0.212124 -0.08284,-0.51966 -0.08806,-0.747194 -0.0045,-0.02294 0.319914,-0.08606 0.324377,-0.06312 z"
       inkscape:connector-curvature="0" />
    <path
       style="opacity:1;fill:#000000;fill-opacity:1;stroke:none;stroke-width:0.00287424"
       id="path6330"
       d="m 83.848682,45.482571 c 0.215207,0.304615 0.364459,0.661155 0.405815,1.033775 0.0086,0.07785 0.0063,0.156533 0.0095,0.234799 -0.0096,0.216988 -0.02205,0.28529 -0.17478,0.431409 -2.65e-4,0.0021 -0.02981,-0.0016 -0.02955,-0.0038 v 0 c -0.05925,-0.114303 -0.09818,-0.22823 -0.101278,-0.359752 -0.0782,-0.401645 -0.197665,-0.79 -0.373378,-1.160576 -0.01244,-0.01865 0.25127,-0.194537 0.263707,-0.175892 z"
       inkscape:connector-curvature="0" />
    <path
       style="opacity:1;fill:#000000;fill-opacity:1;stroke:none;stroke-width:0.00287424"
       id="path6332"
       d="m 83.624265,46.342901 c 0.199674,-0.03094 0.09476,-0.01445 0.314725,-0.04966 0.0044,-0.0011 0.02088,0.06167 0.01643,0.06283 v 0 c -0.181844,0.160536 -0.09806,0.08194 -0.252771,0.234281 -0.0175,0.0055 -0.09589,-0.241901 -0.07839,-0.247444 z"
       inkscape:connector-curvature="0" />
    <path
       style="opacity:1;fill:#000000;fill-opacity:1;stroke:none;stroke-width:0.00287424"
       id="path6334"
       d="m 85.37645,46.529067 c -0.137043,0.07053 -0.355125,0.09494 -0.443852,0.23903 -0.01023,0.01662 0.03329,-0.02037 0.04994,-0.03054 0.06373,0.09852 0.170664,0.166637 0.260361,0.239546 0.0038,0.0011 -0.0106,0.05441 -0.01438,0.0534 v 0 c -0.06158,0.01378 -0.12166,0.03943 -0.184733,0.04135 -0.201271,0.0061 -0.328052,-0.09926 -0.420174,-0.264999 -0.0035,-0.06016 -0.02963,-0.12338 -0.01038,-0.180477 0.102826,-0.304848 0.454038,-0.414912 0.730623,-0.476406 0.02681,-0.0024 0.0594,0.376801 0.03259,0.379105 z"
       inkscape:connector-curvature="0" />
    <path
       style="opacity:1;fill:#000000;fill-opacity:1;stroke:none;stroke-width:0.00287424"
       id="path6336"
       d="m 86.074403,45.581243 c 0.05461,0.432792 0.102824,0.866356 0.16734,1.297844 0.0038,0.03115 0.01162,0.06207 0.0114,0.09345 -3.2e-5,0.0047 -0.0073,-0.0071 -0.012,-0.0072 -0.08333,-0.0024 -0.166982,0.0066 -0.250096,8.8e-5 -0.0064,-5.29e-4 0.02404,-0.08971 0.03592,-0.125246 0.01526,-0.04564 0.03163,-0.09089 0.04744,-0.136332 0.102665,-0.233399 0.213743,-0.518226 0.449733,-0.653166 0.03612,-0.02066 0.08152,-0.01669 0.12228,-0.02506 0.04996,0.01577 0.104042,0.02193 0.149878,0.04731 0.146041,0.08084 0.275735,0.320053 0.304819,0.478216 0.0087,0.04745 0.0064,0.09627 0.0097,0.144404 -0.0082,0.04538 -0.01637,0.09075 -0.02455,0.136128 0.0013,0.0024 -0.03422,0.02077 -0.03551,0.01826 v 0 c -0.03732,-0.02058 -0.07463,-0.04117 -0.111948,-0.06176 -0.110573,-0.09834 -0.166467,-0.171026 -0.241109,-0.297868 -0.0031,-0.0053 -0.06896,-0.109913 -0.06538,-0.119044 0.0042,-0.01079 0.02244,-0.0058 0.03367,-0.0087 0.0079,-0.0089 0.0315,-0.03558 0.0237,-0.02662 -0.111541,0.128309 -0.185229,0.282704 -0.254595,0.436578 -0.01054,0.024 -0.149678,0.357973 -0.156108,0.361124 -0.27365,0.134091 -0.327229,0.06264 -0.41587,-0.134188 -0.127583,-0.444381 -0.177798,-0.910188 -0.154569,-1.372061 -0.0033,-0.02588 0.362615,-0.07209 0.365883,-0.04622 z"
       inkscape:connector-curvature="0" />
    <path
       style="opacity:1;fill:#000000;fill-opacity:1;stroke:none;stroke-width:0.00287424"
       id="path6338"
       d="m 84.470241,41.555194 c 0.08004,0.159393 0.181189,0.629305 0.323244,0.719034 0.0046,-0.08577 -0.08576,0.0026 -0.09923,-0.02916 -0.01192,-0.02808 0.0242,-0.05601 0.03535,-0.0844 0.05275,-0.134289 0.100824,-0.270519 0.149288,-0.406391 0.056,-0.135711 0.09246,-0.251379 0.302054,-0.207173 0.06053,0.01277 0.138876,0.270866 0.157299,0.32533 0.0099,0.02676 0.04753,0.129866 0.06203,0.162349 0.003,0.0067 0.01765,0.02275 0.01177,0.01843 -0.02175,-0.01596 -0.0333,-0.05296 -0.06025,-0.05402 -0.05138,-0.002 -0.09586,0.04629 -0.147272,0.04586 -0.01641,-1.37e-4 0.0098,-0.03131 0.01474,-0.04696 0.06838,-0.226708 0.103214,-0.488006 0.253035,-0.680873 0.02852,-0.03671 0.06773,-0.06369 0.101594,-0.09554 5.56e-4,-0.0028 0.03978,0.0049 0.03924,0.0077 v 0 c 0.05471,0.273039 0.0044,0.563172 -0.07706,0.826208 -0.05448,0.133754 -0.05511,0.201065 -0.252782,0.238998 -0.148554,0.02851 -0.201983,-0.230617 -0.229818,-0.314741 -6.1e-5,-2.57e-4 -0.04507,-0.186393 -0.04409,-0.198317 8.47e-4,-0.01032 0.0179,-0.01045 0.0273,-0.01479 0.05773,-0.0267 0.114676,-0.05537 0.173999,-0.07831 0.0057,-0.0022 -0.0069,0.01002 -0.01035,0.01504 -0.0075,0.02982 -0.01503,0.05963 -0.02254,0.08945 -0.06531,0.242068 -0.137231,0.632869 -0.401861,0.735887 -0.04874,0.01898 -0.104332,-0.0077 -0.156499,-0.01151 -0.03494,-0.02375 -0.07414,-0.04221 -0.104813,-0.07126 -0.203061,-0.192331 -0.272457,-0.533396 -0.332334,-0.793498 -0.0069,-0.02036 0.281088,-0.117698 0.287971,-0.09734 z"
       inkscape:connector-curvature="0" />
    <path
       style="opacity:1;fill:#000000;fill-opacity:1;stroke:none;stroke-width:0.00287424"
       id="path6340"
       d="m 86.023106,41.613015 c 0.03979,-0.06616 0.08487,-0.137603 0.118285,-0.20736 0.01238,-0.02583 0.02381,-0.05233 0.03174,-0.07986 0.0022,-0.0079 -0.0019,-0.03264 -0.0017,-0.02446 0.0013,0.06342 0.0062,0.02329 -0.0056,0.08137 -0.160085,0.122286 -0.207523,0.260964 -0.198609,0.461404 0.04938,0.195231 0.112479,0.310221 0.309702,0.190149 0.161154,-0.159442 0.244615,-0.380171 0.337962,-0.583304 0.03776,-0.113335 0.0565,-0.135336 0.255215,0.0061 0.02599,0.01849 -0.0027,0.06377 -0.0022,0.09566 0.0016,0.105812 0.0075,0.134773 0.01928,0.241762 0.0081,0.03769 0.01494,0.07566 0.02417,0.113085 0.0181,0.07336 0.01739,0.07169 0.04537,0.126413 0.02339,0.04575 -0.0935,-0.05476 -0.144853,-0.05277 -0.03114,0.0012 -0.04929,0.03815 -0.07394,0.05722 0.03199,-0.193671 0.02569,-0.419008 0.141576,-0.588161 0.02529,-0.03692 0.06249,-0.06408 0.09374,-0.09613 0.04828,-0.0133 0.09655,-0.0266 0.144828,-0.03991 0.002,-8.73e-4 0.01444,0.02784 0.01241,0.02872 v 0 c 0.0028,0.02022 0.0056,0.04043 0.0084,0.06064 -0.004,0.228336 -0.05774,0.454084 -0.104597,0.676638 -0.03631,0.05468 -0.05007,0.134969 -0.10892,0.164045 -0.249413,0.123234 -0.293998,-0.262083 -0.311972,-0.391171 -0.0044,-0.04649 -0.034,-0.377565 0.0031,-0.403876 0.07259,-0.05145 0.168137,-0.06202 0.25615,-0.07507 0.03696,-0.0055 -0.05308,0.163508 -0.0049,0.111977 -0.07195,0.338795 -0.227688,0.658585 -0.531404,0.84677 -0.05107,0.0162 -0.100083,0.04168 -0.153213,0.04861 -0.302925,0.03951 -0.485617,-0.221016 -0.540071,-0.483059 -0.003,-0.05913 -0.01295,-0.118325 -0.0089,-0.177392 0.01738,-0.253502 0.177604,-0.497696 0.41541,-0.599123 0.04813,-0.02053 0.10139,-0.02593 0.152085,-0.03889 0.05276,0.0121 0.112135,0.008 0.158294,0.03631 0.252217,0.154542 0.04452,0.465504 -0.08845,0.612527 -0.0084,0.01756 -0.256731,-0.101269 -0.248328,-0.118828 z"
       inkscape:connector-curvature="0" />
    <path
       style="opacity:1;fill:#000000;fill-opacity:1;stroke:none;stroke-width:0.00287424"
       id="path6342"
       d="m 82.710742,52.326935 c 0.01328,0.495228 0.01508,0.990393 0.03503,1.485511 -0.196898,-0.05853 0.09404,0.207571 0.02135,0.220456 -0.02457,0.0043 -0.01634,-0.06298 -0.04128,-0.06243 -0.09319,0.0021 -0.177719,0.06907 -0.270936,0.06928 -0.02293,5.1e-5 -0.0029,-0.04577 -0.0042,-0.06867 -0.0023,-0.04221 -0.0044,-0.08443 -0.0066,-0.126651 -0.01931,-0.374425 -0.05188,-0.750361 -0.01664,-1.125 0.0084,-0.08935 0.0239,-0.177901 0.03584,-0.266851 0.06501,-0.286562 0.151867,-0.632735 0.438112,-0.785643 0.130318,-0.06961 0.236154,-0.0082 0.358075,0.0299 0.228424,0.154985 0.409055,0.398547 0.450574,0.677916 0.007,0.04738 0.0034,0.09573 0.0051,0.143602 -0.01183,0.04698 -0.01561,0.09676 -0.03548,0.140952 -0.130313,0.289771 -0.433259,0.324969 -0.706791,0.304017 -0.132473,-0.014 -0.244936,-0.08001 -0.361543,-0.13774 -0.0027,-5.29e-4 0.0058,-0.03851 0.0085,-0.03791 v 0 c 0.124643,-0.02861 0.244349,-0.07026 0.368872,-0.09954 0.02581,-0.007 0.196361,-0.05251 0.228232,-0.06373 0.02712,-0.0096 0.05041,-0.03198 0.07905,-0.03454 0.01015,-7.94e-4 -0.02038,0.02421 -0.01113,0.02846 0.03064,0.01413 0.05761,-0.03731 0.06733,-0.05071 0.0082,-0.201088 -0.113573,-0.393639 -0.250497,-0.532423 -0.0094,-0.0081 -0.01734,-0.01839 -0.02823,-0.02437 -0.0052,-0.0029 -0.01727,0.0049 -0.01767,-7.94e-4 -8.73e-4,-0.01278 0.0229,-0.04552 0.01523,-0.03527 -0.103563,0.138281 -0.133636,0.307853 -0.165736,0.473728 -0.06464,0.447731 -0.07406,0.897782 -0.07461,1.349703 -0.0027,0.04489 -0.01226,0.257 -0.02473,0.268473 -0.36768,0.338397 -0.374553,0.08852 -0.4215,-0.190453 -0.03852,-0.513468 -0.03716,-1.036851 0.07793,-1.541221 -5.56e-4,-0.01757 0.247758,-0.02545 0.248317,-0.0079 z"
       inkscape:connector-curvature="0" />
    <path
       style="opacity:1;fill:#000000;fill-opacity:1;stroke:none;stroke-width:0.00287424"
       id="path6344"
       d="m 84.1694,53.03333 c -0.07336,0.08403 -0.282413,0.311221 -0.229325,0.43054 0.0046,0.01027 0.01921,0.0117 0.02882,0.01754 0.08308,-0.0078 0.177786,-0.03511 0.231657,-0.104899 0.0041,-0.0053 -0.02146,0.0021 -0.0197,-0.0043 0.0067,-0.0249 0.02599,-0.04458 0.03899,-0.06687 0.05345,-0.182448 -0.06432,-0.331695 -0.138341,-0.488063 -0.0025,-0.0013 0.01562,-0.03631 0.0181,-0.03503 v 0 c 0.04916,-0.0047 0.09867,-0.02164 0.147492,-0.01415 0.04796,0.0073 0.09302,0.03096 0.133831,0.05719 0.201822,0.129677 0.241576,0.357502 0.190392,0.576349 -0.02379,0.0505 -0.03638,0.107995 -0.07136,0.151504 -0.153642,0.191105 -0.418384,0.332742 -0.663837,0.226374 -0.05257,-0.02278 -0.09458,-0.06467 -0.141875,-0.09701 -0.02861,-0.0497 -0.0683,-0.0945 -0.08584,-0.149101 -0.106158,-0.330427 0.200364,-0.633775 0.44186,-0.798994 0.02114,-0.0084 0.14028,0.290526 0.119141,0.29895 z"
       inkscape:connector-curvature="0" />
    <path
       style="opacity:1;fill:#000000;fill-opacity:1;stroke:none;stroke-width:0.00287424"
       id="path6346"
       d="m 84.774208,52.819205 c 0.07893,0.13429 0.111674,0.301837 0.212015,0.423741 0.0025,0.003 0.0043,-0.0094 0.0011,-0.01167 -0.02252,-0.01595 -0.04862,-0.02617 -0.07292,-0.03926 -0.01909,0.0066 -0.04692,0.03713 -0.05728,0.01979 -0.01517,-0.0254 0.01242,-0.05789 0.01707,-0.08711 0.01757,-0.110238 0.01415,-0.221739 0.03441,-0.331287 0.09534,-0.01521 0.190159,-0.05713 0.286008,-0.0456 0.03571,0.0043 0.04268,0.05792 0.06301,0.08759 0.07852,0.114591 0.148316,0.234931 0.230577,0.346884 0.05746,0.0531 -0.0096,-0.01566 -0.05454,-0.0031 -0.02472,0.0069 -0.03391,0.04953 -0.05957,0.04881 -0.01716,-5.29e-4 0.0075,-0.0335 0.01159,-0.05016 0.006,-0.0244 0.01239,-0.04867 0.01858,-0.07301 0.06838,-0.280749 0.223034,-0.33918 0.482383,-0.408313 0.100413,-0.02944 0.204649,-0.04384 0.305259,-0.07239 0.01541,-0.0044 0.03073,-0.0095 0.04523,-0.01624 0.0021,-0.0011 0.0035,-0.0085 0.0028,-0.0063 -0.02325,0.07995 -0.04713,0.159713 -0.07069,0.23957 -0.08971,0.03576 -0.193623,0.02003 -0.249836,0.117747 0.01576,-0.01196 0.02765,-0.03347 0.04729,-0.0359 0.0013,-1.61e-4 -0.01133,0.02653 0.0086,0.0724 0.0318,0.07301 0.09184,0.118327 0.152139,0.166325 0.167316,0.09121 0.321932,0.140219 0.446016,-0.03621 -0.04029,-0.01061 -0.01328,0.0019 0.01684,-0.07182 0.05949,-0.145486 -0.0418,0.0027 0.130423,0.05064 0.04844,0.01349 0.09507,-0.03281 0.142609,-0.04922 -0.03101,0.09272 -0.0448,0.190293 -0.05052,0.287604 -7.67e-4,0.01318 0.01154,0.04301 -0.0012,0.03956 -0.01607,-0.0043 -0.01377,-0.03032 -0.02066,-0.04548 -0.08271,-0.0019 -0.167069,0.0109 -0.24813,-0.0057 -0.01451,-0.003 0.0095,-0.02804 0.01431,-0.04206 0.01233,-0.03614 0.0236,-0.07265 0.03701,-0.1084 0.06948,-0.185118 0.118638,-0.270912 0.243747,-0.42459 0.203988,-0.118917 0.09574,-0.0782 0.324183,-0.123627 0.0029,-7.93e-4 0.01517,0.04024 0.01226,0.04111 v 0 c -0.04918,0.109418 -0.0264,0.04972 -0.06531,0.180194 -0.07323,0.171802 -0.146704,0.344837 -0.227801,0.513099 -0.01651,0.03426 -0.01679,0.0865 -0.05163,0.101729 -0.09043,0.03952 -0.19471,0.03233 -0.292066,0.04849 -0.01431,-0.02633 -0.03319,-0.05063 -0.04291,-0.07897 -0.04521,-0.131823 0.02904,-0.36758 0.07862,-0.489111 0.06637,-0.04598 0.118468,-0.133892 0.199105,-0.13793 0.232358,-0.01164 0.151663,0.341373 0.09706,0.431019 -0.03912,0.06423 -0.09172,0.119206 -0.137582,0.178809 -0.04116,0.03013 -0.07846,0.06643 -0.123489,0.0904 -0.236681,0.126011 -0.501624,0.04593 -0.70734,-0.09784 -0.131499,-0.123658 -0.253911,-0.257797 -0.258775,-0.450368 -10e-4,-0.04034 -0.0014,-0.08318 0.01471,-0.120169 0.02626,-0.06018 0.07283,-0.109278 0.109244,-0.163914 0.188661,-0.139812 0.369836,-0.178959 0.587562,-0.07574 -0.006,0.09284 0.0024,0.187738 -0.01791,0.278527 -0.0041,0.01834 -0.03283,0.01841 -0.05015,0.02566 -0.119312,0.05001 -0.250471,0.06343 -0.375783,0.09061 -0.03228,0.0072 -0.06479,0.01339 -0.09684,0.02154 -0.02243,0.0057 -0.04409,0.02582 -0.0665,0.02003 -0.01187,-0.0031 0.02479,-0.02442 0.01611,-0.03307 -0.03135,-0.03127 -0.0893,0.127373 -0.0787,0.123939 -0.0661,0.240477 -0.148745,0.451279 -0.42085,0.242287 -0.100896,-0.113316 -0.184054,-0.237649 -0.255703,-0.371602 -0.01269,-0.02373 -0.05236,-0.0525 -0.03476,-0.07285 0.05555,-0.0642 0.143598,-0.09061 0.215397,-0.135911 -0.0028,0.0716 0.01083,0.142869 0.0091,0.214804 -0.0046,0.186881 -0.03984,0.313405 -0.172953,0.457206 -0.05705,0.0096 -0.113651,0.03517 -0.171145,0.02877 -0.196,-0.02183 -0.303308,-0.404677 -0.350727,-0.553553 -0.0085,-0.01923 0.263325,-0.139724 0.271846,-0.120499 z"
       inkscape:connector-curvature="0" />
    <path
       style="opacity:1;fill:#000000;fill-opacity:1;stroke:none;stroke-width:0.00287424"
       id="path6348"
       d="m 83.035987,58.389788 c -0.294852,-0.473231 -0.423222,-1.042879 -0.383498,-1.598925 0.01059,-0.148206 0.04455,-0.293809 0.06682,-0.440714 0.04568,-0.139022 0.07999,-0.282316 0.137043,-0.41707 0.181347,-0.4283 0.567718,-0.961147 1.037869,-1.093478 0.08153,-0.02294 0.16847,-0.01765 0.252705,-0.02647 0.07852,0.02376 0.163407,0.03221 0.235557,0.07124 0.312949,0.169307 0.413726,0.56401 0.430847,0.89027 0.0047,0.08915 -0.0035,0.178504 -0.0053,0.267756 -0.04295,0.430673 -0.196888,0.846976 -0.585658,1.081997 -0.06005,0.0363 -0.132815,0.04537 -0.199223,0.06806 -0.229096,0.02384 -0.520426,0.03066 -0.692302,-0.157314 -0.03065,-0.03352 -0.04538,-0.0787 -0.06806,-0.118043 -0.0025,-0.0013 0.0147,-0.03593 0.01715,-0.03471 v 0 c 0.04181,-0.01233 0.08263,-0.02871 0.125432,-0.03698 0.179137,-0.0346 0.36681,0.01469 0.541786,-0.05016 0.03632,-0.0177 0.0715,-0.03797 0.108958,-0.05312 0.0088,-0.0036 0.02132,0.0038 0.02852,-0.0024 0.189267,-0.164409 0.2416,-0.418729 0.276052,-0.65459 0.01074,-0.189103 0.03695,-0.670456 -0.138323,-0.806608 -0.02175,-0.01691 -0.05159,-0.01929 -0.07739,-0.02895 -0.04197,0.0095 -0.08673,0.01077 -0.125924,0.02854 -0.426399,0.193458 -0.637819,0.6682 -0.777639,1.082609 -0.02538,0.124891 -0.0598,0.248279 -0.07613,0.374668 -0.06494,0.502539 0.01509,1.005015 0.169775,1.483236 0.01211,0.02114 -0.28696,0.192376 -0.299068,0.171228 z"
       inkscape:connector-curvature="0" />
    <path
       style="opacity:1;fill:#000000;fill-opacity:1;stroke:none;stroke-width:0.00287424"
       id="path6350"
       d="m 84.981223,57.381699 c 0.02007,0.226785 0.03461,0.46329 -0.0151,0.687932 -0.01028,0.04646 -0.03016,0.09027 -0.04524,0.135403 9.26e-4,0.003 -0.04183,0.01617 -0.04275,0.01312 v 0 c -0.03154,-0.03395 -0.06968,-0.06278 -0.0946,-0.101836 -0.130212,-0.204028 -0.137673,-0.45933 -0.137413,-0.692298 -0.003,-0.02371 0.332115,-0.06603 0.335109,-0.04233 z"
       inkscape:connector-curvature="0" />
    <path
       style="opacity:1;fill:#000000;fill-opacity:1;stroke:none;stroke-width:0.00287424"
       id="path6352"
       d="m 84.797883,56.992891 c -0.03692,-0.133284 -0.08298,-0.278831 -0.03935,-0.417714 0.124234,-0.39548 0.0391,0.04024 0.0812,-0.195926 -3.71e-4,-0.0016 0.02164,-0.0067 0.02201,-0.0051 v 0 c 0.06812,0.131675 -0.03608,-0.0457 0.144346,0.116647 0.108254,0.0974 0.127477,0.255299 0.154442,0.388186 0.0081,0.02564 -0.35459,0.139573 -0.362646,0.113929 z"
       inkscape:connector-curvature="0" />
    <path
       style="opacity:1;fill:#000000;fill-opacity:1;stroke:none;stroke-width:0.00287424"
       id="path6354"
       d="m 86.065102,56.179421 c 0.02056,0.464434 0.06636,0.933572 0.02726,1.398461 -0.008,0.09554 -0.02618,0.189966 -0.03927,0.284948 -0.0062,0.07638 -0.01244,0.152755 -0.01866,0.229129 0.0014,0.0056 -0.07797,0.02508 -0.07935,0.01947 v 0 c -0.02635,-0.06979 -0.05269,-0.139579 -0.07904,-0.20937 -0.03329,-0.08797 -0.0749,-0.173231 -0.09987,-0.263914 -0.127203,-0.461828 -0.110611,-0.961419 -0.07234,-1.433253 -0.0018,-0.02556 0.359466,-0.05101 0.361267,-0.02548 z"
       inkscape:connector-curvature="0" />
    <path
       style="opacity:1;fill:#000000;fill-opacity:1;stroke:none;stroke-width:0.00287424"
       id="path6356"
       d="m 87.169521,57.280657 c -0.05019,0.12995 -0.233715,0.49629 -0.184933,0.628708 0.0043,0.01169 0.01999,0.01487 0.02998,0.02233 0.304021,-0.0088 0.467524,-0.332454 0.547497,-0.586293 0.0281,-0.08918 0.04076,-0.182509 0.06114,-0.273764 0.04858,-0.430631 0.03282,-0.897274 -0.218627,-1.266968 -0.07137,-0.06006 8.46e-4,0.01622 0.0066,0.01595 0.04457,-0.0021 0.08237,-0.03763 0.126601,-0.04349 0.0089,-0.0011 -8.47e-4,0.01789 -6.88e-4,0.02683 5.03e-4,0.03053 -5.7e-5,0.06115 0.0027,0.09156 0.0043,0.04783 0.01225,0.09525 0.01838,0.14288 0.09911,0.48337 0.233477,0.958815 0.357392,1.43628 0.01819,0.06788 0.03607,0.135848 0.05456,0.203652 0.01281,0.04697 0.02626,0.09376 0.03932,0.140666 0.0064,0.02283 0.03534,0.05147 0.01891,0.06856 -0.01413,0.01469 -0.02375,-0.04317 -0.04412,-0.04234 -0.215537,0.0088 -0.213789,0.135218 -0.195476,-0.0055 0.0396,-0.219321 0.07377,-0.537679 0.316913,-0.638977 0.0515,-0.02146 0.111525,0.0034 0.167287,0.0051 0.224351,0.140938 0.198915,0.18859 0.232529,0.428069 0.008,0.05705 0.02057,0.113358 0.03086,0.170037 0.0017,0.0039 -0.05285,0.02858 -0.0546,0.02471 v 0 c -0.02748,-0.04475 -0.0473,-0.09522 -0.08244,-0.134253 -0.05619,-0.06242 -0.159496,-0.09318 -0.199663,-0.172775 0.0095,-0.004 0.02123,-0.0045 0.02835,-0.01191 0.01631,-0.01691 0.05602,-0.07504 0.03948,-0.05837 -0.10226,0.103071 -0.09274,0.285967 -0.139645,0.413504 -0.04898,0.165872 -0.03137,0.211203 -0.286231,0.264075 -0.128743,0.02671 -0.298155,-0.441288 -0.316539,-0.507447 -0.153562,-0.491495 -0.287081,-0.99179 -0.351351,-1.503688 -0.0078,-0.118358 -0.0401,-0.40658 0.04933,-0.506669 0.170206,-0.190495 0.313068,-0.171688 0.484121,-0.03086 0.03385,0.04765 0.07434,0.09122 0.101564,0.142942 0.221007,0.419856 0.164142,0.934643 0.06356,1.37674 -0.03519,0.09869 -0.06419,0.199798 -0.105562,0.296053 -0.121231,0.282067 -0.365517,0.647491 -0.689861,0.722165 -0.06037,0.01389 -0.123858,0.003 -0.185787,0.0045 -0.05283,-0.02969 -0.115199,-0.04666 -0.158483,-0.08907 -0.244719,-0.239786 -0.03808,-0.643922 0.101206,-0.874913 0.0086,-0.02373 0.344379,0.09822 0.335755,0.121957 z"
       inkscape:connector-curvature="0" />
    <path
       style="opacity:1;fill:#000000;fill-opacity:1;stroke:none;stroke-width:0.00287424"
       id="path6358"
       d="m 103.92722,38.202853 c -0.21025,-0.0011 -0.45853,-0.0073 -0.61688,0.159395 -0.0152,0.01604 -0.0111,0.04288 -0.0181,0.06386 -0.0184,0.05502 -0.0388,0.109351 -0.0582,0.164027 -0.003,0.07087 -0.0168,0.141988 -0.0101,0.212615 0.0326,0.340094 0.25082,0.680205 0.58189,0.798176 0.0802,0.02858 0.16796,0.02798 0.25194,0.04197 0.0862,-0.01634 0.17631,-0.01843 0.25851,-0.04903 0.33187,-0.123528 0.54217,-0.42879 0.62089,-0.763318 0.0186,-0.07918 0.0145,-0.162044 0.0218,-0.243066 -0.0167,-0.06646 -0.0201,-0.137743 -0.0501,-0.199366 -0.19752,-0.406289 -0.90363,-0.301121 -1.25609,-0.278054 -0.01,7.14e-4 -0.0201,-0.138138 -0.0103,-0.138864 v 0 c 0.12738,-0.05148 0.24911,-0.120148 0.38215,-0.15444 0.45267,-0.116673 1.01986,-0.01638 1.26878,0.422217 0.054,0.09516 0.0686,0.207803 0.10289,0.311705 -0.006,0.285443 0.023,0.437147 -0.1199,0.703139 -0.20392,0.379548 -0.54434,0.702856 -0.97395,0.800204 -0.12566,0.02847 -0.25716,0.01648 -0.38574,0.02472 -0.1219,-0.03268 -0.25047,-0.04655 -0.36569,-0.09803 -0.44771,-0.200067 -0.73445,-0.667897 -0.75534,-1.150317 -0.005,-0.105663 0.019,-0.210665 0.0286,-0.315998 0.0366,-0.091 0.0536,-0.192655 0.10991,-0.273004 0.25627,-0.365851 0.67735,-0.46031 1.08658,-0.345419 0.0217,0.0066 -0.0719,0.313509 -0.0936,0.306889 z"
       inkscape:connector-curvature="0" />
    <path
       style="opacity:1;fill:#000000;fill-opacity:1;stroke:none;stroke-width:0.00287424"
       id="path6360"
       d="m 104.12284,43.276396 c -0.0268,0.02683 -0.0589,0.04921 -0.0804,0.0805 -0.0122,0.01776 -0.01,0.04211 -0.0173,0.0622 -0.0225,0.05861 -0.0582,0.112586 -0.0731,0.173567 -0.0368,0.150601 -0.0288,0.301107 0.0212,0.448028 0.0253,0.07436 0.0712,0.140074 0.10673,0.210111 0.0519,0.05251 0.0955,0.114659 0.15554,0.157526 0.15599,0.111331 0.3655,0.133072 0.53037,0.02757 0.12812,-0.08198 0.11766,-0.09161 0.14896,-0.196718 0.0216,-0.05772 0.0525,-0.112777 0.0649,-0.173156 0.0427,-0.20794 -0.0304,-0.411759 -0.20001,-0.542861 -0.076,-0.05872 -0.16847,-0.0922 -0.25271,-0.138294 -0.007,-0.0036 0.0439,-0.106895 0.0512,-0.103276 v 0 c 0.10764,0.0346 0.22119,0.05445 0.32292,0.103802 0.28494,0.138235 0.4811,0.393089 0.47452,0.719265 -0.002,0.09948 -0.0411,0.194719 -0.0616,0.292078 -0.083,0.108062 -0.14998,0.230525 -0.24892,0.324184 -0.32131,0.304145 -0.83308,0.264178 -1.15933,-0.0035 -0.0867,-0.07111 -0.14881,-0.167702 -0.22322,-0.251553 -0.0465,-0.103871 -0.10805,-0.202231 -0.13945,-0.311612 -0.0847,-0.295005 -0.0631,-0.667 0.12673,-0.921502 0.0675,-0.09049 0.15444,-0.166409 0.24491,-0.233929 0.0492,-0.03672 0.11229,-0.0497 0.16843,-0.07455 0.0249,-0.0028 0.0645,0.349333 0.0396,0.352133 z"
       inkscape:connector-curvature="0" />
    <path
       style="opacity:1;fill:#000000;fill-opacity:1;stroke:none;stroke-width:0.00287424"
       id="path6362"
       d="m 104.5095,48.960826 c -0.15034,0.526145 -0.24652,1.080587 -0.14857,1.626467 0.0184,0.102333 0.0547,0.200606 0.0821,0.300909 0.0389,0.06582 0.0677,0.138786 0.11675,0.197473 0.10006,0.119791 0.20525,0.08771 0.23499,-0.0568 0.006,-0.02725 -0.0139,-0.05562 -0.009,-0.08298 0.0161,-0.08739 0.0477,-0.171206 0.0716,-0.25681 0.0785,-0.564225 0.0483,-1.172225 -0.21471,-1.689853 -0.0356,-0.0701 -0.0848,-0.132432 -0.12723,-0.198647 -0.047,-0.04351 -0.0941,-0.08701 -0.14111,-0.130521 -0.005,-0.0026 0.0309,-0.07604 0.0361,-0.07348 v 0 c 0.0895,0.01332 0.17899,0.02664 0.26849,0.03996 0.0848,0.0605 0.18177,0.106809 0.2544,0.181486 0.35966,0.369836 0.47836,1.024054 0.46792,1.518917 -0.003,0.137955 -0.0283,0.274512 -0.0425,0.411767 -0.10446,0.333446 -0.10019,0.473289 -0.39875,0.719358 -0.25918,0.213609 -0.60717,0.116047 -0.80749,-0.116343 -0.0732,-0.08494 -0.11593,-0.192008 -0.17389,-0.288011 -0.0372,-0.123649 -0.0871,-0.244167 -0.1116,-0.370948 -0.11934,-0.617936 5.3e-4,-1.273472 0.29215,-1.825122 0.007,-0.02477 0.35683,0.0684 0.35025,0.09317 z"
       inkscape:connector-curvature="0" />
    <path
       style="opacity:1;fill:#000000;fill-opacity:1;stroke:none;stroke-width:0.00287424"
       id="path6364"
       d="m 104.37821,54.36378 c -0.26185,0.103592 -0.49282,0.227301 -0.5455,0.528825 -0.0105,0.05977 9e-5,0.121354 1.3e-4,0.182033 0.0214,0.05988 0.033,0.124167 0.0641,0.179623 0.14807,0.264168 0.4583,0.382149 0.7498,0.34077 0.0772,-0.01095 0.14982,-0.04296 0.22474,-0.06444 0.0634,-0.04138 0.13198,-0.07569 0.19012,-0.12415 0.0276,-0.02297 0.0443,-0.05663 0.0633,-0.08706 0.0899,-0.143896 0.17193,-0.30231 0.0741,-0.469474 -0.0282,-0.04824 -0.0757,-0.08229 -0.11348,-0.123436 -0.27357,-0.199631 -0.60018,-0.239784 -0.92663,-0.27415 -0.007,-2.28e-4 -0.004,-0.09998 0.003,-0.09976 v 0 c 0.0959,-0.02877 0.18879,-0.07123 0.2878,-0.08632 0.34066,-0.05191 0.62719,0.02802 0.9142,0.207168 0.16807,0.191662 0.26031,0.237408 0.29209,0.504884 0.0435,0.366019 -0.18372,0.651922 -0.46422,0.852569 -0.089,0.06364 -0.19669,0.09579 -0.29503,0.143679 -0.10942,0.01931 -0.21721,0.05402 -0.32825,0.05797 -0.4382,0.01556 -0.87287,-0.21972 -1.05903,-0.624805 -0.0421,-0.09172 -0.0543,-0.19444 -0.0814,-0.291658 0.005,-0.09812 -0.006,-0.198181 0.0135,-0.294347 0.092,-0.442939 0.51477,-0.711012 0.93449,-0.76831 0.022,-1.38e-4 0.0239,0.310248 0.002,0.310383 z"
       inkscape:connector-curvature="0" />
    <path
       style="opacity:1;fill:#000000;fill-opacity:1;stroke:none;stroke-width:0.00287424"
       id="path6366"
       d="m 104.63803,58.87828 c -0.18341,0.03445 -0.45133,0.03823 -0.56458,0.220105 -0.007,0.0114 0.0236,0.01828 0.0249,0.03166 0.004,0.04008 -0.007,0.08029 -0.01,0.120438 0.0151,0.05269 0.0224,0.108297 0.0454,0.158076 0.122,0.264379 0.38401,0.489907 0.6748,0.540109 0.0674,0.01164 0.13675,0.0016 0.20512,0.0024 0.0602,-0.02093 0.12503,-0.03154 0.1806,-0.06275 0.16589,-0.09316 0.12606,-0.08161 0.17639,-0.19857 0.0275,-0.06379 0.0657,-0.123391 0.0858,-0.189846 0.0561,-0.184624 0.0346,-0.238827 0.0203,-0.426268 -0.0234,-0.06125 -0.0367,-0.127339 -0.0701,-0.183735 -0.17566,-0.296508 -0.47618,-0.255749 -0.76775,-0.226496 -0.008,0.0011 -0.022,-0.10581 -0.0145,-0.106834 v 0 c 0.1006,-0.05084 0.19297,-0.123155 0.30179,-0.152516 0.31321,-0.08451 0.64575,0.04049 0.84039,0.294029 0.0623,0.08115 0.094,0.181753 0.14101,0.272629 0.0457,0.27215 0.0869,0.350568 0.0186,0.628073 -0.0867,0.352425 -0.35027,0.652349 -0.69417,0.77533 -0.0991,0.03542 -0.20673,0.03904 -0.3101,0.05856 -0.10593,-0.01212 -0.21456,-0.0098 -0.31781,-0.03637 -0.41446,-0.106801 -0.77322,-0.445272 -0.90512,-0.852397 -0.0303,-0.09362 -0.0335,-0.193948 -0.0503,-0.290923 0.0155,-0.09067 0.006,-0.189428 0.0465,-0.272015 0.18946,-0.386305 0.60697,-0.492964 0.99736,-0.442063 0.024,0.0039 -0.0308,0.343191 -0.0548,0.339315 z"
       inkscape:connector-curvature="0" />
    <path
       style="opacity:1;fill:#000000;fill-opacity:1;stroke:none;stroke-width:0.00287424"
       id="path6386"
       d="m 92.833063,41.407526 c 0.66536,-0.408615 1.371847,-0.744142 2.078816,-1.073149 0.85441,-0.385018 1.735475,-0.710449 2.637881,-0.963972 0.58803,-0.165203 0.779162,-0.19777 1.370746,-0.326568 1.028948,-0.210978 2.077544,-0.299686 3.105924,-0.511933 0.57642,-0.117803 1.09343,-0.401669 1.63234,-0.62324 0.10988,-0.03561 0.34612,-0.149143 0.27132,0.155671 -0.0106,0.04306 -0.0856,0.02301 -0.12845,0.03451 -0.002,0.0011 -0.0178,-0.02624 -0.0159,-0.02736 v 0 c -0.002,-0.02841 -0.0328,-0.09473 -0.006,-0.08524 0.29097,0.102763 0.06,0.185099 -0.0336,0.249413 -0.53295,0.311693 -1.09269,0.577495 -1.69439,0.728054 -1.02461,0.245303 -2.070782,0.379611 -3.099751,0.605197 -0.21995,0.05105 -0.440782,0.09843 -0.65985,0.153144 -1.116942,0.278954 -2.20921,0.647852 -3.277066,1.07691 -0.707893,0.286111 -1.409278,0.598536 -2.141274,0.818586 -0.01485,0.0029 -0.0557,-0.207132 -0.04084,-0.21002 z"
       inkscape:connector-curvature="0" />
    <path
       style="opacity:1;fill:#000000;fill-opacity:1;stroke:none;stroke-width:0.00287424"
       id="path6388"
       d="m 93.094654,41.440979 c 1.019509,0.05231 2.028134,0.242021 3.031677,0.420359 1.402649,0.252211 2.788449,0.587948 4.164559,0.95639 1.04379,0.293007 2.06854,0.646278 3.11989,0.912171 0.54308,0.160186 1.13471,0.206666 1.6471,0.463445 0.0551,0.0276 0.10497,0.06452 0.15745,0.09678 0.0365,0.03709 0.15485,0.12505 0.11857,0.206253 -0.0195,0.04367 -0.0767,0.0572 -0.11502,0.0858 -0.001,5.29e-4 -0.009,-0.01405 -0.008,-0.0146 v 0 c -0.0755,0.03837 -0.0547,0.05475 -0.14993,0.01709 -0.59359,-0.16806 -1.20469,-0.258204 -1.80636,-0.391811 -1.06004,-0.245881 -2.09815,-0.569604 -3.14876,-0.851671 -1.371366,-0.347372 -2.753576,-0.649116 -4.137103,-0.943858 -0.984985,-0.205645 -1.974705,-0.397203 -2.947156,-0.656951 -0.02117,-0.0052 0.05188,-0.304542 0.07305,-0.299377 z"
       inkscape:connector-curvature="0" />
    <path
       style="opacity:1;fill:#000000;fill-opacity:1;stroke:none;stroke-width:0.00287424"
       id="path6390"
       d="m 92.907621,41.727155 c 0.896815,0.432604 1.764786,0.925047 2.634473,1.40959 0.803912,0.454629 1.598899,0.929146 2.348502,1.469992 0.448126,0.323329 0.545218,0.41447 0.964187,0.76013 0.765156,0.657595 1.417447,1.430321 2.086567,2.181764 0.46151,0.528728 0.99184,0.989148 1.49376,1.477587 0.28223,0.270685 0.52639,0.576776 0.79341,0.86161 0.0171,0.02381 0.18672,0.147617 0.17897,0.162658 -0.006,0.01146 -0.0184,0.01805 -0.0276,0.02707 0.0152,-0.0013 0.0334,0.213524 0.0183,0.214815 v 0 c -0.0189,0.01151 -0.0361,0.02648 -0.0567,0.0345 -0.13643,0.05313 -0.29557,-0.07027 -0.3987,-0.138509 -0.29763,-0.251667 -0.54904,-0.552747 -0.83961,-0.812451 -0.52789,-0.478869 -1.07719,-0.936003 -1.55895,-1.463228 -0.661276,-0.724622 -1.296819,-1.480211 -2.059718,-2.102665 -0.149995,-0.118345 -0.297479,-0.239945 -0.449987,-0.355034 -0.891282,-0.672597 -1.849236,-1.249677 -2.806476,-1.821757 -0.856915,-0.508443 -1.731387,-1.006437 -2.501713,-1.642686 -0.01862,-0.01282 0.162709,-0.276208 0.181333,-0.263385 z"
       inkscape:connector-curvature="0" />
    <path
       style="opacity:1;fill:#000000;fill-opacity:1;stroke:none;stroke-width:0.00287424"
       id="path6392"
       d="m 92.416918,41.52337 c 0.578823,0.60931 1.161945,1.212422 1.772068,1.790956 0.70558,0.659278 1.44942,1.276489 2.149296,1.942 0.559766,0.532281 0.595227,0.586359 1.125404,1.151594 0.96923,1.062151 1.709771,2.296702 2.494682,3.493471 0.458992,0.735301 1.095972,1.320617 1.697592,1.933466 0.27609,0.290293 0.53499,0.60125 0.71703,0.960419 0.0671,0.132361 0.10819,0.24706 0.16131,0.383776 0.0827,0.299312 0.28139,0.507854 0.50065,0.715047 0.22341,0.197739 0.41739,0.422587 0.60543,0.653036 0.1365,0.162537 0.28314,0.316154 0.41868,0.479825 0.0776,0.115424 0.35081,0.385479 0.32166,0.531432 -0.0588,0.01908 -0.1177,0.03813 -0.17654,0.05719 -10e-4,-0.0011 0.0147,-0.01545 0.0157,-0.01434 v 0 c -0.0332,0.04761 -0.0664,0.09522 -0.0996,0.142827 -0.0105,7.94e-4 -0.0217,0.0063 -0.0314,0.0021 -0.11112,-0.04742 -0.27808,-0.349208 -0.36614,-0.439719 -0.12722,-0.164113 -0.25294,-0.329771 -0.39692,-0.479867 -0.19565,-0.211471 -0.40128,-0.41303 -0.6089,-0.61273 -0.23952,-0.249055 -0.46477,-0.508484 -0.58275,-0.839763 -0.20498,-0.468138 -0.46525,-0.821513 -0.83802,-1.176399 -0.64085,-0.616225 -1.305232,-1.214128 -1.813621,-1.951207 -0.808625,-1.146759 -1.549323,-2.347253 -2.493122,-3.392225 -0.178128,-0.193085 -0.352403,-0.389797 -0.534382,-0.579255 -0.854579,-0.889704 -1.802368,-1.682369 -2.668808,-2.559798 -0.585251,-0.623207 -1.173283,-1.259093 -1.595548,-2.00856 -0.01297,-0.016 0.21332,-0.19934 0.226284,-0.18334 z"
       inkscape:connector-curvature="0" />
    <path
       style="opacity:1;fill:#000000;fill-opacity:1;stroke:none;stroke-width:0.00287424"
       id="path6394"
       d="m 92.638097,42.421231 c 0.534271,0.650623 0.942874,1.395562 1.358802,2.124493 0.644638,1.141095 1.193579,2.331614 1.73159,3.52548 0.47616,1.08375 1.056962,2.115185 1.665486,3.128828 0.571321,0.927335 1.132443,1.860878 1.696728,2.792494 0.560346,0.921007 1.118617,1.842964 1.637667,2.788016 0.26389,0.435686 0.43679,0.936257 0.7628,1.333677 0.0387,0.04714 0.0832,0.08916 0.12478,0.133736 0.0458,0.03852 0.0896,0.07948 0.13736,0.115565 0.16736,0.126526 0.35491,0.226613 0.53105,0.339852 0.21595,0.138835 0.20168,0.13308 0.41181,0.28566 0.33011,0.243996 0.59602,0.557054 0.87061,0.858573 0.11785,0.147738 0.26639,0.257273 0.42092,0.362331 0.11841,0.0932 0.3122,0.18892 0.32438,0.357346 -0.0508,0.01916 -0.10151,0.03832 -0.15227,0.05749 -8e-4,-7.94e-4 0.0111,-0.01199 0.0119,-0.01114 v 0 c -0.0308,0.04082 -0.0616,0.08164 -0.0924,0.12247 -0.007,0.0052 -0.012,0.01569 -0.0206,0.01561 -0.0691,-5.29e-4 -0.23796,-0.193506 -0.30996,-0.2202 -0.16884,-0.121853 -0.33499,-0.246967 -0.47972,-0.39779 -0.27388,-0.274698 -0.53408,-0.564523 -0.83987,-0.805283 -0.3597,-0.27966 -0.75515,-0.508799 -1.10057,-0.805987 -0.0509,-0.05312 -0.10481,-0.103542 -0.15276,-0.159348 -0.3438,-0.400085 -0.55218,-0.898345 -0.838,-1.337096 -0.547719,-0.924589 -1.113814,-1.838005 -1.664444,-2.760848 -0.554021,-0.936781 -1.105485,-1.875202 -1.695078,-2.790301 -0.627729,-1.0215 -1.223317,-2.063178 -1.709983,-3.160741 -0.546685,-1.179822 -1.094942,-2.35921 -1.689341,-3.516024 -0.381749,-0.741099 -0.77533,-1.475903 -1.162131,-2.214273 -0.0115,-0.01564 0.209758,-0.178251 0.221256,-0.162606 z"
       inkscape:connector-curvature="0" />
    <path
       style="opacity:1;fill:#000000;fill-opacity:1;stroke:none;stroke-width:0.00287424"
       id="path6396"
       d="m 92.652022,45.298186 c 0.566633,-0.394137 1.107297,-0.822431 1.641701,-1.258753 0.496503,-0.412786 0.983673,-0.837986 1.503754,-1.221461 0.327566,-0.241528 0.465936,-0.326216 0.804479,-0.549057 0.765098,-0.459407 1.527305,-0.92162 2.266293,-1.422233 0.430983,-0.281563 0.827882,-0.619288 1.283351,-0.862432 0.16316,-0.04681 0.28403,-0.154586 0.41651,-0.255862 0.18493,-0.124968 0.35221,-0.303582 0.5736,-0.361808 0.088,-0.01887 0.12391,0.04188 0.19279,0.07416 0.007,0.0031 0.007,-0.01286 0.0131,-0.01719 0.0119,-0.009 0.0264,-0.01392 0.0396,-0.02088 0.17801,-0.0908 0.34846,-0.202563 0.50116,-0.33186 -0.008,0.0091 -0.032,0.03459 -0.0226,0.02735 0.0255,-0.01975 0.0395,-0.06883 0.0716,-0.06519 0.13543,0.01536 0.24409,0.08768 0.141,0.159617 0.004,0.0051 -0.0684,0.06146 -0.0724,0.05634 v 0 c -0.0422,0.0079 -0.11247,-0.01968 -0.087,-0.01435 0.0533,0.01114 0.10414,0.03755 0.15853,0.03885 0.0158,3.71e-4 0.19255,-0.201244 -0.0474,0.0616 -0.17853,0.16973 -0.38852,0.314234 -0.62746,0.382105 -0.10273,0.0098 -0.17599,0.0137 -0.26533,-0.04384 -0.01,-0.0061 -0.0369,-0.02114 -0.0256,-0.02228 0.0302,-0.0031 0.0545,0.04028 0.0884,0.02163 -0.14203,0.152713 -0.33951,0.252571 -0.50104,0.381187 -0.13928,0.08712 -0.28953,0.152583 -0.42321,0.245878 -0.399716,0.34008 -0.812212,0.66529 -1.240964,0.968135 -0.737991,0.505674 -1.509222,0.956971 -2.268598,1.429224 -0.800703,0.535747 -1.546666,1.124795 -2.288268,1.73897 -0.550208,0.41861 -1.113187,0.850101 -1.761124,1.105879 -0.01723,0.0046 -0.08209,-0.239123 -0.06486,-0.243708 z"
       inkscape:connector-curvature="0" />
    <path
       style="opacity:1;fill:#000000;fill-opacity:1;stroke:none;stroke-width:0.00287424"
       id="path6398"
       d="m 93.044935,45.992707 c 0.570636,-0.436782 1.213827,-0.763736 1.857596,-1.076733 0.915976,-0.423423 1.874792,-0.755435 2.865052,-0.954598 0.199449,-0.04011 0.400946,-0.06928 0.601419,-0.103915 0.949246,-0.147905 1.909468,-0.139833 2.865338,-0.08547 0.46431,0.04243 0.9274,0.07901 1.39249,0.03564 0.35515,-0.03561 0.67066,-0.196429 0.98625,-0.349473 0.23573,-0.128278 0.49323,-0.139129 0.75478,-0.136365 0.12596,0.0037 0.25224,0.0032 0.37811,0.0096 0.0355,0.0018 0.11756,0.0051 0.12333,0.02266 0.005,0.01402 -0.0171,0.02405 -0.0256,0.03608 -0.0182,0.197058 0.0332,0.197501 -0.0888,0.125924 -0.002,-2.65e-4 0.002,-0.03268 0.004,-0.03242 v 0 c 0.16099,-0.07021 0.0934,-0.08145 0.1543,0.135701 -0.017,0.01665 -0.0314,0.03654 -0.0511,0.04995 -0.1402,0.09552 -0.39078,0.03317 -0.54879,0.04285 -0.22772,-0.0053 -0.39565,0.0062 -0.59367,0.134159 -0.35125,0.184335 -0.71535,0.342845 -1.1157,0.378601 -0.47995,0.03595 -0.96025,0.01675 -1.44101,0.0076 -0.92969,-0.01074 -1.86169,0.01315 -2.780569,0.170032 -0.192715,0.03614 -0.386322,0.06781 -0.578146,0.108416 -0.955272,0.202221 -1.884034,0.513114 -2.781458,0.896051 -0.633997,0.280442 -1.255981,0.585705 -1.886343,0.873559 -0.02035,0.0065 -0.111521,-0.281345 -0.09117,-0.287793 z"
       inkscape:connector-curvature="0" />
    <path
       style="opacity:1;fill:#000000;fill-opacity:1;stroke:none;stroke-width:0.00287424"
       id="path6400"
       d="m 93.176706,45.913922 c 0.675898,0.363005 1.384308,0.651965 2.104851,0.912302 1.123588,0.37548 2.282985,0.627125 3.433727,0.902723 0.692793,0.172591 1.390556,0.341257 2.056706,0.602523 0.32493,0.127442 0.41862,0.181784 0.72213,0.332674 0.44248,0.22625 0.82893,0.542409 1.26935,0.77103 0.41093,0.172125 0.84672,0.276923 1.27628,0.391663 0.18561,0.07284 0.63123,0.108495 0.77027,0.250322 -0.13553,0.299159 -0.0625,0.34182 -0.18816,0.17028 -0.002,-5.29e-4 0.004,-0.03286 0.006,-0.03242 v 0 c 0.17216,-0.137713 0.10716,-0.123833 0.0642,0.188777 -0.0784,0.02313 -0.15925,0.0029 -0.23835,-0.01042 -0.19194,-0.0324 -0.38248,-0.07297 -0.57129,-0.120253 -0.45911,-0.115425 -0.92,-0.239126 -1.35028,-0.440182 -0.43554,-0.224407 -0.83709,-0.508699 -1.28198,-0.715966 -0.31053,-0.136408 -0.36,-0.165184 -0.69273,-0.280214 -0.663134,-0.229257 -1.348902,-0.381929 -2.029884,-0.546635 -1.169618,-0.27867 -2.346953,-0.545282 -3.476866,-0.962673 -0.734648,-0.29401 -1.492913,-0.607372 -2.080157,-1.154044 -0.01835,-0.01458 0.187702,-0.274053 0.20605,-0.259482 z"
       inkscape:connector-curvature="0" />
    <path
       style="opacity:1;fill:#000000;fill-opacity:1;stroke:none;stroke-width:0.00287424"
       id="path6402"
       d="m 92.926431,46.256499 c 1.072303,0.401219 2.012297,1.085757 2.92762,1.758881 1.120775,0.841163 2.118142,1.826525 3.108488,2.813375 0.605812,0.610312 1.219861,1.21239 1.842471,1.805536 0.51822,0.486629 1.04434,0.964276 1.53748,1.476634 0.39492,0.410982 0.75363,0.854556 1.08724,1.316175 0.18621,0.290348 0.43142,0.557845 0.55749,0.883031 0.001,0.01455 0.01,0.03011 0.004,0.04368 -0.004,0.009 -0.0178,0.008 -0.0267,0.01193 -0.0567,0.02513 -0.10817,0.0772 -0.17018,0.07536 -0.0277,-7.93e-4 -0.0128,-0.05398 -0.0192,-0.08097 -10e-4,-0.0019 0.0244,-0.01593 0.0254,-0.01413 v 0 c 0.0167,0.02019 0.0585,0.03579 0.05,0.06058 -0.0504,0.148037 -0.10727,0.194686 -0.20207,0.131014 -0.23479,-0.242485 -0.40069,-0.545402 -0.61302,-0.806302 -0.32837,-0.440103 -0.67308,-0.868278 -1.06509,-1.254167 -0.49973,-0.498256 -1.02438,-0.969534 -1.54196,-1.449033 -0.627231,-0.590661 -1.250849,-1.185159 -1.882487,-1.771126 -1.003491,-0.941242 -2.015286,-1.875774 -3.098112,-2.726312 -0.877077,-0.674452 -1.771803,-1.32474 -2.698721,-1.929511 -0.02437,-0.01252 0.152622,-0.357166 0.176992,-0.344651 z"
       inkscape:connector-curvature="0" />
    <path
       style="opacity:1;fill:#000000;fill-opacity:1;stroke:none;stroke-width:0.00287424"
       id="path6404"
       d="m 92.404899,46.352379 c -0.01252,-0.03857 -0.12606,-0.49257 -0.11217,-0.497039 0.365564,-0.117559 0.321265,-0.05962 0.462905,0.174726 0.552461,1.040421 1.187716,2.030732 1.847751,3.005203 0.555079,0.794751 1.134543,1.57356 1.762008,2.312959 0.358231,0.422137 0.486778,0.554222 0.858763,0.959188 0.558634,0.595588 1.147307,1.167085 1.649613,1.813058 0.327414,0.42106 0.393129,0.549608 0.677035,0.999566 0.520546,0.865688 0.820336,1.834007 1.228346,2.752037 0.11096,0.236075 0.24668,0.45832 0.43407,0.641626 0.15065,0.147378 0.33172,0.259043 0.50593,0.375388 0.43808,0.273899 0.8107,0.61014 1.1215,1.021739 0.032,0.05179 0.0676,0.101568 0.0961,0.155366 0.0202,0.03811 0.1364,0.318756 0.0553,0.359039 -0.32243,0.160052 -0.3114,0.131749 -0.40084,-0.01648 -0.0339,-0.106366 0.004,-0.147939 0.0771,-0.220875 -1.8e-4,-7.93e-4 0.0105,-0.0033 0.0106,-0.0026 v 0 c 0.0578,-0.008 0.11634,-0.0254 0.17294,-0.0046 0.13453,0.08867 -0.0204,-0.02893 -0.24146,0.152392 -0.0261,0.02138 0.006,0.06768 0.001,0.101127 -8e-4,0.0055 -0.009,-0.0062 -0.0128,-0.01058 -0.0497,-0.06309 -0.09,-0.133319 -0.14418,-0.193099 -0.30208,-0.354774 -0.64013,-0.675269 -1.03264,-0.929719 -0.19891,-0.135991 -0.40335,-0.268975 -0.58051,-0.433607 -0.22561,-0.209645 -0.40342,-0.459134 -0.55343,-0.727133 -0.059,-0.11592 -0.12096,-0.230392 -0.17703,-0.347758 -0.367964,-0.770162 -0.636195,-1.587863 -1.075133,-2.324089 -0.274607,-0.444313 -0.312258,-0.531101 -0.632781,-0.945751 -0.494636,-0.639897 -1.076799,-1.203134 -1.632888,-1.787874 -0.979795,-1.03967 -1.913836,-2.125292 -2.704117,-3.318695 -0.654111,-1.012619 -1.295871,-2.050505 -1.673948,-3.203313 -0.07033,-0.261126 -0.141932,-0.264121 0.197389,-0.430668 0.02459,-0.01206 0.009,0.05407 0.01178,0.08132 0.01462,0.142126 0.02312,0.285194 0.03075,0.427823 0.0043,0.01606 -0.22295,0.07737 -0.227284,0.0613 z"
       inkscape:connector-curvature="0" />
    <path
       style="opacity:1;fill:#000000;fill-opacity:1;stroke:none;stroke-width:0.00287424"
       id="path6406"
       d="m 92.702039,52.171299 c 0.0151,-0.02556 0.02776,-0.05274 0.0453,-0.07669 0.113112,-0.154464 0.236857,-0.300861 0.353741,-0.452491 0.248327,-0.322143 0.490813,-0.648467 0.732619,-0.975513 0.554683,-0.750295 1.039533,-1.548212 1.553221,-2.326288 0.636206,-0.959755 1.391119,-1.831536 2.131997,-2.710267 0.552824,-0.64896 1.081331,-1.317869 1.61079,-1.985839 0.341831,-0.454135 0.715536,-0.878246 1.123593,-1.273223 0.34342,-0.300108 0.71943,-0.557866 1.04307,-0.880176 0.19147,-0.214442 0.30363,-0.471182 0.40196,-0.737206 0.0949,-0.311653 0.21963,-0.610884 0.37727,-0.89567 0.14852,-0.262224 0.35378,-0.477148 0.58144,-0.671743 0.0405,-0.002 0.18295,-0.182339 0.21694,-0.188918 0.0181,-0.0035 -0.0274,0.02699 -0.0327,0.04465 -0.002,0.0072 0.009,0.01206 0.014,0.01758 0.0503,0.05484 0.10135,0.108987 0.15202,0.163481 -0.0935,-0.0087 -0.0495,-0.01951 -0.1306,0.03798 -0.001,0.0021 -0.0305,-0.01344 -0.0294,-0.01551 v 0 c 0.0762,-0.11982 0.0467,-0.05604 0.0887,-0.191251 0.0795,0.03368 0.16667,0.0531 0.23848,0.101031 0.0151,0.0101 0.003,0.03864 -0.006,0.05426 -0.0803,0.134543 -0.21628,0.22984 -0.32731,0.335764 -0.14451,0.127263 -0.281,0.259651 -0.36895,0.437427 -0.15169,0.265117 -0.2773,0.54356 -0.36286,0.837467 -0.13192,0.387306 -0.29256,0.752804 -0.59623,1.040373 -0.32685,0.32313 -0.69945,0.59115 -1.04208,0.896758 -0.35006,0.31828 -0.629772,0.701684 -0.908497,1.081693 -0.505374,0.685794 -0.999235,1.380735 -1.540037,2.039585 -0.723965,0.877546 -1.478641,1.731642 -2.14531,2.654686 -0.538778,0.774115 -1.052647,1.565632 -1.613001,2.32451 -0.431938,0.560147 -0.866295,1.128665 -1.40948,1.587291 -0.01936,0.01082 -0.172261,-0.262948 -0.152904,-0.273759 z"
       inkscape:connector-curvature="0" />
    <path
       style="opacity:1;fill:#000000;fill-opacity:1;stroke:none;stroke-width:0.00287424"
       id="path6408"
       d="m 93.138092,52.283567 c 0.565596,-0.741664 1.322134,-1.308018 2.067002,-1.856674 1.010902,-0.707191 2.057764,-1.361032 3.091147,-2.034529 0.797553,-0.531815 1.622307,-1.019384 2.455419,-1.492655 0.54088,-0.277395 1.00561,-0.661964 1.45591,-1.064297 0.36508,-0.343297 0.73056,-0.686126 1.16107,-0.945994 0.21192,-0.106886 0.41452,-0.219853 0.58413,-0.387022 0.13398,-0.155067 0.27674,-0.310901 0.4178,-0.463149 0.0216,0.04874 0.0481,-0.08837 0.0773,-0.06962 0.0116,0.0074 -0.005,0.03135 0.004,0.04104 0.0539,0.05346 0.13021,0.08261 0.17886,0.140862 0.0201,0.02413 -0.057,-0.03266 -0.0885,-0.03262 -0.0297,4.5e-5 -0.0553,0.02191 -0.083,0.03287 -0.002,5.29e-4 -0.0106,-0.03122 -0.008,-0.03181 v 0 c 0.0257,-0.01513 0.0598,-0.02111 0.0771,-0.04538 0.0195,-0.02724 -0.009,-0.09533 0.0249,-0.09732 0.31363,-0.01866 0.29351,0.09983 0.19932,0.249762 -0.17755,0.236633 -0.38337,0.451861 -0.59733,0.655611 -0.19508,0.162566 -0.40953,0.294191 -0.6257,0.426821 -0.39272,0.2882 -0.73265,0.637058 -1.0956,0.960548 -0.47608,0.412436 -0.97348,0.796439 -1.52013,1.112581 -0.81429,0.503979 -1.614245,1.030013 -2.408471,1.565027 -1.024192,0.670112 -2.063556,1.316712 -3.080027,1.99848 -0.670871,0.478461 -1.328089,0.974698 -1.954741,1.510204 -0.01221,0.02352 -0.344765,-0.149217 -0.332551,-0.172733 z"
       inkscape:connector-curvature="0" />
    <path
       style="opacity:1;fill:#000000;fill-opacity:1;stroke:none;stroke-width:0.00287424"
       id="path6410"
       d="m 93.133077,52.486592 c 0.06605,-0.04738 0.129286,-0.09895 0.198142,-0.142147 0.742256,-0.465693 1.647957,-0.746162 2.474699,-1.016773 1.334422,-0.423135 2.701216,-0.730107 4.073268,-1.001739 0.736764,-0.130654 1.478494,-0.275836 2.229864,-0.259559 0.29541,0.01323 0.57636,0.10549 0.84731,0.21743 0.0448,0.01823 0.0813,0.03223 0.12416,0.05204 0.007,0.003 0.0265,0.0093 0.0193,0.01003 -0.0241,0.0024 -0.0591,-0.02468 -0.0726,-0.0045 -0.15322,0.229531 -0.0758,0.397007 -0.13276,0.256963 -0.0108,-0.0502 0.0266,-0.08783 0.0342,-0.134815 -8e-4,-2.36e-4 0.003,-0.0104 0.003,-0.01016 v 0 c 0.0436,-0.03393 0.0684,-0.08465 0.13017,-0.08462 0.14981,0.02791 0.14182,0.0094 -0.003,0.351317 -0.018,0.04249 -0.25885,-0.04087 -0.27997,-0.04595 -0.23294,-0.07748 -0.4646,-0.172175 -0.71549,-0.154401 -0.72981,0.06644 -1.43721,0.27912 -2.153877,0.421318 -1.348055,0.305816 -2.697408,0.61069 -4.025277,0.99686 -0.881232,0.261432 -1.764939,0.526595 -2.605451,0.90306 -0.02506,0.01035 -0.171274,-0.344006 -0.146218,-0.354344 z"
       inkscape:connector-curvature="0" />
    <path
       style="opacity:1;fill:#000000;fill-opacity:1;stroke:none;stroke-width:0.00287424"
       id="path6412"
       d="m 93.259588,52.648811 c 0.446634,0.404008 0.977397,0.705395 1.529462,0.94135 0.185381,0.07923 0.376415,0.144529 0.564622,0.216795 1.227878,0.435943 2.528999,0.565303 3.813816,0.722373 0.66447,0.07988 1.324422,0.199546 1.960762,0.41017 0.29371,0.09722 0.41214,0.151443 0.6921,0.266708 0.46786,0.217628 0.94369,0.409239 1.44343,0.538602 0.33629,0.05942 0.65356,0.170971 0.96281,0.312153 0.0532,0.03985 0.39754,0.150791 0.41907,0.198646 0.004,0.0081 -0.009,0.01527 -0.0134,0.02289 -0.0183,0.04674 -0.0367,0.09348 -0.055,0.140216 -8e-4,-5.3e-4 0.008,-0.0136 0.008,-0.01299 v 0 c 0.006,0.06111 0.0115,0.122219 0.0172,0.183329 -0.0214,0.0083 -0.0417,0.02056 -0.0643,0.02479 -0.17994,0.0337 -0.36247,-0.09337 -0.52323,-0.148974 -0.2919,-0.126669 -0.59728,-0.198382 -0.91114,-0.249952 -0.52157,-0.120914 -1.01926,-0.311171 -1.51299,-0.516861 -0.24744,-0.08951 -0.405,-0.151071 -0.66119,-0.224141 -0.61991,-0.176813 -1.260721,-0.260954 -1.900662,-0.325144 -1.338761,-0.136541 -2.694112,-0.269349 -3.954947,-0.774962 -0.196164,-0.08814 -0.396213,-0.1681 -0.588491,-0.264422 -0.578534,-0.289817 -1.189418,-0.677876 -1.525081,-1.248196 -0.01502,-0.02111 0.283735,-0.23351 0.298753,-0.212386 z"
       inkscape:connector-curvature="0" />
    <path
       style="opacity:1;fill:#000000;fill-opacity:1;stroke:none;stroke-width:0.00287424"
       id="path6414"
       d="m 93.16876,52.552042 c 0.848208,0.364697 1.659491,0.812126 2.476751,1.240581 1.132788,0.602742 2.268726,1.206955 3.339805,1.916065 0.188446,0.124759 0.371958,0.256815 0.557939,0.385225 0.568875,0.409171 1.100105,0.871353 1.568575,1.393161 0.16988,0.189212 0.30438,0.364326 0.46148,0.562269 0.34196,0.450808 0.66038,0.918583 1.00243,1.36929 0.32463,0.447453 0.72798,0.774298 1.17989,1.082403 0.13731,0.09578 0.28666,0.17386 0.41931,0.27646 0.023,0.01778 0.0694,0.04681 0.0519,0.07003 -0.0571,0.07592 -0.12155,0.146029 -0.18232,0.219044 -0.004,-0.0358 -0.008,-0.0716 -0.0117,-0.107395 -0.002,-0.0011 0.0122,-0.024 0.0139,-0.02299 v 0 c 0.0388,-0.01267 0.0775,-0.02537 0.11625,-0.03805 -0.0339,0.09062 -0.0567,0.186209 -0.10167,0.271857 -0.01,0.01826 -0.079,-0.0024 -0.11908,-0.01736 -0.16652,-0.06265 -0.31866,-0.157972 -0.47268,-0.245208 -0.51149,-0.323805 -0.93415,-0.682373 -1.29432,-1.174588 -0.3316,-0.44949 -0.64067,-0.916088 -1.00072,-1.344009 -0.59418,-0.691439 -1.2357,-1.275321 -2.003881,-1.774786 -0.184422,-0.119869 -0.367002,-0.242625 -0.55327,-0.359611 -1.079186,-0.677783 -2.208426,-1.270196 -3.310328,-1.909156 -0.793792,-0.461275 -1.601481,-0.91262 -2.3284,-1.476558 -0.02239,-0.01344 0.167766,-0.330118 0.190159,-0.316672 z"
       inkscape:connector-curvature="0" />
    <path
       style="opacity:1;fill:#000000;fill-opacity:1;stroke:none;stroke-width:0.00287424"
       id="path6416"
       d="m 92.911804,57.287888 c -0.09347,-0.574471 0.132399,-1.077574 0.387284,-1.576446 0.462501,-0.756711 0.981279,-1.476782 1.461469,-2.22251 0.581519,-0.949391 1.13508,-1.915621 1.69861,-2.875756 0.540265,-0.914046 0.98136,-1.880611 1.439267,-2.83708 0.355569,-0.736465 0.747771,-1.456237 1.200546,-2.137862 0.278275,-0.418928 0.35283,-0.504375 0.650049,-0.894678 0.355471,-0.479462 0.823921,-0.868921 1.124441,-1.387795 0.12769,-0.26364 0.22029,-0.542276 0.34536,-0.807228 0.11085,-0.234845 0.13713,-0.268993 0.26858,-0.495827 0.26564,-0.420057 0.58662,-0.800117 0.80799,-1.246912 0.10589,-0.23694 0.15925,-0.492052 0.24607,-0.73579 0.0683,-0.191915 0.08,-0.205833 0.16599,-0.390813 0.11272,-0.261334 0.32058,-0.469352 0.44044,-0.725541 0.0115,-0.05108 0.007,-0.01368 0.0437,0.003 0.0304,0.01372 0.0802,7.41e-4 0.10745,-0.003 0.0451,-0.127281 0.063,-0.131171 -0.0131,-0.05338 -1.3e-4,0.0016 -0.0226,-2.26e-4 -0.0224,-0.0018 v 0 c -0.0376,-0.121732 -0.0286,-0.04494 0.0385,-0.228723 0.0289,-0.0039 0.0576,-0.0131 0.0868,-0.01184 0.16764,0.0072 0.19877,0.21498 0.18921,0.342119 -0.008,0.03829 -0.0121,0.07759 -0.0239,0.114886 -0.0794,0.251226 -0.27919,0.446076 -0.3869,0.68355 -0.0777,0.152425 -0.0963,0.17866 -0.15712,0.339579 -0.0971,0.257075 -0.14961,0.528533 -0.25374,0.783197 -0.083,0.182872 -0.1054,0.244377 -0.20798,0.419983 -0.17737,0.303603 -0.4019,0.575974 -0.59168,0.871413 -0.11444,0.18357 -0.16689,0.25995 -0.26675,0.450195 -0.14166,0.269896 -0.24437,0.55725 -0.37828,0.83074 -0.29173,0.531576 -0.7015,0.97906 -1.05216,1.471349 -0.674624,0.940517 -1.292491,1.92042 -1.810681,2.956851 -0.484503,0.956173 -0.943701,1.925791 -1.469532,2.860456 -0.555234,0.976683 -1.109388,1.955501 -1.723714,2.896637 -0.277504,0.406193 -0.308608,0.459904 -0.595271,0.848328 -0.321458,0.43557 -0.66754,0.853527 -0.964791,1.306597 -0.262848,0.436486 -0.50655,0.887397 -0.539449,1.407171 0.0033,0.01728 -0.240934,0.06414 -0.244248,0.04687 z"
       inkscape:connector-curvature="0" />
    <path
       style="opacity:1;fill:#000000;fill-opacity:1;stroke:none;stroke-width:0.00287424"
       id="path6418"
       d="m 92.985908,56.961779 c 0.292918,-0.576319 0.709208,-1.074839 1.136501,-1.554896 0.609002,-0.639146 1.232276,-1.262636 1.81541,-1.925926 0.567978,-0.678521 1.14076,-1.352312 1.754801,-1.989762 0.474853,-0.48012 0.99417,-0.911828 1.480549,-1.379698 0.438695,-0.435155 0.826587,-0.917078 1.197561,-1.410161 0.27969,-0.355605 0.48578,-0.752136 0.65952,-1.167215 0.16432,-0.446645 0.41459,-0.846224 0.71715,-1.210672 0.0946,-0.134818 0.24816,-0.21934 0.34702,-0.3497 0.0268,-0.03541 0.0456,-0.09266 0.0609,-0.130431 0.13942,-0.404935 0.3561,-0.773446 0.61515,-1.112213 0.16281,-0.191405 0.30528,-0.367218 0.55777,-0.399365 -0.0212,-0.06788 -0.0942,0.06292 -0.0982,0.02903 -0.003,-0.02585 0.0321,-0.041 0.0476,-0.06196 0.0711,-0.09646 0.13754,-0.196397 0.20536,-0.295177 0.0353,-0.02157 0.0923,-0.175665 0.15355,-0.170801 0.0128,10e-4 0.0133,0.02359 0.0248,0.0293 0.056,0.02794 0.12853,0.02727 0.1743,0.06999 0.0179,0.01672 -0.0447,0.02008 -0.0671,0.03012 -5.3e-4,0.0014 -0.0199,-0.0055 -0.0194,-0.0068 v 0 c -0.003,-0.02155 -0.0294,-0.05887 -0.008,-0.06463 0.22273,-0.06126 0.28554,0.01897 0.20754,0.174372 -0.0167,0.03326 -0.0365,0.06486 -0.0548,0.09728 -0.12192,0.187333 -0.25388,0.407768 -0.44457,0.534479 -0.0297,0.01974 -0.0672,0.02379 -0.10084,0.03569 -0.0119,0.0011 -0.0247,-0.0016 -0.0356,0.0033 -0.008,0.0038 0.0196,-0.0042 0.0276,2.64e-4 0.04,0.0227 -0.26156,0.15888 -0.14835,0.182295 -0.23788,0.317924 -0.4508,0.654881 -0.62627,1.011484 -0.024,0.05557 -0.0652,0.15503 -0.0948,0.208677 -0.0805,0.145862 -0.20941,0.255688 -0.31363,0.383275 -0.27387,0.338498 -0.51964,0.699453 -0.68113,1.106512 -0.18549,0.439338 -0.38159,0.873921 -0.66628,1.260475 -0.41677,0.588065 -0.869917,1.149082 -1.404126,1.63632 -0.428431,0.399794 -0.874422,0.78209 -1.273243,1.212406 -0.598418,0.643522 -1.16159,1.317411 -1.731355,1.98619 -0.592772,0.664559 -1.214562,1.300247 -1.859094,1.914848 -0.444949,0.45426 -0.865014,0.929013 -1.252466,1.433639 -0.0078,0.02143 -0.311081,-0.08909 -0.303265,-0.110537 z"
       inkscape:connector-curvature="0" />
    <path
       style="opacity:1;fill:#000000;fill-opacity:1;stroke:none;stroke-width:0.00287424"
       id="path6420"
       d="m 93.367231,56.634052 c 0.623478,-0.565546 1.358425,-0.996452 2.075988,-1.430475 0.950808,-0.575484 1.954861,-1.052914 2.948627,-1.547553 0.816436,-0.406014 1.578827,-0.908648 2.344644,-1.400895 0.50753,-0.334084 1.03417,-0.633068 1.59829,-0.859371 0.30457,-0.09861 0.57461,-0.26121 0.83658,-0.440762 0.15403,-0.08884 0.2743,-0.23827 0.43329,-0.318349 0.14001,0.231672 0.24215,0.381174 0.0297,0.341288 -0.0133,0.0033 -0.0605,-0.184311 -0.0472,-0.187653 v 0 c -0.0443,-0.112056 0.24974,-0.44119 0.21171,0.200277 -0.11323,0.166095 -0.3046,0.268353 -0.45672,0.392927 -0.28254,0.193757 -0.5849,0.348292 -0.90207,0.477899 -0.53132,0.256145 -1.01949,0.5858 -1.50995,0.911807 -0.77697,0.508301 -1.558815,1.012526 -2.392177,1.425244 -0.982343,0.491098 -1.971221,0.970899 -2.920242,1.525257 -0.700633,0.406318 -1.39985,0.814948 -2.09844,1.224703 -0.02223,0.01074 -0.174208,-0.303596 -0.15198,-0.314344 z"
       inkscape:connector-curvature="0" />
    <path
       style="opacity:1;fill:#000000;fill-opacity:1;stroke:none;stroke-width:0.00287424"
       id="path6422"
       d="m 93.079035,57.942454 c -0.0011,-0.350655 0.02208,-0.703606 0.07702,-1.050205 0.0019,-0.01299 -0.0074,-0.03902 0.0058,-0.03894 0.293415,0.0019 0.249599,0.04054 0.224288,0.238045 -0.01338,0.07704 -0.03562,0.231733 -0.162398,-0.150222 -0.01046,-0.03151 0.05883,-0.03113 0.08974,-0.04325 0.225119,-0.08828 0.463609,-0.117896 0.700765,-0.155747 0.993273,-0.113326 1.985141,-0.231323 2.972156,-0.391332 1.04368,-0.183949 2.08183,-0.395616 3.128714,-0.561237 0.74527,-0.120824 1.49834,-0.142922 2.25135,-0.125254 0.43944,0.01656 0.87882,0.03047 1.3186,0.02887 0.19254,0.01461 0.35987,-0.0423 0.53375,-0.113702 0.14545,-0.06717 0.29612,-0.110114 0.45244,-0.140999 0.0402,-0.0079 0.0793,-0.02257 0.12006,-0.02564 0.0356,-0.0027 0.0712,0.0056 0.10677,0.0084 0.13473,0.02651 0.14202,0.04068 0.13834,0.172667 5.3e-4,5.29e-4 -0.005,0.0093 -0.006,0.0089 v 0 c -0.026,0.08186 -0.0395,0.13004 -0.12419,0.163367 -0.19939,0.104177 0.0484,-0.01921 -0.17912,0.07289 -0.14327,0.058 -0.28018,0.134225 -0.43004,0.176921 -0.21338,0.074 -0.42975,0.135361 -0.6577,0.140544 -0.44615,0.02697 -0.89292,0.02331 -1.33969,0.01701 -0.72925,0.0093 -1.45853,0.04829 -2.17735,0.180898 -1.046893,0.182867 -2.085357,0.410208 -3.134364,0.581335 -0.991984,0.144992 -1.988576,0.250282 -2.992314,0.258559 -0.166521,0.0065 -0.333576,0.01066 -0.499778,0.02437 -0.103731,0.0085 -0.42055,0.09744 -0.408332,-0.125003 0.03178,-0.206965 0.01588,-0.250285 0.302018,-0.247396 0.01433,1.43e-4 -0.0024,0.02857 -0.0035,0.04286 -0.03908,0.354054 -0.123272,0.702352 -0.199583,1.049692 2.56e-4,0.0076 -0.107182,0.01122 -0.107437,0.0036 z"
       inkscape:connector-curvature="0" />
    <path
       style="opacity:1;fill:#000000;fill-opacity:1;stroke:none;stroke-width:0.00287424"
       id="path6424"
       d="m 93.231654,57.137761 c 0.681887,0.113787 1.363545,0.224292 2.049494,0.311827 0.980022,0.0989 1.958856,0.204806 2.934304,0.342003 0.915974,0.126029 1.818878,0.321879 2.706318,0.579411 0.53929,0.158229 1.05855,0.374367 1.58964,0.55635 0.38745,0.131559 0.79382,0.183116 1.19718,0.238869 0.2278,0.01976 0.44201,0.08936 0.65036,0.179072 0.0836,0.0395 0.1894,0.08109 0.18544,0.186709 0.0169,0.01222 -0.15589,0.250812 -0.17276,0.238596 v 0 c -0.0615,0.06038 -0.14534,0.006 -0.2138,-0.01934 -0.17873,-0.07303 -0.36262,-0.105826 -0.55643,-0.109681 -0.43615,-0.04036 -0.87113,-0.103177 -1.28785,-0.243906 -0.52509,-0.17349 -1.04171,-0.375404 -1.5815,-0.501597 -0.87859,-0.218128 -1.767126,-0.392152 -2.663442,-0.520568 -0.972491,-0.144729 -1.949144,-0.254886 -2.924212,-0.380177 -0.692793,-0.110471 -1.393341,-0.229219 -2.045022,-0.499496 -0.02532,-0.0093 0.106961,-0.367419 0.13228,-0.358066 z"
       inkscape:connector-curvature="0" />
  </g>
</svg>
