<?xml version="1.0" encoding="UTF-8" standalone="no"?>
<!-- Created with Inkscape (http://www.inkscape.org/) -->

<svg
   xmlns:dc="http://purl.org/dc/elements/1.1/"
   xmlns:cc="http://creativecommons.org/ns#"
   xmlns:rdf="http://www.w3.org/1999/02/22-rdf-syntax-ns#"
   xmlns:svg="http://www.w3.org/2000/svg"
   xmlns="http://www.w3.org/2000/svg"
   xmlns:sodipodi="http://sodipodi.sourceforge.net/DTD/sodipodi-0.dtd"
   xmlns:inkscape="http://www.inkscape.org/namespaces/inkscape"
   width="108.4304mm"
   height="68.890053mm"
   viewBox="0 0 108.4304 68.890052"
   version="1.1"
   id="SVGRoot"
   inkscape:version="0.92.1 r"
   sodipodi:docname="nn-hidden-a.svg">
  <sodipodi:namedview
     id="base"
     pagecolor="#ffffff"
     bordercolor="#666666"
     borderopacity="1.0"
     inkscape:pageopacity="0.0"
     inkscape:pageshadow="2"
     inkscape:zoom="2.8"
     inkscape:cx="180.98398"
     inkscape:cy="115.47172"
     inkscape:document-units="mm"
     inkscape:current-layer="layer1"
     showgrid="false"
     inkscape:window-width="1916"
     inkscape:window-height="1037"
     inkscape:window-x="2560"
     inkscape:window-y="41"
     inkscape:window-maximized="0"
     fit-margin-top="0"
     fit-margin-left="0"
     fit-margin-right="0"
     fit-margin-bottom="0" />
  <defs
     id="defs72" />
  <metadata
     id="metadata75">
    <rdf:RDF>
      <cc:Work
         rdf:about="">
        <dc:format>image/svg+xml</dc:format>
        <dc:type
           rdf:resource="http://purl.org/dc/dcmitype/StillImage" />
        <dc:title></dc:title>
      </cc:Work>
    </rdf:RDF>
  </metadata>
  <g
     inkscape:groupmode="layer"
     id="layer2"
     inkscape:label="Layer 2"
     transform="translate(-72.652905,-17.610112)" />
  <g
     id="layer1"
     inkscape:groupmode="layer"
     inkscape:label="Layer 1"
     style="display:inline"
     transform="translate(-72.652905,-17.610112)">
    <path
       style="opacity:1;fill:#000000;fill-opacity:1;stroke:none;stroke-width:0.00209914"
       id="path6016"
       d="m 84.524421,31.788633 c 0.06001,1.456945 0.06031,2.91605 0.09356,4.373927 0.0693,2.534696 0.219581,5.065858 0.290157,7.600512 0.07597,2.488383 -0.07392,4.974402 -0.146143,7.460664 -0.05707,1.536171 0.142612,3.062554 0.229719,4.59279 0.01754,0.308241 0.02679,0.616898 0.04018,0.925346 0.05913,1.531398 -0.119571,3.054465 -0.462327,4.544582 -0.0197,0.06773 -0.09217,0.376702 -0.165234,0.472912 -0.05262,0.06929 -0.265483,-0.03944 -0.277562,-0.06689 -0.0236,-0.05363 0.07807,-0.0874 0.117105,-0.131097 5.02e-4,-0.0037 0.05263,0.0034 0.05214,0.0071 v 0 c 0.01008,0.04679 0.06552,0.108026 0.03024,0.140387 -0.01562,0.01432 -0.28128,0.107884 -0.306977,0.03878 -0.01847,-0.04968 -0.0151,-0.105388 -0.01406,-0.158378 0.002,-0.104601 0.01558,-0.208663 0.02336,-0.312995 0.171525,-1.468988 0.367647,-2.940442 0.312032,-4.423832 -0.03128,-0.898342 -0.02323,-0.915845 -0.0887,-1.809257 -0.09112,-1.243395 -0.232432,-2.484347 -0.243821,-3.732528 -0.0072,-2.475098 0.120718,-4.948463 0.0742,-7.423762 -0.06912,-2.542455 -0.232796,-5.082334 -0.225773,-7.626362 0.02551,-1.483707 0.05177,-2.976197 0.276429,-4.445836 -0.0018,-0.02768 0.389623,-0.0537 0.391462,-0.02602 z"
       inkscape:connector-curvature="0" />
    <path
       style="opacity:1;fill:#000000;fill-opacity:1;stroke:none;stroke-width:0.00209914"
       id="path6018"
       d="m 84.29518,31.738103 c 0.684697,-0.179236 1.388927,-0.27634 2.090002,-0.367396 0.08583,-0.0092 0.171534,-0.01965 0.257496,-0.02751 0.06065,-0.0056 0.121433,-0.0098 0.182267,-0.01271 0.07496,-0.0036 0.138738,-0.002 0.139082,0.0055 0.0189,0.407484 0.09129,0.333206 -0.07664,0.44816 -0.01952,0.01817 -0.04286,0.03295 -0.05857,0.0545 -0.006,0.0083 0.02994,-0.02256 0.02799,-0.01253 -0.0047,0.0242 -0.02824,0.04083 -0.03794,0.06349 -0.04127,0.09643 -0.0397,0.206398 -0.04312,0.308691 0.02515,0.438703 0.04955,0.877356 0.06856,1.316384 0.02028,1.174222 0.154483,2.341309 0.273725,3.508288 0.165148,1.590363 0.227198,3.188574 0.252923,4.786487 0.0168,1.380647 -0.03576,2.760659 -0.05089,4.141017 0.0018,1.293662 -0.01578,2.586634 -0.06851,3.879228 -0.06025,1.154035 -0.102099,2.308628 -0.101931,3.464273 1.76e-4,1.05575 0.05161,2.110286 0.111002,3.164041 0.05375,0.95622 0.119701,1.911697 0.174323,2.867857 0.04113,0.521607 0.02584,1.043312 -0.01141,1.56435 -0.0359,0.442788 -0.11782,0.879766 -0.173034,1.320118 -0.0329,0.181208 -0.0037,0.355811 0.03072,0.533214 0.02862,0.167711 -0.07999,0.157147 -0.22347,0.158619 -6.57e-4,-0.0015 0.02194,-0.01078 0.02259,-0.0092 v 0 c -0.12427,0.129484 -0.183288,0.209923 -0.266739,0.01426 -0.06664,-0.216943 -0.10368,-0.441578 -0.09221,-0.669239 0.02341,-0.441652 0.09273,-0.878739 0.14196,-1.317917 0.05048,-0.495473 0.09296,-0.993575 0.03542,-1.490841 -0.09335,-0.955498 -0.193075,-1.910923 -0.234488,-2.870509 -0.04572,-1.062667 -0.05632,-2.125962 -0.07751,-3.189328 -0.02073,-1.161494 -0.02201,-2.323363 0.04308,-3.483753 0.05753,-1.28651 0.08975,-2.573628 0.0819,-3.861566 0.002,-1.373373 0.03627,-2.746823 0.0065,-4.12014 -0.04299,-1.585904 -0.105405,-3.171652 -0.227087,-4.753725 -0.09037,-1.188474 -0.193425,-2.379891 -0.126759,-3.572788 0.01469,-0.446166 0.02779,-0.892547 0.0023,-1.338639 0.0106,-0.341105 0.07403,-0.649253 0.400628,-0.829479 0.188877,-0.09291 0.119211,-0.09567 0.199477,0.303486 0.0049,0.02443 -0.546768,0.138455 -0.578255,0.141925 -0.689802,0.13005 -1.384496,0.249376 -2.08656,0.285292 -0.02842,4.83e-4 -0.03523,-0.40142 -0.0068,-0.401902 z"
       inkscape:connector-curvature="0" />
    <path
       style="opacity:1;fill:#000000;fill-opacity:1;stroke:none;stroke-width:0.00209914"
       id="path6022"
       d="m 84.472829,62.426374 c -0.271755,-0.07156 -0.563251,-0.125766 -0.813664,-0.260108 0.08315,-0.125786 0.14028,-0.273341 0.24944,-0.37736 0.02774,-0.02643 0.07301,0.02326 0.10932,0.03549 0.227762,0.07675 0.45143,0.164475 0.6752,0.251989 0.448057,0.186975 0.889457,0.264716 1.371987,0.252864 0.228488,0.02321 0.477879,-0.120188 0.704703,-0.05778 0.09087,0.025 0.136257,0.08873 0.197441,0.151933 0.002,-1.93e-4 0.0053,0.0276 0.0034,0.02784 v 0 c -0.04828,0.108595 -0.06672,0.182366 -0.165899,0.261905 -0.216651,0.173759 -0.548196,0.154005 -0.804261,0.193273 -0.544299,0.0056 -1.06924,-0.08321 -1.559185,-0.333547 -0.214194,-0.10217 -0.424401,-0.21049 -0.63405,-0.321604 -0.02938,-0.01558 -0.08867,-0.01377 -0.08797,-0.04702 0.0031,-0.148357 0.06548,-0.289467 0.09822,-0.434201 0.281724,0.03386 0.550553,0.15433 0.81622,0.245748 0.02903,0.01138 -0.131867,0.421961 -0.1609,0.410584 z"
       inkscape:connector-curvature="0" />
    <path
       style="opacity:1;fill:#000000;fill-opacity:1;stroke:none;stroke-width:0.00209914"
       id="path6024"
       d="m 81.670884,73.423702 c 0.08295,1.077874 0.112744,2.159672 0.146215,3.240095 0.01133,0.498145 0.02531,0.996611 0.01542,1.494934 -2.9e-4,0.01509 -0.0066,0.344453 -0.02661,0.414942 -0.0026,0.0092 -0.0182,0.0057 -0.02731,0.0086 -0.109792,0.0085 -0.221528,0.04762 -0.329373,0.02538 -0.05091,-0.01051 0.149025,-0.465514 0.161717,-0.496249 -3e-6,-0.0036 0.05037,-0.0036 0.05038,-4.5e-5 v 0 c 0.0059,0.04297 0.0053,0.0874 0.01783,0.128919 0.01085,0.03584 0.145217,0.317225 0.102824,0.348518 -0.09678,0.07144 -0.225168,0.08472 -0.337752,0.127077 -0.106106,-0.12202 -0.120823,-0.315429 -0.14176,-0.467253 -0.06785,-0.492037 -0.08882,-0.989957 -0.116711,-1.485229 -0.04623,-1.09669 -0.08814,-2.200357 0.02619,-3.294307 -0.0032,-0.03246 0.455752,-0.07778 0.458958,-0.04533 z"
       inkscape:connector-curvature="0" />
    <path
       style="opacity:1;fill:#000000;fill-opacity:1;stroke:none;stroke-width:0.00209914"
       id="path6026"
       d="m 83.042652,76.166893 c 0.19569,0.663508 0.275081,1.357129 0.291959,2.046994 -0.131908,-0.115145 0.05973,0.255646 -0.02382,0.250046 -0.139196,-0.0093 -0.299866,-0.01182 -0.405734,-0.102686 -0.06178,-0.05302 -0.0026,-0.162925 0.0015,-0.244235 0.01365,-0.271013 0.03716,-0.386671 0.07656,-0.660588 0.08317,-0.410725 0.172505,-0.831499 0.375873,-1.202908 0.02929,-0.0535 0.05747,-0.109581 0.100153,-0.153157 0.06272,-0.06403 0.141302,-0.110301 0.211953,-0.165452 0.07589,0.01471 0.158714,0.0092 0.227665,0.0441 0.227161,0.115105 0.457682,0.77117 0.543519,0.999171 0.106013,0.260728 0.127353,0.473572 0.12298,0.749779 0.0026,0.0052 -0.07132,0.04118 -0.07387,0.03596 v 0 c -0.190761,-0.177711 -0.334285,-0.347949 -0.442317,-0.590331 -0.101766,-0.216627 -0.192625,-0.434863 -0.281605,-0.656941 -0.02432,-0.0607 -0.07673,-0.164301 -0.05497,-0.180647 0.02439,-0.01832 0.05981,-0.01198 0.08971,-0.01799 0.02041,-0.02489 0.0607,-0.106839 0.06123,-0.07466 6.76e-4,0.04091 -0.04408,0.0693 -0.0607,0.106689 -0.02854,0.06422 -0.05141,0.13085 -0.07439,0.19726 -0.103654,0.299547 -0.178853,0.607277 -0.245828,0.916844 -0.05165,0.262617 -0.07445,0.366123 -0.11625,0.623799 -0.01253,0.07726 0.02218,0.177879 -0.03404,0.23234 -0.431178,0.41768 -0.418704,0.253311 -0.465341,-0.01836 -0.08206,-0.669435 -0.171768,-1.3386 -0.222521,-2.011297 -0.0087,-0.02816 0.38951,-0.151899 0.39826,-0.123738 z"
       inkscape:connector-curvature="0" />
    <path
       style="opacity:1;fill:#000000;fill-opacity:1;stroke:none;stroke-width:0.00209914"
       id="path6028"
       d="m 85.428287,76.592334 c 0.218084,0.752262 0.342662,1.528639 0.434278,2.305351 0.02597,0.369143 0.153234,0.56201 -0.423226,0.464988 -0.04124,-0.0069 -0.01818,-0.08163 -0.0272,-0.122454 -0.01173,-0.05304 -0.02339,-0.106098 -0.03508,-0.159148 -0.135387,-0.589079 -0.221796,-1.187158 -0.268948,-1.789324 -0.0051,-0.395778 -0.03221,-1.122186 0.301863,-1.416752 0.08681,-0.07654 0.195416,-0.12405 0.293124,-0.186074 0.08033,0.0023 0.162509,-0.01055 0.240994,0.0067 0.405866,0.08931 0.643487,0.491977 0.805562,0.834531 0.10331,0.283699 0.168221,0.641408 -0.06762,0.884489 -0.06828,0.07037 -0.15105,0.125084 -0.226575,0.187624 -0.274723,0.118685 -0.606077,0.234859 -0.900888,0.108711 -0.04775,-0.02044 -0.08784,-0.05546 -0.131754,-0.0832 -0.0034,-3.87e-4 0.0026,-0.04911 0.0061,-0.04869 v 0 c 0.268738,-0.168298 0.565299,-0.26242 0.844581,-0.40767 -0.02894,0.09581 0.08149,-0.03972 0.08649,-0.05163 0.02842,-0.06761 0.01173,-0.134369 -0.0055,-0.202695 -0.01286,-0.05096 -0.03208,-0.100103 -0.04813,-0.150154 -0.102803,-0.227459 -0.23926,-0.522694 -0.491855,-0.614284 0.01262,-0.02299 0.06388,-0.07227 0.03786,-0.06898 -0.07732,0.0098 -0.135052,0.213012 -0.141618,0.238329 -0.07308,0.281798 -0.05662,0.578669 -0.05154,0.866067 0.03844,0.590941 0.106148,1.17915 0.193772,1.764845 0.0069,0.0594 0.01572,0.118596 0.02058,0.178191 0.0033,0.03993 0.0369,0.09768 0.0037,0.120143 -0.514405,0.348235 -0.43722,0.141617 -0.516305,-0.22969 -0.124599,-0.770215 -0.255042,-1.542134 -0.300378,-2.321952 -0.0076,-0.02601 0.360181,-0.133311 0.367769,-0.107305 z"
       inkscape:connector-curvature="0" />
    <path
       style="opacity:1;fill:#000000;fill-opacity:1;stroke:none;stroke-width:0.00209914"
       id="path6030"
       d="m 87.561423,76.504614 c -0.01228,0.264542 -0.04624,0.527233 -0.05367,0.792097 -0.0018,0.06421 -0.0247,0.32289 0.03773,0.394492 -0.111113,-0.17348 -0.01195,0.0071 -0.05832,-0.147722 -0.003,-0.01005 -0.02379,-0.01432 -0.02014,-0.02414 0.0191,-0.05139 0.05735,-0.0936 0.08208,-0.142527 0.06515,-0.128854 0.0794,-0.183591 0.126001,-0.317453 0.03436,-0.05803 0.0261,-0.126206 0.04418,-0.187987 0.121253,-0.414467 0.458717,-0.04156 0.537437,0.06761 0.119983,0.156739 0.246115,0.308626 0.371353,0.46115 0.04368,0.0532 0.07863,0.114972 0.131072,0.159555 0.04294,0.03651 0.09966,0.05266 0.149492,0.07898 0.0046,0.0015 -0.01662,0.06605 -0.02118,0.06455 v 0 c -0.490088,-0.0097 -0.748247,-0.0857 -1.055849,-0.493034 -0.0052,-0.01 -0.192274,-0.32628 -0.128687,-0.370652 0.567393,-0.395952 0.525432,-0.02563 0.47658,0.290337 -0.100231,0.325294 -0.225741,0.655429 -0.524493,0.855626 -0.0674,0.04516 -0.149432,0.07929 -0.230547,0.07797 -0.08465,-0.0014 -0.159421,-0.05708 -0.239131,-0.08562 -0.03998,-0.05352 -0.091,-0.10035 -0.119939,-0.160557 -0.170642,-0.354994 -0.04028,-0.956923 0.03716,-1.324957 8.76e-4,-0.03245 0.459746,-0.02018 0.458879,0.01227 z"
       inkscape:connector-curvature="0" />
    <path
       style="opacity:1;fill:#000000;fill-opacity:1;stroke:none;stroke-width:0.00209914"
       id="path6032"
       d="m 89.449383,74.56418 c 0.177546,0.760056 0.356215,1.519115 0.566628,2.270936 0.07678,0.420024 0.321885,0.80144 0.39358,1.221951 0.0119,0.06983 0.0028,0.195852 -0.0012,0.273326 0.0018,0.0014 -0.01834,0.02712 -0.02016,0.02569 v 0 c -0.04902,-1.3e-5 -0.09965,0.01241 -0.147065,-3.8e-5 -0.444333,-0.11661 -0.657866,-0.938025 -0.802451,-1.301581 -0.232814,-0.774124 -0.439204,-1.567837 -0.459198,-2.38058 -0.0078,-0.03322 0.462081,-0.142929 0.469839,-0.109707 z"
       inkscape:connector-curvature="0" />
    <path
       style="opacity:1;fill:#000000;fill-opacity:1;stroke:none;stroke-width:0.00209914"
       id="path6034"
       d="m 89.28366,76.30376 c 0.195073,-0.03002 0.356365,-0.06923 0.558304,-0.0328 0.1126,0.02031 0.216966,0.07274 0.325449,0.109109 0.0086,-1.93e-4 0.01258,0.120856 0.004,0.12114 v 0 c -0.106517,0.07749 -0.204094,0.169064 -0.319553,0.232461 -0.208565,0.114523 -0.348907,0.12161 -0.570037,0.158457 -0.04161,-1.29e-4 -0.03977,-0.588497 0.0018,-0.588367 z"
       inkscape:connector-curvature="0" />
    <path
       style="opacity:1;fill:#000000;fill-opacity:1;stroke:none;stroke-width:0.00287424"
       id="path6038"
       d="m 107.09974,22.025879 c -0.42392,1.175615 -0.35295,2.443662 -0.29922,3.669714 0.15961,2.110291 0.34576,4.218626 0.40445,6.335119 0.0504,1.816875 0.0236,2.266024 -0.005,4.090603 -0.0951,3.758518 -0.54583,7.493745 -0.89755,11.233435 -0.28591,3.148941 -0.24778,6.314755 -0.26084,9.473258 -10e-4,1.808101 -0.0224,3.618801 0.10931,5.423601 0.0662,0.907359 0.11806,1.236583 0.22844,2.127335 0.23085,1.57648 0.49282,3.148369 0.6417,4.735345 0.0477,0.618525 0.0788,1.238092 0.11788,1.857187 0.0301,0.408128 0.0341,0.825778 -0.0382,1.230503 -0.0966,0.539994 -0.0466,0.01855 -0.0746,0.364501 10e-4,0.003 -0.0418,0.0208 -0.0431,0.01775 v 0 c -0.0849,-0.107323 -0.15641,-0.186143 -0.2087,-0.322525 -0.0348,-0.09073 -0.0485,-0.18824 -0.0693,-0.283157 -0.066,-0.301249 -0.0961,-0.603552 -0.10325,-0.91186 -0.0336,-0.60498 -0.11689,-1.202243 -0.22973,-1.797881 -0.26018,-1.565748 -0.54887,-3.12656 -0.80241,-4.693422 -0.12688,-0.874459 -0.19351,-1.271564 -0.28477,-2.161241 -0.18608,-1.813899 -0.23451,-3.638394 -0.2486,-5.460638 -0.002,-3.181805 0.0492,-6.365046 0.25333,-9.541137 0.26129,-3.721185 0.66009,-7.433884 0.76545,-11.164808 0.0422,-1.892659 0.0585,-2.171354 0.0605,-4.056676 0.002,-2.130527 -0.0608,-4.259996 -0.084,-6.39022 0.022,-1.214827 -0.002,-2.522597 0.54414,-3.644796 0.0447,-0.092 0.10548,-0.175312 0.15821,-0.262969 0.009,-0.02584 0.37479,0.10713 0.36539,0.132968 z"
       inkscape:connector-curvature="0" />
    <path
       style="opacity:1;fill:#000000;fill-opacity:1;stroke:none;stroke-width:0.00287424"
       id="path6042"
       d="m 106.89168,22.29992 c 0.90074,-0.331512 1.87301,-0.385267 2.82399,-0.374553 0.28963,0.03548 0.78984,0.01024 0.87849,0.390714 0.0302,0.129643 -0.0405,0.309829 -0.0766,0.429328 -0.30381,0.926562 -0.22205,1.925892 -0.20115,2.885499 0.0857,2.119462 0.16514,4.240495 0.0782,6.361473 -0.0206,0.502321 -0.0575,1.003838 -0.0863,1.505757 -0.1309,2.181571 -0.53724,4.332558 -0.76245,6.503772 -0.0401,0.387075 -0.0689,0.775245 -0.1034,1.162867 -0.16075,2.406264 -0.12575,4.820762 -0.0191,7.228367 0.0693,1.383845 0.24152,2.759141 0.36027,4.138904 0.0889,1.03284 0.0795,0.991859 0.13912,2.014828 0.0667,1.36679 0.0157,2.734646 0.0173,4.10196 0.005,1.131139 0.15439,2.254118 0.29423,3.374475 0.22274,1.614252 0.44261,3.228988 0.53498,4.856665 0.0447,0.748162 -0.001,1.493139 -0.1682,2.223129 -0.10426,0.379169 -0.16751,0.767594 -0.26666,1.147932 -0.0649,0.159996 -0.14303,0.400886 -0.39149,0.178702 -0.053,-0.04736 -0.0279,-0.139334 -0.0422,-0.208938 -0.0187,-0.09104 -0.0377,-0.181986 -0.0566,-0.272979 -0.002,-0.0068 0.0943,-0.03704 0.0964,-0.03023 v 0 c 0.0195,0.08745 0.0307,0.177189 0.0586,0.262358 0.0182,0.05557 0.0922,0.100034 0.0785,0.156864 -0.0761,0.314952 -0.21737,0.01926 -0.18593,-0.07125 -0.0136,-0.403616 0.0557,-0.796041 0.14717,-1.188407 0.12499,-0.681382 0.0825,-1.370262 0.007,-2.056403 -0.16545,-1.614633 -0.41109,-3.219955 -0.56043,-4.836403 -0.0928,-1.144125 -0.15706,-2.289458 -0.19462,-3.436776 -0.0791,-1.349195 -0.13124,-2.699711 -0.20816,-4.049025 -0.0682,-1.005628 -0.14172,-2.0101 -0.2387,-3.013458 -0.0664,-0.687033 -0.1473,-1.372614 -0.21359,-2.059657 -0.0346,-0.359101 -0.0636,-0.718725 -0.0954,-1.078087 -0.15989,-2.442282 -0.20991,-4.892831 -0.005,-7.334988 0.22124,-2.548673 0.5695,-5.084345 0.75023,-7.636728 0.16518,-2.618333 0.24231,-5.239433 0.30986,-7.861892 0.0512,-1.024514 0.0488,-2.100186 0.46196,-3.058237 0.021,-0.04096 0.0546,-0.182516 0.13994,-0.189742 0.0226,-0.0019 0.0531,0.03918 0.0651,0.0199 0.0116,-0.01876 -0.0381,-0.02513 -0.0599,-0.02823 -0.13971,-0.01984 -0.42495,-0.0032 -0.54005,9.4e-5 -0.90895,0.04247 -1.81589,0.113699 -2.71906,0.226115 -0.0271,0.0032 -0.0727,-0.380497 -0.0455,-0.383717 z"
       inkscape:connector-curvature="0" />
    <path
       style="opacity:1;fill:#000000;fill-opacity:1;stroke:none;stroke-width:0.00287424"
       id="path6044"
       d="m 109.81603,68.82615 c 0.0901,0.368409 0.15485,0.750869 0.12616,1.131017 -0.0208,0.232423 -0.22232,0.289034 -0.41186,0.361135 -0.38366,0.158427 -0.76935,0.313397 -1.14572,0.488567 -0.0917,0.04146 -0.63706,0.241776 -0.66575,0.340373 -0.006,0.02013 0.0335,-0.02524 0.0503,-0.03784 0.0646,-0.208616 -0.16203,-0.160311 0.003,-0.318915 0.29677,-0.224081 0.62751,-0.396015 0.96367,-0.55208 0.4128,-0.149217 0.88816,-0.347223 1.3355,-0.223041 0.0639,0.01773 0.12124,0.05377 0.18185,0.08066 0.15667,0.164783 0.0868,0.08293 0.21233,0.243345 0.003,0.0016 -0.0188,0.04066 -0.0216,0.03914 v 0 c -0.18088,0.0109 -0.0883,-0.0058 -0.27646,0.05671 -0.44166,0.09183 -0.88751,0.173197 -1.30045,0.364742 -0.33208,0.144253 -0.65174,0.322373 -0.9963,0.434157 -0.18365,0.0286 -0.46509,-0.02045 -0.38313,-0.283691 0.0376,-0.0345 0.0721,-0.07277 0.11285,-0.103495 0.18687,-0.140848 0.52936,-0.192259 0.73734,-0.297066 0.39313,-0.117811 0.77354,-0.275445 1.1714,-0.37809 0.15111,-0.0428 0.26959,-0.01159 0.23696,-0.185025 -0.053,-0.366713 -0.10218,-0.734476 -0.13339,-1.103731 -0.004,-0.01437 0.19934,-0.07124 0.20336,-0.05686 z"
       inkscape:connector-curvature="0" />
    <path
       style="opacity:1;fill:#000000;fill-opacity:1;stroke:none;stroke-width:0.00287424"
       id="path6046"
       d="m 134.22955,23.898647 c -0.14828,2.114588 -0.0383,4.237829 0.0393,6.352969 0.169,4.057912 0.30213,8.117986 0.32926,12.17963 0.006,0.883768 5.3e-4,1.767576 0.001,2.651364 -0.034,4.24016 -0.18365,8.478762 -0.37109,12.71463 -0.14349,2.878875 -0.34018,5.754438 -0.46807,8.634161 -0.0449,1.004101 -0.0749,2.008759 -0.11103,3.013178 -0.0102,0.282532 5.3e-4,0.752049 -0.0673,1.046022 -0.0507,-0.03127 -0.099,-0.06684 -0.15212,-0.09382 -0.009,-0.0048 -0.021,2.65e-4 -0.0315,5.29e-4 0.0541,-0.06322 0.10819,-0.126439 0.16229,-0.189661 0.001,-0.0061 0.0876,0.0099 0.0865,0.01598 v 0 c -0.0132,0.383402 0.017,0.623792 -0.47531,0.451607 -0.0458,-0.0577 -0.10738,-0.105842 -0.13746,-0.173101 -0.11313,-0.252924 -0.15308,-0.705276 -0.17443,-0.9475 -0.0888,-1.006885 -0.0792,-2.019509 -0.0718,-3.029034 0.0714,-2.874331 0.2621,-5.743242 0.34103,-8.61736 0.0641,-4.213961 0.0222,-8.428025 0.0275,-12.642295 -0.004,-2.627037 -0.009,-5.253939 -0.0249,-7.880936 -0.01,-1.643812 -0.0257,-3.201381 -0.0153,-4.843604 0.005,-0.715605 0.0188,-1.431116 0.0282,-2.146673 0.0478,-1.413161 0.0536,-2.060866 0.156,-3.424854 0.0688,-0.915951 0.14941,-1.856162 0.38231,-2.748908 0.0328,-0.125862 0.082,-0.246888 0.123,-0.370332 0.003,-0.02998 0.42736,0.01802 0.42396,0.04799 z"
       inkscape:connector-curvature="0" />
    <path
       style="opacity:1;fill:#000000;fill-opacity:1;stroke:none;stroke-width:0.00287424"
       id="path6048"
       d="m 133.99109,24.520012 c 0.95714,-0.344474 1.97201,-0.0872 2.90886,0.19675 0.44391,0.180421 1.26157,0.437048 1.55969,0.847586 0.0432,0.05947 0.0674,0.130644 0.10109,0.195966 0.0117,0.07442 0.0314,0.148008 0.0352,0.223247 0.007,0.132099 -0.0319,0.403032 -0.0422,0.524385 -0.0111,0.130999 -0.0212,0.262132 -0.0272,0.393459 -0.0251,0.545234 -0.0154,0.72591 -0.0125,1.312099 0.0616,2.379199 0.15123,4.758752 0.0678,7.138736 -0.0205,0.585208 -0.0581,1.169692 -0.0872,1.754537 -0.13205,2.176202 -0.44209,4.334805 -0.70096,6.497826 -0.19167,1.601477 -0.16323,1.404755 -0.31359,2.993673 -0.15521,1.813579 -0.17365,3.635976 -0.0961,5.453851 0.0392,0.918729 0.10373,1.741104 0.16852,2.658809 0.18226,2.442054 0.37462,4.883279 0.60594,7.321208 0.12591,1.207855 0.27393,2.413588 0.31431,3.628049 -0.0161,0.436594 0.0461,1.340308 -0.21818,1.712973 -0.0296,0.04168 -0.0801,0.06345 -0.12015,0.09518 -0.0338,-0.01236 -0.0677,-0.02471 -0.10149,-0.03706 -7.9e-4,-7.94e-4 0.0111,-0.01363 0.012,-0.01278 v 0 c -0.0107,0.0093 -0.0213,0.01855 -0.032,0.02784 -0.0192,-0.02312 -0.0466,-0.04142 -0.0577,-0.06937 -0.0403,-0.101529 -0.0633,-0.362336 -0.0699,-0.447355 -0.0302,-0.38536 -0.0308,-0.772927 -0.0628,-1.158219 -0.0858,-1.192257 -0.28404,-2.368976 -0.49531,-3.544792 -0.37578,-2.430616 -0.61734,-4.87807 -0.75838,-7.33366 -0.18144,-2.742184 -0.34204,-5.494512 -0.1388,-8.240937 0.0416,-0.49879 0.0771,-0.998122 0.12469,-1.496368 0.25362,-2.65341 0.66441,-5.291921 0.80112,-7.956466 0.16896,-2.973187 0.24692,-5.950303 0.42937,-8.922557 0.0749,-0.774352 0.14741,-1.551309 0.35627,-2.303722 -0.0359,-0.162233 -0.17199,-0.219457 -0.31658,-0.291446 -0.36154,-0.179999 -0.75115,-0.298648 -1.13356,-0.423643 -0.85033,-0.246275 -1.73521,-0.482119 -2.62655,-0.340303 -0.0281,0.0052 -0.10191,-0.392291 -0.0738,-0.39751 z"
       inkscape:connector-curvature="0" />
    <path
       style="opacity:1;fill:#000000;fill-opacity:1;stroke:none;stroke-width:0.00287424"
       id="path6050"
       d="m 133.77374,69.843147 c 0.5525,0.503648 1.3161,0.555413 2.02567,0.599845 1.00357,0.0418 1.97537,-0.267899 2.97171,-0.29976 0.008,-0.0021 0.0387,0.116996 0.0303,0.119139 v 0 c -0.0954,0.09246 -0.17846,0.199761 -0.28631,0.277384 -0.27731,0.199586 -0.62734,0.323676 -0.95186,0.411456 -0.62182,0.168199 -1.2642,0.220377 -1.90627,0.190151 -0.20177,-0.02318 -0.40527,-0.03438 -0.6053,-0.06955 -0.56783,-0.09983 -1.18496,-0.306276 -1.56098,-0.771268 -0.051,-0.0631 -0.0829,-0.139525 -0.12436,-0.209288 -0.0175,-0.0288 0.38984,-0.276921 0.40738,-0.248113 z"
       inkscape:connector-curvature="0" />
    <path
       style="opacity:1;fill:#000000;fill-opacity:1;stroke:none;stroke-width:0.00287424"
       id="path6060"
       d="m 156.74238,43.533177 c 1.39875,-0.133677 2.81023,-0.06388 4.21069,0.01068 1.02549,0.07414 2.0708,0.142819 3.04904,0.482635 0.18563,0.09178 0.4729,0.259143 0.31572,0.55047 -0.13636,0.252737 -0.3885,0.161215 -0.57481,0.109819 -0.18264,-0.05058 -0.35183,-0.136251 -0.52365,-0.214095 -0.004,-4.5e-4 0.003,-0.05076 0.006,-0.05031 v 0 c 0.18912,-0.07185 0.38205,-0.126578 0.58251,-0.157419 0.0361,-0.009 0.0729,-0.01598 0.10842,-0.02705 0.19593,-0.06099 -0.0755,-0.03277 -0.10683,0.113019 -0.0585,0.272114 0.2453,0.350675 -0.0263,0.284298 -0.98078,-0.175162 -1.97965,-0.192766 -2.9723,-0.242997 -1.38211,-0.05802 -2.76907,-0.10144 -4.14189,-0.281057 -0.0409,-0.0052 0.0321,-0.583157 0.073,-0.577994 z"
       inkscape:connector-curvature="0" />
    <path
       style="opacity:1;fill:#000000;fill-opacity:1;stroke:none;stroke-width:0.00287424"
       id="path6062"
       d="m 162.55073,44.384309 c 0.15309,1.291223 0.16498,2.594626 0.17007,3.893249 -0.002,1.436806 -0.0675,2.872314 -0.12114,4.307808 -0.0242,0.321559 -0.0211,0.339204 -0.47068,0.25976 -0.0255,-0.0045 0.0182,-0.04872 0.024,-0.07398 0.013,-0.05632 0.0165,-0.1148 0.0324,-0.170357 0.02,-0.06961 0.0501,-0.135914 0.0751,-0.20387 0.0291,-0.07255 0.0583,-0.145092 0.0874,-0.217638 -5.3e-4,-0.0055 0.0778,-0.01188 0.0782,-0.0063 v 0 c 0.0216,0.069 0.0432,0.138007 0.0648,0.20701 0.0168,0.06487 0.0396,0.128471 0.0504,0.194617 0.001,0.0069 0.024,0.349795 0.008,0.359286 -0.4575,0.276325 -0.51659,0.09467 -0.61097,-0.235408 -0.19876,-1.429483 -0.0934,-2.881357 -0.0893,-4.319085 0.0346,-1.316286 0.0398,-2.639308 0.19694,-3.947984 -0.003,-0.03567 0.50107,-0.08272 0.5044,-0.04705 z"
       inkscape:connector-curvature="0" />
    <path
       style="opacity:1;fill:#000000;fill-opacity:1;stroke:none;stroke-width:0.00287424"
       id="path6064"
       d="m 157.60505,51.349135 c 0.90194,-0.204827 1.84446,-0.233241 2.76442,-0.155165 0.21743,0.01844 0.43328,0.05228 0.64993,0.07842 0.55779,0.128034 1.27998,0.197837 1.62935,0.722484 0.0433,0.06507 0.0604,0.144206 0.0907,0.216308 0.004,0.003 -0.0384,0.05508 -0.042,0.05211 v 0 c -0.16023,-0.0047 -0.32109,0.0051 -0.48081,-0.0085 -0.45868,-0.03918 -0.90921,-0.163566 -1.36996,-0.188228 -1.07747,-0.09725 -2.15743,-0.125224 -3.23888,-0.08521 -0.0447,1.88e-4 -0.0474,-0.631981 -0.003,-0.632169 z"
       inkscape:connector-curvature="0" />
    <path
       style="opacity:1;fill:#000000;fill-opacity:1;stroke:none;stroke-width:0.00287424"
       id="path6074"
       d="m 89.054241,31.816456 c 1.387416,-0.643859 2.75492,-1.325785 4.104766,-2.044868 2.263232,-1.252633 4.467393,-2.606627 6.733569,-3.854079 1.865474,-1.019221 3.845804,-1.795826 5.808994,-2.600504 0.22873,-0.09681 0.45823,-0.191786 0.68616,-0.290427 0.30092,-0.130219 0.6812,-0.302679 0.98552,-0.444096 0.0931,-0.04329 0.18573,-0.08779 0.2785,-0.131905 0.0441,-0.02099 0.0839,-0.07089 0.1322,-0.06339 0.0282,0.0044 -0.0224,0.05247 -0.0336,0.0787 0.079,0.212951 0.10066,0.12332 -0.0671,0.163103 -0.0559,0.01326 -0.10922,0.03588 -0.16384,0.05382 -0.005,0.0013 -0.0233,-0.0628 -0.0188,-0.06413 v 0 c 0.0519,-0.03869 0.10335,-0.07812 0.15585,-0.116062 0.19305,-0.139516 0.0934,-0.119656 0.32783,0.02259 -0.023,0.05103 -0.0372,0.107097 -0.0691,0.153106 -0.0858,0.123678 -0.30855,0.278969 -0.41043,0.347035 -0.52643,0.351698 -1.10043,0.625158 -1.6687,0.900315 -1.92114,0.875631 -3.87267,1.693367 -5.71163,2.737535 -2.255576,1.272657 -4.460971,2.637985 -6.779416,3.79606 -1.3718,0.643693 -2.763778,1.293861 -4.261243,1.585441 -0.01614,0.0021 -0.04565,-0.22616 -0.02951,-0.228247 z"
       inkscape:connector-curvature="0" />
    <path
       style="opacity:1;fill:#000000;fill-opacity:1;stroke:none;stroke-width:0.00287424"
       id="path6076"
       d="m 88.754155,62.602065 c -0.539462,-0.302257 -1.007829,-0.712565 -1.47958,-1.108241 -0.09061,-0.06964 -0.488443,-0.45788 -0.627849,-0.328695 0.03958,0.0371 0.02465,0.03361 0.0837,-0.06537 0.0015,-0.0026 -0.0015,-0.06125 0.02493,-0.05758 0.10049,0.01397 0.1874,0.07792 0.279637,0.120171 1.257056,0.654199 2.446879,1.429785 3.653237,2.171346 2.619717,1.583216 5.190688,3.242508 7.711607,4.978297 1.113543,0.787164 2.214403,1.595194 3.247403,2.486869 0.40058,0.345773 0.81898,0.725307 1.16778,1.129003 0.0995,0.115115 0.18202,0.243803 0.27303,0.365707 0.10934,0.2984 0.13459,0.17008 -10e-4,0.392343 5.3e-4,0.0013 -0.018,0.0082 -0.0186,0.0069 v 0 c -0.19072,0.07203 -0.0815,0.06404 -0.32402,-0.05497 -0.54075,-0.394846 -1.07055,-0.804061 -1.61283,-1.19693 -1.09344,-0.792181 -2.209657,-1.552125 -3.325426,-2.312294 -2.528165,-1.711291 -5.065889,-3.408638 -7.58013,-5.140376 -1.151015,-0.811736 -2.296445,-1.631116 -3.422705,-2.477013 -0.197866,-0.154829 -0.600031,-0.420425 -0.191143,-0.637188 0.343487,-0.05755 0.616941,0.185079 0.863036,0.394245 0.453132,0.407308 0.904722,0.815957 1.37666,1.201669 0.0093,0.0069 -0.08809,0.139004 -0.09743,0.132114 z"
       inkscape:connector-curvature="0" />
    <path
       style="opacity:1;fill:#000000;fill-opacity:1;stroke:none;stroke-width:0.00287424"
       id="path6082"
       d="m 88.696335,34.901853 c 0.08057,-0.07589 0.157567,-0.155772 0.241716,-0.227678 0.635116,-0.542706 1.336635,-1.014732 2.039778,-1.462555 1.097984,-0.69929 1.420169,-0.863198 2.591997,-1.532575 1.995524,-1.101455 4.051682,-2.101848 6.197732,-2.876176 0.397482,-0.143415 0.802052,-0.266322 1.203082,-0.399483 0.0326,-0.0066 0.12622,0.454045 0.0936,0.460666 v 0 c -2.427261,1.188015 -4.838396,2.408918 -7.24882,3.630655 -1.679999,0.866736 -3.358822,1.735561 -5.008328,2.659421 -0.01784,0.0078 -0.128636,-0.244441 -0.110797,-0.252275 z"
       inkscape:connector-curvature="0" />
    <path
       style="opacity:1;fill:#000000;fill-opacity:1;stroke:none;stroke-width:0.00287424"
       id="path6084"
       d="m 89.312507,38.268323 c 1.834037,-0.968307 3.787596,-1.687225 5.729531,-2.404093 1.636966,-0.578453 3.289502,-1.114523 4.961592,-1.582654 0.7091,-0.198527 1.91105,-0.513315 2.6603,-0.662148 0.32917,-0.06539 0.66283,-0.105732 0.99426,-0.158598 0.24612,-0.04043 0.49225,-0.08087 0.73838,-0.121297 0.0195,-0.0014 0.0389,0.274033 0.0194,0.275404 v 0 c -0.23897,0.07483 -0.47795,0.149664 -0.71692,0.224496 -0.31972,0.132652 -0.63724,0.270764 -0.95917,0.397956 -2.47493,0.977804 -5.022415,1.755517 -7.549131,2.584542 -1.797965,0.57997 -1.247207,0.40126 -2.945159,0.952796 -0.84454,0.274328 -1.688146,0.567037 -2.548274,0.790949 -0.107812,0.02807 -0.21754,0.04818 -0.326311,0.07227 -0.02613,0.0041 -0.08462,-0.365486 -0.05848,-0.369621 z"
       inkscape:connector-curvature="0" />
    <path
       style="opacity:1;fill:#000000;fill-opacity:1;stroke:none;stroke-width:0.00287424"
       id="path6086"
       d="m 91.19739,41.971215 c 0.08933,-0.03516 0.176139,-0.07756 0.267993,-0.105473 0.350845,-0.106606 0.710124,-0.165237 1.074333,-0.205567 0.984004,-0.108962 1.963093,-0.08581 2.950591,-0.06171 1.196103,0.05493 2.391079,0.170942 3.569848,0.385046 0.619487,0.11252 1.230195,0.245868 1.822185,0.463741 0.20594,0.07579 0.40004,0.180522 0.60007,0.270783 0.0159,0.0057 -0.0653,0.230042 -0.0811,0.224305 v 0 c -2.010534,-0.204619 -4.019436,-0.429194 -6.034164,-0.588997 -1.36428,-0.08471 -2.742169,-0.190957 -4.104591,-0.02311 -0.02539,0.0046 -0.09052,-0.354417 -0.06513,-0.359023 z"
       inkscape:connector-curvature="0" />
    <path
       style="opacity:1;fill:#000000;fill-opacity:1;stroke:none;stroke-width:0.00287424"
       id="path6088"
       d="m 91.267562,45.340863 c 0.1143,-0.0131 0.228147,-0.03106 0.342901,-0.03928 0.418806,-0.02999 1.036475,-0.03887 1.430299,-0.03943 1.268131,-0.0019 2.528072,0.06223 3.793385,0.140425 1.285145,0.116329 2.5782,0.249129 3.832693,0.566372 0.29471,0.07453 0.58885,0.156792 0.87139,0.268912 0.24369,0.09669 0.73615,0.39397 0.99484,0.545727 0.0102,0.0052 -0.0633,0.148717 -0.0734,0.143526 v 0 c -0.13653,-0.04061 -0.2687,-0.100851 -0.40959,-0.121827 -0.22153,-0.03298 -0.44752,-0.02117 -0.67077,-0.03903 -0.29969,-0.024 -0.59861,-0.05683 -0.89779,-0.08651 -1.27335,-0.126336 -2.546115,-0.258953 -3.821016,-0.369289 -0.886309,-0.0793 -1.772955,-0.154827 -2.659161,-0.235278 -0.822075,-0.07463 -1.650224,-0.139949 -2.467301,-0.261541 -0.10456,-0.01556 -0.207999,-0.03789 -0.311999,-0.05684 -0.02941,-0.0032 0.01613,-0.419158 0.04554,-0.415938 z"
       inkscape:connector-curvature="0" />
    <path
       style="opacity:1;fill:#000000;fill-opacity:1;stroke:none;stroke-width:0.00287424"
       id="path6090"
       d="m 89.640818,50.502572 c 1.634277,0.21232 3.268832,0.46882 4.873039,0.851609 0.502953,0.120012 0.99996,0.263705 1.49994,0.395555 1.771187,0.543851 3.538073,1.240993 4.979413,2.438685 0.63802,0.530164 0.71551,0.698138 1.18723,1.318845 0.37512,0.706334 0.25095,0.354907 0.4079,1.041109 0.006,0.01037 -0.14101,0.08933 -0.14659,0.07896 v 0 c -0.39348,-0.485124 -0.18024,-0.22642 -0.64167,-0.774504 -0.17606,-0.16601 -0.34217,-0.343252 -0.52818,-0.498031 -1.611114,-1.340577 -3.623752,-2.062448 -5.590722,-2.696773 -1.765995,-0.505852 -1.114665,-0.332071 -2.844209,-0.778616 -0.97177,-0.250897 -1.957591,-0.47453 -2.910358,-0.79397 -0.148289,-0.04972 -0.292063,-0.112006 -0.438095,-0.16801 -0.02934,-0.01077 0.122967,-0.425633 0.152302,-0.414864 z"
       inkscape:connector-curvature="0" />
    <path
       style="opacity:1;fill:#000000;fill-opacity:1;stroke:none;stroke-width:0.00287424"
       id="path6092"
       d="m 90.949184,56.011387 c 1.489776,1.160434 3.238734,1.922235 4.937119,2.719324 1.599241,0.782913 3.273092,1.46725 4.738607,2.495974 0.26223,0.184075 0.50147,0.398907 0.75221,0.59836 0.0208,0.0132 -0.1657,0.308099 -0.18656,0.294907 v 0 c -1.961754,-0.76141 -3.8843,-1.620276 -5.776255,-2.541423 -0.981567,-0.500142 -1.504204,-0.743284 -2.435224,-1.304243 -0.762164,-0.459218 -1.529159,-0.969359 -2.132463,-1.633085 -0.09567,-0.105248 -0.170784,-0.227494 -0.256177,-0.341241 -0.0204,-0.02537 0.338338,-0.313938 0.358743,-0.288573 z"
       inkscape:connector-curvature="0" />
    <path
       style="opacity:1;fill:#000000;fill-opacity:1;stroke:none;stroke-width:0.00364305"
       id="path6118"
       d="m 107.58888,72.654964 c -0.16066,0.696322 -0.11382,1.421759 0.10165,2.10211 0.0596,0.188323 0.14203,0.368663 0.21306,0.552994 0.0942,0.170766 0.17653,0.348648 0.28261,0.512298 0.31132,0.480252 0.79246,1.007524 1.40997,1.036855 0.11711,0.0056 0.23298,-0.02723 0.34948,-0.04084 0.12383,-0.04509 0.25069,-0.08262 0.37151,-0.135262 0.48829,-0.212766 0.93817,-0.509468 1.41593,-0.743952 0.56469,-0.277151 0.63764,-0.29073 1.23195,-0.522256 1.10594,-0.395625 2.2629,-0.610838 3.43087,-0.704208 0.34577,-0.01704 0.69811,-0.01804 1.03236,0.08506 0.20439,0.06305 0.27641,0.107952 0.47326,0.20349 0.511,0.292581 1.01262,0.643158 1.36239,1.125855 0.0678,0.09351 0.12244,0.195844 0.18363,0.293767 0.27539,0.496048 0.21237,0.968217 0.24383,1.50115 0.0128,0.128935 0.0463,0.254659 0.10482,0.370554 0.0101,0.01911 0.0222,0.03664 0.0346,0.05407 0.003,0.0044 0.0169,0.01304 0.0114,0.01115 -0.009,-0.003 -0.0146,-0.0099 -0.0219,-0.01489 -0.0417,-0.129675 -0.22967,0.141933 -0.21354,0.07156 0.0321,-0.139921 0.0752,-0.274254 0.1194,-0.410882 0.27245,-0.711281 0.71394,-1.352627 1.23718,-1.90384 0.18476,-0.19463 0.38401,-0.374964 0.57602,-0.562448 0.70884,-0.609521 1.52507,-1.076195 2.43012,-1.323136 0.5662,-0.154482 0.73228,-0.144884 1.30711,-0.197437 0.99169,-0.0327 1.94119,0.218922 2.80565,0.699798 0.17766,0.09883 0.34635,0.212978 0.51953,0.319467 0.85617,0.552571 1.62062,1.295205 2.59972,1.63613 0.17509,0.06097 0.35913,0.0923 0.53869,0.138447 0.18093,0.01281 0.36143,0.04226 0.54275,0.03847 0.78897,-0.01653 1.56015,-0.339785 2.22149,-0.749516 0.17715,-0.109764 0.34294,-0.236884 0.51442,-0.355328 0.56225,-0.426885 1.03984,-0.947932 1.45507,-1.516845 0.0745,-0.102108 0.45302,-0.664457 0.53201,-0.781415 0.0771,-0.110018 0.15413,-0.220033 0.23118,-0.330049 0.001,-0.0099 0.14055,0.01103 0.13907,0.02086 v 0 c -0.005,0.130506 -0.009,0.261013 -0.0134,0.39152 -0.0376,0.148794 -0.0625,0.301444 -0.11293,0.446384 -0.35476,1.018293 -1.12014,1.826116 -1.95755,2.471669 -0.19256,0.126127 -0.37834,0.26325 -0.57767,0.378374 -0.77825,0.449483 -1.66756,0.746094 -2.57459,0.723951 -0.21598,-0.0053 -0.42962,-0.04614 -0.64443,-0.0692 -0.59103,-0.171206 -0.66433,-0.158992 -1.21047,-0.45106 -0.74222,-0.396926 -1.36327,-0.975222 -2.05145,-1.451876 -0.36448,-0.235808 -0.54721,-0.373592 -0.94022,-0.55292 -0.64291,-0.293363 -1.33856,-0.399632 -2.0415,-0.364367 -0.51154,0.0605 -0.67971,0.05942 -1.1817,0.205452 -0.82408,0.239729 -1.56808,0.677135 -2.22167,1.227859 -0.11357,0.09965 -0.23203,0.193852 -0.34052,0.298929 -0.51714,0.500823 -0.97841,1.069025 -1.31909,1.704587 -0.0665,0.134433 -0.0892,0.173083 -0.14129,0.299656 -0.0246,0.06002 -0.0259,0.132905 -0.0677,0.18251 -0.0474,0.05615 -0.10089,0.111919 -0.16715,0.143593 -0.0416,0.01989 -0.0923,0.0016 -0.13841,0.0024 -0.0344,-0.01288 -0.071,-0.0207 -0.10292,-0.03863 -0.22977,-0.129025 -0.29563,-0.437441 -0.34443,-0.67061 -0.0484,-0.440924 0.0169,-0.899036 -0.2083,-1.303328 -0.0518,-0.0822 -0.0987,-0.167683 -0.15551,-0.246589 -0.31472,-0.437884 -0.73967,-0.783749 -1.19347,-1.068019 -0.14416,-0.08127 -0.22256,-0.136859 -0.37751,-0.184979 -0.29555,-0.09178 -0.61085,-0.02606 -0.90875,0.01065 -1.11932,0.18575 -2.2366,0.410851 -3.30979,0.786361 -0.59209,0.223779 -0.62238,0.223146 -1.18971,0.48433 -0.49906,0.229759 -0.98067,0.521373 -1.50151,0.701747 -0.15323,0.05307 -0.31315,0.08435 -0.46972,0.126533 -0.41336,0.01683 -0.54142,0.06438 -0.94004,-0.09081 -0.75736,-0.294861 -1.23497,-0.990987 -1.58555,-1.685193 -0.0755,-0.204563 -0.16477,-0.404576 -0.22661,-0.61369 -0.22731,-0.768654 -0.2715,-1.620053 0.0597,-2.363455 0.006,-0.02602 0.3743,0.06037 0.36819,0.0864 z"
       inkscape:connector-curvature="0" />
    <path
       style="opacity:1;fill:#000000;fill-opacity:1;stroke:none;stroke-width:0.00287424"
       id="path6120"
       d="m 112.66142,80.648115 c -0.12043,0.733525 -0.0841,1.481629 -0.0649,2.22132 0.0206,0.887042 0.086,1.776335 0.0415,2.663629 -0.009,0.102163 -0.0106,0.15835 -0.10615,0.12651 2.3e-4,-0.0013 0.0199,0.0019 0.0196,0.0032 v 0 c -0.0251,0.02949 -0.0391,0.07473 -0.0753,0.08848 -0.0771,0.02926 -0.13938,-0.126135 -0.15215,-0.146886 -0.0962,-0.333862 -0.13922,-0.642059 -0.17465,-0.989407 -0.0567,-0.555988 -0.0805,-1.114372 -0.0891,-1.673027 0.004,-0.78509 -0.0165,-1.602324 0.24446,-2.353542 0.004,-0.02522 0.36088,0.0345 0.35666,0.05972 z"
       inkscape:connector-curvature="0" />
    <path
       style="opacity:1;fill:#000000;fill-opacity:1;stroke:none;stroke-width:0.00287424"
       id="path6124"
       d="m 114.59377,81.099634 c 0.3635,0.932296 0.42508,1.95009 0.49467,2.938415 0.0256,0.505238 0.0349,1.011835 0.0104,1.517324 -0.004,0.08671 -0.007,0.173845 -0.0192,0.259723 -0.006,0.04253 0.003,0.107987 -0.0374,0.123436 -0.0427,0.01643 -0.0817,-0.04125 -0.12251,-0.06187 -2e-4,-0.0024 0.0347,-0.0054 0.0349,-0.0029 v 0 c -0.044,0.04256 -0.071,0.123862 -0.13213,0.127685 -0.0467,0.0029 -0.0632,-0.07119 -0.0812,-0.11435 -0.0332,-0.07992 -0.0515,-0.165486 -0.0704,-0.249965 -0.10881,-0.487328 -0.14407,-0.987253 -0.19135,-1.48295 -0.0767,-0.964972 -0.13818,-1.932755 -0.28716,-2.890065 -0.0116,-0.02838 0.38973,-0.192852 0.40136,-0.164473 z"
       inkscape:connector-curvature="0" />
    <path
       style="opacity:1;fill:#000000;fill-opacity:1;stroke:none;stroke-width:0.00287424"
       id="path6126"
       d="m 112.78321,83.490475 c 0.41545,-0.342003 0.96034,-0.542348 1.50271,-0.529868 0.1091,0.0024 0.21634,0.02895 0.32451,0.04343 0.0856,0.04103 0.17111,0.08206 0.25667,0.123084 0.007,0.0013 -0.0134,0.09531 -0.0201,0.09389 v 0 c -0.087,0.02347 -0.1739,0.04695 -0.26085,0.07042 -0.54881,0.137756 -1.10418,0.283628 -1.5903,0.584714 -0.0273,0.01503 -0.23992,-0.370637 -0.21265,-0.385673 z"
       inkscape:connector-curvature="0" />
    <path
       style="opacity:1;fill:#000000;fill-opacity:1;stroke:none;stroke-width:0.00287424"
       id="path6128"
       d="m 116.8698,83.171917 c 0.15121,0.388207 0.28945,0.792588 0.34909,1.206897 0.14398,1.000069 -0.0794,-0.223576 0.0693,0.55917 0.003,0.0056 -0.0761,0.04294 -0.0787,0.03737 v 0 c -0.0999,-0.156814 -0.21545,-0.303967 -0.30549,-0.46662 -0.20166,-0.364315 -0.32103,-0.775679 -0.4184,-1.177668 -0.0112,-0.02717 0.37298,-0.186322 0.38424,-0.159152 z"
       inkscape:connector-curvature="0" />
    <path
       style="opacity:1;fill:#000000;fill-opacity:1;stroke:none;stroke-width:0.00287424"
       id="path6130"
       d="m 116.54251,82.43529 c -0.22711,-0.232433 -0.45943,-0.47989 -0.60872,-0.772255 -0.0242,-0.04745 -0.0401,-0.09871 -0.0602,-0.148061 -0.0257,-0.12832 -0.0311,-0.283289 0.15792,-0.292327 0.0339,-0.0016 0.0537,0.04149 0.0805,0.06224 0.002,7.93e-4 -0.0105,0.02726 -0.0124,0.02638 v 0 c -0.0222,0.0016 -0.0704,0.02683 -0.0665,0.0049 0.006,-0.0321 0.0495,-0.04255 0.0764,-0.06105 0.0104,-0.0071 0.0226,-0.01955 0.0345,-0.01537 0.025,0.0088 0.0416,0.03291 0.0624,0.04937 0.25432,0.26519 0.4729,0.565394 0.67562,0.871054 0.0195,0.024 -0.32008,0.299106 -0.33953,0.275097 z"
       inkscape:connector-curvature="0" />
    <path
       style="opacity:1;fill:#000000;fill-opacity:1;stroke:none;stroke-width:0.00287424"
       id="path6132"
       d="m 119.03429,83.219505 c -0.18823,0.07508 -0.4266,0.135207 -0.54138,0.320709 -0.008,0.01326 0.008,0.03053 0.008,0.04613 -7.9e-4,0.04568 -0.008,0.09104 -0.0116,0.136559 0.0144,0.05638 0.0215,0.115211 0.0433,0.169151 0.0979,0.241583 0.33265,0.52007 0.6133,0.540494 0.0566,0.0041 0.11176,-0.01961 0.16764,-0.02941 0.0475,-0.03834 0.10431,-0.06741 0.14254,-0.11502 0.0263,-0.03282 0.0288,-0.07914 0.0447,-0.11812 0.0395,-0.09688 0.0915,-0.189169 0.12143,-0.289407 0.1307,-0.437475 0.11418,-0.887992 0.10562,-1.338045 -0.0271,-0.449821 -0.10282,-0.894596 -0.24061,-1.323941 -0.0617,-0.192333 -0.13361,-0.405873 -0.2655,-0.563435 0.3495,0.253801 -0.36233,-0.225925 0.28577,-0.01828 0.0498,0.01593 0.0171,0.103132 0.0289,0.154035 0.0222,0.09642 0.046,0.192516 0.0729,0.28774 0.0792,0.28058 0.18477,0.594143 0.27409,0.868608 0.29992,0.899473 0.58035,1.805409 0.88279,2.703968 0.006,0.01143 -0.1552,0.102714 -0.16165,0.09128 v 0 c -0.25761,-0.377738 -0.35708,-0.501666 -0.57566,-0.918041 -0.27916,-0.53177 -0.49205,-1.095798 -0.68439,-1.663552 -0.11253,-0.383418 -0.17398,-0.552696 -0.24447,-0.934537 -0.0213,-0.115409 -0.0388,-0.231836 -0.0472,-0.348893 -0.0187,-0.26144 -0.0264,-0.434679 0.26273,-0.594225 0.067,-0.03698 0.15018,0.0297 0.22526,0.04455 0.0487,0.04285 0.10373,0.07946 0.14616,0.128556 0.45121,0.522028 0.53618,1.355783 0.60138,2.010069 8e-4,0.180694 0.0113,0.361624 0.002,0.542086 -0.0322,0.630097 -0.15753,1.326666 -0.70688,1.719916 -0.0901,0.06451 -0.20597,0.08192 -0.30896,0.122875 -0.10339,-0.0024 -0.20881,0.01331 -0.31017,-0.0073 -0.40058,-0.08134 -0.72621,-0.449662 -0.84463,-0.826931 -0.0288,-0.09187 -0.0326,-0.189802 -0.0489,-0.284703 0.0128,-0.08941 0.003,-0.184925 0.0383,-0.268231 0.16075,-0.3839 0.54495,-0.563325 0.9362,-0.584743 0.0241,7.94e-4 0.0131,0.340844 -0.0109,0.340072 z"
       inkscape:connector-curvature="0" />
    <path
       style="opacity:1;fill:#000000;fill-opacity:1;stroke:none;stroke-width:0.00287424"
       id="path6134"
       d="m 122.65686,83.772809 c -0.10778,-0.04308 -0.65468,-0.242765 -0.71483,-0.06446 -0.007,0.02003 0.0423,-7.94e-4 0.0634,-0.0013 -0.0122,0.294669 0.22836,0.565396 0.49168,0.674063 0.0627,0.02588 0.13191,0.03164 0.19787,0.04746 0.0621,-0.0094 0.12787,-0.0052 0.18626,-0.02833 0.13985,-0.05542 0.24679,-0.186756 0.31628,-0.312878 0.0322,-0.05843 0.0438,-0.126032 0.0651,-0.189233 0.1748,-0.517395 0.10493,-0.263421 0.21601,-0.838977 0.0562,-0.666036 0.12918,-1.398805 -0.14625,-2.031643 -0.0213,-0.049 -0.0541,-0.09217 -0.0812,-0.138248 -0.11107,-0.05805 0.008,0.04888 0.0266,0.04923 0.0523,0.0011 0.0971,-0.07717 0.14586,-0.05812 0.0375,0.01463 0.006,0.0804 0.0126,0.12001 0.0428,0.242541 0.0706,0.30317 0.14737,0.559115 0.31633,0.890751 0.69147,1.758894 1.02616,2.642727 0.12202,0.471162 0.0544,0.252786 0.19585,0.657236 0.004,0.0065 -0.0869,0.0659 -0.0911,0.05946 v 0 c -0.29124,-0.319534 -0.13534,-0.149211 -0.46802,-0.510677 -0.0799,-0.125799 -0.16406,-0.248981 -0.23968,-0.377399 -0.41972,-0.712809 -0.74491,-1.484191 -0.96609,-2.280663 -0.0454,-0.204576 -0.19234,-0.771724 -0.0913,-0.980443 0.12084,-0.249746 0.24571,-0.36748 0.50791,-0.298469 0.0712,0.01876 0.12426,0.07911 0.1864,0.118669 0.0557,0.06838 0.1218,0.129492 0.16715,0.20515 0.29528,0.492633 0.33577,1.18618 0.30999,1.742881 -0.008,0.183518 -0.0359,0.365665 -0.0539,0.548498 -0.0384,0.173902 -0.065,0.350803 -0.1151,0.521705 -0.15885,0.542256 -0.49757,1.178713 -1.11246,1.28697 -0.10641,0.01873 -0.21608,-0.0021 -0.32413,-0.0031 -0.10059,-0.03401 -0.2067,-0.05473 -0.30177,-0.102031 -0.35707,-0.177652 -0.66905,-0.572927 -0.67167,-0.985647 -5.3e-4,-0.0936 0.0337,-0.184153 0.0505,-0.276231 0.0854,-0.08739 0.15546,-0.192889 0.25608,-0.262173 0.066,-0.04546 0.15002,-0.06101 0.22941,-0.07213 0.2895,-0.04056 0.57353,0.09262 0.80166,0.255019 0.0229,0.01574 -0.19973,0.33983 -0.22265,0.324088 z"
       inkscape:connector-curvature="0" />
    <path
       style="opacity:1;fill:#000000;fill-opacity:1;stroke:none;stroke-width:0.00287424"
       id="path6136"
       d="m 125.42458,83.733119 c 0.3743,-0.03563 0.76234,-0.08004 1.09924,-0.261196 0.0554,-0.02978 0.10449,-0.06996 0.15673,-0.104939 0.006,-0.03424 0.0371,-0.05945 0.0432,-0.09313 0.004,-0.01979 -0.0394,-0.0092 -0.0595,-0.01005 -0.30494,-0.01376 0.17705,-0.0097 -0.27945,-0.0085 -0.31456,0.03264 -0.64001,0.103352 -0.89004,0.31038 -0.0172,0.01423 -0.0239,0.03775 -0.0346,0.05734 -0.0239,0.04384 -0.0461,0.08859 -0.0692,0.132885 -0.002,0.04613 -0.014,0.0928 -0.007,0.13839 0.0568,0.350107 0.47496,0.623094 0.74149,0.803394 0.28238,0.194302 0.12844,0.137956 0.45933,0.175665 0.007,0.0011 -0.007,0.09655 -0.0142,0.09554 v 0 c -0.38753,0.01942 -0.18567,0.0118 -0.60564,0.02154 -0.10281,-0.03513 -0.21046,-0.05842 -0.30842,-0.105405 -0.36693,-0.176 -0.69791,-0.536741 -0.74079,-0.955947 -0.01,-0.09454 0.0129,-0.189632 0.0194,-0.284451 0.0371,-0.08522 0.0557,-0.181147 0.11129,-0.255667 0.3371,-0.452196 0.90209,-0.597958 1.43748,-0.575969 0.17415,0.03409 0.31791,0.03869 0.46269,0.155067 0.16663,0.133938 0.238,0.383302 0.10195,0.567685 -0.0626,0.08486 -0.15316,0.144981 -0.22975,0.217472 -0.0711,0.0423 -0.13852,0.09142 -0.21324,0.126902 -0.38308,0.181914 -0.82746,0.230283 -1.24417,0.176413 -0.0229,-0.0044 0.04,-0.3278 0.0629,-0.323357 z"
       inkscape:connector-curvature="0" />
    <path
       style="opacity:1;fill:#000000;fill-opacity:1;stroke:none;stroke-width:0.00287424"
       id="path6138"
       d="m 127.8556,83.13628 c 0.20289,0.372586 0.36802,0.764119 0.53295,1.154523 -0.12281,-0.05614 0.0866,0.116956 0.043,0.128614 -0.13968,0.03729 -0.28411,0.101864 -0.42666,0.07782 -0.0529,-0.0089 -0.0276,-0.103651 -0.0381,-0.156208 -0.0432,-0.216643 -0.0383,-0.24048 -0.0577,-0.470633 -0.001,-0.4489 0.0499,-0.963834 0.45243,-1.248971 0.0653,-0.04623 0.15168,-0.05076 0.22752,-0.07614 0.0859,0.0051 0.17394,-0.0041 0.25783,0.01527 0.38817,0.08951 0.71151,0.457116 0.87396,0.802831 0.05,0.106368 0.0772,0.222022 0.11575,0.333034 0.0265,0.112627 0.0529,0.225253 0.0794,0.337878 0.004,0.0074 -0.10002,0.06624 -0.10418,0.05887 v 0 c -0.07,-0.08075 -0.14003,-0.161507 -0.21005,-0.242261 -0.0736,-0.07481 -0.14862,-0.148206 -0.22072,-0.224441 -0.20621,-0.218035 -0.40586,-0.517694 -0.71611,-0.588234 -0.0201,0.0076 -0.0392,0.02695 -0.0603,0.02289 -0.0111,-0.0021 0.0109,-0.04251 0.004,-0.03383 -0.17407,0.206865 -0.16911,0.505833 -0.19037,0.758669 8e-4,0.225047 -0.004,0.213765 0.0128,0.427855 0.004,0.05169 0.0491,0.115716 0.015,0.154811 -0.33593,0.385646 -0.34224,0.372641 -0.47431,0.145579 -0.19446,-0.382077 -0.37935,-0.770914 -0.50898,-1.180513 -0.014,-0.02781 0.3793,-0.225197 0.39325,-0.197392 z"
       inkscape:connector-curvature="0" />
    <path
       style="opacity:1;fill:#000000;fill-opacity:1;stroke:none;stroke-width:0.00287424"
       id="path6140"
       d="m 153.37554,75.412195 c -0.40401,0.295534 -0.77932,0.661813 -0.93476,1.152948 -0.0375,0.118354 -0.0441,0.24434 -0.0661,0.366509 0.0144,0.129209 0.0103,0.261813 0.0431,0.38763 0.16444,0.632048 0.69116,1.160249 1.24033,1.479791 0.1434,0.08344 0.30119,0.139229 0.45178,0.208844 0.1464,0.03045 0.29002,0.08117 0.43921,0.09135 0.39309,0.02683 0.7498,-0.129442 0.96955,-0.461264 0.0782,-0.118097 0.19722,-0.639326 0.21331,-0.700998 0.01,-0.170347 0.0349,-0.340497 0.0294,-0.511037 -0.0179,-0.555567 -0.17856,-1.112711 -0.44745,-1.598271 -0.23422,-0.422969 -0.33928,-0.494538 -0.66161,-0.840989 -0.31399,-0.268931 -0.66218,-0.511741 -1.06886,-0.616202 -0.0861,-0.02212 -0.17633,-0.02254 -0.26449,-0.03381 -0.008,-1.16e-4 -0.006,-0.112054 0.002,-0.11194 v 0 c 0.11226,-0.03792 0.21914,-0.09951 0.33677,-0.113763 0.52239,-0.06329 0.9765,0.206087 1.37969,0.49842 0.39281,0.38545 0.5148,0.45435 0.79731,0.941297 0.32077,0.552889 0.50121,1.195665 0.51092,1.835079 0.003,0.203179 -0.031,0.405214 -0.0466,0.607822 -0.15458,0.540842 -0.12955,0.661035 -0.52677,1.11701 -0.34381,0.394657 -0.87922,0.561408 -1.38922,0.512884 -0.18335,-0.01744 -0.35904,-0.08232 -0.53857,-0.123476 -0.17674,-0.08443 -0.3629,-0.15149 -0.53023,-0.253307 -0.65249,-0.397002 -1.22994,-1.063217 -1.39746,-1.823265 -0.0364,-0.16515 -0.0276,-0.3371 -0.0414,-0.50565 0.0295,-0.156848 0.0397,-0.318585 0.0884,-0.470548 0.17493,-0.545121 0.62166,-1.002903 1.1189,-1.269341 0.0694,-0.0372 0.14482,-0.06197 0.21724,-0.09295 0.0232,-0.0054 0.0991,0.321858 0.076,0.327229 z"
       inkscape:connector-curvature="0" />
    <path
       style="opacity:1;fill:#000000;fill-opacity:1;stroke:none;stroke-width:0.00287424"
       id="path6142"
       d="m 157.62872,77.58499 c -0.0763,0.05852 -0.14285,0.09907 -0.19307,0.187426 -0.0124,0.02183 -0.004,0.05017 -0.01,0.0747 -0.0134,0.06193 -0.0409,0.121203 -0.0464,0.184314 -0.0175,0.198806 0.0252,0.259527 0.0875,0.448329 0.0461,0.07193 0.0839,0.149952 0.13834,0.215794 0.17944,0.216948 0.49777,0.405418 0.77967,0.258911 0.0578,-0.03004 0.10103,-0.08226 0.15154,-0.123391 0.0397,-0.111729 0.10564,-0.213474 0.14104,-0.326671 0.0969,-0.309795 0.0783,-0.635114 0.0232,-0.949341 -0.009,-0.02662 -0.0514,-0.06497 -0.0275,-0.07985 0.0238,-0.01482 0.0304,0.06365 0.0583,0.06064 0.0973,-0.0105 0.17942,-0.100264 0.27725,-0.09684 0.0379,0.0013 0.0229,0.07232 0.0362,0.107802 0.0885,0.235217 0.0908,0.225346 0.20843,0.474205 0.14556,0.284731 0.31552,0.555405 0.5081,0.810551 0.0521,0.06905 0.10072,0.14165 0.16178,0.202933 0.0485,0.04866 0.10955,0.08291 0.16433,0.124372 0.005,0.0026 -0.0313,0.07603 -0.0365,0.07345 v 0 c -0.0817,-0.01622 -0.16608,-0.02217 -0.24503,-0.04863 -0.4543,-0.152316 -0.75234,-0.534562 -0.97774,-0.937723 -0.1058,-0.237226 -0.16806,-0.335383 -0.21432,-0.585558 -0.014,-0.07576 -0.0567,-0.164208 -0.0174,-0.230486 0.15453,-0.260723 0.27922,-0.341987 0.45039,-0.160742 0.0378,0.04008 0.0539,0.09619 0.0808,0.144287 0.0208,0.07355 0.0482,0.145556 0.0625,0.220655 0.0747,0.392882 0.0442,0.963602 -0.1912,1.301578 -0.0868,0.124576 -0.20875,0.220491 -0.31313,0.330737 -0.0981,0.04867 -0.1892,0.115173 -0.29427,0.146005 -0.44774,0.131384 -0.91061,-0.104256 -1.17948,-0.458708 -0.0715,-0.09427 -0.11808,-0.205094 -0.17712,-0.307642 -0.0304,-0.111503 -0.0758,-0.219974 -0.0913,-0.33451 -0.0555,-0.40899 0.1147,-0.827608 0.49768,-1.014912 0.0504,-0.02463 0.1072,-0.03302 0.1608,-0.04953 0.0239,-0.0019 0.0499,0.336008 0.026,0.337849 z"
       inkscape:connector-curvature="0" />
    <path
       style="opacity:1;fill:#000000;fill-opacity:1;stroke:none;stroke-width:0.00287424"
       id="path6144"
       d="m 160.08074,76.284592 c -0.0158,-0.04571 -0.0333,-0.09085 -0.0473,-0.137117 -0.0425,-0.140026 -0.0731,-0.283695 -0.0964,-0.428046 -0.0125,-0.07721 -0.0272,-0.08586 0.002,-0.05993 0.11996,-0.03334 0.23551,-0.09395 0.35986,-0.100039 0.0297,-0.0016 0.0265,0.05333 0.0387,0.08052 0.0237,0.05311 0.0463,0.106733 0.0689,0.160313 0.11924,0.282118 0.22437,0.566211 0.32403,0.855843 0.15943,0.554797 0.36082,1.185034 0.3142,1.769948 -0.007,0.0851 -0.0294,0.168193 -0.044,0.252291 -0.0136,0.06041 -0.0272,0.120822 -0.0408,0.181232 10e-4,0.0043 -0.0593,0.01765 -0.0603,0.01339 v 0 c -0.0259,-0.0504 -0.0519,-0.100804 -0.0778,-0.151207 -0.0354,-0.06952 -0.0761,-0.136549 -0.10613,-0.208558 -0.0688,-0.165237 -0.13631,-0.419311 -0.18235,-0.586973 -0.0981,-0.357108 -0.18642,-0.716793 -0.28761,-1.073054 -0.0868,-0.29286 -0.18123,-0.584475 -0.25892,-0.879957 -0.016,-0.06077 -0.0305,-0.121957 -0.0434,-0.183457 -0.009,-0.0426 -0.0536,-0.09858 -0.0221,-0.128704 0.0941,-0.09026 0.23089,-0.121393 0.34633,-0.182091 0.12248,0.194286 0.13032,0.497597 0.14073,0.719235 0.006,0.02315 -0.32131,0.109511 -0.32741,0.08636 z"
       inkscape:connector-curvature="0" />
    <path
       style="opacity:1;fill:#000000;fill-opacity:1;stroke:none;stroke-width:0.00287424"
       id="path6146"
       d="m 159.98763,77.660881 c 0.27792,-0.04176 0.56641,-0.08199 0.84836,-0.06021 0.11525,0.0089 0.2281,0.03761 0.34215,0.05641 0.009,2.57e-4 0.005,0.128146 -0.004,0.127889 v 0 c -0.11546,0.04551 -0.22794,0.09949 -0.34639,0.13652 -0.27316,0.08541 -0.56395,0.119959 -0.84787,0.143595 -0.0286,-5.3e-4 -0.0212,-0.404726 0.007,-0.404204 z"
       inkscape:connector-curvature="0" />
    <path
       style="opacity:1;fill:#000000;fill-opacity:1;stroke:none;stroke-width:0.00287424"
       id="path6148"
       d="m 162.09386,78.481608 c 0.20141,0.649136 0.30952,1.324528 0.40133,1.99676 0.011,0.107426 0.0341,0.289819 0.0334,0.408493 -1.4e-4,0.02283 0.0126,0.06121 -0.009,0.06784 -0.1301,0.03951 -0.2694,0.07804 -0.40382,0.05758 -0.0429,-0.0065 -0.0271,-0.0826 -0.0375,-0.124756 -0.018,-0.07266 -0.0317,-0.146299 -0.0476,-0.219451 -0.13103,-0.708684 -0.28319,-1.420506 -0.30073,-2.143831 -0.004,-0.15893 0.007,-0.317884 0.01,-0.476827 0.0569,-0.498552 0.19046,-1.05205 0.76362,-1.178454 0.21276,-0.04692 0.44216,0.08125 0.62431,0.155953 0.0922,0.06296 0.19025,0.117983 0.27645,0.188878 0.31169,0.256379 0.58051,0.639175 0.59665,1.055603 0.003,0.08993 -0.0188,0.17902 -0.0281,0.268531 -0.0359,0.081 -0.0553,0.171577 -0.10774,0.243012 -0.0768,0.104656 -0.1685,0.201043 -0.27383,0.27692 -0.21954,0.158153 -0.60565,0.179571 -0.86266,0.152969 -0.1003,-0.01037 -0.19816,-0.03745 -0.29724,-0.05618 -0.16489,-0.06252 -0.33733,-0.103306 -0.46293,-0.239776 -0.0468,-0.05087 -0.0649,-0.122113 -0.0973,-0.183171 -0.004,-0.0024 0.0317,-0.0524 0.0352,-0.0499 v 0 c 0.0597,-2.65e-4 0.11961,-0.006 0.17912,-0.0011 0.14909,0.01225 0.2938,0.06078 0.44374,0.06714 0.23472,0.01532 0.46701,0.03449 0.69566,-0.03836 0.0531,-0.01693 0.0991,-0.05208 0.15198,-0.06973 0.0126,-0.0042 0.0291,0.01437 0.0392,0.0059 0.0351,-0.02942 0.0558,-0.07262 0.0837,-0.108934 0.0119,-0.04894 0.0335,-0.09649 0.0358,-0.146812 0.0179,-0.389398 -0.35158,-0.723786 -0.63425,-0.930852 -0.0631,-0.03249 -0.12309,-0.07194 -0.18932,-0.09746 -0.0459,-0.01767 -0.10057,-0.0085 -0.14428,-0.03107 -0.0177,-0.0091 -0.004,-0.06206 -0.0227,-0.05511 -0.22891,0.08547 -0.22607,0.537379 -0.25341,0.708499 -7.9e-4,0.146489 -0.006,0.293039 -0.002,0.43947 0.0204,0.713769 0.14129,1.419503 0.19846,2.130287 0.005,0.07363 0.0114,0.147196 0.0155,0.22089 0.003,0.04505 0.0414,0.109485 0.004,0.135274 -0.39039,0.271973 -0.39157,0.196159 -0.45053,-0.06019 -0.0183,-0.07972 -0.0349,-0.159834 -0.0523,-0.239752 -0.12704,-0.663403 -0.25021,-1.329221 -0.31111,-2.00252 -0.009,-0.0283 0.39134,-0.15404 0.40023,-0.12574 z"
       inkscape:connector-curvature="0" />
    <path
       style="opacity:1;fill:#000000;fill-opacity:1;stroke:none;stroke-width:0.00287424"
       id="path6150"
       d="m 164.91168,77.50412 c 0.15282,0.337916 0.20159,0.730219 0.41103,1.042535 0.023,0.03429 0.0559,0.06082 0.0838,0.09123 0.0187,0.0032 0.0387,0.01749 0.0559,0.0096 0.005,-0.0024 0.0482,-0.1183 0.0483,-0.120372 7.9e-4,-0.01238 -0.0234,-0.01855 -0.0211,-0.03073 0.011,-0.056 0.0433,-0.105897 0.0586,-0.160864 0.018,-0.06464 0.0275,-0.131368 0.0412,-0.197054 0.0277,-0.17754 0.0314,-0.357261 0.0199,-0.536257 -0.002,-0.02795 -0.009,-0.05558 -0.009,-0.08358 1.2e-4,-0.0045 0.006,0.0087 0.0106,0.0082 0.13702,-0.01622 0.27323,-0.03867 0.40985,-0.058 0.0973,0.270111 0.24537,0.51933 0.47679,0.692886 0.13435,0.06096 0.11452,0.08757 0.21714,-0.02545 0.001,-0.0032 0.0467,0.01648 0.0453,0.01968 v 0 c -0.11566,0.177374 -0.166,0.276066 -0.39913,0.278162 -0.0609,-0.01651 -0.1249,-0.02424 -0.18272,-0.04951 -0.32554,-0.142293 -0.514,-0.4803 -0.58811,-0.810918 0.12744,-0.08702 0.24027,-0.200785 0.38233,-0.261054 0.0282,-0.01199 0.0364,0.05012 0.0479,0.07854 0.0971,0.239802 0.0578,0.523401 0.0413,0.771784 -0.0322,0.147235 -0.065,0.355941 -0.14457,0.489598 -0.14025,0.235503 -0.34329,0.450803 -0.64328,0.390991 -0.0692,-0.01378 -0.12801,-0.05935 -0.19201,-0.08902 -0.052,-0.05179 -0.11077,-0.09754 -0.15592,-0.155377 -0.25444,-0.326003 -0.33001,-0.762103 -0.40576,-1.156372 -0.01,-0.02766 0.38136,-0.166346 0.39117,-0.138686 z"
       inkscape:connector-curvature="0" />
    <path
       style="opacity:1;fill:#000000;fill-opacity:1;stroke:none;stroke-width:0.00287424"
       id="path6152"
       d="m 166.54692,76.160045 c -0.0496,-0.301302 -0.0526,-0.615894 0.009,-0.915958 0.13276,0.0011 0.2684,-0.02418 0.39826,0.0034 0.0286,0.0061 0.0132,0.05691 0.0198,0.08537 0.009,0.04054 0.0182,0.08121 0.0281,0.121629 0.0486,0.199146 0.11362,0.390363 0.1806,0.584038 0.1617,0.444035 0.31437,0.892794 0.42916,1.351632 0.0777,0.310661 0.10104,0.466921 0.1577,0.778642 0.0188,0.251717 0.16769,0.819944 -0.10389,0.990029 -1.1e-4,7.94e-4 -0.0107,-7.94e-4 -0.0106,-0.0016 v 0 c -0.25906,-0.05136 -0.33214,-0.630271 -0.4035,-0.826235 -0.17587,-0.703607 -0.34048,-1.410436 -0.56063,-2.102083 -0.0687,-0.268108 -0.13839,-0.531511 -0.14078,-0.810069 -2.6e-4,-0.03153 -0.0249,-0.0813 0.004,-0.09452 0.12136,-0.05603 0.26085,-0.05857 0.39127,-0.08785 -0.008,0.295528 -0.0215,0.593624 -0.0824,0.883546 0.003,0.02233 -0.31305,0.06224 -0.31587,0.0399 z"
       inkscape:connector-curvature="0" />
    <path
       style="opacity:1;fill:#000000;fill-opacity:1;stroke:none;stroke-width:0.00287424"
       id="path6154"
       d="m 166.69846,77.252573 c 0.36811,0.02551 0.73725,0.05484 1.1011,0.118634 0.0913,0.01601 0.18385,0.02867 0.27236,0.05625 0.073,0.02275 0.13963,0.06257 0.20944,0.09386 0.0505,0.01402 0.10092,0.02804 0.15138,0.04206 0.004,1.33e-4 0.002,0.05974 -0.002,0.05961 v 0 c -0.0566,0.02606 -0.11315,0.05211 -0.16972,0.07817 -0.0824,0.03377 -0.16092,0.07957 -0.24732,0.101301 -0.0986,0.02479 -0.20124,0.03123 -0.30274,0.03703 -0.3862,0.02209 -0.77682,-0.03049 -1.14908,-0.130834 -0.0323,-0.0097 0.10422,-0.46573 0.13647,-0.456081 z"
       inkscape:connector-curvature="0" />
    <path
       style="opacity:1;fill:#000000;fill-opacity:1;stroke:none;stroke-width:0.00287424"
       id="path6158"
       d="m 157.29944,43.345761 c -0.0643,0.875762 -0.10403,1.752202 -0.11151,2.630274 0.0118,0.796335 0.0427,1.591429 0.0358,2.387999 -0.014,0.526958 -0.026,1.055095 -0.0885,1.578959 -0.0218,0.177287 -0.0377,0.354629 -0.18417,0.469765 -0.0125,0.02715 -0.39656,-0.15037 -0.38401,-0.177524 v 0 c -0.0159,0.0109 -0.0297,0.02598 -0.0478,0.03271 -0.008,0.0031 0.002,-0.285785 0.006,-0.288761 0.0181,-0.511038 -0.002,-1.022702 0.0138,-1.533922 0.007,-0.796957 -0.0349,-1.591366 -0.0551,-2.38782 0.0149,-0.919715 0.0738,-1.848704 0.3473,-2.73306 0.002,-0.03307 0.46918,-0.01169 0.46766,0.02138 z"
       inkscape:connector-curvature="0" />
    <path
       style="opacity:1;fill:#000000;fill-opacity:1;stroke:none;stroke-width:0.00287424"
       id="path6160"
       d="m 156.95921,49.606293 c 0.1072,0.530415 0.16629,1.074742 0.14053,1.616138 -0.061,0.0021 0.0303,0.171924 -0.0303,0.181308 -0.183,0.02836 -0.37097,0.0208 -0.55551,0.0055 -0.0177,-0.0016 -0.007,-0.03487 -0.01,-0.05243 -0.001,-0.0092 -0.0121,-0.02614 -0.003,-0.02792 0.15302,-0.02979 0.30906,-0.04118 0.4636,-0.06177 0.006,0.194686 -0.0812,0.157549 -0.16416,0.283298 2.1e-4,0.0016 -0.021,0.0046 -0.0212,0.003 v 0 c -0.0846,-0.08477 -0.17308,-0.0049 -0.21448,-0.18388 0.14501,-0.08395 0.28501,-0.177257 0.43505,-0.251854 0.01,-0.0047 0.0111,0.01818 0.0159,0.02764 0.008,0.0163 0.0407,0.04268 0.0237,0.04956 -0.44402,0.180139 -0.5046,0.268473 -0.51589,0.112163 -0.0556,-0.521436 -0.12177,-1.042906 -0.13476,-1.567643 -0.009,-0.04031 0.56065,-0.173416 0.57007,-0.133107 z"
       inkscape:connector-curvature="0" />
    <path
       style="opacity:1;fill:#000000;fill-opacity:1;stroke:none;stroke-width:0.00287424"
       id="path6162"
       d="m 157.39591,51.087655 c 0.3282,0.220631 0.15885,0.105098 0.50772,0.347133 0.008,0.0031 -0.0366,0.11293 -0.0444,0.109794 v 0 c -0.43956,-0.0081 -0.22723,-0.0049 -0.637,-0.0099 -0.0316,-0.01228 0.14202,-0.459293 0.17363,-0.447017 z"
       inkscape:connector-curvature="0" />
    <path
       style="opacity:1;fill:#000000;fill-opacity:1;stroke:none;stroke-width:0.00287424"
       id="path6164"
       d="m 139.45381,26.506974 c 1.32371,1.361232 2.78046,2.57525 4.31981,3.684801 0.53817,0.387903 1.08862,0.758473 1.63293,1.13771 1.8904,1.316409 3.83749,2.558598 5.63997,3.997673 1.04315,0.832845 2.17708,1.821856 3.04643,2.84937 0.35337,0.417663 0.63832,0.888711 0.95748,1.333066 0.16533,0.405658 0.33067,0.811317 0.496,1.216975 0.0178,0.02693 -0.36314,0.277918 -0.38089,0.250985 v 0 c -0.26105,-0.299215 -0.52209,-0.59843 -0.78313,-0.897645 -1.08259,-1.127139 -1.19136,-1.29441 -2.46212,-2.364764 -2.31246,-1.947767 -4.86298,-3.582236 -7.29716,-5.367833 -1.91602,-1.467721 -3.96783,-2.979871 -5.33039,-5.01482 -0.10701,-0.159806 -0.19105,-0.333846 -0.28657,-0.500768 -0.023,-0.03165 0.42468,-0.356403 0.44764,-0.32475 z"
       inkscape:connector-curvature="0" />
    <path
       style="opacity:1;fill:#000000;fill-opacity:1;stroke:none;stroke-width:0.00287424"
       id="path6166"
       d="m 140.69966,36.334054 c 2.71256,1.341153 5.47434,2.578307 8.20484,3.88203 1.8464,0.943598 3.72318,1.861768 5.38276,3.120906 0.4013,0.304473 0.79503,0.623965 1.1449,0.986369 0.55886,0.57887 0.6991,0.934232 1.04328,1.589035 0.0111,0.01498 -0.20054,0.172392 -0.21167,0.157425 v 0 c -0.15478,-0.164034 -0.28491,-0.355481 -0.46435,-0.492107 -0.1915,-0.145802 -2.13148,-1.263027 -2.14934,-1.272882 -1.79119,-0.988921 -3.63504,-1.881273 -5.46908,-2.7864 -1.41411,-0.705342 -2.45976,-1.212171 -3.84236,-1.957658 -1.24244,-0.669912 -2.49896,-1.36617 -3.62113,-2.22975 -0.1653,-0.127212 -0.31491,-0.273614 -0.47236,-0.410421 -0.0415,-0.03214 0.41304,-0.618686 0.45451,-0.586547 z"
       inkscape:connector-curvature="0" />
    <path
       style="opacity:1;fill:#000000;fill-opacity:1;stroke:none;stroke-width:0.00287424"
       id="path6174"
       d="m 139.603,69.169386 c 1.35803,-1.407703 2.75754,-2.774792 4.17175,-4.125836 2.20476,-2.056276 4.45949,-4.057605 6.56659,-6.215552 1.34595,-1.39822 2.6072,-2.874198 3.94067,-4.283871 0.006,-0.156086 0.54045,-0.216199 0.18696,0.03464 -0.005,0.0019 -0.0297,-0.06586 -0.0249,-0.06762 v 0 c 0.0738,-0.04477 0.13511,-0.136985 0.22138,-0.134321 0.27369,0.0084 0.19536,0.250256 0.18927,0.392806 -0.81624,1.763686 -2.18821,3.206265 -3.4356,4.668483 -0.4098,0.434578 -0.81352,0.874977 -1.22941,1.303734 -1.84363,1.900687 -3.84073,3.643934 -5.81248,5.408231 -1.44459,1.276125 -2.86628,2.607292 -4.47677,3.674335 -0.0463,0.02103 -0.34378,-0.633989 -0.29747,-0.655023 z"
       inkscape:connector-curvature="0" />
    <path
       style="opacity:1;fill:#000000;fill-opacity:1;stroke:none;stroke-width:0.00287424"
       id="path6176"
       d="m 139.91118,63.882489 c 0.58365,-1.424818 1.76054,-2.494684 2.82992,-3.555865 2.42107,-2.300234 4.98012,-4.44932 7.54117,-6.590577 0.65907,-0.546267 1.3221,-1.109364 2.00433,-1.628579 0.22617,-0.172136 0.44871,-0.351253 0.692,-0.4982 1.1761,-0.710335 -0.0541,0.192876 0.70484,-0.383485 0.004,-0.0067 0.0984,0.044 0.0949,0.05071 v 0 c -0.16941,0.28707 -0.30233,0.596043 -0.48839,0.872612 -0.67537,1.00393 -1.59501,1.826982 -2.43539,2.683446 -0.41101,0.381021 -0.81628,0.768321 -1.23302,1.143061 -2.05459,1.847498 -4.23559,3.547142 -6.3387,5.337694 -1.01249,0.837541 -2.01103,1.705882 -2.84029,2.731058 -0.0115,0.03757 -0.54277,-0.124299 -0.53133,-0.16187 z"
       inkscape:connector-curvature="0" />
    <path
       style="opacity:1;fill:#000000;fill-opacity:1;stroke:none;stroke-width:0.00287424"
       id="path6178"
       d="m 139.83378,55.528617 c 0.13669,-0.165883 0.2621,-0.341743 0.41006,-0.497649 0.3584,-0.377632 0.90653,-0.812641 1.31215,-1.105337 1.18631,-0.856046 2.46296,-1.551019 3.74325,-2.252527 1.49121,-0.783357 3.01814,-1.498026 4.5671,-2.159421 0.66807,-0.285263 1.6816,-0.702604 2.39446,-0.935217 0.28378,-0.0926 0.57549,-0.158861 0.86324,-0.238292 0.21014,-0.02923 0.42028,-0.05846 0.63043,-0.0877 0.0163,-0.0036 0.067,0.227452 0.0507,0.231034 v 0 c -0.18219,0.1397 -0.36439,0.2794 -0.54658,0.419103 -0.26383,0.172908 -0.52172,0.35524 -0.79149,0.518726 -2.18206,1.322356 -4.55415,2.296909 -6.81738,3.464608 -1.25195,0.631533 -2.50485,1.25772 -3.71237,1.972246 -1.34772,0.797486 -0.2499,0.165838 -1.30066,0.842124 -0.0619,0.03987 -0.13034,0.06872 -0.19551,0.103076 -0.0194,0.04295 -0.62679,-0.23183 -0.60736,-0.274778 z"
       inkscape:connector-curvature="0" />
    <path
       style="opacity:1;fill:#000000;fill-opacity:1;stroke:none;stroke-width:0.00287424"
       id="path6180"
       d="m 141.8712,45.855305 c 0.16959,-0.03101 0.33781,-0.07081 0.50878,-0.09302 0.96664,-0.125611 1.9503,-0.116038 2.9225,-0.101481 1.09646,0.01643 1.57846,0.0447 2.68416,0.09165 1.25723,0.08425 2.52251,0.136036 3.76897,0.335203 0.30799,0.04922 0.61767,0.09839 0.91705,0.185865 0.23495,0.06864 0.45246,0.186907 0.67868,0.280363 0.0186,0.0033 -0.0273,0.265687 -0.0459,0.26244 v 0 c -0.25417,0.06628 -0.50319,0.156983 -0.7625,0.198829 -0.31774,0.05127 -0.64073,0.06517 -0.96226,0.0795 -1.26913,0.05656 -2.54017,-0.02585 -3.8073,-0.08346 -1.9692,-0.114322 -3.93717,-0.248092 -5.90614,-0.365983 -0.0559,-2.64e-4 -0.0519,-0.790183 0.004,-0.789903 z"
       inkscape:connector-curvature="0" />
    <path
       style="opacity:1;fill:#000000;fill-opacity:1;stroke:none;stroke-width:0.00287424"
       id="path6186"
       d="m 138.47352,66.691388 c -0.0794,0.135922 -0.18349,0.278543 -0.16911,0.443143 0.0734,0.161173 0.1363,0.313221 0.1726,0.488122 0.0384,0.252216 0.0171,0.507931 0.0101,0.761611 -0.006,0.234283 -4e-5,0.468632 -0.004,0.702921 -0.004,0.182237 -0.0189,0.363977 -0.0338,0.545587 -0.0133,0.12238 -0.0179,0.245472 -0.0289,0.368019 -0.007,0.05462 -0.009,0.109479 -0.01,0.164431 0.004,0.04706 -0.0171,0.07596 -0.0365,0.114046 -0.21468,-0.02233 -0.38219,0.05616 -0.28538,-0.07766 0.032,-0.0442 0.0704,-0.08336 0.10575,-0.124901 -2.3e-4,-0.0016 0.0221,-0.0049 0.0224,-0.0033 v 0 c 0.19142,0.175019 0.20441,0.153453 -0.18272,0.172736 -0.0296,0.05414 -0.0157,-0.04715 -0.009,-0.06159 0.0179,-0.03446 -0.009,-0.114303 0.004,-0.154192 0.003,-0.124899 -0.002,-0.250068 0.0118,-0.374581 0.0145,-0.17295 0.0282,-0.346207 0.0294,-0.51984 2.7e-4,-0.235762 -0.0124,-0.471503 -0.006,-0.707321 0.005,-0.231889 0.0275,-0.464021 0.0119,-0.695809 -0.009,-0.07285 -0.007,-0.08903 -0.0283,-0.158372 -0.0364,-0.119811 -0.1139,-0.222991 -0.13921,-0.346956 -0.006,-0.04004 -0.0156,-0.07971 -0.0169,-0.120126 -0.007,-0.216905 0.0994,-0.415547 0.23433,-0.577413 0.0114,-0.02455 0.35882,0.136903 0.34741,0.161469 z"
       inkscape:connector-curvature="0" />
    <path
       style="opacity:1;fill:#000000;fill-opacity:1;stroke:none;stroke-width:0.00287424"
       id="path6256"
       d="m 112.60514,22.457192 c 0.13727,-0.05758 0.27002,-0.127448 0.41183,-0.17275 0.57011,-0.182129 1.17963,-0.288189 1.77086,-0.355875 0.95717,-0.10958 1.99058,-0.149318 2.94971,-0.134178 0.5844,0.0092 1.16775,0.05249 1.75163,0.07873 2.3122,0.177102 4.59883,0.621025 6.79676,1.363195 1.05003,0.354563 1.30539,0.491189 2.266,0.916812 0.43807,0.272037 1.12077,0.447376 1.33332,0.986105 0.0176,0.04472 -0.002,0.09613 -0.003,0.144191 8e-4,0.0023 -0.0316,0.01291 -0.0324,0.01062 v 0 c -0.1375,-0.110934 0.048,0.02382 -0.35155,-0.04151 -0.2874,-0.04699 -1.08284,-0.298402 -1.28554,-0.359142 -0.79525,-0.249741 -1.47554,-0.469907 -2.28743,-0.694227 -2.1706,-0.59973 -4.38587,-1.033514 -6.63025,-1.237382 -2.18417,-0.164998 -4.39637,-0.329489 -6.57806,-0.04242 -0.0327,0.0079 -0.14503,-0.454232 -0.11235,-0.462176 z"
       inkscape:connector-curvature="0" />
    <path
       style="opacity:1;fill:#000000;fill-opacity:1;stroke:none;stroke-width:0.00287424"
       id="path6258"
       d="m 112.55134,27.762437 c 0.15534,-0.02583 0.30948,-0.06034 0.46601,-0.07749 0.57443,-0.06296 1.24538,-0.07903 1.81211,-0.07918 1.52081,-3.97e-4 3.03311,0.107775 4.54897,0.217089 2.6694,0.265785 5.35059,0.527273 7.98512,1.04944 0.34769,0.06891 0.69227,0.152658 1.0384,0.228987 0.9038,0.309781 0.51173,0.131289 1.19366,0.495339 0.0123,0.0039 -0.0425,0.178017 -0.0548,0.174139 v 0 c -0.78116,0.04718 -0.3434,0.03037 -1.3138,0.03467 -0.95883,-0.06176 -1.39571,-0.08364 -2.39039,-0.177125 -2.22865,-0.209452 -4.44809,-0.508467 -6.67423,-0.741415 -2.21198,-0.235461 -4.4271,-0.443805 -6.63727,-0.694374 -0.0304,-0.0019 -0.004,-0.431943 0.0263,-0.430085 z"
       inkscape:connector-curvature="0" />
    <path
       style="opacity:1;fill:#000000;fill-opacity:1;stroke:none;stroke-width:0.00287424"
       id="path6260"
       d="m 112.47355,33.038837 c 2.5417,-0.102143 5.08862,0.02176 7.6284,0.129454 1.89857,0.107324 3.8014,0.191544 5.68997,0.426591 0.94052,0.117055 2.14572,0.300745 3.07027,0.57396 0.36809,0.108775 0.71728,0.273491 1.07592,0.410236 0.24113,0.146121 0.48225,0.292242 0.72338,0.438362 0.0191,0.009 -0.10769,0.279571 -0.12682,0.270603 v 0 c -0.26165,-0.05013 -0.5233,-0.100259 -0.78494,-0.150388 -0.94754,-0.102202 -1.54838,-0.172087 -2.52662,-0.253234 -2.44239,-0.202603 -4.89137,-0.317497 -7.33581,-0.490823 -1.28667,-0.09202 -2.26397,-0.156629 -3.54049,-0.267753 -1.1607,-0.101042 -2.32673,-0.209329 -3.4771,-0.399587 -0.16929,-0.028 -0.33665,-0.06669 -0.50498,-0.100031 -0.0415,-0.0077 0.0673,-0.595085 0.10882,-0.58739 z"
       inkscape:connector-curvature="0" />
    <path
       style="opacity:1;fill:#000000;fill-opacity:1;stroke:none;stroke-width:0.00287424"
       id="path6262"
       d="m 112.03499,38.734602 c 0.12584,-0.0072 0.25151,-0.01871 0.37752,-0.02152 0.82473,-0.01838 1.65279,0.02163 2.47725,0.0332 1.33929,0.01879 1.31491,0.01434 2.71783,0.01734 2.2523,0.0046 4.50533,-0.09307 6.75753,-0.02814 1.41829,0.04089 1.62076,0.07892 2.98471,0.201811 0.71666,0.13474 1.33104,0.199743 1.99747,0.493128 0.4409,0.194102 0.56327,0.347176 0.88187,0.643773 0.008,0.0063 -0.0801,0.126223 -0.0886,0.119959 v 0 c -0.11441,-0.05445 -0.22023,-0.132951 -0.34324,-0.163351 -0.19814,-0.04897 -0.40483,-0.05312 -0.60807,-0.07176 -0.87843,-0.08055 -1.04955,-0.0683 -1.99844,-0.09491 -0.46209,-0.0069 -0.92414,-0.0203 -1.38629,-0.02079 -0.52777,-5.56e-4 -1.05546,0.01268 -1.58321,0.01768 -2.25734,0.02138 -4.5161,0.04645 -6.77243,-0.04233 -1.84092,-0.09949 -3.70229,-0.194766 -5.50213,-0.623058 -0.0326,-0.0062 0.0556,-0.467275 0.0882,-0.461037 z"
       inkscape:connector-curvature="0" />
    <path
       style="opacity:1;fill:#000000;fill-opacity:1;stroke:none;stroke-width:0.00287424"
       id="path6264"
       d="m 111.6134,43.144032 c 0.11028,-0.01552 0.22007,-0.03494 0.33082,-0.04655 0.83166,-0.08717 1.67214,-0.105357 2.50663,-0.145561 1.60881,-0.07751 1.22141,-0.05928 2.92522,-0.1539 3.03977,-0.166569 6.07304,-0.444945 9.11489,-0.575699 0.54955,-0.02362 1.09954,-0.03542 1.64931,-0.05312 1.09816,0.0278 2.24407,-0.07928 3.3236,0.199707 0.16559,0.0428 0.61492,0.16884 0.64892,0.444389 0.0113,0.0916 -0.076,0.168215 -0.11404,0.252323 -0.001,0.0046 -0.066,-0.01318 -0.0647,-0.01776 v 0 c 0.0167,-0.02405 0.0741,-0.05539 0.0501,-0.07214 -0.0448,-0.03124 -0.10908,-0.0084 -0.16367,-0.0071 -0.15311,0.0036 -0.30613,0.01153 -0.45893,0.02188 -1.10353,0.07472 -2.20307,0.200429 -3.30567,0.286303 -3.59215,0.309198 -7.1899,0.593142 -10.79622,0.657585 -1.90286,0.0015 -3.82559,0.01423 -5.70828,-0.29943 -0.0347,-0.0044 0.0273,-0.495353 0.062,-0.490967 z"
       inkscape:connector-curvature="0" />
    <path
       style="opacity:1;fill:#000000;fill-opacity:1;stroke:none;stroke-width:0.00287424"
       id="path6266"
       d="m 111.96569,49.709983 c 1.72648,-0.02878 3.45215,-0.08201 5.17368,-0.223401 0.58283,-0.04786 1.16441,-0.10968 1.74662,-0.16452 1.8389,-0.173765 3.66193,-0.472527 5.49015,-0.728017 0.56763,-0.07933 1.13648,-0.149659 1.70463,-0.225208 0.51737,-0.0688 1.03296,-0.152225 1.55192,-0.207838 0.44435,-0.04762 0.89121,-0.06782 1.33681,-0.101733 1.33351,0.04138 0.72415,-0.0525 1.83622,0.222515 0.0196,0.0032 -0.0259,0.280596 -0.0455,0.277379 v 0 c -1.10541,0.178972 -0.50511,0.07535 -1.79962,0.318127 -1.83228,0.366165 -0.87753,0.177474 -2.86446,0.565012 -0.57175,0.114245 -1.1405,0.243803 -1.71384,0.349819 -1.84326,0.340831 -3.70413,0.591447 -5.57246,0.743527 -0.59227,0.03341 -1.18396,0.07953 -1.77681,0.100227 -1.03332,0.03607 -1.95254,0.02919 -2.97831,-0.0384 -0.55749,-0.03673 -1.2414,-0.111887 -1.8039,-0.221772 -0.14698,-0.02871 -0.29011,-0.07451 -0.43516,-0.111765 -0.0392,-0.01061 0.11086,-0.564562 0.15003,-0.553953 z"
       inkscape:connector-curvature="0" />
    <path
       style="opacity:1;fill:#000000;fill-opacity:1;stroke:none;stroke-width:0.00287424"
       id="path6268"
       d="m 112.32564,54.848686 c 0.83123,0.287452 1.74694,0.276982 2.6136,0.22823 1.21545,-0.06838 1.8717,-0.189558 3.10821,-0.363141 3.21952,-0.493686 6.39544,-1.324112 9.65025,-1.579075 0.50318,-0.03942 1.00873,-0.03778 1.5131,-0.05666 0.83842,0.07667 1.23729,0.01341 1.95883,0.393324 0.16388,0.08628 0.28511,0.236458 0.42766,0.354687 0.0109,0.0068 -0.0857,0.160928 -0.0966,0.154096 v 0 c -0.14297,-0.04416 -0.27968,-0.1216 -0.42892,-0.132485 -0.37732,-0.02752 -1.65313,0.151755 -1.9018,0.181999 -1.67187,0.270571 -1.45085,0.22442 -3.22974,0.559882 -2.63784,0.497443 -5.26582,1.071639 -7.93657,1.370497 -1.31748,0.101566 -1.94752,0.195831 -3.23568,0.13258 -0.85536,-0.042 -1.84518,-0.147706 -2.59225,-0.621099 -0.10858,-0.0688 -0.19007,-0.173101 -0.2851,-0.259649 -0.0257,-0.03076 0.40935,-0.393943 0.43503,-0.363183 z"
       inkscape:connector-curvature="0" />
    <path
       style="opacity:1;fill:#000000;fill-opacity:1;stroke:none;stroke-width:0.00287424"
       id="path6270"
       d="m 112.92038,60.281064 c 1.70191,0.182901 3.41559,0.218355 5.12557,0.156924 0.60164,-0.02162 1.20238,-0.06349 1.80358,-0.09523 1.91365,-0.122671 3.81779,-0.351346 5.72461,-0.547254 0.93428,-0.09599 2.2217,-0.23504 3.17925,-0.261212 0.39089,-0.01069 0.78194,0.01394 1.1729,0.0209 1.0311,0.186745 0.5949,0.01283 1.34094,0.4319 0.0128,0.0044 -0.049,0.184629 -0.0617,0.180266 v 0 c -0.78095,0.04731 -0.33831,0.0063 -1.32513,0.15012 -3.36479,0.591886 -6.73635,1.225738 -10.16121,1.327015 -0.61455,0.0057 -1.22915,0.0276 -1.84364,0.01714 -1.01966,-0.01736 -2.00639,-0.08355 -3.01429,-0.229227 -0.57968,-0.08378 -1.205,-0.21308 -1.76749,-0.397566 -0.14122,-0.04632 -0.27467,-0.113644 -0.412,-0.170466 -0.0413,-0.01688 0.19736,-0.600178 0.23861,-0.583305 z"
       inkscape:connector-curvature="0" />
    <path
       style="opacity:1;fill:#000000;fill-opacity:1;stroke:none;stroke-width:0.00287424"
       id="path6272"
       d="m 112.85197,66.059455 c -0.4695,0.33025 -0.97375,0.625266 -1.50627,0.84251 -0.0308,0.0085 -0.0826,0.05579 -0.0926,0.0254 -0.0529,-0.160713 -0.0944,-0.336857 -0.0648,-0.50343 0.0109,-0.06131 0.11013,-0.05913 0.16869,-0.08031 0.37734,-0.136467 0.8013,-0.161449 1.1941,-0.21118 2.22578,-0.229696 4.44113,-0.549516 6.66634,-0.78418 0.6177,-0.06514 1.2365,-0.119372 1.85475,-0.179057 1.63191,-0.112308 3.27503,-0.250812 4.91199,-0.138787 0.39089,0.02675 0.783,0.06326 1.16678,0.142131 0.66047,0.135726 0.90124,0.293201 1.46374,0.572638 0.097,0.139721 0.19393,0.279445 0.2909,0.419166 0.009,0.0074 -0.0962,0.127802 -0.10474,0.120396 v 0 c -0.12295,-0.04653 -0.2459,-0.09306 -0.36886,-0.139589 -0.18785,-0.04692 -0.37092,-0.121285 -0.56357,-0.140774 -0.31919,-0.0323 -1.78841,0.02548 -1.99176,0.03685 -1.62606,0.0909 -3.24383,0.286425 -4.86395,0.444968 -2.83742,0.271852 -5.68612,0.566367 -8.54045,0.488643 -0.17818,-0.0096 -0.35636,-0.01923 -0.53454,-0.02886 -0.11012,-0.007 -0.22018,-0.01506 -0.33036,-0.02106 -0.0607,-0.0033 -0.12156,-0.0035 -0.18227,-0.0068 -0.0256,-0.0013 -0.0642,0.01535 -0.0764,-0.0071 -0.0754,-0.138819 -0.13552,-0.288523 -0.16814,-0.443093 -0.005,-0.02439 0.0454,-0.02048 0.0682,-0.03073 0.50563,-0.214815 1.01668,-0.419364 1.53079,-0.612415 0.0166,-0.0051 0.089,0.229608 0.0724,0.234728 z"
       inkscape:connector-curvature="0" />
    <path
       style="opacity:1;fill:#000000;fill-opacity:1;stroke:none;stroke-width:0.00287424"
       id="path6274"
       d="m 113.33436,69.849466 c 0.67676,-0.347864 1.46439,-0.399238 2.20996,-0.456988 0.3252,-0.02519 1.99864,-0.116198 2.25148,-0.13025 2.542,-0.123301 5.05505,-0.542671 7.58326,-0.804854 0.44782,-0.04644 0.89686,-0.08038 1.3453,-0.120576 0.82556,-0.02328 1.16472,-0.08052 1.94176,0.05365 0.19241,0.03322 0.37627,0.104521 0.5644,0.156781 0.0146,0.0021 -0.0172,0.208794 -0.0318,0.206545 v 0 c -0.82854,0.175524 -1.64912,0.385222 -2.48352,0.533405 -2.98031,0.561567 -5.98912,1.034978 -9.03092,1.029515 -0.40353,-0.003 -0.80709,-0.0031 -1.21059,-0.0089 -1.00233,-0.01445 -2.013,-0.09682 -3.01155,0.02651 -0.0343,0.009 -0.16206,-0.475816 -0.12777,-0.484852 z"
       inkscape:connector-curvature="0" />
  </g>
</svg>
