<?xml version="1.0" encoding="UTF-8" standalone="no"?>
<!-- Created with Inkscape (http://www.inkscape.org/) -->

<svg
   xmlns:dc="http://purl.org/dc/elements/1.1/"
   xmlns:cc="http://creativecommons.org/ns#"
   xmlns:rdf="http://www.w3.org/1999/02/22-rdf-syntax-ns#"
   xmlns:svg="http://www.w3.org/2000/svg"
   xmlns="http://www.w3.org/2000/svg"
   xmlns:sodipodi="http://sodipodi.sourceforge.net/DTD/sodipodi-0.dtd"
   xmlns:inkscape="http://www.inkscape.org/namespaces/inkscape"
   width="108.4304mm"
   height="68.890053mm"
   viewBox="0 0 108.4304 68.890052"
   version="1.1"
   id="SVGRoot"
   inkscape:version="0.92.1 r"
   sodipodi:docname="postproc-convolve.svg">
  <sodipodi:namedview
     id="base"
     pagecolor="#ffffff"
     bordercolor="#666666"
     borderopacity="1.0"
     inkscape:pageopacity="0.0"
     inkscape:pageshadow="2"
     inkscape:zoom="1.979899"
     inkscape:cx="198.06929"
     inkscape:cy="119.25441"
     inkscape:document-units="mm"
     inkscape:current-layer="layer1"
     showgrid="false"
     inkscape:window-width="1916"
     inkscape:window-height="1037"
     inkscape:window-x="2560"
     inkscape:window-y="41"
     inkscape:window-maximized="0"
     fit-margin-top="0"
     fit-margin-left="0"
     fit-margin-right="0"
     fit-margin-bottom="0" />
  <defs
     id="defs72" />
  <metadata
     id="metadata75">
    <rdf:RDF>
      <cc:Work
         rdf:about="">
        <dc:format>image/svg+xml</dc:format>
        <dc:type
           rdf:resource="http://purl.org/dc/dcmitype/StillImage" />
        <dc:title></dc:title>
      </cc:Work>
    </rdf:RDF>
  </metadata>
  <g
     inkscape:groupmode="layer"
     id="layer2"
     inkscape:label="Layer 2"
     transform="translate(-72.652905,-17.610112)" />
  <g
     id="layer1"
     inkscape:groupmode="layer"
     inkscape:label="Layer 1"
     style="display:inline"
     transform="translate(-72.652905,-17.610112)">
    <path
       style="opacity:1;fill:#000000;fill-opacity:1;stroke:none;stroke-width:0.00212008"
       id="path6736"
       d="m 108.58906,53.011257 c 0.6,-0.07672 1.20787,-0.04731 1.80988,-0.01267 0.34293,0.02048 0.68815,0.04474 1.03103,0.009 0.17464,-0.01823 0.28997,-0.04305 0.463,-0.07496 0.48834,-0.114197 0.98062,-0.201695 1.48125,-0.233416 0.37864,-0.01366 0.75625,0.02343 1.13471,0.02777 0.32194,0.0052 0.63279,-0.07635 0.93773,-0.170248 0.33664,-0.106913 0.65055,-0.271788 0.96587,-0.428453 0.41569,-0.203104 0.79678,-0.460515 1.13761,-0.772429 0.20311,-0.20658 0.35445,-0.451338 0.49708,-0.701311 0.20271,-0.385215 0.41948,-0.761912 0.65016,-1.131019 0.2955,-0.471701 0.62372,-0.921501 0.93882,-1.379995 0.30708,-0.439008 0.57085,-0.905592 0.83522,-1.370882 0.17537,-0.3134 0.38124,-0.607808 0.58357,-0.903986 0.20801,-0.326498 0.44155,-0.633684 0.70144,-0.920284 0.32343,-0.347163 0.69747,-0.638415 1.09261,-0.898503 0.34268,-0.228287 0.71629,-0.400326 1.10396,-0.535662 0.33959,-0.103601 0.69613,-0.17295 1.05211,-0.127586 0.071,0.0091 0.14065,0.02658 0.21097,0.03988 0.42092,0.122878 0.80719,0.337125 1.20375,0.520364 0.45208,0.189787 0.90813,0.363355 1.33036,0.614773 0.39266,0.249093 0.67695,0.614465 0.94795,0.984133 0.20796,0.287571 0.39402,0.589516 0.58268,0.889737 0.23575,0.36559 0.4273,0.75548 0.60867,1.150054 0.22342,0.497969 0.41756,1.008479 0.60965,1.51917 0.15336,0.401668 0.24386,0.823792 0.41264,1.219506 0.1443,0.286143 0.42052,0.452822 0.6774,0.626639 0.37499,0.246001 0.72797,0.522939 1.09873,0.774932 0.3349,0.221039 0.69035,0.407196 1.06075,0.560568 0.40803,0.141174 0.83735,0.210855 1.25896,0.299992 0.64454,0.130892 1.2857,0.277319 1.93057,0.406597 0.66467,0.13803 1.34073,0.203368 2.01511,0.272071 0.50037,0.06091 1.00256,0.09677 1.50596,0.118227 0.59934,0.01901 1.19903,0.02352 1.79863,0.02279 0.70998,-0.01799 1.41385,0.0677 2.11472,0.169087 0.69358,0.115643 1.39213,0.194187 2.09125,0.266636 0.30824,0.06217 0.84566,0.03554 1.0965,0.241913 -0.19946,0.549744 -0.0909,0.541228 -0.47529,0.313657 -0.004,-1.66e-4 -0.002,-0.06555 0.002,-0.06539 v 0 c 0.0598,-0.04677 0.11792,-0.09579 0.17942,-0.1403 0.23822,-0.172396 0.10943,-0.03748 0.0738,0.366409 -0.005,0.0069 -0.007,0.01924 -0.0159,0.0209 -0.0432,0.0084 -0.23122,-0.01073 -0.24753,-0.01212 -0.24938,-0.02126 -0.49849,-0.04572 -0.74805,-0.06492 -0.71239,-0.05519 -1.42272,-0.131386 -2.12699,-0.254549 -0.6729,-0.100824 -1.34848,-0.187087 -2.03083,-0.169062 -0.60775,-0.0043 -1.21548,-0.01694 -1.8223,-0.05306 -0.5099,-0.03229 -1.01987,-0.06363 -1.52946,-0.100652 -0.69807,-0.05323 -1.39584,-0.124782 -2.08083,-0.274794 -0.64726,-0.134601 -1.29101,-0.285557 -1.9336,-0.44085 -0.44561,-0.109723 -0.89652,-0.207234 -1.32844,-0.364358 -0.40481,-0.16551 -0.79299,-0.36695 -1.15738,-0.609754 -0.37309,-0.253216 -0.72932,-0.529488 -1.09847,-0.788327 -0.32684,-0.236746 -0.66039,-0.473964 -0.8484,-0.843715 -0.18325,-0.399369 -0.2939,-0.822745 -0.44071,-1.236017 -0.19474,-0.500183 -0.40112,-0.995865 -0.60652,-1.491735 -0.15883,-0.3779 -0.315,-0.759884 -0.53361,-1.108232 -0.18117,-0.290914 -0.37453,-0.573393 -0.57583,-0.850787 -0.22703,-0.313629 -0.45974,-0.631164 -0.79341,-0.839905 -0.41484,-0.233564 -0.86227,-0.39282 -1.29395,-0.591578 -0.35349,-0.170945 -0.69624,-0.37535 -1.07361,-0.488984 -0.34191,-0.05823 -0.67787,-0.01053 -1.0046,0.105087 -0.34727,0.128953 -0.67835,0.294233 -0.98161,0.508623 -0.27689,0.192815 -0.54825,0.393561 -0.79277,0.627044 -0.25326,0.261014 -0.47353,0.550253 -0.67759,0.851083 -0.19469,0.277718 -0.38812,0.556898 -0.53825,0.862226 -0.25403,0.49007 -0.51664,0.977222 -0.83793,1.427405 -0.31209,0.455922 -0.64081,0.900326 -0.94183,1.363861 -0.23863,0.355512 -0.47191,0.714629 -0.67739,1.09064 -0.21721,0.383673 -0.42602,0.771979 -0.76885,1.062661 -0.38351,0.333096 -0.80717,0.608298 -1.27502,0.80992 -0.34207,0.157319 -0.6863,0.314468 -1.04845,0.42046 -0.35318,0.09717 -0.71359,0.169876 -1.08212,0.157567 -0.3634,-0.01165 -0.7271,-0.04355 -1.09071,-0.01944 -0.48421,0.04002 -0.95868,0.140869 -1.43566,0.230089 -0.53003,0.08348 -1.06338,0.107523 -1.59894,0.05945 -0.58758,-0.03046 -1.17593,-0.05502 -1.76218,-0.105285 -0.0308,-0.0034 0.0174,-0.439072 0.0482,-0.435663 z"
       inkscape:connector-curvature="0" />
    <path
       style="opacity:1;fill:#000000;fill-opacity:1;stroke:none;stroke-width:0.00212008"
       id="path6786"
       d="m 87.811128,31.212658 c 0.28721,-0.01119 0.57445,0.0062 0.86174,0.0035 0.0543,-0.005 0.11781,-8.11e-4 0.16788,-0.02872 0.0262,-0.01461 0.0435,-0.03038 0.0726,-0.04296 0.12688,-0.03462 0.2614,-0.01502 0.39013,-7.03e-4 0.0495,-0.0052 0.16814,0.0451 0.21103,0.01283 0.0645,-0.03832 0.13995,-0.04589 0.21319,-0.05135 0.0905,-0.004 0.18072,0.0053 0.27061,0.01427 0.009,-1.29e-4 0.0909,0.0093 0.0797,-0.0049 0.0274,-0.01608 0.0502,-0.03674 0.0718,-0.06061 0.0308,-0.03815 0.16783,-0.198499 0.23922,-0.286836 0.20644,-0.266856 0.41499,-0.531859 0.6313,-0.79079 0.0889,-0.09985 0.17565,-0.203671 0.27947,-0.288594 0.0247,-0.0202 0.046,-0.07588 0.074,-0.06068 0.0711,0.0385 0.10427,0.123628 0.15641,0.185442 -0.007,0.01112 -0.0147,0.02225 -0.022,0.03335 -0.005,0.0073 -0.0159,0.02952 -0.016,0.02078 -6e-5,-0.0093 -0.001,-0.02942 0.007,-0.027 0.01,0.0027 0.0182,0.0094 0.0273,0.01412 0.0264,0.01416 0.17491,0.08942 0.19407,0.05966 -0.0207,-0.02652 7.4e-4,-0.0045 -0.0611,0.0279 -0.004,0.0024 0.007,-0.008 0.009,-0.01244 0.0226,-0.03958 0.0409,-0.08065 0.0647,-0.119708 0.11007,-0.175156 0.21281,-0.147925 0.36406,-0.05629 0.0443,0.01871 0.0961,0.07254 0.14432,0.06235 -0.0478,-0.02494 0.11027,-0.02666 0.11628,-0.02655 0.10199,0.01221 0.1931,0.06385 0.28785,0.100208 0.0586,0.02032 0.0323,-0.01174 0.006,8.11e-4 -0.0304,0.01459 -0.0765,0.06665 -0.0499,0.03718 0.087,-0.143251 0.17877,-0.151337 0.32832,-0.123061 0.12265,0.01531 0.23015,0.09582 0.35134,0.112645 -0.009,-0.0072 -0.0285,-0.02483 -0.0408,-0.02199 -0.0139,0.0032 -0.0285,0.03775 -0.035,0.02497 -0.002,-0.0049 0.0576,-0.119104 0.0735,-0.154207 0.0361,-0.08394 0.0697,-0.154459 0.1785,-0.18034 0.0753,-0.01789 0.17068,0.07793 0.22227,0.119864 0.0511,0.04295 0.1,0.08873 0.15276,0.129532 0.0108,0.0084 0.0219,0.01646 0.0336,0.0235 0.003,0.0019 0.0139,0.0049 0.0107,0.0031 -0.0103,-0.0057 -0.0213,-0.0099 -0.032,-0.01488 -0.1222,-0.01469 0.0586,-0.0035 -0.0826,0.03558 -0.0118,0.0032 0.0106,-0.02206 0.0158,-0.03315 0.0179,-0.03819 0.0369,-0.07549 0.0557,-0.113211 0.0269,-0.03017 0.0468,-0.06852 0.0808,-0.09051 0.1106,-0.07162 0.25042,0.04177 0.33705,0.09973 0.0148,0.01 0.0287,0.02131 0.0443,0.02994 0.0692,0.03832 0.0153,-0.02247 0.008,-0.0212 -0.0125,0.0022 -0.0203,0.01554 -0.0304,0.02332 0.0538,-0.06894 0.1025,-0.188199 0.19216,-0.219499 0.0342,-0.01194 0.0722,0.0055 0.10836,0.0083 0.0761,0.032 0.11213,0.124674 0.19294,0.146847 -0.01,-0.05021 0.0131,0.05553 -0.0179,-0.0272 -0.003,-0.0079 0.007,-0.0209 1.9e-4,-0.02518 -0.008,-0.0046 -0.0266,0.01944 -0.0248,0.01063 0.004,-0.02318 0.024,-0.04073 0.0351,-0.06164 0.0139,-0.02637 0.0266,-0.05342 0.0397,-0.08013 0.0151,-0.025 0.12339,-0.262148 0.14081,-0.263011 0.0905,-0.0045 0.18125,-2.74e-4 0.27187,-4.11e-4 0.0568,0.0372 0.13392,-0.03899 0.17728,-0.06959 0.0379,-0.04002 0.062,-0.06671 0.10124,-0.15008 0.0329,-0.08054 0.0595,-0.0802 0.14493,-0.146362 0.0126,-0.0098 0.0212,-0.02408 0.0327,-0.0352 0.006,-0.0089 0.0238,-0.01799 0.0176,-0.02668 -0.006,-0.0081 -0.0255,0.02805 -0.0237,0.01826 5.9e-4,-0.0027 0.0752,-0.113013 0.0862,-0.134169 0.0579,-0.108921 0.031,-0.08669 0.28451,-0.03161 0.0165,0.0036 0.0769,0.168757 0.0872,0.196211 -0.14323,-0.09676 -0.032,-0.05628 -0.21353,-0.007 -0.008,0.0021 0.008,-0.01388 0.012,-0.02119 0.0215,-0.04423 0.0409,-0.08942 0.0615,-0.134076 0.0323,-0.06642 0.0634,-0.133272 0.10096,-0.196901 0.008,-0.01351 0.0128,-0.04252 0.0278,-0.03798 0.0891,0.02695 0.17579,0.06099 0.26368,0.09149 -0.001,0.0031 -0.003,0.01231 -0.004,0.0092 -0.0392,-0.111965 0.0607,0.0021 -0.13463,-0.136626 -0.007,-0.0049 -0.0121,-0.01605 -0.0206,-0.0152 -0.0123,0.0013 -0.0325,0.03266 -0.031,0.02039 0.002,-0.01975 0.023,-0.03247 0.0345,-0.0487 0.0315,-0.04022 0.055,-0.08564 0.0821,-0.128712 0.002,-0.0041 0.007,-0.01599 0.008,-0.0115 0.004,0.01156 4e-4,0.02454 5.9e-4,0.03681 0.0299,0.03988 0.0597,0.07977 0.0896,0.11965 -0.11554,-0.03749 -0.15115,-0.143382 -0.11697,-0.250505 0.11142,-0.237885 0.27956,-0.05098 0.35046,0.04962 -0.0847,-0.08568 0.0641,0.05219 -0.2362,0.0222 -0.0221,-0.0022 0.011,-0.04303 0.0164,-0.06457 0.008,-0.0328 0.017,-0.06551 0.0246,-0.09845 0.0111,-0.04742 0.0441,-0.203977 0.0536,-0.248595 0.0386,-0.144537 0.0516,-0.301422 0.11606,-0.438478 0.0117,-0.02483 0.0178,-0.05815 0.0421,-0.07071 0.0676,-0.03484 0.14615,-0.04257 0.21923,-0.06386 0.0344,0.02981 0.0727,0.05562 0.10323,0.08946 0.0376,0.04175 0.11268,0.176813 0.13768,0.221403 0.0668,0.119154 0.12782,0.240756 0.18778,0.363446 0.006,0.04255 0.0465,0.07486 0.0555,0.117101 7.3e-4,0.0048 -0.007,-0.01079 -0.0112,-0.0096 -0.0832,0.02175 -0.16038,0.0722 -0.24623,0.07687 -0.0213,0.0012 0.002,-0.04269 0.006,-0.06377 0.004,-0.02861 0.0117,-0.05671 0.0176,-0.08507 0.049,-0.169077 0.11946,-0.341608 0.23952,-0.473977 0.0344,-0.03789 0.0722,-0.07246 0.10836,-0.108685 0.18256,-0.09652 0.27704,0.02338 0.37645,0.15654 0.0513,0.08454 0.11524,0.08643 0.008,0.03582 0.0263,-0.04874 -0.028,0.01095 -0.0258,0.0026 0.007,-0.02654 0.17033,-0.215279 0.19527,-0.243256 0.0415,-0.0374 0.0787,-0.08024 0.12454,-0.112209 0.17918,-0.125016 0.37526,0.01254 0.51374,0.12434 0.0956,0.09265 0.0536,0.04893 0.13593,0.139514 0.0136,0.01501 0.0266,0.03073 0.0409,0.0451 10e-4,0.0015 0.008,0.0031 0.006,0.0022 -0.0991,-0.04566 -0.0486,-0.04231 -0.15833,0.0092 0.0987,-0.225052 0.18767,-0.455216 0.32762,-0.659133 0.0315,-0.04592 0.0679,-0.08832 0.1018,-0.132486 0.12152,-0.124709 0.24145,-0.254448 0.42999,-0.157947 0.12344,0.06318 0.16472,0.202664 0.20488,0.321828 0.007,0.03129 0.0151,0.0625 0.0221,0.09387 0.009,0.03858 0.0249,0.07683 0.0232,0.116331 -2e-4,0.0055 -0.004,-0.01351 -0.009,-0.01393 -0.0809,-0.0063 -0.16584,0.01824 -0.24342,-0.0056 -0.0211,-0.0065 0.0157,-0.0413 0.0235,-0.06195 0.10717,-0.335201 0.22698,-0.6647 0.36993,-0.986306 0.129712,-0.232995 0.256692,-0.535764 0.470722,-0.70816 0.0401,-0.03234 0.0843,-0.05933 0.12648,-0.08899 0.0485,0.0083 0.10534,-0.0037 0.1453,0.0249 0.12127,0.0868 0.0701,0.242637 0.0687,0.360563 0.007,-0.06068 -0.10827,-0.05357 -0.0837,-0.105076 0.0438,-0.09184 0.029,-0.01789 0.037,-0.06536 0.15745,-0.218133 0.27924,-0.458906 0.43185,-0.680204 0.13135,-0.163798 0.2271,-0.189132 0.35596,-0.01036 0.0428,0.05936 0.0787,0.297283 0.095,0.371508 0.0259,0.127356 0.0468,0.255562 0.0735,0.382744 0.004,0.02252 0.01,0.04496 0.0148,0.06743 10e-4,0.0077 0.0119,0.02749 0.005,0.02318 -0.0228,-0.0148 -0.0387,-0.03826 -0.058,-0.05739 -0.0557,0.01437 -0.10982,0.03706 -0.16699,0.04311 -0.01,0.001 0.008,-0.01792 0.0129,-0.02682 0.0133,-0.02699 0.0266,-0.05401 0.0401,-0.08084 0.0811,-0.159639 0.16754,-0.315741 0.25542,-0.471708 0.24477,-0.437694 0.49221,-0.877325 0.8258,-1.254309 0.14776,-0.140008 0.26217,-0.261881 0.43561,-0.04738 0.0463,0.05728 0.046,0.29205 0.0523,0.368562 0.0162,0.20865 0.0417,0.420573 0.1391,0.608431 -0.007,-0.0324 0.0272,0.05773 0.0418,0.04379 0.0163,-0.01554 -0.0549,-0.01905 -0.0467,-0.0433 0.005,-0.01437 0.0183,-0.02419 0.0274,-0.03628 -0.001,-0.0016 -0.004,-0.0033 -0.004,-0.0049 0.0453,-0.06224 0.0969,-0.119624 0.14643,-0.178505 0.10815,-0.128503 0.22069,-0.237879 0.34568,-0.350728 0.17813,-0.116097 0.34919,-0.101728 0.45732,0.102992 0.0457,0.08662 0.0552,0.206349 0.0692,0.300034 0.0114,0.140044 0.0119,0.281099 0.001,0.421222 -0.002,0.02677 -0.005,0.05348 -0.009,0.08002 -0.002,0.0139 0.004,0.03996 -0.01,0.04112 -0.014,0.0012 -0.0105,-0.02602 -0.0158,-0.03903 -0.084,-0.01289 -0.19343,0.0229 -0.25204,-0.03866 -0.0568,-0.05968 0.18302,-0.139305 0.20477,-0.140787 0.16625,-0.01133 0.24671,0.09598 0.33888,0.212876 0.15638,0.240797 0.21746,0.523467 0.31978,0.787679 0.0261,0.04965 0.008,0.01062 -0.007,0.003 -0.006,-0.0032 -0.0857,-0.03506 -0.10071,-0.02901 -0.0154,0.0062 -0.0482,0.04595 -0.0369,0.03373 0.0277,-0.02988 0.0573,-0.05784 0.086,-0.08677 0.15571,-0.111603 0.26763,-0.0521 0.39151,0.06882 0.10244,0.119487 0.19392,0.24872 0.30729,0.358474 0.0117,0.0036 0.0243,0.0089 -0.007,-0.01133 -0.007,-0.0043 -0.0168,-0.0039 -0.0214,-0.01032 -0.009,-0.01222 0.0455,-0.04946 0.0507,-0.05382 0.097,-0.07756 0.21249,-0.03998 0.28613,0.05357 0.0257,0.03266 0.0604,0.134695 0.0744,0.172198 0.0111,0.03292 0.0226,0.06574 0.0335,0.09876 0.0256,0.07768 0.0308,0.105558 0.0623,0.177618 0.0115,0.02641 0.0188,0.05988 0.0435,0.07468 0.004,0.0026 -0.004,-0.0094 -0.005,-0.01407 0.0104,-0.0077 -0.041,-0.01882 -0.0347,-0.03363 0.0164,-0.03833 0.15119,-0.101214 0.18628,-0.11889 0.16426,-0.06723 0.32976,-0.03411 0.45095,0.100036 0.0293,0.03243 0.0507,0.0712 0.076,0.106788 0.13745,0.23596 0.20798,0.501504 0.3189,0.749502 0.01,0.0123 0.0173,0.02711 0.0298,0.0369 0.0329,0.02595 -0.0119,-0.02585 -0.009,-0.04005 0.003,-0.01406 0.0154,-0.02441 0.0252,-0.03487 0.0214,-0.02281 0.12605,-0.114712 0.14136,-0.128334 0.12649,-0.105288 0.30813,-0.303635 0.49031,-0.172674 0.0432,0.03108 0.0628,0.08598 0.0942,0.128965 0.0685,0.256791 0.0615,0.525824 0.0765,0.789502 0.0138,0.115242 0.0168,0.0498 -0.0643,0.002 -0.0212,-0.01251 -0.0533,-0.0027 -0.0714,-0.01949 -0.008,-0.0078 0.0126,-0.0193 0.0202,-0.02793 0.0142,-0.01612 0.0299,-0.03077 0.0449,-0.04615 0.10899,-0.10128 0.24793,-0.208496 0.40813,-0.174084 0.0423,0.0091 0.0805,0.03212 0.12071,0.04818 0.0344,0.03305 0.0735,0.06179 0.10315,0.09913 0.16366,0.206027 0.21837,0.532307 0.26994,0.783541 0.008,0.04527 0.0159,0.09048 0.0233,0.1358 9e-5,5.66e-4 0.0249,0.139458 0.0192,0.162939 -10e-4,0.0071 -0.007,-0.01598 -0.0143,-0.0164 -0.0937,-0.0055 -0.19006,0.02014 -0.28154,-8.12e-4 -0.0209,-0.0048 0.0207,-0.0377 0.031,-0.05655 0.0908,-0.142125 0.23374,-0.317674 0.4236,-0.29703 0.0397,0.0043 0.0767,0.02225 0.11497,0.03337 0.0322,0.02767 0.0685,0.0513 0.0968,0.08303 0.12213,0.137018 0.15964,0.343224 0.20514,0.514955 0.005,0.02016 0.0105,0.04031 0.0158,0.06047 0.001,0.0049 0.009,0.01811 0.005,0.01493 -0.017,-0.01294 -0.0268,-0.03442 -0.045,-0.04548 -0.0772,-0.04686 -0.11821,-0.0053 -0.014,-0.09018 0.17257,-0.133831 0.3683,-0.225778 0.58209,-0.267797 0.16904,-0.01375 0.29023,0.07396 0.36597,0.217355 0.0394,0.126268 0.0328,0.172691 -0.28088,0.01879 -0.0291,-0.01426 0.0223,-0.06088 0.0353,-0.09051 0.0524,-0.11859 0.0716,-0.144586 0.1389,-0.263012 0.11296,-0.185951 0.2289,-0.372951 0.37046,-0.539038 0.061,-0.07156 0.11554,-0.117038 0.18651,-0.18258 0.0384,-0.0058 0.0787,-0.03088 0.11507,-0.0175 0.20922,0.07692 0.19109,0.287982 0.20775,0.466893 0.001,0.02227 0.002,0.04462 0.005,0.0668 10e-4,0.01168 0.006,0.02289 0.007,0.03461 3.9e-4,0.0049 -0.002,-0.0099 -0.005,-0.01369 -0.0139,-0.01664 -0.0662,-0.06444 -0.0647,-0.07028 0.004,-0.01666 0.0249,-0.0236 0.0373,-0.03541 0.24427,-0.210842 0.48476,-0.42487 0.75126,-0.607466 0.13919,-0.08755 0.30586,-0.185676 0.45837,-0.05447 0.0617,0.05302 0.0727,0.132235 0.0913,0.203872 0.004,0.02257 0.0381,0.318609 0.0665,0.29977 -0.005,-0.0078 -0.0138,-0.01434 -0.0147,-0.02354 -0.003,-0.02863 0.0678,-0.04947 0.0686,-0.04989 0.12715,-0.06238 0.25418,-0.124824 0.38202,-0.185789 0.26368,-0.114958 0.56264,-0.281445 0.86237,-0.211994 0.0566,0.0131 0.10809,0.04232 0.16213,0.06349 0.26441,0.170065 0.36656,0.455562 0.44784,0.74372 0.0285,0.120428 0.0179,0.04212 -0.0521,0.0078 -0.028,-0.01373 -0.0636,-0.0038 -0.0917,-0.01736 -0.008,-0.0036 0.009,-0.01421 0.0162,-0.019 0.0189,-0.0132 0.0399,-0.02289 0.0599,-0.03433 0.17256,-0.08101 0.35998,-0.08016 0.51022,0.05085 0.0348,0.03035 0.0603,0.06991 0.0905,0.10487 0.11129,0.175783 0.1735,0.377643 0.21816,0.579594 0.004,0.03748 4e-5,-0.01697 -0.0406,-0.03476 -0.0427,-0.01868 -0.0909,-0.02104 -0.13622,-0.03193 -0.004,-0.001 -0.0165,-0.0011 -0.0129,-0.0039 0.0221,-0.0172 0.0979,-0.04024 0.11751,-0.04699 0.20482,-0.05196 0.41595,-0.06886 0.62655,-0.07242 0.29218,0.01517 0.41822,0.126877 0.56846,0.36618 0.10071,0.167237 0.15947,0.360983 0.28187,0.514981 -0.003,-0.0048 -0.006,-0.0096 -0.009,-0.01433 -0.0135,-0.0076 -0.032,-0.0099 -0.0405,-0.02284 -0.0227,-0.03468 0.27359,-0.180982 0.29978,-0.194402 0.24447,-0.103441 0.52615,-0.185643 0.78631,-0.08386 0.0512,0.02001 0.0966,0.05233 0.14489,0.07851 0.19682,0.149338 0.27385,0.376769 0.37189,0.591887 0.0209,0.03452 3.9e-4,-0.0014 -0.0214,-0.01839 -0.0139,-0.01075 -0.0402,-0.0094 -0.0456,-0.02612 -0.004,-0.01328 0.0162,-0.02305 0.0268,-0.03211 0.0613,-0.05233 0.13015,-0.09514 0.19551,-0.142348 0.30502,-0.215187 0.61386,-0.43113 0.95156,-0.592911 0.0696,-0.03336 0.14155,-0.06174 0.21233,-0.0926 0.21602,-0.06904 0.48378,-0.173317 0.71103,-0.08045 0.0245,0.01002 0.0462,0.02591 0.0693,0.03887 0.0247,0.04041 0.11383,0.09539 0.0741,0.121234 -0.32202,0.209647 -0.37656,0.104487 -0.32614,-0.08679 0.0402,-0.152637 0.17139,-0.319409 0.25696,-0.447673 0.23161,-0.324407 0.44787,-0.66545 0.7272,-0.95241 0.0703,-0.07221 0.14511,-0.139895 0.21765,-0.209842 0.15837,-0.125342 0.39416,-0.269456 0.58154,-0.108153 0.0246,0.02121 0.039,0.05203 0.0585,0.07805 0.0454,0.107842 0.001,0.120723 -0.30295,0.02039 -0.026,-0.0086 0.0238,-0.0493 0.0364,-0.07363 0.058,-0.112574 0.0496,-0.0935 0.12198,-0.211411 0.15365,-0.247182 0.33798,-0.47316 0.5066,-0.709872 0.0426,-0.06001 0.0752,-0.12569 0.10944,-0.190472 0.004,-0.0072 0.008,-0.02813 0.0119,-0.02106 0.009,0.01625 10e-4,0.03748 0.007,0.05512 0.008,0.02405 0.0216,0.04559 0.0324,0.06838 -0.18385,-0.07807 -0.33125,-0.227318 -0.44222,-0.389659 -0.11755,-0.246682 -0.10412,-0.260121 0.34204,-0.254195 0.0264,3.51e-4 0.0263,0.0458 0.0395,0.06869 0.0219,0.03791 0.0438,0.0758 0.0656,0.113699 0.16594,0.279101 0.28597,0.581375 0.43222,0.870389 0.10415,0.130531 0.0182,0.03889 0.0207,0.02861 0.004,-0.01421 0.0177,-0.02329 0.0274,-0.0342 0.0178,-0.01994 0.0366,-0.03886 0.0549,-0.05829 0.001,-0.0049 5.9e-4,-0.01069 0.004,-0.01477 0.11835,-0.161573 0.0544,-0.04571 0.1696,-0.231113 0.092,-0.148078 0.16679,-0.306232 0.24273,-0.462804 0.0492,-0.103146 0.0947,-0.208373 0.14866,-0.309195 0.008,-0.01546 0.009,-0.04533 0.0262,-0.04565 0.37062,-0.0069 0.31266,-0.05426 0.40815,0.135804 0.14006,0.255228 0.31247,0.492439 0.5101,0.706025 0.0909,0.07521 0.0153,-0.0016 -0.0245,0.0068 -0.0325,0.0069 -0.053,0.04715 -0.086,0.0499 -0.0194,0.0016 0.0244,-0.03021 0.0361,-0.04574 0.0207,-0.02762 0.0407,-0.05579 0.0611,-0.08368 0.1864,-0.249735 0.37886,-0.494888 0.5638,-0.745783 0.075,-0.08574 0.15631,-0.230626 0.2711,-0.269458 0.14362,-0.04859 0.2534,0.07998 0.33715,0.167518 0.16487,0.179063 0.28593,0.395672 0.46038,0.56572 0.0121,0.005 0.0232,0.01467 0.0363,0.0151 0.0192,6.24e-4 0.0269,-0.02757 0.0418,-0.03985 0.0955,-0.07923 0.19838,-0.151361 0.29571,-0.228414 0.25726,-0.202418 0.49946,-0.430476 0.79564,-0.575348 0.28508,-0.07561 0.37971,0.139708 0.49025,0.349744 0.064,0.13887 0.16722,0.238817 0.28106,0.33589 0.15146,0.118028 0.28368,0.257402 0.41368,0.397967 0.008,-0.02943 0.033,0.0514 0.0523,0.04066 0.004,-0.0024 -0.005,-0.0098 -0.004,-0.01472 0.002,-0.0073 0.007,-0.01434 0.0125,-0.01882 0.0437,-0.03237 0.0942,-0.05455 0.14094,-0.08236 0.18722,-0.100802 0.4021,-0.235717 0.62625,-0.189267 0.0497,0.0103 0.0952,0.03542 0.14281,0.05313 0.0424,0.0349 0.0897,0.0646 0.12728,0.104713 0.21835,0.233338 0.2719,0.584464 0.32422,0.8854 0.0581,0.376499 0.06,0.758187 0.11403,1.135051 0.0351,0.14647 0.0666,0.344342 0.18449,0.452424 -0.11672,-0.09414 -0.2839,0.09228 -0.20505,0.206739 0.099,-0.05192 0.19208,-0.117274 0.29705,-0.155772 0.0147,-0.0054 0.0203,0.02372 0.0303,0.03572 0.0181,0.02176 0.0354,0.04415 0.0539,0.06556 0.088,0.101771 0.18247,0.196293 0.27871,0.290166 0.20887,0.19973 0.41381,0.335554 0.69779,0.395299 0.18,0.02852 0.36059,0.0038 0.53946,-0.01955 0.0667,-0.004 0.0903,-0.0452 0.15051,-0.06956 0.0284,-0.0027 0.0569,-0.01196 0.0853,-0.0082 0.18755,0.02466 0.33254,0.244412 0.4381,0.381136 0.1325,0.151331 0.2778,0.421978 0.46178,0.510492 0.007,-0.0033 0.0153,-0.0038 0.0191,-0.0099 0.005,-0.0083 3.9e-4,-0.01997 0.004,-0.02886 0.008,-0.01873 0.0235,-0.03383 0.0318,-0.05258 0.002,-0.0058 -0.004,-0.0136 -3.9e-4,-0.01875 0.0665,-0.09649 0.14472,-0.184417 0.21552,-0.277826 0.20117,-0.246614 0.38291,-0.519582 0.62903,-0.72576 0.0481,-0.04029 0.0992,-0.07682 0.14885,-0.115224 0.0369,-0.0045 0.0767,-0.02865 0.11065,-0.01348 0.0685,0.03063 0.12785,0.08312 0.17522,0.141316 0.0111,0.01365 0.0302,0.163215 0.0342,0.185766 0.0142,0.07982 0.0218,0.102895 0.0423,0.18257 7.4e-4,-0.0057 0.0915,0.241805 0.11205,0.198988 0.009,-0.01808 -0.0262,-0.03059 -0.0415,-0.04353 0.004,-0.01224 0.006,-0.02572 0.0131,-0.0367 0.0158,-0.02499 0.0375,-0.04577 0.0543,-0.07008 0.006,-0.009 0.008,-0.02099 0.0145,-0.02954 0.13327,-0.165743 0.28792,-0.314815 0.43829,-0.464299 0.17893,-0.146576 0.40726,-0.320178 0.65532,-0.240473 0.0434,0.01396 0.081,0.04207 0.1215,0.0631 0.154,0.107679 0.2248,0.284394 0.33771,0.427058 0.004,0.0021 0.01,0.0094 0.014,0.0065 0.004,-0.0027 -0.002,-0.0094 -0.003,-0.01409 0.006,-0.0045 0.0104,-0.01035 0.0168,-0.01358 0.0819,-0.0411 0.17326,-0.06908 0.25699,-0.106488 0.36595,-0.184152 0.7055,-0.41555 1.0593,-0.621674 0.3029,-0.152547 0.6385,-0.339222 0.99187,-0.30757 0.0414,0.0037 0.0812,0.01781 0.12181,0.02672 0.10421,0.05993 0.1174,0.05118 0.18459,0.155992 0.0483,0.07541 0.0283,0.119821 0.10435,0.173048 0.20926,0.09589 0.38862,0.0794 0.60362,0.01404 0.23665,-0.09474 0.38846,-0.287973 0.53907,-0.483246 0.10044,-0.113835 0.17165,-0.276311 0.30629,-0.357857 0.0831,-0.05034 0.14661,-0.0191 0.22998,-6.83e-4 0.11187,0.05091 0.20561,0.100871 0.32383,0.04365 0.23242,-0.196053 0.4507,-0.406244 0.69101,-0.59339 0.18402,-0.123291 0.39738,-0.274373 0.63327,-0.250303 0.14252,0.01455 0.16918,0.05086 0.28549,0.125373 0.1938,0.199279 0.31232,0.455895 0.39808,0.717222 0.0162,0.08593 0.062,0.260336 -0.038,0.321343 -0.0329,0.02008 -0.074,0.02164 -0.11103,0.03246 -1.9e-4,8.11e-4 -0.0115,-0.0025 -0.0113,-0.0033 v 0 c -0.14735,-0.04348 -0.1357,-0.03312 -0.20313,-0.177469 -0.0913,-0.189485 -0.17292,-0.385464 -0.28613,-0.563182 -0.015,-0.01825 -0.0256,-0.04109 -0.0536,-0.04123 -0.15411,-7.22e-4 -0.30999,0.164408 -0.4298,0.237558 -0.15127,0.119045 -0.29676,0.245244 -0.44907,0.362924 -0.0792,0.06118 -0.17471,0.13389 -0.26606,0.177926 -0.0414,0.01994 -0.0862,0.03168 -0.12933,0.04752 -0.0405,0.0064 -0.0806,0.01711 -0.12158,0.01935 -0.13203,0.0072 -0.26276,-0.04083 -0.37529,-0.105556 0.14047,0.0027 0.0476,-0.0311 0.1435,-0.0718 0.0189,-0.008 -0.0248,0.03296 -0.0362,0.05012 -0.0419,0.06317 -0.0787,0.129652 -0.12132,0.192417 -0.22907,0.326758 -0.49102,0.613506 -0.88281,0.736851 -0.0603,0.01361 -0.11977,0.03202 -0.18098,0.04083 -0.26121,0.03759 -0.52915,-0.02116 -0.7387,-0.182568 -0.0754,-0.08056 -0.0863,-0.07901 -0.13181,-0.173503 -0.0165,-0.03434 -0.0264,-0.0747 -0.0183,-0.07496 0.014,-4.49e-4 0.0242,0.01742 0.0391,0.01533 -0.30837,-0.004 -0.60666,0.196249 -0.87137,0.328168 -0.36911,0.210097 -0.7288,0.443923 -1.12705,0.5963 -0.21645,0.06838 -0.45608,0.15255 -0.64742,-0.01865 -0.10119,-0.108822 -0.17146,-0.23796 -0.25815,-0.357651 -0.0572,-0.07723 -0.31272,0.186028 -0.35169,0.218273 -0.10179,0.09173 -0.19287,0.194017 -0.28856,0.291934 -0.0524,0.05362 -0.1925,0.205693 -0.27702,0.26089 -0.0353,0.02307 -0.0755,0.03774 -0.11321,0.05661 -0.0451,0.0036 -0.0903,0.01592 -0.13521,0.01086 -0.20795,-0.02343 -0.3125,-0.243193 -0.3698,-0.415578 -0.026,-0.106567 -0.0578,-0.218316 -0.0456,-0.329629 7.4e-4,-0.0096 0.004,-0.02891 0.0126,-0.02617 0.24805,0.07328 0.0714,0.08452 0.20492,0.06875 0.0679,-0.0517 0.0319,-0.02751 -0.0422,0.0579 -0.12789,0.147439 -0.25059,0.300224 -0.37384,0.451516 -0.046,0.05651 -0.0913,0.11366 -0.13692,0.17049 -0.17361,0.208842 -0.41573,0.571416 -0.71578,0.56676 -0.0432,-6.63e-4 -0.0845,-0.0182 -0.12682,-0.02729 -0.0358,-0.0191 -0.0733,-0.03513 -0.10732,-0.0573 -0.20381,-0.133034 -0.33917,-0.350807 -0.47793,-0.544148 -0.01,-0.01518 -0.1885,-0.273356 -0.18199,-0.278731 0.0155,-0.01275 0.0444,0.01136 0.0598,-0.0059 -0.0541,0.0598 -0.15578,0.06743 -0.22619,0.09558 -0.22038,0.05199 -0.44706,0.07931 -0.67256,0.04288 -0.13051,-0.03192 -0.17786,-0.03774 -0.30296,-0.09219 -0.21112,-0.09189 -0.39635,-0.234773 -0.55969,-0.394977 -0.12954,-0.135612 -0.25524,-0.27352 -0.35036,-0.436432 -0.0152,-0.02605 -0.0587,-0.05593 -0.0412,-0.08054 0.0679,-0.09572 0.17587,-0.155454 0.26382,-0.23318 0.16978,0.211541 -0.0576,0.429238 -0.2641,0.286625 -0.19411,-0.153878 -0.30712,-0.365392 -0.3594,-0.607201 -0.0719,-0.375723 -0.0838,-0.757298 -0.1213,-1.137435 -0.0359,-0.260314 -0.0561,-0.547516 -0.20458,-0.772613 -0.012,-0.0072 -0.0223,-0.01855 -0.0359,-0.02169 -0.13133,-0.03018 -0.35765,0.135486 -0.47759,0.180767 -0.21331,0.09337 -0.35618,0.152024 -0.55375,-0.01443 -0.13523,-0.124357 -0.2596,-0.260159 -0.39903,-0.380052 -0.14359,-0.123143 -0.27453,-0.256071 -0.35929,-0.428129 -0.007,-0.01484 -0.0938,-0.183575 -0.0891,-0.198941 0.002,-0.0084 0.0176,-8.85e-4 0.0265,-0.0011 0.0107,-2.73e-4 0.0282,-0.01031 0.0322,-3.51e-4 0.004,0.0095 -0.0172,0.01096 -0.0258,0.01644 -0.25953,0.185125 -0.49265,0.40541 -0.75641,0.585133 -0.19286,0.13077 -0.42289,0.310049 -0.6708,0.221196 -0.0364,-0.01305 -0.0679,-0.03714 -0.10177,-0.0557 -0.20144,-0.168382 -0.34853,-0.38767 -0.49037,-0.606767 -0.0763,-0.124444 -0.0292,-0.0477 0.0499,-0.08746 0.023,-0.01157 0.0286,-0.05658 0.0544,-0.05503 0.061,0.0037 -0.23407,0.170397 -0.10367,0.151217 -0.17521,0.261415 -0.36762,0.509614 -0.56579,0.753979 -0.0801,0.105563 -0.14128,0.221184 -0.2693,0.282394 -0.1109,0.05302 -0.22871,-0.01751 -0.31546,-0.07627 -0.25721,-0.221206 -0.45468,-0.502935 -0.58588,-0.815843 -0.0128,-0.03743 -0.0699,-0.08817 -0.0384,-0.112302 0.41909,-0.322441 0.3092,-0.05384 0.24856,0.109086 -0.0187,0.05008 -0.0402,0.09903 -0.0603,0.148549 -0.15624,0.354188 -0.33367,0.705963 -0.63247,0.962203 -0.0339,0.02459 -0.0653,0.05263 -0.10145,0.07377 -0.21341,0.125083 -0.38682,0.05211 -0.53197,-0.126894 -0.1858,-0.276718 -0.31652,-0.583933 -0.46018,-0.883661 -0.0179,-0.04146 -0.0358,-0.08292 -0.0536,-0.124385 -0.0145,-0.03375 -0.0716,-0.07748 -0.0436,-0.101233 0.3639,-0.308362 0.40232,-0.02995 0.35514,-0.205536 -3.9e-4,-0.0015 10e-4,0.0029 10e-4,0.0044 0.004,0.0079 0.01,0.01578 0.0142,0.02366 0.10495,0.131732 0.23534,0.239857 0.37118,0.338507 0.0282,0.03739 0.0645,0.06987 0.0847,0.112165 0.0682,0.14301 -0.0443,0.316404 -0.0989,0.43999 -0.15396,0.252948 -0.34845,0.474432 -0.53242,0.705733 -0.0125,0.0166 -0.17266,0.247441 -0.18352,0.250956 -0.11796,0.03816 -0.24207,0.05714 -0.36548,0.06894 -0.009,8.85e-4 -0.0279,-0.04987 -0.009,-0.0262 0.0371,0.028 0.026,0.02454 0.0749,0.03864 0.003,8.11e-4 0.0117,-0.0018 0.009,-8.6e-5 -0.073,0.04817 -0.14943,0.0884 -0.20622,0.15979 -0.29066,0.296603 -0.51936,0.644591 -0.77686,0.968764 -0.0699,0.08976 -0.14344,0.185135 -0.21478,0.274407 -0.0189,0.02361 -0.0332,0.05207 -0.0573,0.07023 -0.009,0.0065 -0.0214,-0.002 -0.0321,-0.0029 -0.10947,0.04074 -0.21895,0.08148 -0.32842,0.12222 -0.029,0.02355 0.0461,0.05881 0.0692,0.08821 0.0384,0.01777 -0.0502,0.0068 -0.084,0.0116 -0.14432,0.02049 -0.28042,0.07108 -0.41387,0.128419 -0.38963,0.186112 -0.75617,0.413844 -1.11966,0.646298 -0.19983,0.124861 -0.41296,0.298901 -0.60864,0.05852 -0.0936,-0.150001 -0.14278,-0.327194 -0.26153,-0.460245 -0.0218,-0.01405 -0.0414,-0.03207 -0.0653,-0.04216 -0.1827,-0.0772 -0.39539,0.02135 -0.56523,0.08389 -0.0368,0.01722 -0.074,0.03356 -0.11033,0.05166 -0.12923,0.0643 -0.24853,0.159245 -0.40278,0.117798 -0.0318,-0.0085 -0.0576,-0.03181 -0.0864,-0.04771 -0.16624,-0.15359 -0.25406,-0.362542 -0.34317,-0.566832 -0.0821,-0.162248 -0.0959,-0.202898 -0.29233,-0.201562 -0.17909,0.0052 -0.35824,0.02112 -0.53417,0.0561 -0.0187,0.0063 -0.0505,0.0332 -0.0668,0.03316 -0.12798,-3.71e-4 -0.18669,-0.01417 -0.24352,-0.120307 -0.0746,-0.158595 -0.10788,-0.332528 -0.17987,-0.492129 -0.0601,-0.111605 -0.0765,-0.113988 -0.20007,-0.05626 -0.0108,0.0066 -0.0797,0.04926 -0.0844,0.05018 -0.17519,0.03473 -0.24059,-0.02779 -0.3012,-0.176879 -0.0702,-0.190825 -0.12219,-0.402225 -0.26601,-0.552573 -0.0221,-0.01017 -0.0425,-0.02557 -0.0663,-0.03052 -0.21837,-0.0453 -0.50931,0.145437 -0.70623,0.217853 -0.1689,0.07612 -0.46987,0.238792 -0.66084,0.193415 -0.0387,-0.0092 -0.0724,-0.03285 -0.10861,-0.04928 -0.0218,-0.02295 -0.0463,-0.0436 -0.0654,-0.06886 -0.0854,-0.112985 -0.0979,-0.264118 -0.10506,-0.400011 10e-4,-0.01419 -0.007,-0.03403 0.005,-0.04257 0.01,-0.0072 0.022,0.01068 0.0338,0.01379 0.0969,0.02565 0.0983,0.0023 0.009,0.06469 -0.0345,0.02423 -0.0686,0.04913 -0.10285,0.07369 -0.26165,0.204173 -0.51238,0.426928 -0.79947,0.595063 -0.0338,0.01316 -0.0656,0.03293 -0.10133,0.03948 -0.21114,0.03874 -0.29675,-0.104384 -0.32211,-0.283818 -0.007,-0.07859 -0.0211,-0.164962 -0.013,-0.244022 7.3e-4,-0.0093 10e-4,-0.02789 0.0106,-0.02605 0.21872,0.04355 0.0347,0.06959 0.18371,0.03773 0.0106,-0.0095 0.0384,-0.04103 0.0318,-0.02846 -0.0134,0.02545 -0.0356,0.04522 -0.0528,0.06828 -0.025,0.03359 -0.0498,0.06739 -0.0739,0.101674 -0.0762,0.108484 -0.10609,0.157284 -0.18074,0.269852 -0.0316,0.04773 -0.0637,0.09525 -0.0955,0.142872 -0.0756,0.114841 -0.0811,0.121438 -0.14913,0.230364 -0.0148,0.02364 -0.0174,0.06201 -0.0437,0.07131 -0.10745,0.03802 -0.22423,0.04114 -0.33608,0.06305 -0.003,6.05e-4 -0.002,0.01127 0.001,0.0094 -0.0125,-0.03939 -0.008,-0.04336 -0.0521,-0.03354 -0.16869,0.05221 -0.32575,0.135749 -0.47023,0.236868 -0.20352,0.141499 -0.3413,0.113604 -0.43514,-0.122651 -0.0307,-0.09391 -0.0557,-0.188858 -0.0829,-0.283813 -0.0122,-0.04232 -0.0333,-0.08295 -0.0369,-0.126844 -3.9e-4,-0.0051 0.006,-0.0081 0.009,-0.0121 0.006,-0.0018 0.0119,-0.0024 0.0169,-0.0057 0.003,-0.0019 -0.007,3e-5 -0.0105,0.0015 -0.0102,0.0048 -0.0246,0.02755 -0.0292,0.01721 -0.005,-0.01173 0.0355,-0.03469 0.0233,-0.03066 -0.0214,0.0071 -0.0633,0.06616 -0.0749,0.08103 -0.0816,0.131664 -0.0509,0.106985 -0.35423,0.126744 -0.022,0.0014 -0.0258,-0.03593 -0.0358,-0.05555 -0.0451,-0.08831 -0.0457,-0.194575 -0.0811,-0.285871 -0.05,-0.237007 -0.091,-0.477078 -0.16644,-0.70768 -0.008,-0.0709 -0.17419,0.111111 -0.19555,0.12326 -0.0201,0.01873 -0.0933,0.09031 -0.11892,0.09924 -0.19234,0.06695 -0.28807,-0.04377 -0.32813,-0.213621 -0.0426,-0.23903 -0.0437,-0.48389 -0.0272,-0.725742 0.0366,0.0061 0.0752,-9.59e-4 0.11085,0.0091 0.007,0.0018 -0.0108,0.0083 -0.0162,0.01243 -0.019,0.0148 -0.0386,0.02907 -0.0571,0.04449 -0.0235,0.01954 -0.14667,0.128308 -0.16476,0.14423 -0.16852,0.134241 -0.35965,0.285115 -0.57064,0.118555 -0.0305,-0.02406 -0.0513,-0.05837 -0.0768,-0.08756 -0.13173,-0.232323 -0.20258,-0.488186 -0.29685,-0.736779 -0.0414,-0.09179 -0.0456,-0.14883 -0.15298,-0.09429 -0.12696,0.07591 -0.22994,0.179292 -0.3914,0.133226 -0.028,-0.01671 -0.0583,-0.02991 -0.0838,-0.05014 -0.13312,-0.105573 -0.16547,-0.295382 -0.20808,-0.448507 -0.006,-0.0261 -0.0133,-0.05193 -0.0179,-0.07831 -0.002,-0.01078 -0.0114,-0.02838 -10e-4,-0.03279 0.0139,-0.0061 0.028,0.0122 0.043,0.01449 0.0238,0.0036 0.048,0.0018 0.0721,0.0032 0.002,1.29e-4 0.008,-5.85e-4 0.007,0.0013 -0.005,0.0071 -0.0134,0.01131 -0.0201,0.01696 -0.11738,0.100457 -0.22665,0.129953 -0.36802,0.04451 -0.13495,-0.106214 -0.23848,-0.241405 -0.33269,-0.384123 -0.0224,-0.03442 -0.0313,-0.0358 0.006,-0.03596 0.004,-1.6e-5 0.008,-0.003 0.0117,-8.12e-4 0.008,0.0049 -0.0429,0.0276 -0.0181,0.0209 0.01,-0.01068 0.0406,-0.04233 0.0302,-0.03204 -0.0296,0.02914 -0.0544,0.06375 -0.0877,0.08863 -0.11942,0.08925 -0.25298,0.01769 -0.32932,-0.08603 -0.13281,-0.237602 -0.19637,-0.503295 -0.30536,-0.751715 -0.0128,-0.02889 -0.0458,-0.06083 -0.032,-0.08922 0.003,-0.0053 0.0127,-0.0026 0.0163,-0.0072 0.0983,-0.125132 0.0446,-0.04465 -0.27415,-0.0082 -0.0694,-0.175069 -0.0185,-0.373832 -0.0353,-0.557082 -7.4e-4,-0.04112 -7.4e-4,-0.08226 -0.002,-0.123366 -7.4e-4,-0.02696 -0.007,-0.05405 -0.004,-0.08083 0.001,-0.0098 0.008,-0.01929 0.0167,-0.0244 0.0101,-0.0061 0.0229,-0.0075 0.0347,-0.0069 0.007,3.52e-4 -0.012,0.0052 -0.018,0.0077 -0.0193,0.01517 -0.0387,0.03035 -0.058,0.04553 -0.18154,0.150194 -0.30678,0.360127 -0.48542,0.513929 -0.18564,0.154308 -0.31138,0.116557 -0.4615,-0.05942 -0.13181,-0.221894 -0.18616,-0.470411 -0.19369,-0.72771 -5.9e-4,-0.03668 -0.005,-0.188001 0.003,-0.232994 0.002,-0.01286 0.008,-0.03308 0.021,-0.0332 0.0471,-4.09e-4 0.0958,0.0146 0.1356,0.03975 -0.29103,0.388406 -0.52739,0.813586 -0.78809,1.222201 -0.0965,0.151729 -0.196,0.301246 -0.29405,0.451975 -0.0173,0.02659 -0.0345,0.05326 -0.0514,0.08008 -0.0156,0.02478 -0.0216,0.05892 -0.0463,0.07472 -0.064,0.04103 -0.13998,0.0596 -0.20997,0.0894 -0.0323,-0.02317 -0.0679,-0.04228 -0.0969,-0.0695 -0.0989,-0.09295 -0.12563,-0.406862 -0.15758,-0.532033 -0.0137,-0.09659 -0.0257,-0.167531 -0.0328,-0.263092 -10e-4,-0.02256 -0.0223,-0.05856 -10e-4,-0.06782 0.0284,-0.01274 0.0585,0.0356 0.0888,0.02867 0.10601,-0.02426 0.18035,-0.13935 0.11798,-0.05039 -0.1311,0.249409 -0.26338,0.500008 -0.44191,0.719764 -0.0448,0.0486 -0.0866,0.100081 -0.1343,0.1458 -0.13839,0.132618 -0.32713,0.143677 -0.39728,-0.06124 -0.001,-0.01048 -0.0129,-0.225589 0.0117,-0.218288 0.29305,0.08674 -0.19171,0.0484 0.17182,0.06116 0.016,-0.01322 0.0442,-0.06006 0.048,-0.03965 0.004,0.02297 -0.0313,0.0348 -0.0454,0.05345 -0.0237,0.0314 -0.0463,0.06371 -0.068,0.09657 -0.10353,0.156831 -0.19252,0.322534 -0.27605,0.490699 -0.15434,0.317079 -0.28135,0.645009 -0.418422,0.969623 -0.0763,0.15576 -0.0419,0.139411 -0.33335,0.163633 -0.029,0.0024 -0.0818,-0.224824 -0.0881,-0.249026 -0.0113,-0.0462 -0.033,-0.09089 -0.0347,-0.138421 -5.8e-4,-0.01447 0.0409,-0.04009 0.0334,-0.02771 -10e-4,0.0022 -0.0277,0.01922 -0.0361,0.0247 -0.18491,0.240038 -0.30888,0.513652 -0.44819,0.78105 -0.0524,0.04427 -0.0937,0.106589 -0.15707,0.132824 -0.14839,0.06145 -0.27479,-0.137186 -0.36391,-0.212824 -0.007,-0.0066 -0.11787,-0.113948 -0.13395,-0.106557 -0.0103,0.0047 -0.0164,0.01794 -0.0277,0.01955 -0.007,9.59e-4 0.008,-0.01149 0.0115,-0.01722 -0.12021,0.125633 -0.21107,0.285613 -0.36181,0.377169 -0.0255,0.0069 -0.0502,0.01886 -0.0765,0.02053 -0.11487,0.0073 -0.19418,-0.07752 -0.25793,-0.159813 -0.0287,-0.04272 -0.0585,-0.08765 -0.0527,-0.08801 0.0135,-8.11e-4 0.0263,0.0072 0.0397,0.008 0.0379,0.0024 0.0385,-0.01653 0.035,0.0045 0.008,-0.008 0.0286,-0.03311 0.0226,-0.02393 -0.0124,0.01886 -0.0288,0.03472 -0.0418,0.05318 -0.0691,0.09864 -0.12251,0.207829 -0.16893,0.318604 -0.0584,0.166776 -0.0214,0.154855 -0.28867,0.262459 -0.0199,0.008 -0.12801,-0.151138 -0.13042,-0.159532 -0.0682,-0.11964 -0.13339,-0.239475 -0.19204,-0.364144 -0.0181,-0.03859 -0.0356,-0.07755 -0.053,-0.116489 -0.0117,-0.02634 -0.0309,-0.05073 -0.0345,-0.07935 -10e-4,-0.0088 0.0152,-0.0093 0.0227,-0.01398 0.0536,-0.02776 0.10851,-0.05299 0.16066,-0.08329 0.003,-0.0016 -0.007,-0.0084 -0.008,-0.0055 -0.0598,0.125655 -0.035,0.282736 -0.0842,0.411772 -0.0282,0.127994 -0.13814,0.795397 -0.4267,0.551296 -0.0162,-0.02121 -0.0325,-0.04253 -0.0483,-0.06405 -0.004,-0.005 -0.0161,-0.01358 -0.0103,-0.01562 0.22475,-0.07798 0.19581,0.01891 0.21761,-0.07616 7.4e-4,-0.05022 -0.0387,-0.09338 -0.086,-0.106883 0.0414,0.04162 0.0913,0.0763 0.1244,0.124871 0.0368,0.05403 -0.0766,0.220414 -0.0991,0.262112 -0.0486,0.06481 -0.0849,0.119026 -0.15352,0.171484 -0.11765,0.08989 -0.29867,-0.02409 -0.25423,-0.166907 0.0957,0.0088 0.19168,0.01446 0.28701,0.02635 0.005,6.64e-4 -0.009,0.04171 -0.0312,0.09274 -0.006,0.0139 -0.0658,0.13974 -0.0699,0.148599 -0.014,0.02695 -0.0944,0.193495 -0.11393,0.209031 -0.12986,0.103361 -0.20401,0.14569 -0.30049,-0.0047 -0.008,-0.01966 -0.0639,-0.162041 -0.0614,-0.163229 0.23306,-0.110013 0.21459,0.01947 0.22506,-0.07007 -0.0443,0.140635 -0.12534,0.265719 -0.24732,0.352366 -0.0152,0.0089 -0.0297,0.01904 -0.0456,0.02669 -0.10079,0.04872 -0.003,-0.0151 0.0295,-0.05015 0.006,-0.0062 0.0129,-0.04455 7.4e-4,-0.0017 -0.0527,0.155183 -0.13106,0.287238 -0.28031,0.372657 -0.19401,0.100219 -0.3674,0.125236 -0.51236,-0.06735 0.0786,-0.02386 0.15613,-0.05168 0.23583,-0.07158 10e-4,-3.32e-4 -0.004,0.02163 -0.014,0.04997 -0.0285,0.07696 -0.0648,0.150923 -0.0985,0.22562 -0.0928,0.180748 -0.21878,0.424329 -0.45994,0.345815 -0.0651,-0.03733 -0.11853,-0.07829 -0.16603,-0.137058 -0.004,-0.0056 -0.0167,-0.01199 -0.0124,-0.01785 0.004,-0.0059 0.0142,0.0038 0.0212,0.0058 0.11703,-0.0029 0.0472,0.01618 0.14152,-0.06282 0.006,-0.0049 -0.009,0.01208 -0.0134,0.01843 -0.0277,0.04236 -0.0516,0.08716 -0.0785,0.130066 -0.0312,0.03489 -0.0579,0.0744 -0.0936,0.10466 -0.10729,0.09091 -0.24408,0.0422 -0.34312,-0.02963 -0.004,-0.0026 -0.10519,-0.07758 -0.10527,-0.07804 -10e-4,-0.01103 0.13923,-0.0074 0.10282,-0.07352 -0.0221,0.03084 -0.005,0.0035 -0.0254,0.05449 -0.0415,0.102294 -0.0914,0.211615 -0.20933,0.239628 -0.0282,-0.0019 -0.0569,-1.42e-4 -0.0846,-0.0057 -0.11007,-0.02207 -0.18712,-0.13023 -0.27182,-0.193439 -0.0143,-0.01423 -0.0288,-0.02818 -0.0429,-0.04268 -0.007,-0.0075 -0.0294,-0.01707 -0.021,-0.02337 0.0134,-0.01011 0.0358,0.0094 0.0505,0.0012 0.10979,-0.06141 0.0981,-0.12758 0.0668,-0.02467 -0.0598,0.159216 -0.13759,0.360557 -0.33898,0.353047 -0.12311,-0.02534 -0.23789,-0.07708 -0.35671,-0.117033 -0.0768,-0.01983 -0.0455,-5.85e-4 0.0117,-0.06225 0.008,-0.0089 -0.05,0.0367 -0.0259,0.02578 -0.0777,0.124002 -0.16827,0.147252 -0.29721,0.104184 -0.0738,-0.02633 -0.14334,-0.06303 -0.21779,-0.08642 -0.0292,-7.21e-4 -0.0635,0.03316 -0.10429,0.02582 -0.0986,-0.0055 -0.18638,-0.04148 -0.26718,-0.09843 -0.0373,-0.02552 -0.0561,-0.03825 -0.0557,-0.03898 0.004,-0.0077 0.0173,3.52e-4 0.0257,-9.59e-4 0.011,-0.0018 0.0232,-0.002 0.0323,-0.0082 0.015,-0.01022 0.0259,-0.02546 0.0375,-0.03942 0.004,-0.0052 -0.0104,0.0087 -0.0156,0.01307 -0.0669,0.117965 -0.0989,0.243432 -0.25304,0.279175 -0.13125,0.0059 -0.25107,-0.0347 -0.3594,-0.10968 -0.10841,-0.09491 -0.17743,-0.205301 -0.0747,-0.335011 0.34029,0.243306 0.0884,0.155172 0.24347,0.08844 0.0112,-0.0048 -0.0124,0.02104 -0.0194,0.03102 -0.0656,0.09332 -0.14007,0.180225 -0.21096,0.269436 -0.21461,0.263147 -0.42679,0.528456 -0.65066,0.783857 -0.11988,0.137434 -0.2463,0.270557 -0.3864,0.387637 -0.0453,0.03237 -0.0935,0.0605 -0.14707,0.07699 -0.0546,0.009 -0.1096,0.01203 -0.16486,0.0077 -0.0802,-0.0028 -0.16041,-0.01033 -0.24077,-0.0066 -0.0602,0.0046 -0.11512,0.01651 -0.17096,0.04032 -0.0985,0.01968 -0.19733,0.008 -0.29623,-0.0053 -0.0902,-0.0121 -0.18126,-0.02777 -0.27242,-0.02752 -0.0989,0.06307 -0.2057,0.09952 -0.32397,0.106912 -0.2913,0.01808 -0.58459,0.0046 -0.87271,-0.04341 -0.0156,-0.0025 0.0201,-0.223896 0.0358,-0.221367 z"
       inkscape:connector-curvature="0" />
    <path
       style="opacity:1;fill:#000000;fill-opacity:1;stroke:none;stroke-width:0.00287424"
       id="path6788"
       d="m 125.22253,59.16666 c 0.19071,0.781418 0.22429,1.590606 0.25468,2.390989 0.0115,0.498793 0.017,0.998922 -0.0156,1.497166 -0.0191,0.291566 -0.0377,0.497343 -0.13951,0.766639 -0.0314,0.02201 -0.0628,0.04402 -0.0943,0.06603 1.6e-4,0.0028 -0.0391,0.0051 -0.0393,0.0024 v 0 c -0.0285,-0.01492 -0.057,-0.02982 -0.0855,-0.04472 -0.0906,-0.238773 -0.11361,-0.465317 -0.1374,-0.720709 -0.0456,-0.489699 -0.0652,-0.981617 -0.0817,-1.472967 -0.0287,-0.793806 -0.0637,-1.587389 -0.0914,-2.381187 -0.007,-0.0304 0.42263,-0.133971 0.42996,-0.103571 z"
       inkscape:connector-curvature="0" />
    <path
       style="opacity:1;fill:#000000;fill-opacity:1;stroke:none;stroke-width:0.00287424"
       id="path6790"
       d="m 127.68282,59.271377 c 0.0663,0.882793 0.0448,1.770618 0.0486,2.65553 -0.0116,0.276178 0.0186,0.551797 0.0171,0.827776 -5.3e-4,0.102782 -0.0232,0.463153 -0.0303,0.582342 0.002,0.0061 -0.0836,0.03862 -0.0859,0.03255 v 0 c -0.0513,-0.0721 -0.10956,-0.139708 -0.15386,-0.2163 -0.2018,-0.348938 -0.26267,-0.742013 -0.31564,-1.135864 -0.0121,-0.169386 -0.0291,-0.338492 -0.0364,-0.508156 -0.0313,-0.730615 0.0112,-1.465816 0.0992,-2.191073 -0.003,-0.03233 0.45396,-0.07914 0.45727,-0.0468 z"
       inkscape:connector-curvature="0" />
    <path
       style="opacity:1;fill:#000000;fill-opacity:1;stroke:none;stroke-width:0.00287424"
       id="path6792"
       d="m 87.907273,79.289062 c 0.28153,0.0568 0.55447,0.151212 0.838,0.198485 0.0103,7.94e-4 0.041,-2.38e-4 0.0309,0.0021 -0.18145,0.04078 0.0395,-0.16424 -0.13486,0.307155 -2.6e-4,7.93e-4 -0.062,-0.02655 -0.0697,-0.02932 0.10606,0.02698 0.14261,-0.365414 0.11663,-0.150291 7.9e-4,2.62e-4 -0.003,0.01029 -0.004,0.01003 v 0 c -0.019,0.01696 -0.0559,0.07631 -0.057,0.05087 -0.0108,-0.270211 -0.0255,-0.261504 0.0822,-0.241837 0.0178,0.0057 0.11675,0.03053 0.11916,0.04904 0.0444,0.341075 0.0722,0.358257 -0.16592,0.373018 -0.30902,-0.02133 -0.6098,-0.108403 -0.89514,-0.226928 -0.0242,-0.0099 0.11524,-0.352108 0.13944,-0.342247 z"
       inkscape:connector-curvature="0" />
    <path
       style="opacity:1;fill:#000000;fill-opacity:1;stroke:none;stroke-width:0.00287424"
       id="path6796"
       d="m 142.6036,28.512168 c 0.29655,0.152873 0.53878,0.403965 0.84852,0.531039 0.013,-0.0019 0.029,0.0027 0.0391,-0.0057 0.007,-0.0061 0.009,-0.02174 0.002,-0.02874 -0.006,-0.0067 -0.0289,0.01097 -0.0276,0.0019 0.004,-0.02691 0.0258,-0.04789 0.0379,-0.07225 0.03,-0.06043 0.0579,-0.121913 0.0869,-0.182839 0.23284,-0.39914 0.44709,-0.193233 0.65035,0.08221 0.0987,0.15683 0.17259,0.3269 0.25496,0.492312 0.0322,0.06458 0.0686,0.162247 0.13546,0.202691 -0.002,-0.004 -0.0205,-0.0417 -0.0247,-0.04302 -0.008,-0.0027 -0.0265,0.01836 -0.0248,0.0097 0.007,-0.03439 0.11213,-0.176257 0.13346,-0.207171 0.21218,-0.264846 0.34186,-0.321473 0.66594,-0.231714 0.20389,0.0591 0.38711,0.302586 0.59323,0.321529 0.01,-0.0091 0.0216,-0.01646 0.0295,-0.02729 0.0102,-0.0183 0.0203,-0.03661 0.0305,-0.05491 -8e-4,-0.0099 -0.007,-0.02068 -0.002,-0.02972 0.0198,-0.04319 0.0493,-0.08126 0.0723,-0.122799 0.0384,-0.06922 0.10113,-0.195029 0.13747,-0.266944 0.0916,-0.200947 0.0803,-0.328202 0.39626,-0.208538 0.0359,0.01361 0.0332,0.06933 0.0501,0.103859 0.0176,0.03602 0.0356,0.07186 0.0533,0.107783 0.05,0.08924 0.25276,0.470005 0.38496,0.441843 0.0129,-0.0028 0.0158,-0.02125 0.0236,-0.03187 0.008,-0.02102 0.0169,-0.04204 0.0254,-0.06306 2.6e-4,-0.01437 -0.004,-0.02973 7.9e-4,-0.04312 0.022,-0.05646 0.0554,-0.10791 0.0798,-0.163391 0.0932,-0.211647 0.16056,-0.432668 0.22968,-0.65289 0.0531,-0.165855 0.091,-0.336385 0.14498,-0.501998 0.009,-0.02615 0.0481,-0.135007 0.0583,-0.138235 0.0964,-0.03024 0.19943,-0.03193 0.29913,-0.04789 0.13235,0.106055 0.2637,0.224328 0.42506,0.28343 0.0335,0.0052 0.008,-0.0328 -0.002,-0.0323 -0.0224,0.0011 -0.0484,0.04617 -0.0614,0.02781 -0.0154,-0.02177 0.0206,-0.04927 0.0282,-0.07481 0.0165,-0.05533 0.0567,-0.237461 0.0669,-0.282548 0.0698,-0.261318 0.11762,-0.542794 0.28068,-0.76528 0.0855,-0.0089 0.17174,-0.04112 0.25647,-0.02669 0.0207,0.0035 0.13114,0.160707 0.14037,0.173284 0.0971,0.132262 0.19716,0.261965 0.29767,0.391626 0.0761,0.08844 0.31084,0.412064 0.45073,0.395533 0.0128,-0.0015 0.0222,-0.01292 0.0334,-0.01938 0.11738,-0.156022 0.23366,-0.326295 0.35215,-0.488052 0.059,-0.07536 0.13459,-0.211656 0.24946,-0.209355 0.16539,0.0033 0.21854,0.227844 0.26286,0.339986 0.16205,0.451184 0.24354,0.925382 0.3338,1.39467 0.023,0.13144 0.0499,0.262053 0.0774,0.392547 0.002,0.0091 0.0135,0.03075 0.005,0.02752 -0.16042,-0.05924 0.11678,-0.108479 -0.21331,0.01214 0.026,-0.05691 0.0281,-0.146219 0.0745,-0.192769 0.0344,-0.03443 0.0773,-0.05905 0.11601,-0.08857 0.0379,0.004 0.0778,-7.14e-4 0.11374,0.01214 0.11272,0.04031 0.27463,0.304971 0.34579,0.401679 0.0804,0.08192 0.13346,0.214255 0.23994,0.270237 0.004,0.002 0.0125,-7.1e-5 0.0123,-0.0044 -2.6e-4,-0.0085 -0.009,-0.01447 -0.0133,-0.0217 0.0393,-0.06239 -0.0263,-0.0083 -0.0233,-0.01755 0.005,-0.01548 0.0997,-0.160377 0.11782,-0.193195 0.0351,-0.03434 0.0573,-0.09331 0.10544,-0.103014 0.22475,-0.04529 0.28433,0.314518 0.32391,0.457762 0.0104,0.03514 0.0482,0.164477 0.0623,0.204153 0.007,0.01945 0.0148,0.03863 0.0242,0.05703 0.001,0.0022 0.008,0.0055 0.007,0.0035 -0.0418,-0.05668 -0.0179,-0.009 -0.0398,-0.05914 0.0695,-0.107771 0.14443,-0.215814 0.23266,-0.313493 0.0539,0.0063 0.11216,-0.0035 0.16163,0.01877 0.0722,0.03246 0.1717,0.331116 0.21244,0.413308 0.0998,0.16781 0.19134,0.09306 0.33088,0.01275 0.17675,-0.0887 0.33783,-0.256237 0.54097,-0.286126 0.0296,-0.0044 0.0598,-5.3e-5 0.0897,-8e-5 0.16382,0.04959 0.20315,0.194865 0.2057,0.338469 0.028,-0.02889 -0.0834,-0.05963 -0.0705,-0.09763 0.009,-0.02511 0.0336,-0.04109 0.0513,-0.06083 0.032,-0.03567 0.066,-0.06949 0.0977,-0.105363 0.0218,-0.02468 0.042,-0.05082 0.063,-0.07622 0.0466,-0.05029 0.0931,-0.100574 0.1397,-0.15086 0.14094,-0.150055 0.27885,-0.304289 0.43405,-0.440162 0.039,-0.03417 0.12825,-0.09418 0.14439,-0.08249 0.0779,0.05635 0.131,0.140639 0.1965,0.210958 -0.0774,0.214493 -0.12547,0.278528 -0.41577,0.08307 -0.0283,-0.01904 0.006,-0.0679 0.009,-0.101854 0.0926,-0.407885 0.26171,-0.795054 0.40514,-1.187139 0.15521,-0.355953 0.26629,-0.756928 0.51719,-1.062485 0.11026,0.0094 0.22163,0.04644 0.33079,0.02823 0.003,-5.02e-4 -0.0392,-0.0909 -0.13694,-0.114004 -0.0149,-0.0035 -0.0468,0.02577 -0.0448,0.01057 0.005,-0.0362 0.0389,-0.06192 0.0558,-0.09424 0.0224,-0.04271 0.0416,-0.0871 0.0623,-0.130646 0.12409,-0.270693 0.20382,-0.566145 0.37838,-0.810619 0.21273,-0.154664 0.30315,-0.142267 0.39145,0.106267 0.012,0.03388 0.0227,0.119894 0.0493,0.149831 -0.0207,-0.02371 -0.0556,-0.0684 -0.0849,-0.08514 -0.008,-0.0048 -0.0321,0.0048 -0.0285,-0.0041 0.0167,-0.04102 0.0506,-0.07268 0.0747,-0.1098 0.0604,-0.09295 0.12922,-0.208374 0.1863,-0.302629 0.0622,-0.08471 0.26567,-0.451734 0.36866,-0.480428 0.062,-0.01728 0.13625,-0.0055 0.19112,0.02818 0.046,0.02824 0.0546,0.09305 0.0819,0.139571 0.0581,0.251298 0.0612,0.511028 0.0897,0.766606 0.008,0.06331 0.005,0.0022 -0.0634,-0.04224 -0.0439,-0.02841 -0.0997,-0.02634 -0.0975,-0.0325 0.0331,-0.09421 0.094,-0.176176 0.14094,-0.264278 0.15142,-0.306356 0.33254,-0.596828 0.54099,-0.867375 0.0248,-0.02334 0.16898,-0.215607 0.20675,-0.20112 0.24503,0.09399 0.23391,0.160695 0.16006,0.28971 -0.15629,0.19206 -0.22692,0.176647 -0.29918,-0.137117 -2.6e-4,-0.0014 0.0811,-0.11244 0.0993,-0.137366 0.1416,-0.168088 0.21567,-0.3365 0.24175,-0.553399 0.005,-0.107187 -0.003,-0.214521 -0.0157,-0.32091 -0.003,-0.02884 -0.0194,-0.09078 -0.0165,-0.124532 -0.0564,-0.108103 0.16332,-0.171561 0.17736,-0.281603 7.9e-4,-0.0056 -0.0105,-0.0095 -0.008,-0.01471 0.0146,-0.03625 0.0392,-0.06778 0.056,-0.103081 0.0512,-0.107473 0.06,-0.147057 0.0972,-0.260771 0.0115,-0.04228 0.0232,-0.08449 0.0345,-0.126836 0.009,-0.03465 0.0182,-0.06934 0.0269,-0.104129 0.0105,-0.04208 0.0156,-0.07985 0.0237,-0.07863 0.28979,0.04325 0.31306,-0.02719 0.26359,0.07982 -0.005,-0.07132 -0.17161,-0.168816 -0.1657,-0.181134 0.0156,-0.03245 0.0389,-0.06059 0.0575,-0.09139 0.0218,-0.03612 0.0426,-0.0729 0.0638,-0.109344 0.0589,-0.108494 0.11409,-0.218938 0.1687,-0.329636 0.0117,-0.0237 0.0227,-0.04776 0.0348,-0.07124 0.006,-0.01218 0.008,-0.02911 0.0205,-0.03566 0.007,-0.0035 0.004,0.01433 0.006,0.0215 0.0944,0.0033 0.19009,-0.0053 0.28334,0.01003 0.0127,0.0021 0.004,0.0254 0.007,0.03791 0.005,0.02211 0.0109,0.04418 0.0177,0.06588 0.0309,0.09886 0.0738,0.192354 0.11651,0.286465 0.0379,0.06171 0.14999,0.31641 0.21973,0.339415 -0.001,-0.0027 -0.006,-0.0056 -0.004,-0.0081 0.009,-0.01306 0.0315,-0.0075 0.0467,-0.0039 0.11655,0.02781 0.14785,0.09741 0.18191,0.203313 0.0295,0.192367 0.0356,0.386926 0.0873,0.575357 0.0152,0.06573 0.0559,0.06618 0.10006,0.110929 0.0196,0.01986 0.0358,0.04276 0.0537,0.06414 0.15454,0.264347 0.19505,0.576626 0.24747,0.873689 0.008,0.04395 0.0161,0.08778 0.023,0.131848 0.005,0.03108 0.009,0.06224 0.0125,0.09355 0.002,0.01568 0.008,0.03297 0.002,0.04726 -0.003,0.0065 -0.0113,-0.01231 -0.0184,-0.01112 -0.23271,0.03941 -0.22772,0.131623 -0.2275,0.03672 0.0465,0.126064 -0.0606,-0.13708 0.24593,0.05801 0.0316,0.02008 -0.0102,0.07411 -0.0162,0.11102 -0.026,0.15873 -0.0596,0.316161 -0.0879,0.474497 -0.0168,-0.0018 -0.0549,0.468846 -0.0608,0.468129 -0.0839,-0.01029 -0.16664,-0.02845 -0.24997,-0.04267 0.075,-0.116518 0.16047,-0.186512 0.30009,-0.09488 0.0933,0.06125 0.10744,0.251506 0.12471,0.345253 0.0376,0.267048 0.0139,0.537396 0.0335,0.805381 0.003,0.03273 0.001,-0.0063 -0.0378,-0.03835 -0.0135,-0.01109 -0.0377,-0.0081 -0.0472,-0.02275 -0.0124,-0.01907 0.1006,-0.06939 0.11837,-0.07707 0.0296,-0.0011 0.061,-0.0133 0.0889,-0.0034 0.2446,0.0867 0.18504,0.428567 0.17712,0.627885 -0.008,0.141696 -0.0216,0.283023 -0.0391,0.423828 -0.003,0.02739 -0.007,0.05477 -0.0112,0.08205 -0.001,0.0091 0.001,0.03331 -0.006,0.0271 -0.0193,-0.01751 -0.026,-0.04513 -0.039,-0.06769 -0.0255,-0.01318 -0.0583,-0.01729 -0.0765,-0.03953 -0.007,-0.0089 0.0152,-0.0175 0.0243,-0.02445 0.0866,-0.06569 0.18937,-0.106636 0.29226,-0.137803 0.35084,-0.02899 0.36419,0.364785 0.38613,0.620067 0.009,0.286304 0.0271,0.576604 -5.3e-4,0.862609 -0.0609,-0.07298 -0.0551,-0.09529 -0.15177,-0.107005 -0.009,-0.0011 -0.0296,0.02124 -0.0244,0.01351 0.06,-0.08995 0.15765,-0.150298 0.25573,-0.188146 0.036,0.0017 0.0739,-0.0068 0.10788,0.0051 0.2021,0.07103 0.2308,0.326123 0.25413,0.505746 0.004,0.08623 0.006,0.08793 0.004,0.166652 -2.2e-4,0.0093 0.007,0.02817 -0.002,0.02795 -0.0106,-2.47e-4 -0.006,-0.0218 -0.0148,-0.02834 -0.15803,-0.12285 -0.0773,-0.0292 -0.12205,-0.08268 0.0992,-0.07682 0.20887,-0.178218 0.33812,-0.199154 0.035,-0.0057 0.071,-0.0011 0.10651,-0.0016 0.0386,0.0163 0.082,0.02408 0.11565,0.0489 0.15529,0.114391 0.17449,0.339762 0.18451,0.51495 -0.002,0.120021 0.006,0.187911 -0.18284,-0.06342 -0.0112,-0.01496 0.19059,-0.110607 0.21139,-0.120014 0.14463,-0.06297 0.32635,-0.152288 0.48672,-0.08601 0.0308,0.01273 0.057,0.03465 0.0855,0.05197 0.0587,0.0552 0.0845,0.12285 0.10203,0.199066 0.003,0.01421 0.005,0.02871 0.008,0.04305 5.3e-4,0.0029 0.004,0.01112 0.002,0.0087 -0.004,-0.0061 -0.007,-0.01333 -0.01,-0.01999 0.0308,-0.0699 -0.0884,-0.03201 -0.0943,-0.07089 -5.3e-4,-0.0036 0.074,-0.08918 0.0794,-0.09647 0.007,-0.0098 0.0117,-0.02135 0.0176,-0.03203 0.034,-0.04324 0.0679,-0.08648 0.10185,-0.12972 0.25409,-0.334635 0.52224,-0.671048 0.86802,-0.916373 0.057,-0.04043 0.11842,-0.07419 0.17763,-0.111285 0.13151,-0.0668 0.38434,-0.199117 0.48254,0.01191 0.0219,0.04714 0.0186,0.110198 -0.006,0.155861 -0.0306,0.05619 -0.0975,0.08284 -0.1463,0.124262 -0.0399,3.17e-4 -0.0812,0.01155 -0.11962,9.79e-4 -0.28802,-0.07922 -0.26163,-0.451211 -0.2385,-0.675911 0.059,-0.247575 0.15673,-0.511907 0.34787,-0.69103 0.0387,-0.03628 0.0815,-0.06796 0.12223,-0.101944 0.13566,-0.01473 0.11775,-0.03675 0.24162,0.08843 0.0151,0.01527 0.0138,0.04072 0.0223,0.06045 0.011,0.02559 -0.0261,-0.04942 -0.0421,-0.07222 0.16317,-0.105602 0.31729,-0.225284 0.47061,-0.345091 0.1337,-0.07802 0.30036,-0.267882 0.47657,-0.235077 0.0441,0.0082 0.0833,0.03315 0.12487,0.04973 0.13988,0.134752 0.17834,0.329639 0.26562,0.496807 0.005,0.0054 0.0186,0.02353 0.0164,0.01619 -0.001,-0.0032 -0.0353,-0.04258 -0.0262,-0.05561 0.0313,-0.04522 0.17413,-0.106119 0.21988,-0.130153 0.15717,-0.07119 0.35658,-0.149137 0.52632,-0.06715 0.0317,0.01531 0.0578,0.04016 0.0867,0.06023 0.10572,0.135274 0.0515,0.180092 -0.0519,0.284006 -3e-5,8.99e-4 -0.0128,5.55e-4 -0.0127,-3.44e-4 v 0 c -0.0447,-0.03202 -0.0846,-0.02428 -0.13642,-0.01786 -0.10221,-0.0091 -0.2169,0.05282 -0.31202,0.09642 -0.20131,0.101768 -0.43595,0.227536 -0.61083,0.0075 -0.0439,-0.07015 -0.16776,-0.320231 -0.16355,-0.398955 2.7e-4,-0.006 0.0111,-0.0046 0.0167,-0.0069 0.0164,0.0018 0.0329,0.0022 0.049,0.0054 0.0196,0.004 -0.0327,0.02313 -0.0491,0.03462 -0.0911,0.06381 -0.17821,0.132966 -0.26682,0.200071 -0.20054,0.15023 -0.40882,0.324114 -0.66868,0.342878 -0.1023,-0.02462 -0.19425,-0.04843 -0.22419,-0.164431 -7.9e-4,-0.0028 0.006,-0.0012 0.009,1.01e-4 0.0391,0.0187 0.074,0.04761 0.1158,0.05943 0.0197,0.0056 0.0404,-0.0063 0.0605,-0.0095 0.0149,-0.01383 0.0445,-0.06182 0.0446,-0.0415 1.8e-4,0.02341 -0.0308,0.03537 -0.0445,0.05432 -0.10571,0.145556 -0.18708,0.309735 -0.24079,0.481136 -0.029,0.134138 -0.0317,0.119189 -0.0386,0.247761 -0.001,0.02417 5.3e-4,0.04842 -2.7e-4,0.07261 -2.6e-4,0.01073 0.004,0.02432 -0.003,0.03206 -0.013,0.0135 -0.0426,-0.0086 -0.0555,0.0088 -0.0229,0.02798 -0.061,0.04862 -0.0686,0.08394 -0.007,0.03299 0.008,0.07135 0.0298,0.09676 0.0273,0.03119 0.14317,0.04416 0.10667,0.06374 -0.021,0.01127 -0.0436,0.01939 -0.0644,0.0311 -0.0395,0.02232 -0.0776,0.04725 -0.11635,0.07088 -0.32611,0.242502 -0.61253,0.526755 -0.86037,0.849685 -0.10441,0.130104 -0.34856,0.489223 -0.56017,0.444991 -0.0409,-0.0086 -0.0739,-0.03907 -0.11088,-0.05861 -0.0163,-0.02417 -0.1075,-0.167044 -0.0475,-0.181933 0.004,-7.41e-4 0.0133,0.0022 0.0132,-0.0022 -5.3e-4,-0.01964 -0.0397,-0.004 -0.059,1.96e-4 -0.0837,0.01809 -0.16146,0.05787 -0.23967,0.09085 -0.0116,0.007 -0.19177,0.116032 -0.19877,0.114096 -0.21974,-0.06079 -0.23246,-0.04421 -0.24809,-0.177611 -0.007,-0.09326 -0.0349,-0.194372 -0.0314,-0.287438 5.3e-4,-0.01691 0.0123,-0.02132 0.0234,-0.0286 -0.0885,-0.0085 -0.22351,0.140784 -0.30545,0.175334 -0.0257,0.0092 -0.0501,0.03175 -0.0771,0.02774 -0.20115,-0.02978 -0.20152,-0.163574 -0.21385,-0.32329 -0.002,-0.02728 -0.0393,-0.280751 -0.0304,-0.286983 0.0162,-0.01141 0.0422,0.0095 0.0594,-0.0035 -0.007,0.0048 -0.014,0.01794 -0.0218,0.01427 -0.007,-0.0032 0.0197,-0.02289 0.0139,-0.01796 -0.093,0.0798 -0.16816,0.223003 -0.3202,0.183506 -0.0466,-0.01211 -0.0728,-0.0631 -0.10912,-0.09465 -0.10737,-0.277495 -0.0307,-0.610964 -0.0566,-0.901374 0.004,-0.563857 -1.3e-4,0.149116 5e-5,-0.294276 10e-6,-0.02251 -0.003,-0.04544 10e-4,-0.06752 0.002,-0.01259 0.0412,-0.02144 0.029,-0.02532 -0.008,-0.0027 -0.0175,0.0017 -0.0263,0.0025 -0.0697,0.02599 -0.26434,0.148108 -0.31346,0.15112 -0.0471,0.0029 -0.0938,-0.01131 -0.14065,-0.01697 -0.0253,-0.03156 -0.0561,-0.05943 -0.076,-0.09468 -0.0577,-0.102377 0.0165,-0.454022 0.0109,-0.571744 0.004,-0.03757 0.021,-0.386365 0.0582,-0.385962 0.0233,2.53e-4 0.0453,0.01128 0.0679,0.01692 0.006,-4.76e-4 0.0113,-9.79e-4 0.017,-0.0015 -0.16128,0.106483 -0.29352,0.161511 -0.40581,-0.0565 -0.0674,-0.266507 -0.041,-0.541889 -0.053,-0.814094 -0.002,-0.03809 -0.004,-0.07621 -0.006,-0.114261 -0.002,-0.02507 -0.0122,-0.05058 -0.007,-0.07509 0.002,-0.0083 0.0164,-0.0056 0.0249,-0.0055 0.0361,3.44e-4 0.0738,0.01815 0.10796,0.0067 0.0225,-0.0075 0.1081,-0.114389 0.0459,-0.03839 -0.10097,0.01426 -0.20103,0.04699 -0.30291,0.04277 -0.0142,-5.82e-4 -0.0311,-0.08591 -0.0349,-0.140185 -0.0101,-0.145961 0.008,-0.292438 0.0298,-0.436414 0.0327,-0.16433 0.0693,-0.325138 0.11833,-0.485475 0.012,-0.03918 0.005,-0.09202 0.0377,-0.116985 0.0799,-0.06142 0.1784,-0.09816 0.27586,-0.123966 0.016,-0.0042 0.0126,0.03059 0.0189,0.04589 0.0127,0.116982 0.0211,0.08223 -0.22549,0.157216 -0.0387,0.01176 -0.095,-0.18004 -0.095,-0.180316 -0.0132,-0.04462 -0.0234,-0.09009 -0.0351,-0.135135 -0.0545,-0.263057 -0.0857,-0.531463 -0.16052,-0.789843 -0.0489,-0.09269 -0.16961,-0.126883 -0.19798,-0.238119 -0.0733,-0.196395 -0.0956,-0.40182 -0.0891,-0.610997 0.002,-0.01011 -0.002,-0.02642 0.007,-0.03034 0.0113,-0.0046 0.0221,0.01032 0.0338,0.01359 0.0118,0.0033 0.0269,-0.002 0.0362,0.006 0.006,0.0054 -0.0163,0.0029 -0.0246,0.004 -0.0178,0.0023 -0.0355,0.0068 -0.0534,0.006 -0.0265,-0.0011 -0.0525,-0.0077 -0.0788,-0.01148 -0.19044,-0.08316 -0.29294,-0.263658 -0.38122,-0.444695 -0.0636,-0.142803 -0.12623,-0.288631 -0.14245,-0.445984 -0.003,-0.02804 -0.0272,-0.07142 -0.002,-0.08453 0.0883,-0.04638 0.19434,-0.04497 0.29152,-0.06745 0.0257,0.204212 -0.11351,0.390238 -0.19677,0.566111 -0.0538,0.09071 -0.2644,0.443839 -0.37958,0.424121 -0.19012,-0.03255 -0.1747,-0.06682 -0.19081,-0.180237 0.0332,-0.151451 0.005,-0.1128 0.32851,-0.09502 0.0185,0.001 0.0105,0.03586 0.0118,0.05436 0.004,0.05452 -0.009,0.154413 -0.0178,0.201991 -0.009,0.0495 -0.0214,0.09826 -0.032,0.147387 -0.0726,0.23279 -0.15338,0.447545 -0.34173,0.614562 -0.0313,0.02776 -0.0935,0.102657 -0.10825,0.0635 -0.0246,-0.06541 0.0374,-0.134679 0.0561,-0.202019 0.0951,0.171402 0.0954,0.381617 0.0974,0.571992 -0.0255,0.262109 -0.10459,0.500867 -0.2784,0.704185 -0.0201,0.02315 -0.0402,0.0462 -0.0601,0.06945 -0.0163,0.019 -0.0259,0.06803 -0.0485,0.0573 -0.22797,-0.108159 -0.12634,-0.262889 -0.29678,-0.105695 -0.003,0.0024 0.006,-0.0041 0.009,-0.0061 0.1015,-0.09233 -0.0285,0.02156 0.25505,0.10941 0.0245,0.0076 0.0353,-0.03814 0.0573,-0.05133 0.0375,-0.02248 -0.17765,0.166144 -0.0817,0.102496 -0.18885,0.268001 -0.35577,0.551016 -0.51279,0.838644 -0.11727,0.205594 -0.38775,0.773298 -0.628,0.334334 -0.064,-0.244872 -0.0731,-0.499162 -0.0734,-0.751345 0.0636,0.0095 0.12021,0.0208 0.18828,0.0032 0.0197,-0.0051 0.0446,-0.06403 0.0425,-0.04381 -0.003,0.03095 -0.0318,0.05357 -0.0465,0.08102 -0.17342,0.323843 0.0515,-0.07825 -0.1558,0.287639 -0.11984,0.196384 -0.3716,0.676994 -0.64549,0.648655 -0.0488,-0.0051 -0.0879,-0.04358 -0.13191,-0.06537 -0.0553,-0.07647 -0.0932,-0.14163 -0.10501,-0.23715 -0.002,-0.01215 -0.01,-0.03625 0.003,-0.03662 0.24177,-0.0073 -0.0124,0.129684 0.24547,-0.06309 -0.052,0.08307 -0.0797,0.185979 -0.11536,0.276411 -0.0672,0.170512 -0.13331,0.341774 -0.21232,0.507276 -0.0788,0.151253 -0.16705,0.357263 -0.33079,0.439242 -0.13221,0.06619 -0.35748,-0.02647 -0.28649,-0.07942 0.0826,-0.06158 0.2035,-0.03215 0.30525,-0.04823 -0.11044,0.352835 -0.30595,0.676549 -0.42178,1.027767 -0.15025,0.378425 -0.31167,0.7519 -0.46976,1.127022 -0.008,0.01947 -0.003,0.05606 -0.0237,0.05841 -0.41021,0.04618 -0.36559,0.02583 -0.24421,-0.108583 0.0736,0.04757 0.1515,0.08917 0.22091,0.142725 0.007,0.0053 -0.0358,0.04206 -0.0687,0.07737 -0.0984,0.105849 -0.19146,0.217376 -0.29303,0.320402 -0.12612,0.13018 -0.52014,0.585321 -0.73867,0.531701 -0.0466,-0.01143 -0.0806,-0.05209 -0.12088,-0.07813 -0.0112,-0.02383 -0.0254,-0.04649 -0.0336,-0.07149 -0.002,-0.0053 -0.0201,-0.115539 -0.006,-0.12288 0.02,-0.01015 0.043,0.03559 0.0653,0.01571 -0.0532,0.0067 -0.11921,0.04512 -0.16409,0.06699 -0.12448,0.06066 -0.24445,0.12977 -0.37043,0.187407 -0.27045,0.100114 -0.4375,0.103333 -0.63635,-0.127127 -0.0387,-0.06153 -0.14742,-0.259262 -0.14164,-0.334582 0.004,-0.04632 0.3153,0.146258 0.13857,-0.0148 0.0147,-0.01893 0.0227,-0.04597 0.0441,-0.05679 0.0156,-0.0079 -0.0165,0.03083 -0.024,0.04662 -0.012,0.02539 -0.0214,0.0521 -0.0346,0.07687 -0.0486,0.09086 -0.095,0.147592 -0.17346,0.223823 -0.0269,0.02619 -0.06,0.04526 -0.09,0.0679 -0.0404,0.01106 -0.0794,0.03401 -0.12129,0.03317 -0.21568,-0.0043 -0.26725,-0.252412 -0.31447,-0.412774 -0.006,-0.0228 -0.0857,-0.316104 -0.0569,-0.317403 0.18321,-0.0083 0.0827,0.0638 0.19686,-0.06764 -0.0836,0.180673 -0.12238,0.352391 -0.33637,0.434611 -0.0388,0.002 -0.078,0.01095 -0.11653,0.006 -0.1876,-0.02398 -0.30221,-0.226168 -0.40939,-0.356311 -0.0513,-0.07568 -0.18157,-0.239889 -0.20497,-0.327157 -0.006,-0.02211 0.13919,0.0044 0.0671,-0.0147 0.0234,-0.02254 0.0493,-0.04269 0.0701,-0.06762 0.002,-0.0027 -0.007,-0.0086 -0.009,-0.0058 -0.0408,0.05013 -0.0222,0.144548 -0.0597,0.196397 -0.063,0.03343 -0.11854,0.0896 -0.18908,0.100274 -0.152,0.023 -0.27765,-0.446013 -0.29891,-0.525669 -0.10811,-0.458869 -0.18849,-0.923266 -0.28557,-1.384494 -0.009,-0.04407 -0.0197,-0.08789 -0.0276,-0.132214 -0.004,-0.02053 -0.0257,-0.05287 -0.007,-0.06216 0.0297,-0.01482 0.0664,0.02597 0.0983,0.01668 0.11921,-0.0347 0.1342,-0.162524 0.0302,0.03608 -0.13573,0.221316 -0.2851,0.468165 -0.49718,0.624641 -0.039,0.02876 -0.0864,0.04388 -0.12955,0.06581 -0.0481,0.0061 -0.0959,0.02027 -0.1443,0.01839 -0.28497,-0.01103 -0.48212,-0.285549 -0.64818,-0.479643 -0.10182,-0.139821 -0.20305,-0.279125 -0.28876,-0.42969 -0.0368,-0.0646 -0.0607,-0.111892 -0.0487,-0.117221 0.066,-0.02943 0.13829,-0.04184 0.20744,-0.06276 0.002,-0.03568 0.004,-0.03291 -0.0184,0.03979 -0.0425,0.139693 -0.08,0.281397 -0.1194,0.421992 -0.0163,0.05824 -0.0319,0.116681 -0.0479,0.175021 -0.0789,0.284737 -0.14673,0.699239 -0.53888,0.634791 -0.19083,-0.07546 -0.35816,-0.194242 -0.4959,-0.347108 0.0723,-0.0396 0.14325,-0.0817 0.21683,-0.118803 0.003,-0.0016 -0.002,0.0071 -0.002,0.01068 -0.004,0.0245 -0.006,0.04909 -0.01,0.07361 -0.0249,0.179151 -0.0582,0.356752 -0.10446,0.531805 -0.11617,0.388957 -0.23206,0.849744 -0.55124,1.129373 -0.0471,0.0413 -0.11028,0.05961 -0.16542,0.08942 -0.0576,0.0016 -0.11596,0.0144 -0.17279,0.0049 -0.28856,-0.04831 -0.44879,-0.374225 -0.55569,-0.608473 -0.0152,-0.04401 -0.0338,-0.08701 -0.0457,-0.132038 -0.005,-0.01951 -0.0237,-0.05217 -0.005,-0.06031 0.34697,-0.152893 0.24109,-0.06974 0.18036,0.11468 -0.10084,0.240872 -0.26279,0.610564 -0.53136,0.697869 -0.0447,0.01454 -0.0934,0.01089 -0.14014,0.01633 -0.0398,-0.0095 -0.0809,-0.01463 -0.11943,-0.02855 -0.18642,-0.06741 -0.32045,-0.226669 -0.4971,-0.311397 -0.1344,-0.05027 -0.21557,-0.04018 -0.30916,0.06778 -0.0965,0.122531 -0.19615,0.350936 -0.36468,0.371398 -0.0387,0.0047 -0.0773,-0.01036 -0.116,-0.01554 -0.0311,-0.01911 -0.0655,-0.03362 -0.0933,-0.05732 -0.19629,-0.167583 -0.26295,-0.475555 -0.38785,-0.691629 -0.1629,-0.289815 0.0117,0.01193 -0.11636,-0.189895 -0.006,-0.0095 -0.0166,-0.02124 -0.0121,-0.03155 0.004,-0.0097 0.0212,-0.03647 0.0155,-0.02759 -0.013,0.02027 -0.0249,0.04118 -0.0373,0.06177 -0.10859,0.242604 -0.18677,0.520236 -0.51442,0.488766 -0.34655,-0.107538 -0.63446,-0.342113 -0.90878,-0.572712 -0.0157,-0.01236 0.15899,-0.235131 0.17475,-0.222775 z"
       inkscape:connector-curvature="0" />
    <path
       style="opacity:1;fill:#000000;fill-opacity:1;stroke:none;stroke-width:0.00287424"
       id="path6798"
       d="m 88.369423,79.289946 c 0.29159,0.0072 0.57668,0.07577 0.86611,0.104076 0.12141,0.01958 0.22955,-0.03131 0.34172,-0.06917 0.20929,-0.06733 0.42078,-0.127463 0.62975,-0.195808 0.21346,-0.0718 0.41978,-0.163502 0.62408,-0.257884 0.14653,-0.07015 0.2973,-0.117398 0.45852,-0.134011 0.14213,-0.0057 0.28422,-0.0021 0.42514,-0.02373 0.0822,-0.0068 0.15023,-0.05118 0.22318,-0.08363 0.14131,-0.04451 0.29365,-0.02799 0.43951,-0.02167 0.16094,0.0043 0.32148,0.01418 0.48143,0.03239 0.13901,0.03159 0.27932,0.0511 0.42111,0.06405 0.21211,0.01611 0.42522,0.0085 0.63672,-0.01172 0.22961,-0.03253 0.44848,-0.110903 0.67056,-0.174347 0.26371,-0.07328 0.53276,-0.124664 0.79922,-0.186497 0.20887,-0.04289 0.41327,-0.105103 0.62194,-0.148481 0.18879,-0.03626 0.37982,-0.0159 0.56909,0.0035 0.17437,0.02442 0.34427,0.004 0.51323,-0.03955 0.24605,-0.07335 0.48946,-0.155308 0.7331,-0.236297 0.294346,-0.09256 0.581446,-0.206351 0.861316,-0.335933 0.1563,-0.06771 0.30342,-0.158446 0.46653,-0.209331 0.11462,-0.02082 0.20757,-0.07439 0.30484,-0.135429 0.22846,-0.144375 0.44546,-0.30561 0.672391,-0.452234 0.11013,-0.09618 0.28005,-0.118634 0.38121,-0.224771 0.008,-0.0098 0.0366,-0.03513 0.0251,-0.02936 -0.0177,0.0089 -0.0249,0.04027 -0.0446,0.03914 -0.0172,-0.0011 0.0221,-0.02627 0.0327,-0.03982 0.042,-0.05386 0.0785,-0.111847 0.11721,-0.168053 0.13309,-0.182708 0.26908,-0.36331 0.40368,-0.544941 0.25328,-0.339852 0.4956,-0.687543 0.73197,-1.039312 0.17286,-0.268245 0.36006,-0.527577 0.52491,-0.800897 0.13679,-0.246451 0.22574,-0.515498 0.34289,-0.771548 0.0789,-0.175475 0.18775,-0.334087 0.28646,-0.498335 0.0733,-0.15816 0.17198,-0.300837 0.27062,-0.443791 0.14317,-0.197596 0.28676,-0.395899 0.45526,-0.572915 0.0938,-0.141751 0.21426,-0.140219 0.35063,-0.19653 0.17326,-0.08562 0.34944,-0.157737 0.53826,-0.199949 0.24109,-0.04781 0.48034,0.0084 0.71825,0.04504 0.29672,0.04194 0.59139,0.08095 0.87824,0.169756 0.26841,0.09545 0.49434,0.26969 0.72976,0.424405 0.19026,0.117319 0.38518,0.22632 0.56626,0.357728 0.13428,0.113024 0.29245,0.182451 0.44903,0.257365 0.20141,0.08936 0.37457,0.218953 0.53327,0.369697 0.13561,0.166942 0.29282,0.312894 0.445,0.463987 0.21333,0.206488 0.40868,0.43035 0.57452,0.676632 0.0925,0.08702 0.10764,0.237717 0.19603,0.325813 0.0922,0.109265 0.17665,0.224814 0.26264,0.338971 0.12306,0.172643 0.25334,0.339889 0.38024,0.509693 0.0953,0.134342 0.18629,0.27146 0.28159,0.405797 0.0851,0.103002 0.17564,0.201255 0.26401,0.30144 0.0955,0.11404 0.19425,0.224864 0.28749,0.340833 0.0733,0.09962 0.17667,0.168855 0.27202,0.245055 0.0998,0.07943 0.18825,0.171603 0.28638,0.252947 0.083,0.06432 0.16292,0.130498 0.25905,0.174122 0.12983,0.05915 0.2578,0.12214 0.38751,0.181547 0.0762,0.04546 0.16499,0.0553 0.24946,0.07625 0.13455,0.03507 0.27346,0.04434 0.41133,0.05741 0.22962,0.01815 0.45967,0.01677 0.6897,0.0105 0.23477,-0.0054 0.47001,-0.01167 0.70254,-0.04629 0.17903,-0.0297 0.35049,-0.09015 0.52222,-0.146725 0.20595,-0.06578 0.40394,-0.153162 0.60785,-0.224684 0.2117,-0.08298 0.42919,-0.130456 0.65617,-0.128855 0.27735,0.01558 0.53421,0.126817 0.78332,0.240736 0.1905,0.08849 0.36832,0.20043 0.55109,0.303052 0.17281,0.0934 0.3511,0.175596 0.52292,0.271007 0.18972,0.110501 0.39007,0.199136 0.59205,0.284157 0.18381,0.07247 0.38149,0.0976 0.57648,0.120052 0.22529,0.02601 0.45169,0.05408 0.67736,0.02193 0.23166,-0.06265 0.44702,-0.170955 0.67645,-0.241967 0.31785,-0.0871 0.61899,-0.13286 0.90662,-0.302585 0.25771,-0.18174 0.49015,-0.394002 0.74659,-0.577562 0.18698,-0.118073 0.3747,-0.234923 0.56153,-0.353224 0.2584,-0.166441 0.52545,-0.318013 0.805,-0.445846 0.24803,-0.1049 0.47607,-0.244803 0.70158,-0.390364 0.2688,-0.184798 0.54743,-0.302641 0.86724,-0.361127 0.26606,-0.01482 0.52109,-0.06921 0.77435,-0.148595 0.3605,-0.124868 0.71841,-0.256453 1.08408,-0.36585 0.30419,-0.09993 0.61762,-0.153438 0.93737,-0.14091 0.26089,0.0095 0.50028,0.09998 0.7271,0.222229 0.21805,0.115054 0.37231,0.294315 0.50768,0.495081 0.11018,0.194011 0.27233,0.341918 0.43946,0.485243 0.22015,0.160118 0.41545,0.348514 0.60516,0.542684 0.18456,0.186322 0.35274,0.389686 0.55751,0.554554 0.15793,0.12324 0.34386,0.198635 0.52711,0.275119 0.14575,0.06418 0.28584,0.139311 0.43166,0.203308 0.21151,0.07454 0.41494,0.169394 0.61955,0.260665 0.16228,0.07621 0.33355,0.130098 0.51058,0.157697 0.12532,0.01775 0.25151,0.03034 0.37797,0.03592 0.2,0.0058 0.40008,0.0067 0.60014,0.0032 0.17108,-0.0031 0.33996,-0.03366 0.51054,-0.04235 0.0696,0.0016 0.13824,-5.29e-4 0.20629,-0.01593 0.14547,-0.03215 0.29119,-0.06677 0.43366,-0.110736 0.0961,-0.02535 0.19276,-0.04877 0.29033,-0.06756 0.1396,-0.0413 0.27372,-0.09856 0.40934,-0.151067 0.11287,-0.06017 0.24214,-0.08453 0.35487,-0.143809 0.11708,-0.06432 0.22672,-0.142068 0.33692,-0.217537 0.141,-0.08524 0.28677,-0.161584 0.43794,-0.227018 0.11166,-0.04641 0.21086,-0.118131 0.31693,-0.176128 0.1285,-0.0927 0.26143,-0.176067 0.40031,-0.252259 0.16225,-0.08769 0.33185,-0.157618 0.50603,-0.217165 0.15629,-0.03557 0.30463,-0.09049 0.44905,-0.158961 0.18313,-0.09826 0.37482,-0.176663 0.57053,-0.245632 0.2277,-0.09389 0.45391,-0.191569 0.6788,-0.291997 0.2506,-0.11554 0.50253,-0.225155 0.76809,-0.301262 0.15696,-0.04108 0.31901,-0.04448 0.47974,-0.05553 0.19097,-0.02326 0.3816,-0.04391 0.5741,-0.04625 0.23213,-0.0076 0.45294,0.0505 0.66944,0.126521 0.12985,0.06195 0.26774,0.05024 0.40726,0.04251 0.22736,-0.01497 0.45475,-0.0232 0.6826,-0.02146 0.20486,2.65e-4 0.39448,0.07075 0.58292,0.142743 0.14488,0.05356 0.29523,0.09266 0.44972,0.101521 0.0806,-0.0095 0.15962,-0.01789 0.24112,-0.0195 0.13353,0.0058 0.26362,0.0035 0.38634,-0.05274 0.23402,-0.154723 0.44258,-0.344222 0.66101,-0.51971 0.13642,-0.09735 0.26584,-0.218707 0.42431,-0.281252 0.0653,-0.0258 0.13294,-0.0373 0.20114,-0.05176 0.12528,-0.01291 0.24985,-0.03097 0.37476,-0.0469 0.16982,-0.01847 0.33346,0.0029 0.49645,0.05063 0.22595,0.07698 0.4322,0.199422 0.64077,0.313534 0.2147,0.100597 0.40329,0.243692 0.58794,0.390212 0.23472,0.190313 0.46005,0.391097 0.67807,0.60025 0.0251,0.02281 0.24442,0.244398 0.19743,0.284004 -0.0612,0.05163 -0.1344,0.08719 -0.20161,0.130775 -0.001,-7.93e-4 0.0104,-0.01497 0.0114,-0.01418 v 0 c -0.0412,0.06361 -0.073,0.134342 -0.12351,0.190817 -0.034,0.03805 -0.25075,-0.160467 -0.27381,-0.182575 -0.21316,-0.198655 -0.42399,-0.399958 -0.64376,-0.591318 -0.15624,-0.134988 -0.32424,-0.252113 -0.51081,-0.342125 -0.18362,-0.09652 -0.3619,-0.20466 -0.55533,-0.281058 -0.10022,-0.03113 -0.20354,-0.04571 -0.30822,-0.02817 -0.11135,0.0173 -0.22239,0.03689 -0.33353,0.0554 -0.16701,0.04854 -0.26786,0.233243 -0.41416,0.317949 -0.25877,0.213797 -0.51582,0.442868 -0.84039,0.550429 -0.17129,0.04018 -0.34121,0.05074 -0.51664,0.03478 -0.0893,-7.93e-4 -0.17763,0.03102 -0.26787,0.02143 -0.20488,-0.0089 -0.40516,-0.05251 -0.59404,-0.134012 -0.13523,-0.05439 -0.26179,-0.109193 -0.41159,-0.09215 -0.22861,0.0091 -0.45702,0.02297 -0.68587,0.02495 -0.18883,-0.0054 -0.37586,-0.02127 -0.55368,-0.09083 -0.16717,-0.05353 -0.34002,-0.08285 -0.51619,-0.07794 -0.18386,0.0069 -0.36736,0.01918 -0.55113,0.02762 -0.1267,0.0092 -0.25235,0.03075 -0.37275,0.07251 -0.24655,0.08568 -0.47878,0.205261 -0.7198,0.30479 -0.23365,0.09553 -0.46703,0.191952 -0.70425,0.278402 -0.18537,0.07283 -0.36565,0.15544 -0.54626,0.23931 -0.15641,0.0634 -0.31864,0.106344 -0.47848,0.159105 -0.14996,0.05783 -0.29314,0.131342 -0.43509,0.206433 -0.13691,0.07602 -0.26145,0.171262 -0.3991,0.245986 -0.11196,0.0643 -0.2263,0.124158 -0.34337,0.178528 -0.12939,0.07055 -0.2569,0.144819 -0.38033,0.225446 -0.13071,0.08005 -0.26086,0.162573 -0.40222,0.222948 -0.12729,0.05424 -0.2516,0.115157 -0.38041,0.165767 -0.15839,0.06145 -0.31993,0.11815 -0.48837,0.144624 -0.0834,0.01802 -0.16477,0.04226 -0.24376,0.07508 -0.17043,0.05287 -0.34479,0.09549 -0.52354,0.106466 -0.0658,0.0019 -0.13265,-0.0028 -0.19675,0.01482 -0.18555,0.03889 -0.37448,0.06295 -0.56429,0.0637 -0.21296,0.0019 -0.42574,-0.007 -0.6379,-0.02551 -0.14124,-0.01437 -0.28297,-0.02323 -0.42374,-0.04196 -0.21449,-0.04085 -0.42649,-0.09475 -0.62369,-0.191447 -0.20428,-0.09369 -0.40545,-0.194008 -0.61133,-0.284221 -0.13896,-0.06709 -0.27188,-0.147433 -0.41743,-0.20016 -0.2217,-0.09576 -0.44301,-0.195093 -0.6355,-0.343818 -0.21586,-0.179871 -0.40606,-0.384294 -0.59432,-0.592531 -0.17704,-0.187164 -0.37094,-0.354587 -0.57416,-0.512893 -0.19892,-0.170648 -0.38085,-0.358097 -0.51457,-0.58561 -0.0904,-0.142888 -0.19112,-0.270002 -0.34656,-0.347324 -0.16586,-0.08689 -0.34189,-0.146203 -0.53104,-0.150976 -0.27395,0.0069 -0.53447,0.08807 -0.7941,0.170982 -0.36594,0.120956 -0.7309,0.245784 -1.10155,0.351649 -0.26586,0.06521 -0.53381,0.105474 -0.80542,0.137353 -0.25934,0.06194 -0.48682,0.194977 -0.71025,0.337545 -0.24236,0.148535 -0.49136,0.284787 -0.74894,0.405392 -0.25991,0.133197 -0.51443,0.276043 -0.76634,0.423807 -0.17876,0.104963 -0.35637,0.213085 -0.51817,0.343384 -0.26425,0.211786 -0.50922,0.451946 -0.81072,0.612402 -0.15985,0.07777 -0.17987,0.09466 -0.34752,0.14854 -0.20919,0.06724 -0.42758,0.100632 -0.63784,0.163883 -0.25233,0.08486 -0.49926,0.193101 -0.76413,0.232563 -0.26443,0.02529 -0.52884,0.01066 -0.7915,-0.02891 -0.22638,-0.03935 -0.45293,-0.08321 -0.66655,-0.170934 -0.22334,-0.08385 -0.44603,-0.172688 -0.64851,-0.300691 -0.16906,-0.09558 -0.33617,-0.194635 -0.50798,-0.285276 -0.17742,-0.09391 -0.35641,-0.184872 -0.53833,-0.269851 -0.18946,-0.08954 -0.38511,-0.1841 -0.59638,-0.203698 -0.17869,0.005 -0.3428,0.08966 -0.51064,0.142534 -0.20523,0.07448 -0.41084,0.147783 -0.61867,0.214717 -0.1978,0.06654 -0.39731,0.131541 -0.60451,0.161796 -0.25004,0.02836 -0.50068,0.04761 -0.75254,0.04763 -0.24724,0.0011 -0.49571,0.0024 -0.74095,-0.03378 -0.15581,-0.01926 -0.31057,-0.04554 -0.46159,-0.08936 -0.10826,-0.02726 -0.21488,-0.05867 -0.31671,-0.105095 -0.13915,-0.06113 -0.2796,-0.120026 -0.41178,-0.195641 -0.11288,-0.06609 -0.22056,-0.140094 -0.32201,-0.222837 -0.0969,-0.07779 -0.18126,-0.169101 -0.27743,-0.247761 -0.12559,-0.09336 -0.2503,-0.188839 -0.34813,-0.312608 -0.0865,-0.112731 -0.17826,-0.220954 -0.26844,-0.330719 -0.0942,-0.110469 -0.19943,-0.211383 -0.28705,-0.327498 -0.0966,-0.129437 -0.18223,-0.266806 -0.28105,-0.3947 -0.13365,-0.171554 -0.26614,-0.343901 -0.38791,-0.524177 -0.0717,-0.109408 -0.14309,-0.218956 -0.21448,-0.328422 -0.0883,-0.107492 -0.15574,-0.229068 -0.23709,-0.341739 -0.16291,-0.220879 -0.33574,-0.434371 -0.52639,-0.632131 -0.14628,-0.153768 -0.29296,-0.307071 -0.42698,-0.471864 -0.12442,-0.128307 -0.26857,-0.229097 -0.42963,-0.307382 -0.17156,-0.08707 -0.34499,-0.172458 -0.4954,-0.294484 -0.1791,-0.124177 -0.36746,-0.23304 -0.55237,-0.348165 -0.20926,-0.132001 -0.408,-0.287684 -0.64448,-0.369017 -0.27183,-0.08252 -0.55413,-0.109358 -0.83246,-0.162766 -0.18767,-0.03734 -0.37644,-0.08351 -0.56733,-0.03821 -0.17665,0.04915 -0.34201,0.127172 -0.51719,0.180525 -0.0194,0.0049 -0.0388,0.0098 -0.0582,0.01468 -0.013,0.0024 -0.0262,0.0039 -0.0391,0.0071 -0.005,0.0013 0.0114,-0.0019 0.0165,2.43e-4 0.003,0.0013 -0.006,0.01246 -0.004,0.01019 0.0191,-0.01556 0.0356,-0.03392 0.0535,-0.05088 -0.14396,0.18219 -0.27452,0.374333 -0.42025,0.555205 -0.0965,0.123986 -0.20608,0.240429 -0.28229,0.37828 -0.0726,0.169045 -0.16096,0.329811 -0.24529,0.493201 -0.12302,0.267925 -0.22714,0.544092 -0.36064,0.807022 -0.16196,0.27945 -0.33202,0.554347 -0.50022,0.830051 -0.23697,0.365813 -0.48546,0.724553 -0.76814,1.057 -0.1413,0.173259 -0.28232,0.346495 -0.4245,0.518953 -0.10734,0.145577 -0.19916,0.304758 -0.35025,0.411912 -0.1307,0.08532 -0.265,0.165155 -0.39066,0.258082 -0.23029,0.161195 -0.458511,0.327956 -0.712571,0.450813 -0.11428,0.05235 -0.23161,0.08803 -0.35048,0.126762 -0.14604,0.07633 -0.28478,0.166169 -0.43392,0.236815 -0.29387,0.140256 -0.59668,0.260303 -0.909236,0.352603 -0.25271,0.07495 -0.50497,0.152095 -0.76152,0.213132 -0.20807,0.04616 -0.41908,0.06388 -0.6311,0.03087 -0.15065,-0.01556 -0.30358,-0.03949 -0.45276,5.29e-4 -0.20788,0.05516 -0.41257,0.122489 -0.62336,0.166704 -0.2602,0.05748 -0.52129,0.111209 -0.7793,0.177948 -0.24178,0.06975 -0.48523,0.143261 -0.73712,0.164298 -0.23594,0.02111 -0.47282,0.02093 -0.70808,-0.01029 -0.13788,-0.02111 -0.27391,-0.05137 -0.41134,-0.07427 -0.15575,-0.01344 -0.3127,-0.0082 -0.46848,-0.0222 -0.0856,-0.006 -0.1868,-0.02946 -0.27016,-0.0075 -0.10286,0.06003 -0.21505,0.0982 -0.33349,0.113268 -0.1422,0.01376 -0.28399,0.0092 -0.42646,0.01315 -0.1261,0.01751 -0.2379,0.08754 -0.3542,0.135003 -0.21726,0.101085 -0.43573,0.201653 -0.66678,0.267788 -0.21155,0.06297 -0.42615,0.114001 -0.64169,0.161454 -0.14765,0.03462 -0.29575,0.06729 -0.44871,0.06049 -0.29497,-0.01886 -0.58859,-0.06154 -0.87503,-0.135554 -0.0225,-0.0054 0.0547,-0.324027 0.0772,-0.318569 z"
       inkscape:connector-curvature="0" />
    <path
       style="opacity:1;fill:#000000;fill-opacity:1;stroke:none;stroke-width:0.00287424"
       id="path6800"
       d="m 149.2208,76.063595 c 0.23245,0.235292 0.43628,0.496166 0.66828,0.731931 0.12292,0.126574 0.27305,0.219813 0.40806,0.332105 0.0802,0.04999 0.12144,0.165168 0.19868,0.208518 0.11024,0.01611 0.21136,0.06993 0.30553,0.12673 0.0755,0.04066 0.13983,0.108696 0.22262,0.135493 0.0312,-0.01064 0.0712,-0.01167 0.10681,-0.01098 0.1163,-2.65e-4 0.22546,0.03913 0.33057,0.08483 0.0121,0.0058 0.0244,0.01095 0.0362,0.01728 0.0722,0.03871 0.003,0.0092 0.0171,-0.0028 0.10811,-0.01172 0.21601,0.0052 0.32412,0.0035 0.0243,0.05964 0.0619,-0.05071 0.0492,-0.04331 -0.0498,0.02898 -0.1003,0.100923 -0.0348,0.01527 0.0777,-0.128455 0.16838,-0.247835 0.26443,-0.362945 0.0918,-0.132006 0.14423,-0.287769 0.21193,-0.433157 0.0846,-0.171154 0.17245,-0.34099 0.28061,-0.498573 0.0184,-0.03123 0.18253,-0.182737 0.17092,-0.19744 -0.007,-0.0089 -0.0361,0.02516 -0.0301,0.01556 0.0242,-0.039 0.0578,-0.07126 0.0867,-0.106884 0.3347,-0.415372 0.73827,-0.764198 1.17424,-1.068189 0.1393,-0.09666 0.286,-0.181747 0.4326,-0.266612 0.0385,-0.02225 0.14428,-0.100907 0.11491,-0.06756 -0.0248,0.02816 -0.0563,0.04962 -0.0844,0.07443 0.0822,-0.136189 0.16293,-0.285078 0.24821,-0.423619 0.0817,-0.134811 0.18188,-0.258146 0.25932,-0.395536 0.035,-0.209209 0.11046,-0.403471 0.19818,-0.595673 0.15417,-0.323056 0.36599,-0.610957 0.61063,-0.870384 0.17901,-0.18424 0.39038,-0.339666 0.56537,-0.523202 0.13997,-0.135922 0.25944,-0.290325 0.3828,-0.440857 0.10227,-0.140383 0.22866,-0.195932 0.38123,-0.254431 0.24817,-0.10077 0.50759,-0.170784 0.76681,-0.236607 0.33355,-0.08248 0.67433,-0.115739 1.01565,-0.07548 0.178,0.02426 0.32473,0.115411 0.47034,0.21287 0.14269,0.08068 0.30279,0.125035 0.45029,0.19744 0.17739,0.08306 0.31276,0.223042 0.44256,0.365387 0.12373,0.143315 0.23819,0.293918 0.34903,0.4473 0.12815,0.179078 0.22542,0.374208 0.28971,0.58444 0.0372,0.17076 0.0828,0.339215 0.12499,0.508733 0.0441,0.18024 0.0624,0.365284 0.0814,0.549458 0.0198,0.225293 0.0143,0.45176 0.007,0.677481 -0.003,0.107387 -0.0226,0.215403 -0.002,0.32184 0.036,0.130262 0.0593,0.262765 0.0731,0.397158 0.01,0.08173 0.0141,0.163965 0.0333,0.244184 0.0337,0.06893 0.061,0.139996 0.0845,0.213127 0.0174,0.08381 0.0647,0.153463 0.10775,0.225586 0.0399,0.06324 0.088,0.120735 0.12782,0.184195 0.0314,0.04655 0.0552,0.09964 0.0991,0.136263 0.089,0.06775 0.14978,0.161621 0.2114,0.253013 0.0377,0.06488 0.0772,0.129048 0.11441,0.194077 0.061,0.03185 0.11481,0.08905 0.16462,0.138624 0.058,0.06027 0.12198,0.113088 0.19295,0.157226 0.0978,0.0579 0.19706,0.11304 0.29687,0.167338 0.099,0.05217 0.2039,0.09449 0.31405,0.115485 0.0664,0.0181 0.13216,0.01085 0.19948,0.0046 0.11345,-0.01064 0.22847,-0.01384 0.34005,-0.03844 0.0964,-0.02982 0.17796,-0.09548 0.26003,-0.15267 0.0498,-0.0097 0.38962,-0.334531 0.1712,-0.115941 0.0471,-0.08349 0.0764,-0.191161 0.11807,-0.282754 0.1343,-0.230775 0.33955,-0.408469 0.54249,-0.577684 0.16032,-0.136059 0.3251,-0.265882 0.48307,-0.404751 0.14669,-0.135216 0.29122,-0.272405 0.44451,-0.40014 0.11932,-0.09846 0.2628,-0.150715 0.40809,-0.196588 0.11721,-0.0403 0.23535,-0.07785 0.3526,-0.11802 0.19013,-0.05327 0.15494,-0.02724 0.11275,0.346651 -0.004,0.03783 -0.0311,-0.06949 -0.0467,-0.104227 -10e-4,3.2e-5 -10e-4,-0.01318 -5.3e-4,-0.0132 v 0 c 0.008,-0.03929 0.007,-0.154286 0.0236,-0.117877 0.14478,0.315116 0.16451,0.320418 -0.0101,0.390914 -0.11955,0.04233 -0.24007,0.08168 -0.36131,0.118914 -0.091,0.03101 -0.16932,0.07938 -0.23712,0.148556 -0.1454,0.139877 -0.29043,0.280395 -0.44607,0.409046 -0.16081,0.139279 -0.32567,0.273738 -0.48688,0.412575 -0.1521,0.130493 -0.15024,0.118068 -0.29055,0.262406 -0.0833,0.09766 -0.0916,0.230439 -0.1522,0.341334 -0.1342,0.148442 -0.27326,0.283083 -0.44768,0.384577 -0.13101,0.07763 -0.26771,0.146685 -0.41862,0.17562 -0.13318,0.02432 -0.26827,0.03129 -0.40349,0.03498 -0.10308,5.29e-4 -0.20591,-0.0043 -0.30726,-0.0249 -0.14928,-0.03508 -0.29523,-0.08144 -0.42722,-0.161967 -0.10981,-0.06055 -0.21514,-0.128588 -0.32258,-0.193183 -0.0915,-0.06298 -0.18038,-0.131567 -0.25607,-0.213273 -0.0611,-0.06148 -0.12729,-0.115554 -0.18806,-0.177262 -0.0616,-0.06711 -0.10596,-0.147133 -0.15262,-0.224841 -0.0381,-0.06409 -0.0734,-0.127767 -0.13293,-0.174887 -0.0669,-0.06247 -0.12525,-0.133837 -0.1655,-0.216656 -0.045,-0.0652 -0.0983,-0.12354 -0.14216,-0.189601 -0.0635,-0.102174 -0.12576,-0.206205 -0.15689,-0.323527 -0.0204,-0.07672 -0.0438,-0.149847 -0.0798,-0.22112 -0.0301,-0.100669 -0.0593,-0.201959 -0.0692,-0.307047 -0.0132,-0.11985 -0.0181,-0.240866 -0.0491,-0.357973 -0.0303,-0.136998 -0.0462,-0.275465 -0.039,-0.416139 0.004,-0.210971 0.0121,-0.422016 0.005,-0.632997 -0.009,-0.160753 -0.024,-0.321265 -0.0523,-0.479851 -0.0447,-0.163322 -0.0872,-0.326885 -0.11879,-0.493395 -0.05,-0.167278 -0.12281,-0.324467 -0.22477,-0.467117 -0.0976,-0.143142 -0.19987,-0.283062 -0.30804,-0.418391 -0.0909,-0.104558 -0.1884,-0.201641 -0.31682,-0.259413 -0.16674,-0.07563 -0.34233,-0.136136 -0.49342,-0.241983 -0.0903,-0.06051 -0.17108,-0.117258 -0.28568,-0.113498 -0.29848,-0.008 -0.59323,0.04311 -0.88392,0.107167 -0.24266,0.05337 -0.4851,0.109469 -0.72317,0.180917 -0.0706,0.02458 -0.15761,0.09692 -0.0127,-0.03394 0.01,-0.0091 -0.0162,0.02177 -0.0242,0.03267 -0.13257,0.152683 -0.21953,0.345033 -0.37326,0.48165 -0.17745,0.177226 -0.37794,0.365961 -0.56054,0.520226 -0.21905,0.226063 -0.39813,0.483749 -0.55426,0.756913 -0.0905,0.162443 -0.19099,0.325908 -0.22421,0.511651 -0.0394,0.192447 -0.14527,0.356513 -0.25543,0.516686 -0.1048,0.16101 -0.21832,0.316563 -0.31375,0.483473 -0.20487,0.193352 -0.42973,0.359503 -0.66066,0.521068 -0.33165,0.252537 -0.65088,0.520835 -0.94925,0.81221 -0.0861,0.08317 -0.16926,0.169558 -0.25815,0.249772 -0.0168,0.01516 -0.0365,0.02686 -0.0552,0.03954 -0.007,0.0045 -0.026,0.0181 -0.0209,0.01193 0.0261,-0.03157 0.12594,-0.122611 0.0835,-0.09006 -0.0943,0.14677 -0.15636,0.312375 -0.24559,0.462119 -0.0897,0.161986 -0.16213,0.332687 -0.25674,0.491667 -0.0846,0.118933 -0.18091,0.229346 -0.26106,0.351523 -0.12108,0.175728 -0.26202,0.295783 -0.48103,0.29043 -0.0938,-0.004 -0.18729,-0.01667 -0.28095,-0.0164 -0.0782,-0.0024 -0.14879,-0.02106 -0.2192,-0.05455 -0.0628,-0.02358 -0.12632,-0.04669 -0.19392,-0.05058 -0.0773,0.0059 -0.15618,0.0037 -0.23013,-0.02196 -0.10375,-0.03963 -0.19735,-0.09801 -0.28751,-0.162578 -0.0913,-0.05725 -0.1888,-0.09898 -0.28635,-0.14424 -0.0972,-0.06548 -0.16954,-0.152776 -0.25132,-0.235818 -0.13918,-0.120984 -0.3019,-0.212373 -0.43452,-0.341638 -0.24975,-0.238832 -0.47845,-0.500092 -0.66493,-0.791999 -0.0169,-0.02066 0.27524,-0.260035 0.29217,-0.239373 z"
       inkscape:connector-curvature="0" />
    <path
       style="fill:none;fill-rule:evenodd;stroke:#000000;stroke-width:0.26458332px;stroke-linecap:butt;stroke-linejoin:miter;stroke-opacity:1"
       d="m 124.86498,35.222765 c -0.0288,0.06656 -0.0704,0.128925 -0.0863,0.19967 -0.0135,0.06013 0,0.123254 0,0.18488 0,0.278444 -0.008,0.204278 0.0288,0.502873 0.0465,0.378216 0.0482,0.276618 0.0863,0.687752 0.007,0.07057 0.0547,0.772639 0.0575,0.828261 0.0209,0.418896 0.0144,0.837972 0.0144,1.257182 0,0.226785 -0.006,0.45364 0,0.680357 0.002,0.08638 0.0115,0.172468 0.0144,0.258831 0.0137,0.416888 -0.0163,0.0056 0.0144,0.273622 0.001,0.0098 0.01,0.02958 0,0.02958 -0.01,0 0,-0.01972 0,-0.02958"
       id="path6823"
       inkscape:connector-curvature="0" />
    <path
       style="fill:none;fill-rule:evenodd;stroke:#000000;stroke-width:0.26458332px;stroke-linecap:butt;stroke-linejoin:miter;stroke-opacity:1"
       d="m 122.76556,36.221116 c 0.27202,0.126229 0.56047,0.210255 0.83402,0.332783 0.25301,0.113332 0.50868,0.236651 0.74773,0.377155 0.2323,0.136537 0.45322,0.29242 0.67584,0.443711 0.2879,0.195652 0.11036,0.07004 0.38825,0.251436 0.19312,0.126062 0.38157,0.259167 0.57518,0.38455 0.17935,0.11615 0.36548,0.230099 0.5608,0.317993 0.0562,0.0253 0.11564,0.04286 0.17255,0.06656 0.0727,0.03026 0.14426,0.06307 0.2157,0.09614 0.0195,0.0091 0.0383,0.01972 0.0575,0.02958 0.01,0.0049 0.0384,0.0099 0.0288,0.01479 -0.017,0.0088 -0.0383,0 -0.0575,0"
       id="path6861"
       inkscape:connector-curvature="0" />
    <path
       style="fill:none;fill-rule:evenodd;stroke:#000000;stroke-width:0.26458332px;stroke-linecap:butt;stroke-linejoin:miter;stroke-opacity:1"
       d="m 123.11067,38.883383 c 0.41703,-0.327926 0.83499,-0.65439 1.25102,-0.98356 0.0623,-0.0493 0.12257,-0.101316 0.18693,-0.147904 0.0502,-0.03633 0.37145,-0.242917 0.41701,-0.273622 0.26243,-0.176847 0.52343,-0.355777 0.79087,-0.525058 0.22236,-0.140743 0.15421,-0.08013 0.37387,-0.229251 0.0589,-0.03997 0.11368,-0.08575 0.17256,-0.125718 0.061,-0.04142 0.12611,-0.07662 0.18693,-0.118323 0.10861,-0.07447 0.21393,-0.153871 0.31635,-0.236646 0.2534,-0.204792 0.0366,-0.04548 0.27321,-0.244041 0.0464,-0.03891 0.0959,-0.07395 0.1438,-0.110928 0.26835,-0.207012 -0.006,0.01046 0.18693,-0.155299 0.0184,-0.01576 0.0406,-0.02701 0.0575,-0.04437 0.008,-0.0079 0.008,-0.02038 0.0144,-0.02958 0.004,-0.0058 0.021,-0.0165 0.0144,-0.01479 -0.0365,0.0094 -0.0671,0.03451 -0.10066,0.05177"
       id="path6863"
       inkscape:connector-curvature="0" />
    <path
       style="fill:none;fill-rule:evenodd;stroke:#000000;stroke-width:0.26458332px;stroke-linecap:butt;stroke-linejoin:miter;stroke-opacity:1"
       d="m 122.99564,37.530064 c 0.0815,-0.0074 0.16275,-0.01769 0.24445,-0.02219 0.11486,-0.0063 0.23007,0 0.34511,0 0.24938,0 0.49846,0.0022 0.74773,-0.0074 0.30246,-0.01167 0.60388,-0.03371 0.90591,-0.05177 0.39293,-0.0235 0.78553,-0.03698 1.17912,-0.03698 0.24442,0 0.48901,-0.01223 0.73336,-0.0074 0.21649,0.0043 0.091,0.0076 0.27321,0.01479 0.0985,0.0039 0.042,-0.01024 0.11504,0.01479"
       id="path6865"
       inkscape:connector-curvature="0" />
    <path
       style="opacity:1;fill:#000000;fill-opacity:1;stroke:none;stroke-width:0.00287424"
       id="path6885"
       d="m 123.9596,39.388032 c 0.0991,-0.527706 0.31891,-1.024115 0.53876,-1.510675 0.27799,-0.60516 0.6461,-1.159815 1.05598,-1.682312 0.17596,-0.211789 0.35725,-0.418863 0.50727,-0.650199 0.005,0.0025 0.01,0.004 0.0139,0.0074 0.0247,0.02141 0.0426,0.05201 0.0716,0.06686 0.009,0.0044 0.0263,-0.01163 0.021,-0.01959 -0.009,-0.0142 -0.0315,-0.01318 -0.0473,-0.01977 -7.9e-4,4.5e-4 -0.007,-0.01193 -0.006,-0.01237 v 0 c 0.003,-0.0228 -0.002,-0.04884 0.01,-0.06839 0.0702,-0.112628 0.17374,-0.01009 0.18275,0.08064 -0.0468,0.292727 -0.28036,0.518319 -0.44029,0.75419 -0.37562,0.517806 -0.71982,1.058684 -0.999,1.635329 -0.23354,0.477942 -0.45572,0.960995 -0.6736,1.446251 -0.002,0.01661 -0.23679,-0.01076 -0.23485,-0.02736 z"
       inkscape:connector-curvature="0" />
    <path
       style="opacity:1;fill:#000000;fill-opacity:1;stroke:none;stroke-width:0.00287424"
       id="path6887"
       d="m 124.10401,35.62007 c 0.20165,0.3713 0.44122,0.719023 0.68246,1.065175 0.21905,0.311936 0.42733,0.632273 0.5968,0.974291 0.10245,0.206784 0.14387,0.315701 0.23261,0.528387 0.1924,0.481807 0.36194,0.972915 0.5672,1.449487 0.0478,0.106064 0.101,0.210203 0.18156,0.295333 0.0227,0.02402 0.0539,0.0279 0.0372,0.05575 0.007,0.01132 0.0135,0.02265 0.0203,0.03398 1.5e-4,-7.14e-4 0.0101,0.0015 0.01,0.0022 v 0 c -5.3e-4,0.02824 -0.001,0.05648 -0.002,0.08472 -0.0221,0.01388 -0.041,0.03531 -0.0664,0.04164 -0.18126,0.04523 -0.37135,-0.25289 -0.4404,-0.373491 -0.23766,-0.46566 -0.41214,-0.959028 -0.59961,-1.4463 -0.0863,-0.208312 -0.12194,-0.304099 -0.22156,-0.506181 -0.16412,-0.332916 -0.37051,-0.641493 -0.58057,-0.946678 -0.24663,-0.365039 -0.50979,-0.733891 -0.63466,-1.161727 -0.007,-0.01532 0.20979,-0.111882 0.21662,-0.09656 z"
       inkscape:connector-curvature="0" />
    <path
       style="fill:none;fill-rule:evenodd;stroke:#000000;stroke-width:0.26458332px;stroke-linecap:butt;stroke-linejoin:miter;stroke-opacity:1"
       d="M 86.728131,21.7977 86.524774,33.082284"
       id="path6893"
       inkscape:connector-curvature="0" />
    <path
       style="fill:none;fill-rule:evenodd;stroke:#000000;stroke-width:0.26458332px;stroke-linecap:butt;stroke-linejoin:miter;stroke-opacity:1"
       d="m 86.524774,33.082284 c 0.162686,0 0.162686,0 0,0 z"
       id="path6895"
       inkscape:connector-curvature="0" />
    <path
       style="fill:none;fill-rule:evenodd;stroke:#000000;stroke-width:0.26458332px;stroke-linecap:butt;stroke-linejoin:miter;stroke-opacity:1"
       d="m 86.524774,33.082284 82.929086,-0.313751 0.0116,-11.296205"
       id="path6899"
       inkscape:connector-curvature="0"
       sodipodi:nodetypes="ccc" />
    <path
       style="fill:none;fill-rule:evenodd;stroke:#000000;stroke-width:0.26458332px;stroke-linecap:butt;stroke-linejoin:miter;stroke-opacity:1"
       d="M 169.46546,21.472328 86.728131,21.7977"
       id="path6901"
       inkscape:connector-curvature="0"
       sodipodi:nodetypes="cc" />
    <path
       style="fill:none;fill-rule:evenodd;stroke:#000000;stroke-width:0.26458332px;stroke-linecap:butt;stroke-linejoin:miter;stroke-opacity:1"
       d="m 106.43926,41.524514 v 16.12681 l 42.98972,-0.418335 V 41.691848 l -42.98972,-0.167334"
       id="path6907"
       inkscape:connector-curvature="0"
       sodipodi:nodetypes="ccccc" />
    <path
       style="fill:none;fill-rule:evenodd;stroke:#000000;stroke-width:0.26458332px;stroke-linecap:butt;stroke-linejoin:miter;stroke-opacity:1"
       d="m 86.986686,65.998269 c 0,0.648419 0,16.754313 0,16.754313 H 167.23145 V 65.977353 Z"
       id="path6909"
       inkscape:connector-curvature="0" />
  </g>
</svg>
